<svg width="85" height="81" viewBox="0 0 85 81" fill="none" xmlns="http://www.w3.org/2000/svg">
<g clip-path="url(#clip0_1749_2603)">
<path d="M77.1625 40.0092L68.6069 37.3055C67.8919 37.0794 67.1435 37.0469 66.4343 37.1936C66.4552 37.1183 66.4855 37.0456 66.5022 36.9712C66.9196 35.1631 66.1507 33.2874 64.5849 32.2964L58.8422 28.6544C59.034 28.4524 59.2089 28.2315 59.3607 27.9839L60.038 26.8954C60.6514 25.9127 60.8517 24.7254 60.588 23.5972C60.3286 22.4681 59.6312 21.4865 58.6496 20.8716L51.0594 16.1153C49.4706 15.12 47.4925 15.2774 46.0889 16.3558L42.4741 14.0361C41.4994 13.411 40.324 13.1943 39.1865 13.4465C39.0332 13.4807 38.8858 13.5227 38.7401 13.5733C38.4694 13.301 38.1644 13.0576 37.8146 12.8585C37.8103 12.8594 37.4447 12.5788 37.2384 12.2717C37.1247 12.098 37.0321 11.9646 37.3922 11.3249C38.5794 9.22485 37.8437 6.55931 35.7502 5.36826C33.6772 4.19104 31.0503 4.89736 29.8437 6.94336C29.201 7.95843 28.7514 7.70307 28.2763 7.43044C26.1785 6.24022 23.5173 6.97547 22.3292 9.07128C21.1549 11.1466 21.8617 13.7777 23.9055 14.9873C24.864 15.5978 24.6864 16.0329 24.4402 16.4813C22.6381 16.195 20.8054 16.0259 18.9602 15.975L13.9874 15.8376C12.4458 15.7944 11.0045 16.5641 10.1824 17.8678C9.52248 18.9084 9.3526 20.161 9.664 21.3289C9.26957 21.4946 8.89966 21.7178 8.56628 21.9918C6.82485 21.7204 5.02223 22.5292 4.10265 24.1544C3.5699 25.0947 3.42497 26.1555 3.61666 27.1419C3.75502 27.8539 4.06894 28.5317 4.54427 29.1025C4.46467 29.6076 4.47832 30.1124 4.57417 30.6056C4.8092 31.8151 5.55216 32.9169 6.70638 33.5739C7.64991 34.1072 8.70495 34.2538 9.68986 34.0624C10.4007 33.9242 11.0774 33.6102 11.6471 33.1345C13.0175 33.3489 14.4162 32.8857 15.4053 31.8924C15.897 32.5935 16.4077 33.2776 16.9407 33.9396C17.0351 34.0592 17.1372 34.1729 17.2419 34.2772C17.3466 34.5417 17.4813 34.8004 17.6452 35.049L17.2903 35.5096C15.8837 37.3274 16.1357 39.9045 17.8133 41.4256C16.927 43.2447 17.4047 45.4974 19.0639 46.7862L26.3926 52.4835C27.3087 53.1956 28.4638 53.5142 29.6128 53.3666C29.7078 53.3526 29.8028 53.3385 29.897 53.3202C30.9333 53.1188 31.862 52.5467 32.5123 51.7082L32.8672 51.2475C33.1962 52.1628 33.8185 52.941 34.6397 53.4624L46.4534 60.9719C47.4162 61.5815 48.5523 61.7792 49.6229 61.5711C50.1881 61.4613 50.7343 61.2305 51.2289 60.8941C51.3762 61.6977 51.7427 62.4633 52.3119 63.0826L58.4099 69.6733C59.1969 70.5218 60.286 71.0268 61.4451 71.0686C61.7813 71.0834 62.1177 71.0536 62.4432 70.9904C63.2354 70.8364 63.9765 70.4654 64.5749 69.9085L65.512 69.0365C67.2778 67.3981 67.3845 64.6312 65.7432 62.8627L64.3707 61.3802C64.4686 61.152 64.5417 60.9107 64.6003 60.6635C64.8664 59.4946 64.6271 58.2859 63.9828 57.3029L64.9765 57.5682C65.6284 57.7442 66.2931 57.7574 66.9269 57.6343C68.0788 57.4104 69.1236 56.7267 69.7792 55.6869C70.7997 54.0776 70.6564 51.9913 69.431 50.5336L69.3043 50.3847C70.1542 50.3219 70.9832 50.0139 71.6739 49.4746C71.8749 49.3199 72.0589 49.1461 72.2232 48.9628L74.1503 49.572C74.8507 49.792 75.5872 49.8313 76.2938 49.694C76.7006 49.615 77.1 49.475 77.4757 49.2819C78.5009 48.7488 79.2723 47.8245 79.6219 46.7195L80.0064 45.4964C80.7361 43.1915 79.4594 40.7379 77.1625 40.0092ZM32.5867 31.6469L32.5996 31.6444C32.7238 31.6203 32.8759 31.6486 32.9825 31.7169C33.0942 31.7886 33.1851 31.9134 33.211 32.0463C33.2403 32.1742 33.2121 32.3265 33.1405 32.4384C33.0689 32.5502 32.9435 32.6369 32.8159 32.6661L32.5867 31.6469ZM32.2587 31.8798C32.3226 31.7739 32.4436 31.688 32.5619 31.6562L32.7774 32.6736C32.6609 32.6918 32.5173 32.6618 32.421 32.6004C32.1728 32.4439 32.1017 32.1239 32.2587 31.8798Z" fill="#CFD8DC"/>
<path d="M76.6623 37.4358L68.1066 34.7321C67.3917 34.5061 66.6432 34.4735 65.934 34.6202C65.9549 34.5449 65.9853 34.4723 66.0019 34.3978C66.4193 32.5898 65.6504 30.714 64.0847 29.7231L58.342 26.0811C58.5338 25.8791 58.7086 25.6582 58.8605 25.4106L59.5377 24.322C60.1511 23.3394 60.3515 22.1521 60.0878 21.0239C59.8284 19.8948 59.131 18.9131 58.1494 18.2983L50.5592 13.542C48.9704 12.5467 46.9923 12.7041 45.5887 13.7824L41.9738 11.4627C40.9991 10.8376 39.8238 10.621 38.6863 10.8732C38.5329 10.9074 38.3856 10.9494 38.2399 11C37.9692 10.7277 37.6641 10.4843 37.3144 10.2852C37.3101 10.286 36.9445 10.0055 36.7382 9.69838C36.6244 9.52464 36.5318 9.3913 36.8919 8.75161C38.0792 6.65152 37.3434 3.98598 35.25 2.79493C33.177 1.61771 30.5501 2.32402 29.3434 4.37003C28.7008 5.38509 28.2512 5.12974 27.776 4.8571C25.6783 3.66689 23.017 4.40214 21.8289 6.49795C20.6546 8.57327 21.3615 11.2044 23.4052 12.414C24.3638 13.0244 24.1861 13.4595 23.94 13.9079C22.1379 13.6217 20.3052 13.4526 18.46 13.4017L13.4871 13.2642C11.9456 13.2211 10.5042 13.9908 9.68213 15.2944C9.02223 16.3351 8.85236 17.5876 9.16376 18.7556C8.76933 18.9212 8.39942 19.1445 8.06604 19.4184C6.32461 19.1471 4.52199 19.9558 3.6024 21.5811C3.06966 22.5214 2.92472 23.5821 3.11642 24.5686C3.25477 25.2805 3.5687 25.9584 4.04403 26.5292C3.96442 27.0343 3.97807 27.539 4.07392 28.0323C4.30896 29.2417 5.05191 30.3436 6.20614 31.0006C7.14967 31.5338 8.2047 31.6804 9.18962 31.489C9.90047 31.3509 10.5771 31.0369 11.1469 30.5612C12.5173 30.7756 13.916 30.3124 14.905 29.319C15.3968 30.0202 15.9075 30.7043 16.4405 31.3663C16.5349 31.4859 16.6369 31.5996 16.7416 31.7039C16.8464 31.9684 16.9811 32.2271 17.1449 32.4756L16.79 32.9363C15.3835 34.7541 15.6354 37.3311 17.3131 38.8522C16.4267 40.6713 16.9045 42.9241 18.5637 44.2129L25.8924 49.9101C26.8084 50.6223 27.9635 50.9408 29.1125 50.7932C29.2076 50.7792 29.3026 50.7652 29.3968 50.7469C30.4331 50.5455 31.3618 49.9733 32.0121 49.1348L32.367 48.6742C32.6959 49.5895 33.3182 50.3676 34.1394 50.889L45.9532 58.3986C46.916 59.0082 48.052 59.2058 49.1226 58.9978C49.6879 58.8879 50.2341 58.6572 50.7286 58.3207C50.8759 59.1244 51.2424 59.8899 51.8116 60.5093L57.9096 67.1C58.6967 67.9485 59.7858 68.4534 60.9449 68.4952C61.2811 68.51 61.6175 68.4803 61.9429 68.417C62.7351 68.2631 63.4763 67.892 64.0746 67.3351L65.0117 66.4631C66.7776 64.8248 66.8842 62.0578 65.2429 60.2893L63.8705 58.8068C63.9684 58.5786 64.0415 58.3374 64.1001 58.0901C64.3662 56.9212 64.1269 55.7126 63.4826 54.7295L64.4762 54.9949C65.1281 55.1708 65.7929 55.1841 66.4266 55.0609C67.5786 54.8371 68.6233 54.1533 69.2789 53.1135C70.2994 51.5043 70.1562 49.4179 68.9308 47.9603L68.8041 47.8113C69.654 47.7485 70.4829 47.4405 71.1736 46.9013C71.3746 46.7465 71.5586 46.5728 71.723 46.3895L73.65 46.9987C74.3505 47.2186 75.0869 47.258 75.7935 47.1207C76.2003 47.0416 76.5997 46.9017 76.9755 46.7085C78.0007 46.1755 78.772 45.2511 79.1217 44.1461L79.5062 42.9231C80.2359 40.6181 78.9592 38.1645 76.6623 37.4358ZM32.0865 29.0735L32.0993 29.0711C32.2235 29.0469 32.3757 29.0752 32.4823 29.1435C32.594 29.2153 32.6849 29.34 32.7107 29.473C32.74 29.6008 32.7118 29.7532 32.6403 29.865C32.5687 29.9768 32.4433 30.0635 32.3157 30.0928L32.0865 29.0735ZM31.7585 29.3064C31.8223 29.2005 31.9434 29.1147 32.0616 29.0828L32.2771 30.1003C32.1607 30.1184 32.0171 30.0885 31.9207 30.0271C31.6726 29.8706 31.6015 29.5506 31.7585 29.3064Z" fill="white"/>
<path d="M21.187 27.8223C19.644 25.8967 18.286 23.7794 17.1417 21.5271L16.0398 19.3555L18.4702 19.4218C21.0443 19.4957 23.5845 19.83 26.025 20.4284L26.4376 18.7325C23.8766 18.1086 21.2124 17.7539 18.5185 17.681L13.1565 17.5302L15.5848 22.3192C16.7815 24.6815 18.2083 26.9012 19.8227 28.9198L21.187 27.8223Z" fill="#2576B9"/>
<path d="M46.4707 31.2633C46.2029 32.5838 45.7718 33.8872 45.1844 35.1408L46.7634 35.8799C47.3223 34.6852 47.7488 33.4496 48.047 32.1943L52.2342 34.8523L62.615 33.7074L50.1599 25.8017L42.4638 26.6519L37.0963 23.2485C35.1553 22.019 33.0756 20.9677 30.9187 20.1361L30.2891 21.7673C32.341 22.5614 34.3166 23.5573 36.162 24.7298L46.4707 31.2633ZM49.7459 27.6047L57.4808 32.5109L52.6517 33.0443L44.9168 28.1381L49.7459 27.6047Z" fill="#2576B9"/>
<path d="M20.823 30.0428L21.3336 30.7492L21.845 31.4599C22.0983 31.2772 28.0716 26.8895 29.449 19.4336L27.7343 19.117C26.4863 25.8667 20.8771 30.0012 20.823 30.0428Z" fill="#2576B9"/>
<path d="M28.94 27.5397C28.3586 28.4583 28.1673 29.5548 28.4091 30.6161C28.6466 31.6782 29.2853 32.5867 30.2029 33.1694C31.1154 33.7488 32.1746 33.9168 33.1595 33.7254C34.2215 33.519 35.2018 32.8923 35.8238 31.908C36.4052 30.9894 36.5922 29.8938 36.3547 28.8316C36.1172 27.7695 35.4785 26.861 34.5609 26.2782C33.6433 25.6955 32.5568 25.5016 31.4886 25.7447C30.4274 25.9777 29.5206 26.6168 28.94 27.5397ZM33.6292 27.75C34.714 28.4383 35.0385 29.8797 34.3519 30.9656C33.6652 32.0515 32.2262 32.3757 31.1414 31.6874C30.6144 31.3536 30.2517 30.8366 30.1154 30.2266C29.9799 29.6209 30.085 28.9952 30.4179 28.4676C30.7509 27.94 31.267 27.5771 31.876 27.4409C32.473 27.3115 33.1022 27.4163 33.6292 27.75Z" fill="#2576B9"/>
<path d="M38.9821 32.8686L38.0488 34.3448L51.3868 42.8061L52.3201 41.3299L38.9821 32.8686Z" fill="#2576B9"/>
<path d="M66.7156 38.7101L66.955 41.4053L62.5462 39.8942L61.9824 41.5437L68.9346 43.9315L68.6862 41.1668L75.0781 43.1871L75.6027 41.5185L66.7156 38.7101Z" fill="#2576B9"/>
<path d="M60.4464 57.3536L55.3204 52.0829L54.0727 53.3001L57.3221 56.6433L54.789 57.5806L61.1227 64.4237L62.3993 63.241L57.8465 58.3128L60.4464 57.3536Z" fill="#2576B9"/>
<path d="M54.3893 37.7094L54.3534 37.6852C52.4227 36.4625 50.0436 36.0658 47.8283 36.6031L48.2388 38.3037C49.995 37.8734 51.8876 38.1911 53.4235 39.1656L53.4593 39.1898C54.1441 39.6264 54.7591 40.1612 55.2846 40.7846L61.5323 48.2141L52.1072 45.7016C51.3246 45.4931 50.5811 45.1658 49.8971 44.7335C48.3663 43.7625 47.2733 42.1856 46.9052 40.4056L45.1965 40.7599C45.6624 42.9972 47.0347 44.9826 48.9612 46.2061C49.7927 46.7344 50.701 47.1321 51.6571 47.3869L66.4341 51.3252L56.6166 39.6578C55.9805 38.9001 55.231 38.2446 54.3893 37.7094Z" fill="#2576B9"/>
<path d="M41.3141 42.8496C42.3219 42.044 43.2498 41.1248 44.0883 40.1117L42.7431 38.9978C41.8615 40.0638 40.8718 41.0083 39.7939 41.8186L29.4887 35.28C27.6433 34.1075 25.8989 32.7462 24.3059 31.2265L23.1033 32.4928C24.778 34.0901 26.6118 35.523 28.5536 36.7569L33.9211 40.1603L36.4484 47.4938L48.9069 55.3944L45.5048 45.5025L41.3141 42.8496ZM37.896 46.3446L36.3129 41.7429L44.0486 46.6534L45.6317 51.2551L37.896 46.3446Z" fill="#2576B9"/>
<path d="M39.9337 15.0857L38.9929 16.5569L49.9091 23.5612L50.8499 22.09L39.9337 15.0857Z" fill="#2576B9"/>
<path d="M48.5531 17.1815L47.6282 18.6629L55.2194 23.4193L56.1443 21.938L48.5531 17.1815Z" fill="#2576B9"/>
<path d="M21.3298 34.5575L20.2603 35.9377L27.5888 41.6351L28.6584 40.2549L21.3298 34.5575Z" fill="#2576B9"/>
<path d="M22.3301 39.7044L21.2605 41.0846L28.5891 46.782L29.6586 45.4018L22.3301 39.7044Z" fill="#2576B9"/>
<path d="M33.2782 6.73437C33.2782 6.73437 30.5713 11.511 25.8 8.79738C25.8 8.79738 30.5713 11.511 27.8644 16.2876C27.8644 16.2876 30.5713 11.511 35.3426 14.2246C35.3426 14.2246 30.5713 11.511 33.2782 6.73437Z" fill="#2576B9"/>
<path d="M11.0307 22.9193C11.0307 22.9193 9.78042 25.1296 7.5718 23.8719C7.5718 23.8719 9.77959 25.1253 8.52502 27.3364C8.52502 27.3364 9.77531 25.1262 11.9839 26.3838C11.9831 26.3796 9.77959 25.1253 11.0307 22.9193Z" fill="#2576B9"/>
</g>
<defs>
<clipPath id="clip0_1749_2603">
<rect width="72.031" height="73.1835" fill="white" transform="translate(0 8.57681) rotate(-10.9972)"/>
</clipPath>
</defs>
</svg>
