<svg width="56" height="55" viewBox="0 0 56 55" fill="none" xmlns="http://www.w3.org/2000/svg">
<g clip-path="url(#clip0_1749_2624)">
<path opacity="0.75" d="M46.8428 5.66005C44.3668 4.31817 41.5725 3.60884 38.7637 3.60884C32.5023 3.60884 26.7639 7.02022 23.7905 12.5084C23.3845 13.2543 22.7152 14.4938 20.9378 26.0698L20.9085 26.1246C20.4733 26.9254 20.3709 27.8175 20.5501 28.6439C20.3892 29.7261 20.2319 30.8048 20.0856 31.8468C19.8296 33.6384 20.3014 35.4264 21.3218 36.8451C21.1755 37.1924 21.0658 37.5507 20.9853 37.9164C20.9231 37.931 20.8646 37.9456 20.8024 37.9639C19.3432 38.399 18.1362 39.3753 17.4084 40.7171L16.3405 42.6879C15.6127 44.0261 15.4517 45.5691 15.887 47.0317C16.3222 48.4942 17.2987 49.6971 18.6373 50.4248L24.7414 53.7301C25.5753 54.1798 26.5152 54.4211 27.4552 54.4211C28.0074 54.4211 28.556 54.3407 29.0863 54.1835C30.5456 53.7484 31.7526 52.7721 32.4767 51.4339L33.5447 49.4595C34.3237 48.0189 34.4151 46.3881 33.9323 44.9439C34.1957 44.6806 34.4371 44.3918 34.6492 44.0773C34.7552 44.081 34.8613 44.0846 34.9674 44.0846C36.6424 44.0846 38.259 43.4777 39.5135 42.3808C40.3071 41.6861 41.1227 40.9694 41.9419 40.2418C42.7575 39.931 43.4378 39.3387 43.8547 38.5672L43.884 38.5124C52.6141 30.7024 53.287 29.4629 53.693 28.717C58.1586 20.4683 55.0865 10.1281 46.8428 5.66005Z" fill="#CFD8DC"/>
<path d="M45.687 3.89769C43.211 2.55581 40.4168 1.84648 37.6079 1.84648C31.3466 1.84648 25.6082 5.25786 22.6347 10.746C22.2288 11.4919 21.5595 12.7314 19.782 24.3074L19.7527 24.3623C19.3175 25.163 19.2151 26.0552 19.3943 26.8815C19.2334 27.9638 19.0761 29.0424 18.9298 30.0845C18.6738 31.8761 19.1456 33.664 20.166 35.0827C20.0197 35.43 19.91 35.7884 19.8296 36.154C19.7674 36.1686 19.7089 36.1833 19.6467 36.2015C18.1874 36.6367 16.9805 37.6129 16.2527 38.9548L15.1847 40.9255C14.4569 42.2638 14.296 43.8068 14.7312 45.2693C15.1664 46.7318 16.1429 47.9348 17.4815 48.6624L23.5857 51.9677C24.4195 52.4175 25.3595 52.6588 26.2994 52.6588C26.8517 52.6588 27.4003 52.5783 27.9306 52.4211C29.3899 51.986 30.5968 51.0098 31.3209 49.6715L32.3889 47.6971C33.1679 46.2565 33.2593 44.6258 32.7766 43.1815C33.0399 42.9183 33.2813 42.6294 33.4934 42.315C33.5995 42.3186 33.7055 42.3223 33.8116 42.3223C35.4867 42.3223 37.1032 41.7153 38.3577 40.6184C39.1513 39.9237 39.9669 39.2071 40.7862 38.4794C41.6018 38.1687 42.282 37.5763 42.699 36.8048L42.7282 36.75C51.4583 28.94 52.1313 27.7005 52.5372 26.9546C57.0029 18.7023 53.9307 8.3621 45.687 3.89769Z" fill="white"/>
<path d="M48.1741 24.8084C51.4694 18.7278 49.2092 11.1299 43.1306 7.83558C37.0521 4.54121 29.4448 6.80083 26.1495 12.8777C25.3266 14.3987 23.5711 26.2782 22.9384 30.7134C22.7958 31.7115 23.2895 32.6951 24.1782 33.1741L32.2427 37.5434C33.1314 38.0224 34.2213 37.9017 34.9821 37.2363C38.3541 34.282 47.3476 26.3294 48.1741 24.8084Z" fill="#BCDAF2" stroke="#2576B9" stroke-width="2" stroke-miterlimit="10"/>
<path d="M23.7502 25.8212L38.6028 33.8649" stroke="#2576B9" stroke-width="2" stroke-miterlimit="10"/>
<path d="M28.4426 28.3623C28.4426 28.3623 29.4191 19.9893 36.8765 6.23045L28.4426 28.3623Z" fill="#BCDAF2"/>
<path d="M28.4426 28.3623C28.4426 28.3623 29.4191 19.9893 36.8765 6.23045" stroke="#2576B9" stroke-width="2" stroke-miterlimit="10"/>
<path d="M33.947 31.3459C33.947 31.3459 40.4279 25.9565 47.8889 12.194L33.947 31.3459Z" fill="#BCDAF2"/>
<path d="M33.947 31.3459C33.947 31.3459 40.4279 25.9565 47.8889 12.194" stroke="#2576B9" stroke-width="2" stroke-miterlimit="10"/>
<path d="M23.933 36.6804L25.4581 33.8651L30.9624 36.8486L29.4373 39.6639C29.046 40.3878 28.1389 40.6584 27.4111 40.2672L24.5328 38.706C23.8086 38.3148 23.538 37.408 23.933 36.6804Z" fill="#BCDAF2" stroke="#2576B9" stroke-width="2" stroke-miterlimit="10"/>
<path d="M25.2936 48.0187L19.1895 44.7134C18.5934 44.3917 18.3739 43.6458 18.6958 43.0498L19.7637 41.0791C20.0856 40.4831 20.8317 40.2638 21.4278 40.5855L27.5319 43.8908C28.1281 44.2125 28.3475 44.9584 28.0257 45.5543L26.9577 47.5251C26.6359 48.121 25.8898 48.3404 25.2936 48.0187Z" fill="#BCDAF2" stroke="#2576B9" stroke-width="2" stroke-miterlimit="10"/>
<path d="M4.6741 1.52588e-05L7.10258 3.82456L11.4914 2.6984L8.60209 6.19022L11.0306 10.0148L6.8173 8.34746L3.93165 11.8393L4.21327 7.31637L0 5.64908L4.38882 4.52292L4.6741 1.52588e-05Z" fill="#2576B9"/>
</g>
<defs>
<clipPath id="clip0_1749_2624">
<rect width="55.8807" height="54.4101" fill="white"/>
</clipPath>
</defs>
</svg>
