<svg width="62" height="69" viewBox="0 0 62 69" fill="none" xmlns="http://www.w3.org/2000/svg">
<g clip-path="url(#clip0_4636_2697)">
<path d="M50.0572 46.1355C50.0572 46.1355 50.0572 56.9538 39.3389 56.9538C39.3389 56.9538 50.0572 56.9538 50.0572 67.7721C50.0572 67.7721 50.0572 56.9538 60.7754 56.9538C60.7837 56.9538 50.0654 56.9538 50.0572 46.1355Z" stroke="#2576B9" stroke-width="2.9625" stroke-miterlimit="10" stroke-linecap="round" stroke-linejoin="round"/>
<path opacity="0.85" d="M47.5422 19.5958L33.8731 17.4553L31.6703 3.66694C31.4648 2.35613 30.4867 1.37717 29.188 1.17806C27.9139 0.978951 26.6564 1.62606 26.0728 2.78754L19.8259 15.2485L6.15682 13.0998C4.87457 12.9007 3.6252 13.5478 3.04161 14.7176C2.45802 15.8873 2.67995 17.2894 3.60054 18.2103L13.4147 28.0579L7.16782 40.5189C6.57601 41.7053 6.78972 43.0742 7.72675 44.0117C8.64734 44.9325 10.0364 45.1482 11.1872 44.5509L23.4918 38.1794L33.306 48.027C34.0128 48.7405 35.0074 49.0309 35.9527 48.8484C36.2321 48.7986 36.5034 48.699 36.7664 48.5663C37.9171 47.969 38.55 46.6996 38.3445 45.4137L36.1417 31.6253L48.4464 25.2538C49.5971 24.6565 50.23 23.3872 50.0245 22.1012C49.819 20.7987 48.8245 19.7949 47.5422 19.5958Z" fill="#CFD8DC"/>
<path d="M27.3713 2.78754L29.5988 16.7419C29.6974 17.3309 30.1577 17.7955 30.7413 17.8867L44.583 20.0604C45.8981 20.2678 46.1776 22.0432 45.0022 22.6571L32.5414 29.1199C32.0153 29.3936 31.7194 29.9827 31.8098 30.5717L34.0373 44.526C34.251 45.8534 32.6564 46.6748 31.7194 45.729L21.7902 35.7569C21.371 35.3338 20.7299 35.2342 20.1956 35.508L7.73479 41.9625C6.55117 42.5764 5.28536 41.2988 5.88539 40.1041L12.2062 27.4855C12.4775 26.9545 12.3706 26.2991 11.9514 25.876L2.01399 15.9205C1.06874 14.9747 1.88247 13.3653 3.18938 13.5727L17.0311 15.7463C17.6147 15.8376 18.1983 15.5389 18.4613 14.9996L24.7821 2.38102C25.3904 1.18636 27.1576 1.46014 27.3713 2.78754Z" fill="#EB9CC3" stroke="#2576B9" stroke-width="3.9123" stroke-miterlimit="10"/>
</g>
<defs>
<clipPath id="clip0_4636_2697">
<rect width="62" height="69" fill="white"/>
</clipPath>
</defs>
</svg>
