<svg width="61" height="67" viewBox="0 0 61 67" fill="none" xmlns="http://www.w3.org/2000/svg">
<g clip-path="url(#clip0_6471_9363)">
<path d="M49.2505 44.7988C49.2505 44.7988 49.2505 55.3036 38.7051 55.3036C38.7051 55.3036 49.2505 55.3036 49.2505 65.8083C49.2505 65.8083 49.2505 55.3036 59.7959 55.3036C59.804 55.3036 49.2586 55.3036 49.2505 44.7988Z" stroke="#2576B9" stroke-width="2.9625" stroke-miterlimit="10" stroke-linecap="round" stroke-linejoin="round"/>
<path opacity="0.85" d="M46.7758 19.0279L33.3272 16.9495L31.1599 3.56077C30.9577 2.28796 29.9953 1.33738 28.7176 1.14404C27.4641 0.950698 26.2268 1.57905 25.6526 2.70686L19.5065 14.8067L6.05792 12.7202C4.79635 12.5269 3.56713 13.1552 2.99296 14.2911C2.41878 15.4269 2.63713 16.7884 3.54287 17.6826L13.1987 27.2448L7.05261 39.3446C6.47035 40.4966 6.68061 41.8258 7.60253 42.7361C8.50827 43.6303 9.87496 43.8397 11.0071 43.2597L23.1133 37.0728L32.7692 46.6351C33.4646 47.3279 34.4432 47.6098 35.3732 47.4326C35.6481 47.3843 35.915 47.2876 36.1738 47.1587C37.306 46.5787 37.9287 45.3461 37.7265 44.0975L35.5592 30.7088L47.6654 24.5219C48.7975 23.9419 49.4202 22.7094 49.2181 21.4607C49.0159 20.196 48.0374 19.2212 46.7758 19.0279Z" fill="#CFD8DC"/>
<path d="M26.9298 2.70653L29.1214 16.2564C29.2184 16.8283 29.6713 17.2795 30.2454 17.3681L43.8639 19.4787C45.1578 19.6801 45.4328 21.404 44.2763 22.0001L32.0165 28.2756C31.4989 28.5414 31.2078 29.1134 31.2968 29.6854L33.4883 43.2352C33.6986 44.5241 32.1297 45.3217 31.2078 44.4033L21.4387 34.7202C21.0263 34.3094 20.3955 34.2127 19.8699 34.4786L7.61002 40.746C6.4455 41.3421 5.20011 40.1015 5.79046 38.9415L12.0093 26.6886C12.2762 26.173 12.1711 25.5366 11.7586 25.1258L1.98149 15.4588C1.05149 14.5405 1.8521 12.9777 3.13793 13.1791L16.7564 15.2897C17.3306 15.3783 17.9047 15.0883 18.1635 14.5647L24.3824 2.31179C24.9808 1.15176 26.7195 1.4176 26.9298 2.70653Z" fill="#EB9CC3" stroke="#2576B9" stroke-width="3.9123" stroke-miterlimit="10"/>
</g>
<defs>
<clipPath id="clip0_6471_9363">
<rect width="61" height="67" fill="white"/>
</clipPath>
</defs>
</svg>
