<svg width="28" height="25" viewBox="0 0 28 25" fill="none" xmlns="http://www.w3.org/2000/svg">
<g style="mix-blend-mode:multiply" opacity="0.75">
<path d="M19.7277 24.8437C19.2354 24.85 18.7542 24.697 18.3558 24.4075C17.9575 24.1181 17.6633 23.7076 17.5172 23.2374L15.8888 18.0795C14.452 19.3468 13.1772 20.5258 12.3077 21.3437L11.5709 23.3553C11.4115 23.798 11.1193 24.1807 10.7342 24.4511C10.3491 24.7215 9.88987 24.8663 9.41933 24.8658H4.26143C3.87413 24.8662 3.49303 24.7685 3.15374 24.5817C2.81445 24.3949 2.52803 24.1252 2.32124 23.7977C2.11445 23.4703 1.99405 23.0957 1.97126 22.7091C1.94846 22.3225 2.02403 21.9364 2.19091 21.5869L11.2614 2.59107C11.4487 2.20078 11.7425 1.87131 12.1088 1.64058C12.475 1.40985 12.899 1.28726 13.332 1.28687H16.6256C17.0603 1.2877 17.4858 1.41214 17.8524 1.64568C18.219 1.87922 18.5117 2.21221 18.6962 2.6058L21.0098 7.49844C21.7467 7.29212 22.233 7.18897 22.2625 7.1816H22.4172C22.6418 7.15048 22.8684 7.13569 23.0951 7.13737C23.5624 7.11494 24.0294 7.1891 24.4667 7.35518C24.9041 7.52125 25.3026 7.77571 25.6372 8.10265C25.9109 8.38808 26.1244 8.72564 26.2649 9.09528C26.4054 9.46492 26.4701 9.85906 26.4551 10.2542C26.4551 10.9911 26.2414 11.8237 24.2446 14.3658L27.6635 21.6237C27.8287 21.9729 27.903 22.3582 27.8794 22.7438C27.8558 23.1294 27.735 23.5027 27.5284 23.8292C27.3218 24.1556 27.0361 24.4245 26.6977 24.6109C26.3593 24.7973 25.9793 24.8951 25.593 24.8953L19.7277 24.8437Z" fill="#90A4AE"/>
</g>
<path d="M18.4899 23.8342C17.9981 23.8381 17.518 23.6842 17.1201 23.3951C16.7222 23.106 16.4276 22.6969 16.2794 22.2279L14.6583 17.07C13.2215 18.3373 11.9394 19.5163 11.0699 20.3342L10.3331 22.3384C10.174 22.7819 9.88208 23.1656 9.49707 23.4372C9.11206 23.7088 8.65269 23.8552 8.18151 23.8563H3.02361C2.63694 23.8555 2.25673 23.7569 1.91844 23.5696C1.58015 23.3823 1.29475 23.1124 1.08882 22.7851C0.882889 22.4579 0.763128 22.0838 0.740681 21.6978C0.718234 21.3117 0.793835 20.9263 0.960443 20.5774L10.031 1.58157C10.2177 1.19241 10.5103 0.863686 10.8752 0.633037C11.2401 0.402388 11.6625 0.279118 12.0941 0.277344H15.3952C15.8297 0.279061 16.2548 0.403873 16.6212 0.63731C16.9877 0.870747 17.2805 1.20326 17.4657 1.5963L19.772 6.48894C20.5089 6.28262 20.9952 6.17945 21.032 6.17208H21.1794C21.404 6.14129 21.6306 6.12652 21.8573 6.12787C22.3257 6.10575 22.7936 6.18 23.2322 6.34604C23.6707 6.51207 24.0705 6.76635 24.4068 7.09313C24.6805 7.37856 24.8939 7.71614 25.0344 8.08578C25.1749 8.45542 25.2396 8.84956 25.2246 9.24472C25.2246 9.98156 25.0036 10.8142 23.0141 13.3563L26.4331 20.6142C26.5962 20.9636 26.6689 21.3484 26.6443 21.7332C26.6198 22.118 26.4988 22.4905 26.2926 22.8163C26.0864 23.1421 25.8016 23.4108 25.4643 23.5977C25.127 23.7846 24.7481 23.8837 24.3626 23.8858L18.4899 23.8342Z" fill="#FFD95C"/>
<path d="M20.3171 12.9805C21.5918 11.4479 22.9255 9.70155 22.9403 9.12682C22.9403 8.16892 21.5329 8.38998 21.5329 8.38998C21.5329 8.38998 20.2802 8.66999 18.5487 9.22999L15.4023 2.5542H12.1013L3.03076 21.5426H8.18866L9.09498 19.0226C10.5687 17.6152 12.7792 15.5963 15.0266 13.7026C15.2844 13.4742 15.5497 13.2605 15.7634 13.0542L18.4308 21.5426H24.3255L20.3171 12.9805ZM13.7592 11.1237C13.1476 11.4258 12.4034 11.7647 11.6297 12.0889L13.715 6.33418L15.0339 10.5268C14.6066 10.7184 14.1792 10.9173 13.7592 11.1237ZM19.1529 10.5047C19.9489 9.85311 20.8581 9.35357 21.835 9.03102C22.5129 8.94997 22.1592 9.32576 21.3266 10.7552C21.0097 11.3005 20.5897 11.9268 20.1329 12.5752L19.1529 10.5047Z" fill="#2576B9"/>
</svg>
