<svg width="100" height="101" viewBox="0 0 100 101" fill="none" xmlns="http://www.w3.org/2000/svg">
<path fill-rule="evenodd" clip-rule="evenodd" d="M35.4168 73.1948C39.8593 78.497 44.7374 83.4183 50.0002 87.9073C55.2629 83.4183 60.1411 78.497 64.5835 73.1948C71.2502 65.2323 79.167 53.374 79.167 42.074C79.1915 34.3339 76.1187 26.9057 70.6335 21.4448C62.2921 13.0958 49.7414 10.5965 38.8379 15.1131C27.9345 19.6298 20.8276 30.2721 20.8335 42.074C20.8335 53.374 28.7502 65.2323 35.4168 73.1948Z" fill="#2576B9"/>
<path d="M61.5888 37.4976C61.2405 37.0863 59.6534 37.8798 57.4082 39.4717L58.8066 42.4427C60.4614 40.2508 62.0098 37.9959 61.5888 37.4976Z" fill="white"/>
<path d="M43.4145 51.3316L42.1274 54.8687H56.4645L52.7581 43.0381C49.8839 45.3849 46.6081 48.2687 43.4145 51.3316Z" fill="white"/>
<path d="M62.4744 36.8783C63.2534 37.9089 61.1195 40.5702 59.0147 42.8783L64.6663 54.8686V28.3428H52.1631L56.547 37.667C59.5808 36.6073 61.8986 36.1186 62.4744 36.8783Z" fill="white"/>
<path d="M35.4839 28.3428V53.6541L47.5613 28.3428H35.4839Z" fill="white"/>
<path d="M51.6743 39.5735L49.8114 33.6267L46.9082 41.6541C48.4711 40.9574 50.0921 40.2412 51.6743 39.5735Z" fill="white"/>
</svg>
