<svg width="65" height="65" viewBox="0 0 65 65" fill="none" xmlns="http://www.w3.org/2000/svg">
<path d="M30.5349 55.999C29.107 57.3344 26.9022 57.3344 25.4742 55.999C23.4979 54.1508 21.6323 52.1878 19.8875 50.12C16.1769 45.7193 11.7705 39.1654 11.7705 32.9201C11.7672 26.3975 15.7229 20.5157 21.7917 18.0194C27.8605 15.5232 34.8462 16.9045 39.489 21.5188C42.5421 24.5369 44.2523 28.6424 44.2387 32.9201C44.2387 39.1654 39.8323 45.7193 36.1216 50.12C34.3768 52.1878 32.5113 54.1508 30.5349 55.999Z" fill="#90A4AE"/>
<path d="M28.527 54.5181C27.1032 55.8459 24.9088 55.8459 23.4851 54.5181C21.595 52.7553 19.8097 50.8846 18.1388 48.9153C14.5423 44.6737 10.2715 38.3567 10.2715 32.3372C10.2683 26.0503 14.1023 20.3811 19.9844 17.975C25.8664 15.569 32.6372 16.9004 37.1371 21.3479C40.0962 24.257 41.7539 28.214 41.7407 32.3372C41.7407 38.3567 37.4698 44.6737 33.8733 48.9153C32.2024 50.8846 30.4171 52.7553 28.527 54.5181Z" fill="white"/>
<path d="M27.2913 49.6131C26.5639 50.2842 25.4482 50.2842 24.7208 49.6131C23.089 48.1076 21.5575 46.4939 20.1368 44.7826C17.4537 41.5483 14.2676 36.7316 14.2676 32.1417C14.2652 27.3479 17.1255 23.0252 21.5137 21.1906C25.9019 19.356 30.9531 20.3712 34.3102 23.7624C36.5178 25.9806 37.7545 28.9978 37.7446 32.1417C37.7446 36.7316 34.5584 41.5483 31.8753 44.7826C30.4546 46.4939 28.9232 48.1076 27.2913 49.6131ZM26.0061 27.0644C24.2087 27.0644 22.5479 28.0321 21.6493 29.603C20.7506 31.174 20.7506 33.1094 21.6493 34.6804C22.5479 36.2513 24.2087 37.219 26.0061 37.219C28.7845 37.219 31.0368 34.9458 31.0368 32.1417C31.0368 29.3376 28.7845 27.0644 26.0061 27.0644Z" fill="#FFD95C"/>
<path opacity="0.6" d="M55.599 8.76039L55.5804 9.53901L55.5462 10.9691L56.8884 11.4636L57.8172 11.8058L56.8817 12.0971L55.5112 12.5238L55.4769 13.9588L55.4585 14.7256L55.091 14.1679L54.2631 12.9114L52.8264 13.3588L52.0595 13.5976L52.6359 12.8101L53.4568 11.6887L52.6921 10.5283L52.1588 9.71897L52.9 9.99245L54.3156 10.5148L55.2066 9.29694L55.599 8.76039Z" stroke="white" stroke-width="4" stroke-miterlimit="10"/>
</svg>
