<svg width="118" height="118" viewBox="0 0 118 118" fill="none" xmlns="http://www.w3.org/2000/svg">
<g clip-path="url(#clip0_4719_8620)">
<path d="M50.3214 66.4463L38.6246 94.7881C37.7818 96.8302 38.7541 99.1688 40.7961 100.012L49.8543 103.75C51.8964 104.593 54.235 103.62 55.0778 101.578L66.7746 73.2366C67.6174 71.1946 66.6451 68.856 64.6031 68.0132L55.5449 64.2748C53.5028 63.432 51.1642 64.4043 50.3214 66.4463Z" fill="#90A4AE"/>
<path d="M85.7411 62.5341C95.4847 52.7652 95.4642 36.9473 85.6954 27.2037C75.9265 17.4601 60.1086 17.4806 50.365 27.2494C40.6214 37.0183 40.6419 52.8362 50.4107 62.5798C60.1796 72.3234 75.9976 72.3029 85.7411 62.5341Z" fill="#90A4AE"/>
<path d="M46.405 65.9709L35.1104 93.3379C34.2677 95.38 35.2399 97.7186 37.282 98.5614L46.3401 102.3C48.3822 103.143 50.7208 102.17 51.5636 100.128L62.8581 72.7612C63.7009 70.7191 62.7287 68.3805 60.6866 67.5377L51.6284 63.7994C49.5864 62.9566 47.2478 63.9288 46.405 65.9709Z" fill="white"/>
<path d="M53.7004 71.6399L58.5828 59.8098" stroke="white" stroke-width="12" stroke-miterlimit="10"/>
<path d="M82.2275 61.0839C91.9711 51.315 91.9506 35.4971 82.1817 25.7535C72.4129 16.0099 56.5949 16.0304 46.8513 25.7992C37.1077 35.5681 37.1282 51.386 46.8971 61.1296C56.6659 70.8732 72.4839 70.8527 82.2275 61.0839Z" fill="white"/>
<path d="M77.6619 56.5303C84.8906 49.2829 84.8754 37.5477 77.628 30.3191C70.3806 23.0904 58.6454 23.1056 51.4168 30.353C44.1881 37.6004 44.2033 49.3356 51.4507 56.5642C58.6981 63.7929 70.4333 63.7777 77.6619 56.5303Z" stroke="#EB9CC3" stroke-width="3.206" stroke-miterlimit="10"/>
<path d="M75.8136 36.7475C78.9565 44.3076 75.378 52.9921 67.8111 56.1378" stroke="#EB9CC3" stroke-width="3.206" stroke-miterlimit="10"/>
<path d="M53.7004 71.6399L58.5828 59.8098" stroke="#EB9CC3" stroke-width="3.206" stroke-miterlimit="10"/>
<path d="M50.4863 70.5218L40.8711 93.8198L47.1408 96.4074L56.756 73.1093L50.4863 70.5218Z" stroke="#EB9CC3" stroke-width="3.206" stroke-miterlimit="10"/>
</g>
<defs>
<clipPath id="clip0_4719_8620">
<rect width="89.5999" height="89.5999" fill="white" transform="translate(0 34.9224) rotate(-22.5738)"/>
</clipPath>
</defs>
</svg>
