<svg width="80" height="80" viewBox="0 0 98 98" fill="none" xmlns="http://www.w3.org/2000/svg">
<path d="M67.3196 53.0308C69.3484 43.5215 63.7149 33.9106 54.4188 31.0527C44.1317 27.8845 33.3607 33.9055 30.5991 44.212L30.5879 44.2538C29.9383 46.7116 29.968 49.3066 30.5872 51.7731C31.1909 54.1639 32.1402 57.7036 33.0585 60.2234C34.7667 64.9063 35.0018 70.0092 33.7127 74.82L33.697 74.8785L49.0566 78.9941L49.0723 78.9356C50.3658 74.1081 53.1208 69.8064 56.9501 66.6072C58.9349 64.9459 61.4304 62.4814 63.1313 60.7439C64.5484 59.2975 65.6783 57.5861 66.4275 55.6921C66.8162 54.7758 67.16 53.7937 67.3196 53.0308Z" stroke="white" stroke-width="3.213" stroke-miterlimit="10"/>
<path d="M35.3078 68.9008L50.6757 73.0186" stroke="white" stroke-width="3.213" stroke-miterlimit="10"/>
<path d="M48.8114 84.2547L31.3053 79.5639" stroke="white" stroke-width="3.213" stroke-miterlimit="10"/>
<path d="M47.5464 88.9735L30.0403 84.2828" stroke="white" stroke-width="3.213" stroke-miterlimit="10"/>
<path d="M59.0607 10.9913L55.8134 23.1103" stroke="white" stroke-width="3.213" stroke-miterlimit="10"/>
<path d="M9.92509 39.8183L19.9811 42.5128" stroke="white" stroke-width="3.213" stroke-miterlimit="10"/>
<path d="M77.1433 57.8293L87.1992 60.5238" stroke="white" stroke-width="3.213" stroke-miterlimit="10"/>
<path d="M30.2859 24.5685L24.2943 14.9243" stroke="white" stroke-width="3.332" stroke-miterlimit="10"/>
<path d="M77.9516 37.3404L87.3112 31.8096" stroke="white" stroke-width="3.332" stroke-miterlimit="10"/>
<path d="M42.9835 70.9572L47.5489 53.9188" stroke="white" stroke-width="3.213" stroke-miterlimit="10"/>
<path d="M56.4636 48.7794L47.5573 53.9214L42.4153 45.0151" stroke="white" stroke-width="3.213" stroke-miterlimit="10"/>
</svg>
