<svg width="140" height="141" viewBox="0 0 140 141" fill="none" xmlns="http://www.w3.org/2000/svg">
<path d="M70 0.25C56.1553 0.25 42.6216 4.35542 31.1101 12.0471C19.5987 19.7388 10.6266 30.6713 5.32847 43.4622C0.0303394 56.253 -1.35591 70.3276 1.34506 83.9063C4.04602 97.485 10.7129 109.958 20.5026 119.747C30.2922 129.537 42.765 136.204 56.3437 138.905C69.9224 141.606 83.9971 140.22 96.7879 134.922C109.579 129.623 120.511 120.651 128.203 109.14C135.895 97.6285 140 84.0947 140 70.25C139.975 51.6924 132.592 33.902 119.47 20.7798C106.348 7.6576 88.5576 0.274694 70 0.25ZM70 137.749C56.65 137.749 43.5999 133.79 32.4998 126.373C21.3997 118.956 12.7482 108.414 7.63939 96.0806C2.53058 83.7468 1.19388 70.1751 3.79833 57.0816C6.40278 43.9882 12.8314 31.9611 22.2713 22.5213C31.7111 13.0814 43.7382 6.65278 56.8317 4.04833C69.9252 1.44388 83.4969 2.78057 95.8306 7.88939C108.164 12.9982 118.706 21.6497 126.123 32.7497C133.54 43.8498 137.499 56.9 137.499 70.25C137.479 88.1457 130.361 105.303 117.707 117.957C105.053 130.611 87.8957 137.729 70 137.749Z" fill="#0063A6"/>
<path d="M42.1685 88.6925C42.8018 88.3385 43.3488 87.8486 43.7701 87.258C44.1914 86.6674 44.4765 85.9907 44.6051 85.2767C44.7336 84.5627 44.7023 83.8292 44.5134 83.1287C44.3244 82.4283 43.9826 81.7784 43.5125 81.2258C42.8868 81.5868 42.3474 82.0799 41.932 82.6708C41.5165 83.2617 41.2349 83.9362 41.107 84.6471C40.979 85.358 41.0077 86.0883 41.1911 86.787C41.3744 87.4857 41.708 88.136 42.1685 88.6925Z" fill="#0063A6"/>
<path d="M53.6112 75.6631C53.0851 76.1324 52.6641 76.7076 52.3758 77.351C52.0875 77.9944 51.9385 78.6914 51.9385 79.3964C51.9385 80.1014 52.0875 80.7985 52.3758 81.4419C52.6641 82.0853 53.0851 82.6605 53.6112 83.1298C54.14 82.6621 54.5634 82.0874 54.8534 81.4438C55.1434 80.8002 55.2933 80.1023 55.2933 79.3964C55.2933 78.6905 55.1434 77.9927 54.8534 77.3491C54.5634 76.7054 54.14 76.1308 53.6112 75.6631Z" fill="#0063A6"/>
<path d="M97.5146 88.674C97.9537 88.1173 98.2684 87.4731 98.4377 86.7847C98.6069 86.0962 98.6268 85.3795 98.4959 84.6827C98.3651 83.9859 98.0865 83.3252 97.679 82.7451C97.2715 82.1649 96.7444 81.6788 96.1333 81.3193C95.682 81.8712 95.3569 82.5151 95.1806 83.2058C95.0043 83.8966 94.9811 84.6175 95.1127 85.3181C95.2443 86.0188 95.5275 86.6821 95.9424 87.2618C96.3573 87.8415 96.8939 88.3235 97.5146 88.674Z" fill="#0063A6"/>
<path d="M86.0719 75.6631C85.5458 76.1324 85.1247 76.7076 84.8365 77.351C84.5482 77.9944 84.3992 78.6914 84.3992 79.3964C84.3992 80.1014 84.5482 80.7985 84.8365 81.4419C85.1247 82.0853 85.5458 82.6605 86.0719 83.1298C86.6007 82.6621 87.024 82.0874 87.314 81.4438C87.604 80.8002 87.754 80.1023 87.754 79.3964C87.754 78.6905 87.604 77.9927 87.314 77.3491C87.024 76.7054 86.6007 76.1308 86.0719 75.6631Z" fill="#0063A6"/>
<path d="M69.8137 46.3754C70.3479 45.911 70.7762 45.3375 71.0697 44.6934C71.3632 44.0494 71.5151 43.3498 71.5151 42.642C71.5151 41.9342 71.3632 41.2347 71.0697 40.5907C70.7762 39.9466 70.3479 39.373 69.8137 38.9087C69.2849 39.3764 68.8615 39.9511 68.5715 40.5947C68.2816 41.2383 68.1316 41.9361 68.1316 42.642C68.1316 43.3479 68.2816 44.0458 68.5715 44.6894C68.8615 45.333 69.2849 45.9077 69.8137 46.3754Z" fill="#0063A6"/>
<path d="M63.4486 48.3724C64.1369 48.192 64.778 47.8646 65.3278 47.4128C65.8775 46.961 66.3229 46.3955 66.6333 45.7552C66.9438 45.1149 67.1118 44.4149 67.1259 43.7034C67.1401 42.992 67 42.2859 66.7153 41.6338C66.0304 41.8197 65.3933 42.1503 64.847 42.6033C64.3007 43.0563 63.8579 43.6211 63.5483 44.2596C63.2388 44.8982 63.0697 45.5958 63.0525 46.3052C63.0353 47.0147 63.1704 47.7196 63.4486 48.3724Z" fill="#0063A6"/>
<path d="M69.8315 50.3884C69.3054 50.8577 68.8843 51.4329 68.5961 52.0763C68.3078 52.7197 68.1588 53.4167 68.1588 54.1218C68.1588 54.8268 68.3078 55.5238 68.5961 56.1672C68.8843 56.8106 69.3054 57.3858 69.8315 57.8551C70.3576 57.3858 70.7786 56.8106 71.0669 56.1672C71.3551 55.5238 71.5042 54.8268 71.5042 54.1218C71.5042 53.4167 71.3551 52.7197 71.0669 52.0763C70.7786 51.4329 70.3576 50.8577 69.8315 50.3884Z" fill="#0063A6"/>
<path d="M76.2535 48.3726C76.531 47.7173 76.6639 47.0099 76.6431 46.2986C76.6223 45.5872 76.4482 44.8888 76.1328 44.2509C75.8174 43.613 75.368 43.0506 74.8155 42.6022C74.2629 42.1538 73.62 41.8299 72.9308 41.6526C72.65 42.3075 72.5146 43.0156 72.5339 43.728C72.5532 44.4403 72.7267 45.14 73.0426 45.7788C73.3584 46.4176 73.809 46.9803 74.3634 47.4281C74.9177 47.8759 75.5626 48.1981 76.2535 48.3726Z" fill="#0063A6"/>
<path d="M91.6536 50.9112C92.2663 50.5373 92.7916 50.0363 93.1943 49.4421C93.5969 48.848 93.8675 48.1744 93.9878 47.4668C94.108 46.7592 94.0753 46.034 93.8916 45.3402C93.7079 44.6463 93.3776 44 92.9229 43.4446C92.3054 43.8142 91.7753 44.3132 91.369 44.9072C90.9627 45.5012 90.6899 46.1762 90.5693 46.8857C90.4487 47.5952 90.4831 48.3224 90.6703 49.0173C90.8575 49.7122 91.193 50.3583 91.6536 50.9112Z" fill="#0063A6"/>
<path d="M46.6668 43.5005C46.2304 44.0599 45.918 44.7056 45.7503 45.395C45.5826 46.0843 45.5634 46.8015 45.6941 47.4988C45.8247 48.1961 46.1022 48.8577 46.508 49.4396C46.9139 50.0214 47.4389 50.5103 48.0482 50.8738C48.4997 50.3203 48.825 49.6751 49.0014 48.9829C49.1778 48.2908 49.2011 47.5684 49.0695 46.8664C48.938 46.1643 48.6549 45.4994 48.2399 44.9181C47.8249 44.3367 47.2881 43.853 46.6668 43.5005Z" fill="#0063A6"/>
<path d="M48.8506 69.8766C48.3866 69.3511 47.8191 68.927 47.1838 68.6308C46.5484 68.3346 45.8587 68.1727 45.1579 68.1552C44.4571 68.1376 43.7603 68.2649 43.1109 68.529C42.4615 68.793 41.8736 69.1883 41.3839 69.6899C43.3812 72.4153 47.8986 71.7993 48.8506 69.8766Z" fill="#0063A6"/>
<path d="M98.299 69.6526C97.8017 69.1592 97.2083 68.7732 96.5557 68.5185C95.903 68.2639 95.205 68.146 94.5049 68.1723C93.8048 68.1985 93.1176 68.3683 92.4858 68.6711C91.8541 68.974 91.2913 69.4034 90.8323 69.9327C91.3148 70.4528 91.9039 70.8625 92.5593 71.134C93.2147 71.4055 93.921 71.5323 94.6299 71.5057C95.3388 71.4791 96.0336 71.2998 96.6669 70.98C97.3001 70.6602 97.8569 70.2074 98.299 69.6526Z" fill="#0063A6"/>
<path d="M97.3474 74.4498C98.0057 74.7197 98.715 74.8426 99.4258 74.8101C100.136 74.7776 100.832 74.5905 101.463 74.2617C102.093 73.9329 102.645 73.4703 103.079 72.9064C103.513 72.3424 103.818 71.6907 103.974 70.9965C103.314 70.7459 102.609 70.6378 101.904 70.6793C101.2 70.7207 100.512 70.9108 99.8862 71.2369C99.2604 71.5631 98.7106 72.018 98.2731 72.5717C97.8355 73.1254 97.52 73.7655 97.3474 74.4498Z" fill="#0063A6"/>
<path d="M63.0007 61.6818C63.0904 60.9863 63.0317 60.2797 62.8286 59.6086C62.6254 58.9374 62.2825 58.3168 61.8222 57.7878C61.3619 57.2587 60.7948 56.8332 60.1582 56.5391C59.5216 56.2451 58.8299 56.0892 58.1287 56.0818C58.0198 56.7803 58.0649 57.4943 58.2608 58.1736C58.4566 58.8529 58.7985 59.4812 59.2626 60.0146C59.7266 60.548 60.3016 60.9736 60.9473 61.2615C61.593 61.5495 62.2938 61.6929 63.0007 61.6818Z" fill="#0063A6"/>
<path d="M55.7016 56.7912C56.3294 56.476 56.885 56.0339 57.3332 55.493C57.7814 54.952 58.1125 54.3239 58.3055 53.6485C58.4985 52.973 58.5492 52.2648 58.4544 51.5687C58.3596 50.8727 58.1215 50.2038 57.7549 49.6045C54.9736 50.6498 53.7789 54.8685 55.7016 56.7912Z" fill="#0063A6"/>
<path d="M57.493 61.6635C57.5363 62.3695 57.7316 63.0578 58.0655 63.6813C58.3995 64.3048 58.8642 64.8488 59.428 65.276C59.9917 65.7032 60.641 66.0036 61.3316 66.1565C62.0222 66.3095 62.7377 66.3114 63.4291 66.1622C63.3858 65.4562 63.1905 64.7679 62.8565 64.1444C62.5226 63.5209 62.0579 62.9769 61.4941 62.5497C60.9304 62.1224 60.2811 61.8221 59.5905 61.6691C58.8999 61.5162 58.1844 61.5143 57.493 61.6635Z" fill="#0063A6"/>
<path d="M82.1705 61.6449C78.9972 61.1222 75.6372 63.8475 76.3465 66.2742C77.038 66.3877 77.7456 66.3552 78.4237 66.1788C79.1019 66.0024 79.7357 65.686 80.2842 65.25C80.8328 64.814 81.284 64.2679 81.6089 63.647C81.9337 63.0261 82.125 62.3442 82.1705 61.6449Z" fill="#0063A6"/>
<path d="M81.4988 56.0259C80.792 56.0387 80.0963 56.2028 79.4583 56.5072C78.8204 56.8116 78.255 57.2491 77.8005 57.7903C77.3459 58.3316 77.0126 58.9641 76.823 59.645C76.6334 60.3259 76.5919 61.0396 76.7014 61.7379C77.4122 61.7376 78.1143 61.5819 78.7585 61.2815C79.4027 60.9812 79.9733 60.5435 80.4305 59.9992C80.8876 59.4549 81.2201 58.8172 81.4046 58.1308C81.5892 57.4444 81.6213 56.726 81.4988 56.0259Z" fill="#0063A6"/>
<path d="M84.0562 56.81C84.4443 56.2126 84.6983 55.5381 84.8006 54.833C84.9029 54.128 84.8512 53.4092 84.6489 52.7261C84.4466 52.043 84.0987 51.4118 83.629 50.8761C83.1593 50.3405 82.579 49.9131 81.9282 49.6233C81.5554 50.2249 81.3141 50.8985 81.22 51.6C81.1259 52.3014 81.1811 53.0148 81.3821 53.6934C81.583 54.3719 81.9251 55.0004 82.3859 55.5375C82.8468 56.0746 83.416 56.5083 84.0562 56.81Z" fill="#0063A6"/>
<path d="M48.4212 61.6262C48.2642 60.9351 47.9627 60.2852 47.5365 59.719C47.1103 59.1528 46.5691 58.6833 45.9484 58.3412C45.3278 57.9992 44.6418 57.7923 43.9355 57.7344C43.2292 57.6764 42.5186 57.7686 41.8505 58.0048C41.9877 58.707 42.2772 59.3705 42.6987 59.9486C43.1201 60.5267 43.6633 61.0052 44.2899 61.3505C44.9164 61.6958 45.6111 61.8995 46.3249 61.9471C47.0388 61.9947 47.7543 61.8852 48.4212 61.6262Z" fill="#0063A6"/>
<path d="M91.2425 61.6448C91.9135 61.9041 92.634 62.0103 93.3514 61.9559C94.0687 61.9014 94.7649 61.6875 95.3891 61.3298C96.0133 60.9721 96.5498 60.4796 96.9595 59.8882C97.3691 59.2968 97.6416 58.6215 97.7571 57.9114C97.0847 57.6855 96.3719 57.6046 95.6659 57.674C94.9599 57.7435 94.2766 57.9618 93.6611 58.3146C93.0456 58.6673 92.5118 59.1464 92.0949 59.7204C91.678 60.2945 91.3875 60.9503 91.2425 61.6448Z" fill="#0063A6"/>
<path d="M69.9635 29.0525C60.3961 29.0046 51.1085 32.2776 43.685 38.3131C36.2615 44.3486 31.1621 52.7728 29.2565 62.1485C27.3509 71.5243 28.7572 81.2707 33.2357 89.7253C37.7141 98.1798 44.9871 104.819 53.8141 108.509C62.641 112.2 72.475 112.714 81.6385 109.963C90.802 107.212 98.7272 101.368 104.062 93.4257C109.397 85.4839 111.812 75.937 110.894 66.4138C109.975 56.8905 105.782 47.9808 99.0275 41.2045C95.2212 37.3657 90.6945 34.3162 85.707 32.2309C80.7195 30.1456 75.3694 29.0654 69.9635 29.0525ZM75.1714 31.5912C75.1714 31.7966 75.1714 32.0019 75.1714 32.2072C75.0319 33.4374 75.3536 34.6758 76.0742 35.6826C76.7949 36.6894 77.8633 37.3932 79.0728 37.6579C79.9501 35.7912 79.4088 33.9245 77.3554 31.9272C79.0692 32.2482 80.7593 32.6848 82.4141 33.2339C80.0061 35.7352 79.5954 37.9005 81.0328 40.1592C83.3101 39.5432 84.3181 36.8365 83.4968 33.6072C84.8198 34.0982 86.1158 34.6589 87.3794 35.2872L81.4994 41.6899C81.4386 41.7086 81.3736 41.7086 81.3128 41.6899C79.1276 40.0281 77.1141 38.1522 75.3021 36.0899C74.1652 34.7379 73.3143 33.1694 72.8008 31.4792C73.5661 31.3486 74.3688 31.4792 75.1714 31.5912ZM56.1875 33.7566C55.9283 34.4209 55.8079 35.1313 55.8336 35.844C55.8593 36.5566 56.0305 37.2565 56.3368 37.9006C56.7947 38.9413 57.6182 39.778 58.6514 40.2525C59.0587 39.6846 59.3338 39.0329 59.4565 38.3449C59.5792 37.6569 59.5465 36.9503 59.3608 36.2766C59.116 35.0999 58.4528 34.052 57.4941 33.3272C59.1005 32.7808 60.7403 32.3381 62.4035 32.0019C60.4061 34.0739 59.9021 35.8845 60.7794 37.7139C61.4728 37.5525 62.1233 37.244 62.6869 36.8092C63.2505 36.3744 63.7141 35.8235 64.0461 35.1939C64.6374 34.105 64.8227 32.8414 64.5688 31.6285C65.3714 31.5165 66.1741 31.4232 66.9768 31.3672C66.6026 32.608 66.0424 33.785 65.3154 34.8579C64.1164 36.5385 62.7117 38.0623 61.1341 39.3939C60.2194 40.2152 59.2675 40.9805 58.3528 41.7645L52.5475 35.3992C53.6861 34.8019 54.9181 34.2419 56.1875 33.7566ZM40.5821 44.6579C40.3965 45.4846 40.4169 46.3443 40.6415 47.1613C40.866 47.9783 41.288 48.7276 41.8701 49.3432C44.1101 47.6259 44.4524 45.249 42.8968 42.2126C44.0159 41.14 45.1937 40.1304 46.4248 39.1886C46.5395 39.9666 46.8314 40.7078 47.2781 41.3552C47.7247 42.0025 48.3141 42.5385 49.0008 42.9219C49.8486 43.4447 50.8498 43.6621 51.8381 43.5379C51.9327 42.2776 51.5339 41.0299 50.7259 40.0582C49.9178 39.0865 48.7638 38.4667 47.5074 38.3299L48.9074 37.3779C51.2317 39.4611 53.345 41.7682 55.2168 44.2659C52.0443 47.1619 50.123 51.1785 49.8595 55.4659C46.2864 52.3854 42.2065 49.9475 37.8008 48.2605C38.6587 47.0078 39.5873 45.8049 40.5821 44.6579ZM34.5155 53.9912C35.0011 55.053 35.8294 55.9208 36.8674 56.4552C37.4657 56.781 38.1269 56.9746 38.8064 57.0229C39.4859 57.0712 40.1678 56.9731 40.8061 56.7352C40.7281 56.0443 40.4789 55.3837 40.0813 54.8133C39.6837 54.243 39.1501 53.7808 38.5288 53.4685C37.4823 52.8548 36.2527 52.63 35.0568 52.8339L35.7661 51.4712C42.1315 54.2339 47.8995 57.6685 51.8381 63.5299L51.7074 63.7352C50.7554 63.6419 49.8408 63.4925 48.8514 63.4739C47.5634 63.4739 46.2568 63.4739 44.9688 63.4739C44.7771 63.5121 44.5783 63.4916 44.3984 63.415C44.2186 63.3384 44.066 63.2093 43.9608 63.0446C41.7199 59.7325 38.3597 57.3399 34.4968 56.3059L33.6381 56.0446C33.9181 55.4286 34.1981 54.7379 34.5155 54.0659V53.9912ZM31.5848 63.3245C32.5941 64.117 33.8753 64.4792 35.1501 64.3326C36.148 64.2096 37.0686 63.7327 37.7448 62.9886C36.5315 61.1219 34.2355 60.8792 31.8088 62.0739C31.9955 61.2525 32.2008 60.4312 32.4248 59.6285C35.2933 60.2757 37.8972 61.7795 39.8915 63.9405C36.8619 64.5646 33.9125 65.5289 31.0995 66.8152C31.2042 65.6939 31.3662 64.5786 31.5848 63.4739V63.3245ZM31.2301 74.5245C31.808 75.4131 32.6423 76.1049 33.6225 76.5083C34.6026 76.9117 35.6822 77.0076 36.7181 76.7832C36.6594 76.0603 36.4395 75.3598 36.0745 74.7332C35.7095 74.1065 35.2086 73.5695 34.6088 73.1619C33.5596 72.517 32.3203 72.2533 31.0995 72.4152C31.0995 71.9859 31.0995 71.5565 31.0995 71.1272L32.0888 70.6605C34.8916 69.3486 37.8534 68.4073 40.8995 67.8605C45.2311 66.9619 49.7166 67.1349 53.9661 68.3645L54.9554 68.7192L54.4888 68.9245C52.0443 70.063 49.7496 71.4987 47.6568 73.1992C46.0888 74.5449 44.3268 75.6462 42.4301 76.4659C40.1868 77.3028 37.8364 77.8181 35.4488 77.9965L31.9395 78.1832C31.5475 77.0072 31.3795 75.8499 31.2301 74.6925V74.5245ZM64.5501 81.9912C64.4946 85.9474 64.12 89.8926 63.4301 93.7886C63.0215 96.3173 62.3069 98.787 61.3021 101.143C60.8028 102.306 60.1153 103.378 59.2674 104.317C58.7352 104.966 58.0521 105.476 57.2778 105.801C56.5035 106.127 55.6614 106.258 54.8248 106.183C46.3388 102.571 39.3939 96.0885 35.2061 87.8712C38.5661 86.7885 40.1155 84.8659 39.7048 82.1779C39.0474 82.1667 38.3944 82.2883 37.785 82.5352C37.1756 82.7822 36.6223 83.1495 36.1581 83.6152C35.309 84.4201 34.7676 85.4963 34.6275 86.6579C33.9011 85.1204 33.2775 83.5365 32.7608 81.9165C37.3729 81.927 41.9261 80.8797 46.0701 78.8552C46.0701 80.3299 46.0701 81.6925 46.0701 83.0178C46.1891 84.3818 46.5627 85.7115 47.1715 86.9379L50.6061 85.6125C50.3821 84.6232 50.1021 83.7458 49.9528 82.7752C49.4634 80.3004 49.9742 77.7325 51.3736 75.6335C52.7729 73.5345 54.9468 72.0752 57.4195 71.5752C58.1897 71.3552 58.9982 71.303 59.7904 71.4221C60.5826 71.5413 61.34 71.829 62.0114 72.2659C62.6728 72.6267 63.2361 73.1433 63.6525 73.7712C64.0688 74.399 64.3257 75.1189 64.4008 75.8685C64.5688 78.0152 64.6994 80.0312 64.5501 82.0845V81.9912ZM57.9794 65.4525C56.0448 63.7253 54.6856 61.4468 54.0849 58.9238C53.4842 56.4008 53.6707 53.7543 54.6195 51.3405C55.2746 49.8057 56.2779 48.4445 57.5501 47.3645C62.2359 54.0244 65.158 61.763 66.0434 69.8579C63.1373 68.8722 60.413 67.4154 57.9794 65.5459V65.4525ZM69.9261 68.0472C69.8111 67.8562 69.7113 67.6565 69.6274 67.4499C68.8911 63.0615 67.6379 58.7757 65.8941 54.6819C65.7135 54.2904 65.6739 53.8485 65.7821 53.4312C66.1358 51.7268 66.9492 50.1517 68.1341 48.8766C68.3581 48.5966 68.6008 48.3352 68.8994 47.9992L67.3688 46.3752C66.039 47.6242 64.9562 49.1123 64.1768 50.7619C64.1768 50.7619 64.0274 50.6686 63.9901 50.6126L60.5741 44.7886C64.0648 41.7832 67.7421 38.9085 69.9074 34.3912C72.0354 38.8712 75.6568 41.7646 79.2408 44.7886L75.6381 50.7992C74.8788 49.1482 73.8003 47.6636 72.4648 46.4312L70.8408 47.9432L71.8301 49.0446C72.945 50.2872 73.7001 51.8102 74.0141 53.4499C74.1173 53.797 74.1173 54.1667 74.0141 54.5139C72.1178 58.8786 70.7456 63.4527 69.9261 68.1405V68.0472ZM82.1341 47.3272C82.5885 47.7571 83.0185 48.212 83.4221 48.6899C84.8555 50.4437 85.7418 52.5802 85.9708 54.8336C86.1998 57.0871 85.7614 59.3582 84.7101 61.3645C83.7379 63.4558 82.2151 65.2432 80.3048 66.5352C78.2003 67.8747 75.9603 68.9884 73.6221 69.8579C74.5318 61.783 77.459 54.0669 82.1341 47.4205V47.3272ZM105.15 87.1059C105.09 86.3068 104.858 85.53 104.472 84.828C104.086 84.126 103.553 83.5151 102.91 83.0365C102.045 82.4159 101.007 82.0828 99.9421 82.0845C99.837 82.7972 99.8931 83.5244 100.106 84.2125C100.32 84.9006 100.684 85.5321 101.174 86.0605C102.095 87.1071 103.373 87.7727 104.758 87.9272C100.599 96.0681 93.7253 102.499 85.3261 106.108C84.3955 106.296 83.4313 106.22 82.5412 105.891C81.651 105.561 80.8703 104.99 80.2861 104.242C79.285 103.074 78.5068 101.733 77.9901 100.285C76.9058 97.3844 76.1787 94.3631 75.8248 91.2872C75.2589 86.8992 75.0093 82.4763 75.0781 78.0525C75.0714 77.3217 75.1213 76.5916 75.2274 75.8685C75.4057 74.7757 75.9206 73.7656 76.7002 72.9793C77.4799 72.1929 78.4855 71.6695 79.5768 71.4819C80.5917 71.2868 81.6399 71.3575 82.6195 71.6872C84.4056 72.1405 86.0238 73.0976 87.2814 74.4446C88.539 75.7915 89.3829 77.4715 89.7128 79.2845C89.9979 81.0344 89.857 82.8273 89.3021 84.5112C89.1901 84.8285 89.0968 85.1459 88.9474 85.5565L92.4568 86.9379C93.5738 84.3868 93.9553 81.5743 93.5581 78.8178C97.8096 80.8978 102.489 81.9526 107.222 81.8978C106.658 83.7119 105.966 85.4835 105.15 87.1992V87.1059ZM108.995 71.1459C108.995 71.5192 108.995 71.9112 108.995 72.3032C108.159 72.1824 107.306 72.2596 106.506 72.5287C105.705 72.7978 104.978 73.2513 104.385 73.8525C103.593 74.6129 103.102 75.6338 103.003 76.7272C104.87 77.4739 106.737 76.7272 108.865 74.1139C108.732 75.4113 108.533 76.701 108.267 77.9779H107.931C104.468 78.0582 101.018 77.5274 97.7395 76.4099C96.2695 75.87 94.8909 75.1083 93.6515 74.1512C92.4381 73.2178 91.2435 72.2845 89.9181 71.4259C88.5928 70.5672 86.9874 69.7085 85.5314 68.8499L84.9528 68.5139C86.8397 67.7764 88.8296 67.3356 90.8515 67.2072C96.4503 66.9069 102.039 67.9569 107.147 70.2685L109.014 71.0899L108.995 71.1459ZM108.23 62.3352C105.579 60.9165 103.302 61.1779 101.921 62.9886C103.47 64.8552 105.542 64.8552 108.379 63.1752C108.609 64.4099 108.771 65.6562 108.865 66.9085C105.949 65.6075 102.892 64.6491 99.7554 64.0525C101.816 61.785 104.552 60.2405 107.558 59.6472C107.819 60.5992 108.043 61.4952 108.23 62.4285V62.3352ZM104.179 51.3779C104.459 51.8632 104.721 52.3672 104.963 52.8525C104.155 52.6789 103.317 52.693 102.514 52.8936C101.712 53.0942 100.966 53.4761 100.334 54.0099C99.5384 54.6647 98.9807 55.5635 98.7474 56.5672C101.006 57.7619 103.694 56.5672 105.337 53.6365C105.691 54.3832 106.009 55.1485 106.307 55.9139L105.766 56.1006C102.956 56.8244 100.358 58.2065 98.1874 60.1326C97.3079 61.0275 96.4909 61.9817 95.7421 62.9886C95.4808 63.3059 95.2568 63.5112 94.8461 63.4552C92.7237 63.2499 90.5835 63.3252 88.4808 63.6792C88.2757 63.6933 88.0699 63.6933 87.8648 63.6792C88.1821 63.1752 88.4061 62.7459 88.7047 62.3352C90.216 60.3106 92.0218 58.5237 94.0621 57.0339C97.0417 54.8001 100.298 52.9616 103.75 51.5645L104.179 51.3779ZM89.8434 55.3352C89.699 53.1988 89.1344 51.1118 88.1821 49.1939C87.1986 47.3577 85.9396 45.6832 84.4487 44.2285C86.3646 41.687 88.535 39.3478 90.9261 37.2472C91.4301 37.5645 91.9154 37.9005 92.4008 38.2365C91.1976 38.3695 90.0738 38.9018 89.2088 39.7485C88.721 40.2362 88.3397 40.8198 88.0891 41.4624C87.8384 42.105 87.7239 42.7927 87.7528 43.4819C88.4503 43.5586 89.1561 43.4813 89.8205 43.2555C90.4849 43.0298 91.0917 42.661 91.5981 42.1752C92.5454 41.3025 93.1426 40.1148 93.2781 38.8339C94.5481 39.7776 95.7576 40.8 96.8994 41.8952C96.427 42.4898 96.0903 43.1805 95.913 43.9189C95.7356 44.6573 95.7219 45.4256 95.8728 46.1699C96.0772 47.3725 96.748 48.4458 97.7395 49.1566C98.4454 48.5216 98.9427 47.6879 99.1659 46.765C99.3891 45.8421 99.3278 44.8732 98.9901 43.9859C100.142 45.2514 101.208 46.5921 102.182 47.9992C97.6589 49.7198 93.4802 52.2359 89.8434 55.4285V55.3352Z" fill="#0063A6"/>
<path d="M15.1388 43.1461C15.204 43.0033 15.3228 42.8919 15.4696 42.836C15.6163 42.7801 15.7791 42.7842 15.9228 42.8475L16.8188 43.2395C16.8922 43.2662 16.9594 43.3076 17.0163 43.361C17.0733 43.4145 17.1188 43.4789 17.1502 43.5504C17.1816 43.6219 17.1982 43.699 17.199 43.7771C17.1998 43.8552 17.1848 43.9327 17.1548 44.0048L16.1655 46.2821L27.2162 50.9488C27.359 51.014 27.4704 51.1328 27.5263 51.2795C27.5822 51.4263 27.5781 51.5891 27.5148 51.7328L26.9922 52.9648C26.9634 53.0388 26.9201 53.1064 26.8649 53.1635C26.8097 53.2206 26.7437 53.2661 26.6707 53.2974C26.5977 53.3287 26.5192 53.3451 26.4398 53.3457C26.3603 53.3463 26.2816 53.331 26.2082 53.3008L15.1762 48.6341L14.2428 50.8181C14.2146 50.8899 14.1718 50.9551 14.1171 51.0095C14.0625 51.064 13.9972 51.1065 13.9254 51.1346C13.8535 51.1626 13.7766 51.1755 13.6996 51.1724C13.6225 51.1694 13.5469 51.1504 13.4775 51.1168L12.5628 50.7435C12.4212 50.6817 12.3091 50.5675 12.2499 50.4248C12.1907 50.2821 12.1891 50.122 12.2455 49.9781L15.1388 43.1461Z" fill="#0063A6"/>
<path d="M26.7126 40.2524L31.3232 43.6684C31.4421 43.7701 31.5193 43.912 31.54 44.067C31.5607 44.222 31.5233 44.3792 31.4352 44.5084L30.6326 45.5911C30.5362 45.7166 30.3951 45.8002 30.2387 45.8246C30.0823 45.8489 29.9226 45.8121 29.7926 45.7218L18.8726 37.6391C18.7551 37.5407 18.6785 37.4019 18.6577 37.2501C18.637 37.0982 18.6737 36.944 18.7606 36.8178L21.7846 32.7297C21.9923 32.4459 22.2552 32.2069 22.5575 32.027C22.8598 31.8472 23.1954 31.7302 23.544 31.6832C23.8926 31.6361 24.2471 31.6599 24.5863 31.7531C24.9255 31.8464 25.2423 32.0071 25.5179 32.2258L27.1792 33.4578C28.2619 34.2418 28.8592 35.2311 28.1686 36.4071C29.2886 35.1564 30.5952 35.6418 31.7152 36.4071L34.8326 38.8151C34.8953 38.8627 34.948 38.9223 34.9876 38.9904C35.0272 39.0585 35.0529 39.1337 35.0633 39.2118C35.0737 39.2899 35.0686 39.3692 35.0482 39.4453C35.0278 39.5214 34.9926 39.5927 34.9446 39.6551L34.1419 40.7378C34.0488 40.862 33.911 40.9451 33.7577 40.9695C33.6044 40.9939 33.4476 40.9577 33.3206 40.8684L29.7926 38.2737C29.6487 38.1712 29.4857 38.0984 29.3133 38.0597C29.1408 38.0211 28.9624 38.0173 28.7885 38.0486C28.6145 38.0799 28.4486 38.1456 28.3005 38.242C28.1524 38.3384 28.025 38.4635 27.9259 38.6098L26.7126 40.2524ZM24.7526 34.6524C24.6129 34.5428 24.4521 34.4633 24.2803 34.4189C24.1084 34.3744 23.9292 34.3659 23.754 34.3939C23.5787 34.4219 23.4111 34.4859 23.2617 34.5818C23.1123 34.6777 22.9844 34.8034 22.8859 34.9511L21.6726 36.5938L25.0326 39.0765L26.2459 37.4524C26.3564 37.3139 26.4371 37.1542 26.4831 36.9831C26.529 36.812 26.5391 36.6333 26.5129 36.4581C26.4866 36.2829 26.4245 36.1149 26.3303 35.9649C26.2362 35.8148 26.1122 35.6857 25.9659 35.5857L24.7526 34.6524Z" fill="#0063A6"/>
<path d="M33.3387 22.1087C33.2901 22.0489 33.254 21.9801 33.2324 21.9063C33.2107 21.8324 33.2041 21.7549 33.2128 21.6784C33.2215 21.6019 33.2453 21.5279 33.283 21.4608C33.3206 21.3936 33.3713 21.3346 33.432 21.2873L34.4773 20.4474C34.5914 20.3411 34.7414 20.282 34.8973 20.282C35.0532 20.282 35.2033 20.3411 35.3173 20.4474L41.9253 28.6234C42.5687 29.5133 42.8465 30.6159 42.7018 31.7044C42.5571 32.793 42.0008 33.7846 41.1473 34.4756C40.2938 35.1665 39.208 35.5041 38.1132 35.419C37.0184 35.3339 35.9978 34.8325 35.2613 34.018L28.6346 25.8234C28.5434 25.6986 28.5041 25.5432 28.525 25.3901C28.5459 25.2369 28.6254 25.0978 28.7467 25.002L29.7733 24.162C29.8873 24.0557 30.0374 23.9966 30.1933 23.9966C30.3492 23.9966 30.4993 24.0557 30.6133 24.162L37.24 32.338C37.3834 32.5157 37.5604 32.6635 37.7609 32.7728C37.9614 32.8821 38.1815 32.9509 38.4085 32.9751C38.6356 32.9994 38.8652 32.9787 39.0843 32.9142C39.3034 32.8497 39.5076 32.7428 39.6853 32.5994C39.8631 32.456 40.0108 32.2789 40.1201 32.0784C40.2294 31.8779 40.2982 31.6579 40.3224 31.4308C40.3467 31.2038 40.326 30.9741 40.2615 30.755C40.197 30.536 40.0901 30.3317 39.9467 30.154L33.3387 22.1087Z" fill="#0063A6"/>
<path d="M44.6131 18.8794C44.9678 19.6448 45.4904 19.7194 46.7037 19.8874L49.8958 20.354C51.7624 20.634 52.3411 21.2501 53.1437 23.0047C53.5804 24.0382 53.597 25.2012 53.1901 26.2467C52.7832 27.2923 51.9848 28.1381 50.9644 28.6045C49.9441 29.071 48.7821 29.1214 47.7251 28.745C46.6682 28.3686 45.7996 27.5952 45.3037 26.5888L44.9491 25.8234C44.8964 25.6766 44.8996 25.5154 44.9581 25.3708C45.0166 25.2262 45.1264 25.1082 45.2664 25.0394L46.4798 24.4794C46.6212 24.4149 46.7822 24.4081 46.9286 24.4603C47.075 24.5126 47.1952 24.6199 47.2638 24.7594L47.6184 25.5434C47.7057 25.7662 47.8377 25.9687 48.0062 26.1386C48.1747 26.3085 48.3761 26.4422 48.5982 26.5313C48.8202 26.6205 49.0581 26.6633 49.2973 26.6571C49.5365 26.6509 49.7719 26.5959 49.9891 26.4954C50.2157 26.4085 50.4203 26.2725 50.588 26.0971C50.7558 25.9217 50.8826 25.7113 50.9594 25.4811C51.0361 25.2508 51.0609 25.0064 51.0319 24.7654C51.0029 24.5245 50.9209 24.2929 50.7917 24.0874L50.6611 23.8074C50.3064 23.0234 49.7838 22.9487 48.9251 22.8181L45.0424 22.2394C44.4111 22.1187 43.8217 21.8371 43.3311 21.4218C42.8406 21.0064 42.4656 20.4715 42.2424 19.8688C41.9704 19.3645 41.8118 18.8069 41.7775 18.235C41.7431 17.6631 41.834 17.0906 42.0437 16.5574C42.2534 16.0242 42.5769 15.5432 42.9917 15.1479C43.4064 14.7526 43.9024 14.4526 44.4451 14.2688C44.9257 13.9795 45.4634 13.7977 46.021 13.7361C46.5786 13.6745 47.1429 13.7345 47.6751 13.9119C48.2073 14.0893 48.6948 14.3799 49.1039 14.7638C49.5131 15.1476 49.8341 15.6156 50.0451 16.1354L50.2317 16.5647C50.2902 16.709 50.2919 16.87 50.2365 17.0154C50.1811 17.1609 50.0727 17.28 49.9331 17.3487L48.7197 17.8901C48.6493 17.9276 48.5718 17.9502 48.4922 17.9563C48.4126 17.9624 48.3325 17.952 48.2572 17.9257C48.1818 17.8994 48.1126 17.8578 48.0541 17.8034C47.9956 17.7491 47.9489 17.6833 47.9171 17.6101L47.7304 17.1994C47.6551 16.9699 47.5306 16.7596 47.3656 16.5831C47.2007 16.4067 46.9992 16.2683 46.7753 16.1777C46.5514 16.0871 46.3104 16.0464 46.0692 16.0584C45.8279 16.0704 45.5922 16.1349 45.3784 16.2474C45.1479 16.3295 44.939 16.4625 44.7672 16.6367C44.5954 16.8108 44.4651 17.0215 44.3862 17.253C44.3072 17.4846 44.2815 17.7309 44.3111 17.9738C44.3407 18.2166 44.4248 18.4496 44.5571 18.6554L44.6131 18.8794Z" fill="#0063A6"/>
<path d="M61.712 9.63932C61.8652 9.61175 62.0232 9.64512 62.1522 9.73229C62.2812 9.81946 62.371 9.95353 62.4026 10.106L62.5893 11.0767C62.6175 11.2273 62.5867 11.383 62.5033 11.5115C62.4199 11.6401 62.2903 11.7317 62.1413 11.7673L59.808 12.234L62.1226 23.994C62.1449 24.1493 62.1071 24.3072 62.0169 24.4355C61.9267 24.5639 61.7909 24.653 61.6373 24.6846L60.312 24.946C60.1587 24.9736 60.0008 24.9402 59.8718 24.853C59.7428 24.7659 59.6529 24.6318 59.6213 24.4793L57.232 12.682L54.9173 13.13C54.7614 13.1571 54.6011 13.1212 54.4716 13.0302C54.3421 12.9392 54.254 12.8006 54.2266 12.6447L54.04 11.6927C54.0112 11.5397 54.0414 11.3815 54.1246 11.2499C54.2077 11.1183 54.3375 11.0231 54.488 10.9833L61.712 9.63932Z" fill="#0063A6"/>
<path d="M68.6191 23.8819C68.4638 23.8682 68.319 23.7979 68.2123 23.6842C68.1055 23.5706 68.0444 23.4218 68.0404 23.2659L68.507 9.69525C68.5118 9.61675 68.532 9.53999 68.5665 9.46932C68.601 9.39865 68.6491 9.33547 68.7081 9.28344C68.767 9.23141 68.8357 9.19158 68.9101 9.16614C68.9845 9.14071 69.0633 9.13021 69.1417 9.13527L75.5444 9.35926C75.622 9.3616 75.6984 9.37957 75.769 9.41207C75.8396 9.44456 75.9029 9.4909 75.9551 9.54839C76.0074 9.60587 76.0475 9.67329 76.0732 9.74663C76.0988 9.81996 76.1094 9.89771 76.1044 9.97523V10.9833C76.1044 11.0608 76.0889 11.1377 76.0586 11.2091C76.0284 11.2806 75.9841 11.3452 75.9284 11.3992C75.8726 11.4531 75.8066 11.4954 75.7343 11.5233C75.6619 11.5513 75.5846 11.5644 75.507 11.5619L71.0644 11.4126L70.9337 15.1459L74.7604 15.2766C74.9123 15.2946 75.0526 15.3667 75.1555 15.4799C75.2584 15.5931 75.317 15.7397 75.3204 15.8926V16.8819C75.3111 17.0356 75.2447 17.1802 75.1341 17.2873C75.0236 17.3944 74.8769 17.4562 74.723 17.4606L70.8964 17.3299L70.7284 21.7913L75.2831 21.9593C75.3607 21.9616 75.4371 21.9796 75.5077 22.0121C75.5782 22.0446 75.6415 22.0909 75.6938 22.1484C75.746 22.2059 75.7862 22.2733 75.8118 22.3466C75.8375 22.42 75.8481 22.4977 75.8431 22.5752V23.5832C75.8382 23.7384 75.7732 23.8856 75.6617 23.9936C75.5502 24.1016 75.401 24.162 75.2457 24.1619L68.6191 23.8819Z" fill="#0063A6"/>
<path d="M87.6023 24.2926C87.3627 24.9904 86.8671 25.5713 86.2157 25.9178C85.5643 26.2643 84.8056 26.3506 84.093 26.1592L79.3144 24.7779C79.2394 24.7608 79.1688 24.7283 79.1069 24.6827C79.045 24.637 78.9932 24.5791 78.9547 24.5126C78.9161 24.446 78.8917 24.3723 78.883 24.2959C78.8742 24.2195 78.8812 24.1421 78.9037 24.0686L82.637 11.0019C82.6584 10.9279 82.6943 10.8589 82.7426 10.799C82.791 10.7391 82.8508 10.6894 82.9186 10.6529C82.9864 10.6164 83.0608 10.5938 83.1375 10.5864C83.2141 10.579 83.2915 10.587 83.365 10.6099L88.1437 11.9726C88.8488 12.17 89.4511 12.6306 89.8262 13.2594C90.2014 13.8881 90.3208 14.637 90.1597 15.3512L87.6023 24.2926ZM87.4343 15.4446C87.5244 15.266 87.5723 15.069 87.5742 14.869C87.5762 14.669 87.5322 14.4711 87.4456 14.2908C87.3591 14.1104 87.2322 13.9524 87.0749 13.8288C86.9176 13.7052 86.7341 13.6194 86.5384 13.5779L84.6717 13.0553L81.7783 23.1539L83.645 23.6952C83.824 23.7577 84.0146 23.78 84.2032 23.7603C84.3917 23.7407 84.5737 23.6796 84.7359 23.5816C84.8982 23.4835 85.0368 23.3508 85.1419 23.193C85.2469 23.0352 85.3158 22.8561 85.3437 22.6686L87.4343 15.4446Z" fill="#0063A6"/>
<path d="M97.0667 31.9087C97.0236 31.9737 96.9679 32.0293 96.9027 32.0722C96.8376 32.1151 96.7646 32.1444 96.6879 32.1584C96.6112 32.1723 96.5324 32.1707 96.4564 32.1534C96.3803 32.1362 96.3086 32.1037 96.2454 32.0581L95.144 31.2367C95.0206 31.1436 94.9367 31.0074 94.909 30.8552C94.8814 30.703 94.912 30.546 94.9947 30.4154L103.059 19.4767C103.106 19.414 103.166 19.3613 103.234 19.3217C103.302 19.2821 103.377 19.2564 103.455 19.246C103.533 19.2356 103.613 19.2407 103.689 19.2611C103.765 19.2814 103.836 19.3166 103.899 19.3647L109.051 23.098C109.113 23.144 109.165 23.2019 109.204 23.2684C109.244 23.3349 109.27 23.4086 109.28 23.4851C109.29 23.5617 109.285 23.6395 109.265 23.7141C109.245 23.7887 109.21 23.8585 109.163 23.9194L108.565 24.7221C108.522 24.7871 108.467 24.8427 108.401 24.8856C108.336 24.9285 108.263 24.9577 108.187 24.9717C108.11 24.9856 108.031 24.984 107.955 24.9667C107.879 24.9495 107.807 24.917 107.744 24.8714L104.16 22.2207L102.032 25.2634L105.112 27.5407C105.174 27.5866 105.226 27.6445 105.266 27.711C105.305 27.7775 105.331 27.8512 105.341 27.9278C105.352 28.0043 105.347 28.0822 105.327 28.1568C105.306 28.2314 105.272 28.3011 105.224 28.362L104.645 29.1461C104.602 29.211 104.547 29.2666 104.481 29.3095C104.416 29.3525 104.343 29.3818 104.267 29.3957C104.19 29.4097 104.111 29.408 104.035 29.3907C103.959 29.3735 103.887 29.341 103.824 29.2954L100.744 27.018L97.0667 31.9087Z" fill="#0063A6"/>
<path d="M110.974 41.3352C110.105 42.0778 108.977 42.4448 107.837 42.3555C106.698 42.2663 105.641 41.728 104.898 40.8591C104.155 39.9903 103.788 38.862 103.878 37.7225C103.967 36.5831 104.505 35.5257 105.374 34.7831L111.123 29.9298C111.992 29.1872 113.12 28.8201 114.26 28.9094C115.399 28.9987 116.457 29.537 117.199 30.4058C117.942 31.2747 118.309 32.4029 118.22 33.5424C118.13 34.6819 117.592 35.7392 116.723 36.4818L110.974 41.3352ZM115.062 34.5405C115.261 34.4052 115.429 34.2288 115.554 34.0232C115.678 33.8176 115.758 33.5876 115.786 33.3486C115.814 33.1097 115.791 32.8674 115.718 32.6383C115.644 32.4092 115.523 32.1984 115.361 32.0205C115.212 31.8315 115.025 31.6762 114.812 31.5648C114.599 31.4535 114.365 31.3886 114.125 31.3745C113.885 31.3604 113.645 31.3974 113.42 31.483C113.195 31.5686 112.992 31.7009 112.822 31.8711L107.073 36.7245C106.875 36.8651 106.708 37.0454 106.583 37.2539C106.458 37.4623 106.378 37.6944 106.348 37.9355C106.317 38.1765 106.337 38.4212 106.406 38.6542C106.475 38.8871 106.592 39.1032 106.749 39.2886C106.906 39.4741 107.1 39.625 107.318 39.7317C107.536 39.8384 107.774 39.8986 108.017 39.9084C108.26 39.9183 108.502 39.8777 108.728 39.7891C108.954 39.7005 109.16 39.5659 109.331 39.3938L115.062 34.5405Z" fill="#0063A6"/>
<path d="M116.797 46.0579L111.608 48.5406C111.463 48.599 111.302 48.6007 111.157 48.5453C111.012 48.4899 110.892 48.3815 110.824 48.2419L110.245 47.0286C110.178 46.8866 110.168 46.7246 110.217 46.5754C110.265 46.4263 110.369 46.3013 110.506 46.2259L122.752 40.3459C122.896 40.2874 123.057 40.2857 123.202 40.3411C123.348 40.3965 123.467 40.505 123.536 40.6446L125.738 45.2179C125.894 45.5352 125.983 45.8807 126.001 46.2335C126.019 46.5864 125.966 46.9392 125.843 47.2707C125.721 47.6022 125.533 47.9055 125.291 48.1622C125.048 48.419 124.756 48.6239 124.432 48.7645L122.565 49.6792C121.37 50.2579 120.213 50.3139 119.504 49.1566C120.064 50.7246 119.037 51.6579 117.786 52.2739L114.221 53.9726C114.151 54.007 114.076 54.0272 113.998 54.0317C113.92 54.0362 113.843 54.0251 113.77 53.9989C113.696 53.9728 113.629 53.9322 113.572 53.8796C113.515 53.8269 113.469 53.7633 113.437 53.6926L112.858 52.4606C112.823 52.3921 112.802 52.3173 112.796 52.2406C112.79 52.1638 112.8 52.0867 112.824 52.0137C112.849 51.9407 112.887 51.8732 112.938 51.8154C112.989 51.7575 113.05 51.7103 113.12 51.6766L117.058 49.8099C117.226 49.7328 117.376 49.622 117.498 49.4844C117.621 49.3469 117.714 49.1855 117.772 49.0105C117.83 48.8354 117.851 48.6503 117.834 48.4667C117.817 48.2831 117.763 48.1049 117.674 47.9433L116.797 46.0579ZM122.733 46.9912C122.906 46.9212 123.063 46.8141 123.19 46.6776C123.318 46.5411 123.415 46.3783 123.474 46.2007C123.532 46.023 123.551 45.8347 123.53 45.6489C123.508 45.4631 123.447 45.2841 123.349 45.1246L122.472 43.2579L118.738 45.1246L119.616 46.9912C119.685 47.1658 119.79 47.3234 119.925 47.4535C120.061 47.5836 120.222 47.683 120.399 47.745C120.577 47.807 120.765 47.8301 120.952 47.8128C121.139 47.7955 121.32 47.7381 121.482 47.6446L122.733 46.9912Z" fill="#0063A6"/>
<path d="M16.1659 92.8179C15.0971 93.1407 13.9445 93.0345 12.9527 92.5217C11.961 92.0089 11.2079 91.1299 10.8534 90.0712C10.4989 89.0125 10.5707 87.8573 11.0537 86.8507C11.5367 85.8441 12.3929 85.0652 13.4405 84.6793L20.5526 82.3086C21.6041 82.0367 22.7195 82.1735 23.6742 82.6913C24.6289 83.2091 25.3519 84.0695 25.6975 85.0992C26.043 86.1288 25.9856 87.2511 25.5366 88.2401C25.0876 89.229 24.2805 90.011 23.2779 90.4286L16.1659 92.8179ZM22.4752 88.0206C22.6922 87.9482 22.8927 87.834 23.0655 87.6841C23.2382 87.5343 23.3798 87.3519 23.4821 87.1473C23.5843 86.9428 23.6453 86.7202 23.6615 86.492C23.6777 86.2639 23.6489 86.0349 23.5765 85.8179C23.5042 85.601 23.3899 85.4004 23.2401 85.2276C23.0902 85.0549 22.9079 84.9134 22.7033 84.8111C22.4988 84.7088 22.2761 84.6478 22.048 84.6316C21.8199 84.6154 21.5908 84.6443 21.3739 84.7166L14.2432 87.0872C14.0162 87.1535 13.8049 87.265 13.622 87.415C13.4391 87.5649 13.2884 87.7503 13.179 87.96C13.0696 88.1697 13.0037 88.3994 12.9853 88.6352C12.9669 88.871 12.9964 89.108 13.072 89.3321C13.1475 89.5563 13.2676 89.7628 13.425 89.9394C13.5824 90.1159 13.7738 90.2588 13.9878 90.3595C14.2019 90.4601 14.434 90.5165 14.6704 90.5252C14.9067 90.5339 15.1424 90.4947 15.3632 90.4099L22.4752 88.0206Z" fill="#0063A6"/>
<path d="M30.1838 96.6818C30.3426 96.6288 30.5144 96.6293 30.6728 96.6833C30.8313 96.7372 30.9677 96.8416 31.0611 96.9805L31.7518 98.1192C31.7889 98.1763 31.814 98.2404 31.8257 98.3075C31.8373 98.3747 31.8352 98.4435 31.8195 98.5098C31.8038 98.5761 31.7748 98.6385 31.7343 98.6933C31.6938 98.748 31.6426 98.7941 31.5838 98.8285L31.3598 98.9219L18.4238 103.757C18.2986 103.792 18.1652 103.786 18.0439 103.739C17.9226 103.692 17.8201 103.606 17.7518 103.495L16.0531 100.677C15.9758 100.571 15.9341 100.443 15.9341 100.313C15.9341 100.182 15.9758 100.054 16.0531 99.9485L26.3571 90.7645L26.5438 90.5965C26.6013 90.5631 26.6649 90.5415 26.7308 90.5329C26.7968 90.5242 26.8638 90.5287 26.928 90.546C26.9922 90.5634 27.0523 90.5933 27.1049 90.634C27.1575 90.6747 27.2015 90.7254 27.2345 90.7832L27.9251 91.9219C28.0069 92.0689 28.0367 92.2392 28.0096 92.4052C27.9825 92.5712 27.9001 92.7232 27.7758 92.8365L18.4425 101.106L30.1838 96.6818Z" fill="#0063A6"/>
<path d="M22.6055 110.178C22.4992 110.064 22.4401 109.914 22.4401 109.758C22.4401 109.602 22.4992 109.452 22.6055 109.338L32.5362 100.005C32.59 99.9505 32.6539 99.9075 32.7244 99.8782C32.7949 99.8488 32.8705 99.8337 32.9468 99.8337C33.0232 99.8337 33.0988 99.8488 33.1692 99.8782C33.2397 99.9075 33.3037 99.9505 33.3575 100.005L37.7442 104.671C37.8504 104.785 37.9096 104.935 37.9096 105.091C37.9096 105.247 37.8504 105.397 37.7442 105.511L37.0162 106.202C36.9021 106.308 36.7521 106.367 36.5962 106.367C36.4403 106.367 36.2902 106.308 36.1762 106.202L33.1335 102.954L30.4455 105.455L33.0588 108.255C33.1651 108.369 33.2242 108.519 33.2242 108.675C33.2242 108.831 33.1651 108.981 33.0588 109.095L32.3495 109.767C32.2355 109.874 32.0854 109.933 31.9295 109.933C31.7736 109.933 31.6235 109.874 31.5095 109.767L28.8962 106.967L25.4988 110.103L28.6722 113.482C28.7784 113.596 28.8376 113.746 28.8376 113.902C28.8376 114.058 28.7784 114.208 28.6722 114.322L27.9442 115.013C27.8301 115.119 27.6801 115.178 27.5242 115.178C27.3683 115.178 27.2182 115.119 27.1042 115.013L22.6055 110.178Z" fill="#0063A6"/>
<path d="M36.8104 114.807L33.5251 119.511C33.4805 119.575 33.4237 119.629 33.3579 119.67C33.2921 119.711 33.2187 119.738 33.1421 119.751C33.0654 119.763 32.9871 119.759 32.9118 119.741C32.8365 119.722 32.7658 119.688 32.7037 119.642L31.6024 118.876C31.5359 118.835 31.4786 118.78 31.4339 118.716C31.3892 118.651 31.358 118.579 31.3423 118.502C31.3266 118.425 31.3267 118.346 31.3425 118.269C31.3583 118.192 31.3896 118.119 31.4344 118.055L39.1997 106.855C39.29 106.728 39.4265 106.641 39.58 106.613C39.7334 106.585 39.8918 106.618 40.021 106.706L44.165 109.748C44.4589 109.946 44.7096 110.201 44.9018 110.499C45.0939 110.796 45.2236 111.13 45.283 111.479C45.3424 111.828 45.3301 112.186 45.2471 112.53C45.164 112.874 45.0118 113.198 44.7997 113.482L43.605 115.18C42.8397 116.282 41.8877 116.898 40.693 116.244C41.9624 117.327 41.5144 118.652 40.693 119.791L38.565 122.964C38.4686 123.09 38.3276 123.174 38.1712 123.198C38.0148 123.222 37.855 123.185 37.7251 123.095L36.6237 122.33C36.4972 122.239 36.4096 122.104 36.3784 121.952C36.3473 121.8 36.3749 121.641 36.4557 121.508L38.9571 117.906C39.0545 117.758 39.1217 117.592 39.1547 117.418C39.1877 117.243 39.186 117.064 39.1496 116.891C39.1131 116.717 39.0427 116.553 38.9424 116.407C38.8421 116.26 38.7138 116.136 38.565 116.039L36.8104 114.807ZM42.4104 112.679C42.5174 112.536 42.5934 112.372 42.6336 112.198C42.6738 112.024 42.6774 111.843 42.644 111.668C42.6106 111.492 42.5411 111.325 42.4398 111.178C42.3385 111.031 42.2077 110.906 42.0557 110.812L40.3757 109.655L37.9864 113.071L39.6664 114.247C39.8084 114.355 39.9712 114.432 40.1445 114.474C40.3179 114.515 40.498 114.521 40.6735 114.489C40.8489 114.457 41.0159 114.39 41.1639 114.29C41.3119 114.191 41.4376 114.062 41.533 113.911L42.4104 112.679Z" fill="#0063A6"/>
<path d="M104.179 121.359C104.047 121.447 103.885 121.481 103.729 121.453C103.572 121.426 103.433 121.338 103.339 121.21L99.7921 116.095L92.6988 112.213L92.5495 112.063C92.5125 112.016 92.4862 111.961 92.4727 111.903C92.4591 111.844 92.4586 111.783 92.471 111.725C92.4835 111.666 92.5087 111.611 92.5448 111.563C92.5809 111.515 92.6271 111.475 92.6801 111.447L93.7628 110.682C94.0428 110.495 94.2295 110.495 94.7522 110.682L99.5121 113.202L98.8215 107.863C98.7282 107.266 98.8215 107.098 99.0642 106.911L100.165 106.146C100.204 106.102 100.251 106.067 100.305 106.043C100.358 106.019 100.415 106.007 100.474 106.007C100.532 106.007 100.589 106.019 100.642 106.043C100.696 106.067 100.743 106.102 100.781 106.146C100.83 106.205 100.863 106.276 100.875 106.351L101.995 114.434L105.56 119.567C105.641 119.7 105.669 119.859 105.637 120.011C105.606 120.163 105.519 120.298 105.392 120.389L104.179 121.359Z" fill="#0063A6"/>
<path d="M112.523 114.658C112.409 114.765 112.259 114.824 112.103 114.824C111.947 114.824 111.797 114.765 111.683 114.658L101.789 105.325C101.679 105.213 101.617 105.062 101.617 104.905C101.617 104.748 101.679 104.597 101.789 104.485L106.176 99.8182C106.29 99.7119 106.44 99.6528 106.596 99.6528C106.752 99.6528 106.902 99.7119 107.016 99.8182L107.744 100.509C107.85 100.623 107.909 100.773 107.909 100.929C107.909 101.085 107.85 101.235 107.744 101.349L104.701 104.597L107.389 107.098L110.003 104.317C110.117 104.211 110.267 104.152 110.423 104.152C110.579 104.152 110.729 104.211 110.843 104.317L111.552 104.989C111.663 105.101 111.725 105.252 111.725 105.409C111.725 105.566 111.663 105.717 111.552 105.829L108.939 108.629L112.205 111.69L115.323 108.349C115.437 108.243 115.587 108.183 115.743 108.183C115.899 108.183 116.049 108.243 116.163 108.349L116.891 109.021C116.997 109.135 117.056 109.285 117.056 109.441C117.056 109.597 116.997 109.747 116.891 109.861L112.523 114.658Z" fill="#0063A6"/>
<path d="M110.6 93.1539C110.656 93.0611 110.742 92.9893 110.843 92.9489C110.943 92.9085 111.055 92.9018 111.16 92.9299L124.432 97.2233C124.55 97.2477 124.664 97.2918 124.768 97.3539C124.818 97.3845 124.862 97.4248 124.896 97.4723C124.931 97.5198 124.956 97.5738 124.97 97.631C124.984 97.6882 124.986 97.7476 124.977 97.8057C124.968 97.8639 124.948 97.9197 124.917 97.9699L124.114 99.2766C124.049 99.3744 123.951 99.4453 123.838 99.4761C123.725 99.507 123.604 99.4958 123.498 99.4446L120.922 98.6233L118.869 102.058L120.736 103.925C120.922 104.111 121.034 104.335 120.904 104.559L120.101 105.866C120.076 105.919 120.04 105.966 119.995 106.004C119.95 106.042 119.897 106.07 119.841 106.086C119.784 106.102 119.725 106.106 119.667 106.097C119.608 106.088 119.553 106.066 119.504 106.034L119.224 105.81L109.181 96.1406C109.113 96.0523 109.076 95.9441 109.076 95.8326C109.076 95.7211 109.113 95.6128 109.181 95.5246L110.6 93.1539ZM112.112 95.6926L117.264 100.546L118.813 97.9326L112.112 95.6926Z" fill="#0063A6"/>
<path d="M121.763 88.8792L127.232 90.6525C127.376 90.7072 127.493 90.8154 127.559 90.9546C127.625 91.0937 127.635 91.253 127.587 91.3992L127.176 92.6871C127.129 92.838 127.024 92.9639 126.884 93.0374C126.744 93.1109 126.58 93.1259 126.429 93.0792L113.512 88.8978C113.364 88.8467 113.243 88.7401 113.173 88.6005C113.103 88.461 113.091 88.2997 113.139 88.1511L114.707 83.3165C114.809 82.9785 114.98 82.665 115.208 82.3953C115.436 82.1257 115.717 81.9054 116.034 81.7482C116.35 81.5909 116.695 81.4998 117.048 81.4806C117.401 81.4614 117.754 81.5145 118.085 81.6365L120.064 82.2712C121.333 82.6818 122.211 83.4285 121.931 84.7538C122.603 83.2231 123.984 83.2605 125.309 83.6898L129.043 84.9032C129.19 84.9542 129.312 85.0609 129.381 85.2005C129.451 85.34 129.464 85.5013 129.416 85.6498L128.987 86.9378C128.968 87.0133 128.933 87.0839 128.885 87.1453C128.838 87.2067 128.777 87.2574 128.709 87.2943C128.641 87.3312 128.565 87.3534 128.488 87.3595C128.41 87.3656 128.332 87.3555 128.259 87.3298L124.096 85.9858C123.918 85.926 123.73 85.9035 123.544 85.9196C123.357 85.9357 123.176 85.9901 123.011 86.0795C122.846 86.1688 122.702 86.2912 122.587 86.4389C122.471 86.5865 122.388 86.7564 122.341 86.9378L121.763 88.8792ZM118.029 84.1005C117.858 84.0373 117.676 84.0106 117.493 84.0221C117.311 84.0337 117.134 84.0833 116.972 84.1677C116.81 84.2521 116.668 84.3695 116.554 84.5122C116.44 84.655 116.358 84.8199 116.312 84.9965L115.677 86.8631L119.672 88.1511L120.288 86.2845C120.355 86.1135 120.384 85.9305 120.376 85.7472C120.367 85.5639 120.319 85.3845 120.237 85.2208C120.154 85.057 120.038 84.9125 119.895 84.7966C119.753 84.6808 119.588 84.5963 119.411 84.5485L118.029 84.1005Z" fill="#0063A6"/>
<path d="M119.915 76.8766C120.755 76.8766 121.073 76.5406 121.782 75.57L123.779 73.0499C124.187 72.4143 124.788 71.9262 125.493 71.6574C126.199 71.3886 126.972 71.3533 127.699 71.5566C128.78 71.7299 129.755 72.3077 130.426 73.1731C131.096 74.0385 131.412 75.1265 131.31 76.2165C131.208 77.3065 130.695 78.3168 129.876 79.0426C129.056 79.7684 127.991 80.1552 126.897 80.1246H126.038C125.887 80.0976 125.75 80.0164 125.654 79.8962C125.558 79.7761 125.508 79.625 125.515 79.4713L125.646 78.146C125.66 77.9892 125.734 77.8438 125.852 77.7397C125.97 77.6355 126.123 77.5805 126.281 77.5859H127.121C127.357 77.6226 127.599 77.6107 127.83 77.5507C128.062 77.4907 128.278 77.384 128.467 77.2371C128.656 77.0903 128.813 76.9063 128.928 76.6967C129.043 76.487 129.114 76.2561 129.137 76.0179C129.169 75.781 129.15 75.5399 129.08 75.3112C129.01 75.0826 128.891 74.872 128.731 74.6942C128.571 74.5164 128.374 74.3757 128.154 74.282C127.934 74.1882 127.696 74.1436 127.457 74.1513H127.139C126.299 74.1513 125.963 74.4873 125.422 75.178L122.977 78.2393C122.56 78.7247 122.024 79.0947 121.423 79.3137C120.821 79.5327 120.174 79.5934 119.542 79.49C118.971 79.4711 118.411 79.3283 117.901 79.0713C117.39 78.8144 116.942 78.4495 116.587 78.002C116.232 77.5544 115.978 77.0349 115.844 76.4796C115.709 75.9243 115.697 75.3463 115.809 74.7859C115.797 74.2252 115.908 73.6687 116.134 73.1554C116.36 72.6422 116.695 72.1845 117.117 71.8146C117.538 71.4446 118.036 71.1714 118.574 71.014C119.112 70.8566 119.678 70.8188 120.233 70.9033H120.699C120.853 70.9264 120.992 71.0065 121.089 71.1276C121.186 71.2487 121.233 71.4019 121.222 71.5566L121.091 72.882C121.087 72.9604 121.067 73.0372 121.032 73.1079C120.998 73.1785 120.949 73.2417 120.89 73.2938C120.831 73.3458 120.763 73.3857 120.688 73.4111C120.614 73.4365 120.535 73.447 120.457 73.4419H120.009C119.771 73.3931 119.525 73.3964 119.289 73.4516C119.053 73.5068 118.831 73.6125 118.64 73.7615C118.448 73.9105 118.291 74.0993 118.179 74.3148C118.068 74.5303 118.004 74.7675 117.993 75.01C117.96 75.2469 117.979 75.4881 118.05 75.7167C118.12 75.9453 118.239 76.1559 118.399 76.3337C118.559 76.5115 118.756 76.6521 118.976 76.7459C119.196 76.8397 119.434 76.8843 119.673 76.8766H119.915Z" fill="#0063A6"/>
<path d="M54.4141 134.333V132.765L57.2327 129.965C58.6887 128.49 59.7714 127.333 60.4807 126.511C61.1061 125.807 61.6625 125.045 62.1421 124.234C62.491 123.648 62.7668 123.021 62.9634 122.367C63.1274 121.81 63.2091 121.231 63.206 120.65C63.2672 119.677 62.9457 118.719 62.3101 117.981C61.9882 117.672 61.6072 117.432 61.1902 117.275C60.7732 117.118 60.3286 117.047 59.8834 117.066C59.3171 117.068 58.7574 117.189 58.2407 117.421C57.7276 117.659 57.2795 118.018 56.934 118.466C56.7474 119.101 56.5421 119.885 56.2994 120.874H55.1234L55.534 117.402C55.534 116.861 55.646 116.301 55.702 115.703C56.3586 115.069 57.1407 114.579 57.9981 114.266C58.9296 113.95 59.9076 113.792 60.8914 113.799C62.1483 113.737 63.4004 113.994 64.5314 114.546C65.4239 114.998 66.1544 115.715 66.6221 116.599C67.0583 117.428 67.2888 118.35 67.2941 119.287C67.3002 119.888 67.212 120.487 67.0327 121.061C66.8157 121.719 66.5146 122.346 66.1367 122.927C65.74 123.59 65.2839 124.214 64.774 124.794L63.0567 126.549L61.4514 128.117C60.6114 128.938 59.7154 129.797 58.7261 130.674V130.879H61.3954H65.4274C66.1554 130.879 67.0514 130.879 68.1154 130.749L68.2274 130.954C68.2274 131.85 68.078 132.541 68.078 133.045C68.0861 133.47 68.1235 133.894 68.19 134.314V134.482L63.6914 134.37H61.5261L54.4141 134.333Z" fill="#0063A6"/>
<path d="M73.8648 125.746L73.2862 125.429C73.2862 124.893 73.3235 124.128 73.3981 123.132V120.706V118.708V117.029C73.3981 116.282 73.3981 115.834 73.3981 115.703C73.3981 115.573 73.3981 115.181 73.3981 114.919C73.3981 114.658 73.3981 114.378 73.3981 114.06L73.6035 113.911C76.0301 113.911 78.1395 114.06 79.9315 114.06H81.5368L84.4115 113.93L84.5422 114.172C84.4302 115.28 84.3742 115.989 84.3742 116.301C84.3742 116.581 84.3742 116.917 84.3742 117.346L84.2248 117.532H82.8808H79.7262C77.5795 117.532 75.9928 117.532 75.2275 117.532L75.1155 122.367C75.8109 122.014 76.5434 121.738 77.2995 121.546C77.9104 121.396 78.5372 121.321 79.1661 121.322C80.7871 121.237 82.3762 121.794 83.5901 122.871C84.1276 123.403 84.5479 124.042 84.8244 124.746C85.1008 125.45 85.2272 126.204 85.1955 126.959C85.1818 128.348 84.781 129.706 84.0381 130.879C83.1751 132.231 81.9359 133.302 80.4728 133.959C79.1665 134.597 77.7259 134.911 76.2728 134.874C75.6968 134.881 75.1216 134.831 74.5555 134.725C73.9186 134.591 73.2942 134.403 72.6888 134.165C72.6353 133.712 72.5543 133.263 72.4461 132.82C72.4461 132.372 72.0915 131.364 71.6808 129.796L72.6701 129.442C72.9799 130.116 73.382 130.745 73.8648 131.308C74.3386 131.821 74.9097 132.233 75.5448 132.522C76.1889 132.82 76.8885 132.979 77.5981 132.989C78.1122 132.999 78.623 132.904 79.0984 132.708C79.5738 132.512 80.0036 132.22 80.3608 131.85C81.0727 130.96 81.4605 129.854 81.4605 128.714C81.4605 127.574 81.0727 126.468 80.3608 125.578C79.9674 125.188 79.4966 124.886 78.9789 124.69C78.4612 124.494 77.9082 124.408 77.3555 124.439C76.8966 124.428 76.4384 124.478 75.9928 124.589C75.6498 124.674 75.3178 124.8 75.0035 124.962C74.8541 125.111 74.4621 125.354 73.8648 125.746Z" fill="#0063A6"/>
</svg>
