<svg width="90" height="102" viewBox="0 0 90 102" fill="none" xmlns="http://www.w3.org/2000/svg">
<path d="M57.4595 10.2063H36.6606C32.7598 10.2063 31.8237 12.4688 34.5854 15.2149L35.3968 16.0262C36.7214 17.3804 37.4786 19.1895 37.5134 21.0835C37.5482 22.9775 36.858 24.8132 35.584 26.215L34.3982 27.4945C31.7456 30.3498 32.7598 32.6747 36.6606 32.6747H54.9474C58.8481 32.6747 64.3092 32.7683 67.0241 32.8931V24.9824" stroke="#2576B9" stroke-width="1.78" stroke-miterlimit="10"/>
<path d="M89.4926 1.25H64.949C63.0716 1.25412 61.2722 2.00175 59.9446 3.32933C58.617 4.6569 57.8694 6.45633 57.8653 8.33379V16.6346C57.8694 18.512 58.617 20.3115 59.9446 21.639C61.2722 22.9666 63.0716 23.7142 64.949 23.7184H89.4926" fill="#D6202A"/>
<path d="M89.4926 1.25H64.949C63.0716 1.25412 61.2722 2.00175 59.9446 3.32933C58.617 4.6569 57.8694 6.45633 57.8653 8.33379V16.6346C57.8694 18.512 58.617 20.3115 59.9446 21.639C61.2722 22.9666 63.0716 23.7142 64.949 23.7184H89.4926" stroke="#2576B9" stroke-width="1.78" stroke-miterlimit="10"/>
<path d="M89.0714 100.454V1.26562" stroke="#2576B9" stroke-width="1.78" stroke-miterlimit="10" stroke-linecap="round"/>
<path d="M17.9371 87.8159C25.0636 87.8159 30.8408 82.0388 30.8408 74.9122C30.8408 67.7857 25.0636 62.0085 17.9371 62.0085C10.8106 62.0085 5.03339 67.7857 5.03339 74.9122C5.03339 82.0388 10.8106 87.8159 17.9371 87.8159Z" fill="#2576B9"/>
<path d="M51.6557 71.3544C60.0575 71.3544 66.8686 64.5433 66.8686 56.1414C66.8686 47.7395 60.0575 40.9285 51.6557 40.9285C43.2538 40.9285 36.4427 47.7395 36.4427 56.1414C36.4427 64.5433 43.2538 71.3544 51.6557 71.3544Z" stroke="#2576B9" stroke-width="2.3" stroke-miterlimit="10"/>
<path d="M29.9514 99.5494C30.1028 93.9083 32.4501 88.5491 36.4936 84.6127C40.5371 80.6763 45.9574 78.4736 51.6006 78.4736C57.2437 78.4736 62.664 80.6763 66.7075 84.6127C70.751 88.5491 73.0983 93.9083 73.2498 99.5494" stroke="#2576B9" stroke-width="2.3" stroke-miterlimit="10" stroke-linecap="round"/>
<path d="M39.2198 47.8096C42.7838 50.4753 46.8823 52.3383 51.2342 53.2706C56.2406 54.152 61.3875 53.7768 66.2131 52.1784" stroke="#2576B9" stroke-width="2.3" stroke-miterlimit="10"/>
<path d="M51.593 88.752V98.8159" stroke="#2576B9" stroke-width="2.3" stroke-miterlimit="10" stroke-linecap="round"/>
<path d="M0.55542 101.25C1.98231 97.8787 4.37159 95.003 7.42439 92.9826C10.4772 90.9622 14.058 89.8868 17.7188 89.891C20.8147 89.773 23.8732 90.6002 26.4877 92.2626C24.9355 94.8602 24.3137 97.9087 24.7245 100.907L0.55542 101.25Z" fill="#2576B9"/>
</svg>
