<svg width="102" height="75" viewBox="0 0 102 75" fill="none" xmlns="http://www.w3.org/2000/svg">
<path d="M91.7838 73.7831C90.4902 73.2374 89.368 72.3523 88.536 71.2215C87.704 70.0906 87.1929 68.7559 87.0569 67.3585C86.9209 65.9612 87.165 64.553 87.7633 63.2829C88.3617 62.0128 89.292 60.928 90.4561 60.1431" stroke="#2576B9" stroke-width="1.4" stroke-miterlimit="10"/>
<path d="M85.3986 41.1765H57.0123C55.6069 41.1765 54.4676 42.3158 54.4676 43.7212V53.4572C54.4676 54.8626 55.6069 56.0019 57.0123 56.0019H85.3986C86.804 56.0019 87.9433 54.8626 87.9433 53.4572V43.7212C87.9433 42.3158 86.804 41.1765 85.3986 41.1765Z" fill="#D6202A"/>
<path d="M85.3986 41.1765H57.0123C55.6069 41.1765 54.4676 42.3158 54.4676 43.7212V53.4572C54.4676 54.8626 55.6069 56.0019 57.0123 56.0019H85.3986C86.804 56.0019 87.9433 54.8626 87.9433 53.4572V43.7212C87.9433 42.3158 86.804 41.1765 85.3986 41.1765Z" stroke="#2576B9" stroke-width="1.4" stroke-miterlimit="10"/>
<path d="M96.9842 36.7195H45.3008V46.9455" stroke="#2576B9" stroke-width="1.4" stroke-miterlimit="10"/>
<path d="M45.3641 50.3434C46.237 50.3434 46.9446 49.6358 46.9446 48.7629C46.9446 47.89 46.237 47.1824 45.3641 47.1824C44.4912 47.1824 43.7836 47.89 43.7836 48.7629C43.7836 49.6358 44.4912 50.3434 45.3641 50.3434Z" stroke="#2576B9" stroke-width="1.4" stroke-miterlimit="10"/>
<path d="M44.7633 53.8369L43.736 58.5785H46.8655L45.4904 53.8369C45.4904 53.8369 44.874 53.9476 44.7633 53.8369Z" stroke="#2576B9" stroke-width="1.4" stroke-miterlimit="10"/>
<path d="M101.125 73.7515H54.4992C53.6746 73.7309 52.8907 73.3887 52.3149 72.7982C51.739 72.2076 51.4169 71.4153 51.4171 70.5904V62.8142C51.4372 62.0031 51.7683 61.2308 52.342 60.6571C52.9157 60.0834 53.6881 59.7522 54.4992 59.7322H101.125" stroke="#2576B9" stroke-width="1.4" stroke-miterlimit="10"/>
<path d="M35.4852 19.5076C39.1427 19.5076 42.1076 16.5426 42.1076 12.8851C42.1076 9.22766 39.1427 6.2627 35.4852 6.2627C31.8277 6.2627 28.8627 9.22766 28.8627 12.8851C28.8627 16.5426 31.8277 19.5076 35.4852 19.5076Z" fill="#D6202A" stroke="#2576B9" stroke-width="0.85" stroke-miterlimit="10"/>
<path d="M40.3691 17.0259L45.7587 26.4458L40.3058 24.7547L38.5356 29.7017L33.9679 19.3809" stroke="#2576B9" stroke-width="0.85" stroke-miterlimit="10"/>
<path d="M30.3485 17.3894L24.9747 26.8252L30.4276 25.1182L32.1978 30.0653L35.4379 22.7632" stroke="#2576B9" stroke-width="0.85" stroke-miterlimit="10"/>
<path d="M48.446 72.8506H3.85914C3.13523 72.8465 2.44215 72.557 1.93027 72.0451C1.41838 71.5333 1.12897 70.8402 1.12482 70.1163V19.2706C1.12897 18.5467 1.41838 17.8536 1.93027 17.3417C2.44215 16.8298 3.13523 16.5404 3.85914 16.5362H13.5004C14.2228 16.532 14.9143 16.2421 15.4236 15.7298C15.933 15.2175 16.2189 14.5244 16.2189 13.8019V3.70231C16.2189 2.97712 16.507 2.28163 17.0198 1.76885C17.5325 1.25606 18.228 0.968018 18.9532 0.968018H49.6156C50.3407 0.968018 51.0362 1.25606 51.549 1.76885C52.0618 2.28163 52.3499 2.97712 52.3499 3.70231V28.4219" stroke="#2576B9" stroke-width="1.69" stroke-miterlimit="10" stroke-linecap="round"/>
<path d="M1.15601 18.1483L17.4355 0.888916" stroke="#2576B9" stroke-width="1.69" stroke-miterlimit="10" stroke-linecap="round"/>
<path d="M36.8446 36.7195H13.1366" stroke="#2576B9" stroke-width="1.23" stroke-miterlimit="10" stroke-linecap="round"/>
<path d="M36.8446 43.0415H13.1366" stroke="#2576B9" stroke-width="1.23" stroke-miterlimit="10" stroke-linecap="round"/>
<path d="M36.8446 49.3638H13.1366" stroke="#2576B9" stroke-width="1.23" stroke-miterlimit="10" stroke-linecap="round"/>
</svg>
