<svg width="102" height="76" viewBox="0 0 102 76" fill="none" xmlns="http://www.w3.org/2000/svg">
<path d="M65.5173 47.4719C70.173 47.4719 73.9472 43.6978 73.9472 39.0421C73.9472 34.3865 70.173 30.6123 65.5173 30.6123C60.8617 30.6123 57.0875 34.3865 57.0875 39.0421C57.0875 43.6978 60.8617 47.4719 65.5173 47.4719Z" stroke="#2576B9" stroke-width="2.09" stroke-miterlimit="10"/>
<path d="M65.5176 56.7952L62.4225 71.4907L65.5176 75.1898L69.1538 71.7423L65.5176 56.7952Z" fill="#2576B9"/>
<path d="M70.2984 66.8351H85.2078C85.0139 63.3964 83.8944 60.0739 81.9675 57.2191C80.0407 54.3643 77.3782 52.0833 74.2616 50.6172C71.8341 52.4846 68.8738 53.5282 65.8119 53.5961C62.75 53.664 59.7463 52.7526 57.2384 50.9946C54.3031 52.5213 51.814 54.7834 50.0145 57.5599C48.215 60.3364 47.1665 63.5322 46.9717 66.8351H61.1765" stroke="#2576B9" stroke-width="2.09" stroke-miterlimit="10"/>
<path d="M65.5176 55.5872L62.4225 71.4906L65.5176 75.1896L69.1538 71.7422L65.5176 55.5872Z" fill="#D6202A"/>
<path d="M83.61 46.2767C87.6889 46.2767 90.9955 42.9701 90.9955 38.8911C90.9955 34.8122 87.6889 31.5056 83.61 31.5056C79.5311 31.5056 76.2245 34.8122 76.2245 38.8911C76.2245 42.9701 79.5311 46.2767 83.61 46.2767Z" fill="#2576B9"/>
<path d="M80.8168 49.2963C81.8909 49.5904 82.9996 49.7385 84.1132 49.7366C86.8816 49.7297 89.5704 48.8098 91.763 47.1196C94.4896 48.4045 96.8192 50.4009 98.5065 52.8985C100.194 55.3962 101.176 58.3027 101.35 61.3119H88.2904C87.2114 58.6843 85.8487 56.1825 84.2265 53.8509C83.1027 52.344 81.7825 50.9942 80.3009 49.8373C78.4262 48.3778 79.3825 48.9062 80.8168 49.2963Z" fill="#2576B9"/>
<path d="M33.333 65.7659C50.9967 65.7659 65.316 51.4467 65.316 33.783C65.316 16.1193 50.9967 1.80005 33.333 1.80005C15.6694 1.80005 1.3501 16.1193 1.3501 33.783C1.3501 51.4467 15.6694 65.7659 33.333 65.7659Z" stroke="#2576B9" stroke-width="2.09" stroke-miterlimit="10"/>
<path d="M33.3332 65.7659C42.714 65.7659 50.3186 51.4467 50.3186 33.783C50.3186 16.1193 42.714 1.80005 33.3332 1.80005C23.9524 1.80005 16.3478 16.1193 16.3478 33.783C16.3478 51.4467 23.9524 65.7659 33.3332 65.7659Z" stroke="#2576B9" stroke-width="2.09" stroke-miterlimit="10"/>
<path d="M33.333 1.8125V65.7658" stroke="#2576B9" stroke-width="2.09" stroke-miterlimit="10"/>
<path d="M33.333 50.7682C50.9967 50.7682 65.316 43.1636 65.316 33.7828C65.316 24.402 50.9967 16.7974 33.333 16.7974C15.6694 16.7974 1.3501 24.402 1.3501 33.7828C1.3501 43.1636 15.6694 50.7682 33.333 50.7682Z" stroke="#2576B9" stroke-width="2.09" stroke-miterlimit="10"/>
<path d="M65.316 33.783H1.3501" stroke="#2576B9" stroke-width="2.09" stroke-miterlimit="10"/>
</svg>
