<svg width="102" height="86" viewBox="0 0 102 86" fill="none" xmlns="http://www.w3.org/2000/svg">
<path d="M66.5229 74.7232C69.0669 74.7116 71.5951 74.3242 74.0258 73.5735C74.4975 73.4556 83.3417 79.4697 85.0369 79.4697C87.7639 79.4697 84.1525 69.1514 85.9361 67.8542C91.8068 63.5135 96.158 57.4308 98.3699 50.4727C100.582 43.5146 100.541 36.036 98.2546 29.1021C95.9679 22.1683 91.5513 16.1329 85.634 11.8558C79.7168 7.57862 72.6007 5.27787 65.2995 5.28125" stroke="#2576B9" stroke-width="2.32" stroke-miterlimit="10" stroke-linecap="round"/>
<mask id="mask0_955_1522" style="mask-type:alpha" maskUnits="userSpaceOnUse" x="0" y="0" width="80" height="86">
<path d="M-6.10352e-05 40.3044C0.0024012 46.3437 1.38639 52.3023 4.04601 57.7244C6.70563 63.1465 10.5704 67.8883 15.3445 71.587C20.1187 75.2857 25.6756 77.8432 31.5903 79.0638C37.5049 80.2845 43.6203 80.1359 49.4687 78.6294C50.0141 78.4968 60.1113 85.41 62.0275 85.41C65.1525 85.41 61.0104 73.6177 63.0593 72.1437C68.495 68.1312 72.8126 62.7936 75.6006 56.6395C78.3887 50.4854 79.5543 43.7198 78.9863 36.9876C78.4184 30.2553 76.1359 23.7806 72.3563 18.1805C68.5767 12.5804 63.426 8.04155 57.3949 4.99642C51.3639 1.9513 44.6535 0.50138 37.9032 0.784842C31.153 1.0683 24.5878 3.0757 18.8333 6.61574C13.0788 10.1558 8.32669 15.1105 5.0299 21.0077C1.7331 26.905 0.00144263 33.5482 -6.10352e-05 40.3044Z" fill="#0063A6"/>
</mask>
<g mask="url(#mask0_955_1522)">
<path d="M-25.2798 35.4546V49.4727C-24.2628 49.4727 -23.2604 49.5612 -22.2433 49.5612H29.9819C30.9548 49.5612 31.9424 49.6644 33.1069 49.7381V84.9971H45.7246C45.7246 74.1629 45.8131 63.3434 45.7246 52.5682C45.7246 50.2245 46.2995 49.6201 48.6727 49.6201C66.1253 49.7381 83.5632 49.6201 101.016 49.6201H103.964V35.3514H101.222C83.6959 35.3514 66.1696 35.3514 48.6432 35.3514C46.2111 35.3514 45.6952 34.6439 45.6952 32.3297C45.8278 22.4388 45.6952 12.548 45.6952 2.65723V0.151367H33.0184V3.09945C33.0184 13.064 33.0184 23.0285 33.0184 33.0077C33.0184 34.8355 32.5025 35.4251 30.6452 35.4104C20.8428 35.322 11.0257 35.4104 1.16442 35.4104C-7.62085 35.3809 -16.4356 35.3957 -25.2798 35.4546Z" fill="#D6202A"/>
<path d="M33.1068 84.9974V49.7531C31.9423 49.6794 30.9547 49.5762 29.9818 49.5762H-22.3318C-23.3489 49.5762 -24.3513 49.5762 -25.3683 49.4878V52.3327H10.4508L10.5393 52.8044L-25.2799 77.5093V81.2533C-24.6166 80.8701 -23.9238 80.5163 -23.29 80.0889C-10.5395 71.3331 2.38782 62.651 15.1677 53.8067C17.4967 52.1853 19.7667 52.3327 22.6411 52.5096C21.8009 53.1139 21.2997 53.4824 20.7986 53.8215C7.38481 62.8328 -6.00929 71.8539 -19.3837 80.8848C-21.3 82.1672 -23.3047 83.317 -25.2799 84.5257C-24.9704 84.6879 -24.6461 84.9679 -24.3365 84.9679C-19.826 84.9679 -15.3007 84.9679 -10.7901 84.9679L30.3061 54.8828V84.9974H33.1068Z" fill="white"/>
<path d="M30.306 84.9974V54.8828L-10.8344 84.9974H30.306Z" fill="#2576B9"/>
<path d="M-25.2798 32.6394H10.392L10.5983 32.2266L-25.2798 7.40381V32.6394Z" fill="#2576B9"/>
<path d="M-25.2798 77.5091L10.5394 52.7452L10.4509 52.3325H-25.2798V77.5091Z" fill="#2576B9"/>
<path d="M84.5214 84.9975C82.4136 83.435 80.3499 81.8135 78.1978 80.3395C68.8917 73.8439 59.5561 67.3679 50.1911 60.9117C49.7488 60.6021 49.2772 60.3515 48.4664 59.8503V84.9975H84.5214Z" fill="#2576B9"/>
<path d="M-25.2798 3.6893C-18.4992 8.22934 -11.7186 12.7399 -4.96752 17.3094C1.47403 21.6578 7.9598 25.9473 14.195 30.5758C15.3661 31.4923 16.7249 32.1392 18.1747 32.4704C19.6244 32.8016 21.1294 32.809 22.5823 32.492C21.1082 31.4897 19.8995 30.62 18.6613 29.7945L-23.4815 1.28662C-24.0604 0.947602 -24.6612 0.647226 -25.2798 0.387451V3.6893Z" fill="#D6202A"/>
<path d="M-25.28 84.5256C-23.3195 83.3169 -21.3148 82.1672 -19.3838 80.8848C-5.99956 71.8636 7.39454 62.8376 20.7985 53.8067C21.2996 53.4676 21.8008 53.0991 22.641 52.4948C19.6929 52.2442 17.4966 52.1705 15.1676 53.7919C2.38772 62.6509 -10.5396 71.333 -23.3343 80.0888C-23.9681 80.5163 -24.6609 80.87 -25.3242 81.2533L-25.28 84.5256Z" fill="#D6202A"/>
<path d="M96.6677 84.9975L53.2867 55.6346C51.8127 54.6617 50.3386 53.7036 48.8646 52.6865C48.5091 53.4739 48.4634 54.3663 48.7366 55.1859C49.0097 56.0055 49.5818 56.692 50.3386 57.1086C63.7376 66.1298 77.0482 75.2835 90.3735 84.3931C90.6241 84.57 90.86 84.7764 91.0958 84.968L96.6677 84.9975Z" fill="#D6202A"/>
<path d="M103.92 52.4211H63.1627L103.92 82.2704V52.4211Z" fill="#2576B9"/>
<path d="M48.5839 0.166504V29.9716L89.4 0.166504" fill="#2576B9"/>
<path d="M30.1738 0.0778809H-10.6718L30.1738 29.9272V0.0778809Z" fill="#2576B9"/>
<path d="M104.037 32.4478V7.38916L67.9382 32.4478H104.037Z" fill="#2576B9"/>
<path d="M103.846 0.254883L56.1313 32.4037C57.5114 32.7007 58.9377 32.7113 60.322 32.4349C61.7064 32.1586 63.0193 31.6011 64.1795 30.797C76.7285 22.0707 89.3561 13.4574 102.062 4.95707C102.902 4.54764 103.555 3.8332 103.886 2.95945C104.217 2.0857 104.203 1.11843 103.846 0.254883Z" fill="#D6202A"/>
<path d="M14.2096 30.4726C15.3807 31.3891 16.7396 32.036 18.1893 32.3672C19.639 32.6984 21.144 32.7058 22.5969 32.3888C21.1229 31.3865 19.9142 30.5168 18.676 29.6914L-23.4816 1.28661C-23.907 1.03337 -24.3504 0.811671 -24.8082 0.623291H-9.92041L30.1735 29.9272V0.623291H33.1215V3.08494C33.1215 13.0494 33.1215 23.014 33.1215 32.9932C33.1215 34.821 32.6056 35.4106 30.7483 35.3959C20.946 35.3074 11.1289 35.3959 1.26755 35.3959C-7.57669 35.3959 -16.4553 35.4303 -25.3683 35.4991V32.6394H10.3919L10.5982 32.2267L-25.2799 7.40387V3.68929C-18.4993 8.22934 -11.7187 12.7399 -4.96764 17.3094C1.42969 21.6284 7.91547 25.9178 14.2096 30.4726Z" fill="white"/>
<path d="M64.1795 30.7969C76.7284 22.0706 89.356 13.4573 102.062 4.95697C102.718 4.56507 103.274 4.0249 103.684 3.37975V7.68394L67.9383 32.4478H103.684V35.3959H101.222C83.6957 35.3959 66.1694 35.3959 48.6431 35.3959C46.2109 35.3959 45.695 34.6884 45.695 32.3741C45.8277 22.4833 45.695 12.5925 45.695 2.70169V0.623291H48.5252V29.9714L88.7664 0.623291H103.286L56.1165 32.4036C57.4988 32.7027 58.9279 32.7144 60.3149 32.438C61.7019 32.1616 63.0173 31.603 64.1795 30.7969Z" fill="white"/>
<path d="M45.6951 52.5094C45.6951 50.1656 46.2699 49.5613 48.6431 49.5613C66.0958 49.6792 83.5337 49.5613 100.986 49.5613H103.669V52.4209H63.1624L103.684 82.0933V85.0414H96.6674L53.2864 55.6343C51.8123 54.6615 50.3383 53.7033 48.8643 52.6862C48.5087 53.4736 48.463 54.3661 48.7362 55.1857C49.0094 56.0052 49.5815 56.6918 50.3383 57.1084C63.7373 66.1295 77.0479 75.2833 90.3732 84.3928C90.6238 84.5697 90.8596 84.7761 91.0955 84.9677H84.5213C82.4134 83.4347 80.3497 81.8133 78.1976 80.3392C68.8915 73.8436 59.556 67.3677 50.1909 60.9114C49.7487 60.6018 49.277 60.3512 48.4663 59.8501V84.9972H45.6656C45.7393 74.163 45.813 63.3435 45.6951 52.5094Z" fill="white"/>
</g>
</svg>
