<svg width="91" height="83" viewBox="0 0 91 83" fill="none" xmlns="http://www.w3.org/2000/svg">
<path d="M45.7535 81.9417C68.1126 81.9417 86.2383 63.8161 86.2383 41.457C86.2383 19.0978 68.1126 0.972168 45.7535 0.972168C23.3943 0.972168 5.26868 19.0978 5.26868 41.457C5.26868 63.8161 23.3943 81.9417 45.7535 81.9417Z" stroke="#2576B9" stroke-width="1.5" stroke-miterlimit="10"/>
<path d="M87.7345 30.9397H3.77261C2.00548 30.9397 0.572937 32.3722 0.572937 34.1394V47.6491C0.572937 49.4162 2.00548 50.8488 3.77261 50.8488H87.7345C89.5016 50.8488 90.9342 49.4162 90.9342 47.6491V34.1394C90.9342 32.3722 89.5016 30.9397 87.7345 30.9397Z" fill="#2576B9"/>
<path d="M11.2289 47.4414C11.5128 47.4414 11.759 47.1953 11.759 46.8924V45.9837C11.759 45.6808 11.5128 45.4347 11.2289 45.4347H7.0829V41.3644H10.5663C10.8502 41.3644 11.0964 41.1183 11.0964 40.8154V39.9256C11.0964 39.6227 10.8502 39.3766 10.5663 39.3766H7.0829V36.0258H11.1342C11.4182 36.0258 11.6643 35.7797 11.6643 35.4767V34.568C11.6643 34.2651 11.4182 34.019 11.1342 34.019H5.30334C5.00044 34.019 4.75433 34.2651 4.75433 34.5491V46.9113C4.75433 47.1953 5.00044 47.4414 5.30334 47.4414H11.2289Z" fill="white"/>
<path d="M20.4108 34.019C20.0889 34.019 19.9943 34.1137 19.7482 34.6059L17.7036 38.733L15.659 34.6059C15.4129 34.1137 15.3182 34.019 14.9964 34.019H13.728C13.4629 34.019 13.2926 34.2273 13.2926 34.4545C13.2926 34.5112 13.3115 34.6059 13.3493 34.6816L15.9808 40.4746L12.7625 46.7788C12.7057 46.8735 12.7057 46.9303 12.7057 47.006C12.7057 47.2332 12.895 47.4414 13.1411 47.4414H14.561C14.8828 47.4414 15.0342 47.3278 15.2803 46.8545L17.7036 42.027L20.1268 46.8545C20.3729 47.3278 20.5244 47.4414 20.8462 47.4414H22.266C22.5121 47.4414 22.7015 47.2332 22.7015 47.006C22.7015 46.9303 22.7015 46.8735 22.6447 46.7788L19.4263 40.4746L22.0578 34.6816C22.0957 34.6059 22.1146 34.5112 22.1146 34.4545C22.1146 34.2273 21.9442 34.019 21.6792 34.019H20.4108Z" fill="white"/>
<path d="M29.4122 37.616C29.4122 37.9 29.6583 38.1461 29.9612 38.1461H31.1728C31.4757 38.1461 31.7218 37.9 31.7218 37.616V37.2942C31.7218 34.9277 29.9991 33.6025 27.822 33.6025C25.6449 33.6025 23.9221 34.9277 23.9221 37.2942V44.1284C23.9221 46.4948 25.6449 47.82 27.822 47.82C29.9991 47.82 31.7218 46.4948 31.7218 44.1284V43.8066C31.7218 43.5226 31.4757 43.2765 31.1728 43.2765H29.9612C29.6583 43.2765 29.4122 43.5226 29.4122 43.8066V44.1284C29.4122 45.0939 28.7685 45.8133 27.822 45.8133C26.8565 45.8133 26.2317 45.1128 26.2317 44.1284V37.2942C26.2317 36.3287 26.8754 35.6093 27.822 35.6093C28.7875 35.6093 29.4122 36.3097 29.4122 37.2942V37.616Z" fill="white"/>
<path d="M39.7519 45.9648C39.7519 45.6808 39.5058 45.4347 39.2029 45.4347H35.6816V34.5491C35.6816 34.2651 35.4355 34.019 35.1326 34.019H33.9021C33.5992 34.019 33.353 34.2651 33.353 34.5491V46.9113C33.353 47.1953 33.5992 47.4414 33.9021 47.4414H39.2029C39.5058 47.4414 39.7519 47.1953 39.7519 46.9113V45.9648Z" fill="white"/>
<path d="M46.7 44.1284C46.7 45.1128 46.0753 45.8133 45.1098 45.8133C44.1442 45.8133 43.5195 45.1128 43.5195 44.1284V34.5491C43.5195 34.2651 43.2734 34.019 42.9705 34.019H41.7589C41.456 34.019 41.2099 34.2651 41.2099 34.5491V44.1284C41.2099 46.4948 42.9326 47.82 45.1098 47.82C47.2869 47.82 49.0096 46.4948 49.0096 44.1284V34.5491C49.0096 34.2651 48.7635 34.019 48.4606 34.019H47.249C46.9461 34.019 46.7 34.2651 46.7 34.5491V44.1284Z" fill="white"/>
<path d="M53.0358 37.2942C53.0358 36.2529 53.5848 35.6093 54.626 35.6093C55.6673 35.6093 56.2163 36.3287 56.2163 37.2942V37.7107C56.2163 37.9946 56.4624 38.2407 56.7653 38.2407H57.9769C58.2798 38.2407 58.5259 37.9946 58.5259 37.7107V37.2942C58.5259 34.852 56.8789 33.6025 54.626 33.6025C52.2407 33.6025 50.6883 35.0224 50.6883 37.4078C50.6883 38.4868 50.9533 39.6606 52.1082 40.4178L55.0993 42.3678C55.7619 42.8032 56.1784 43.0682 56.1784 43.8444V44.1284C56.1784 45.1696 55.6294 45.8133 54.5882 45.8133C53.6416 45.8133 52.9979 45.0939 52.9979 44.1284V43.3522C52.9979 43.0682 52.7518 42.8221 52.4489 42.8221H51.2373C50.9344 42.8221 50.6883 43.0682 50.6883 43.3522V44.1284C50.6883 46.5516 52.3543 47.82 54.5882 47.82C56.9167 47.82 58.5259 46.5138 58.5259 44.1284C58.5259 42.3678 58.2798 41.6295 56.841 40.7018L54.3799 39.1116C53.4334 38.5058 53.0358 38.2407 53.0358 37.4835V37.2942Z" fill="white"/>
<path d="M60.2914 46.9113C60.2914 47.1953 60.5375 47.4414 60.8404 47.4414H62.071C62.3739 47.4414 62.62 47.1953 62.62 46.9113V34.5491C62.62 34.2651 62.3739 34.019 62.071 34.019H60.8404C60.5375 34.019 60.2914 34.2651 60.2914 34.5491V46.9113Z" fill="white"/>
<path d="M68.3822 45.7376L66.3376 34.568C66.2808 34.2651 65.9969 34.019 65.694 34.019H64.4824C64.2173 34.019 64.0091 34.2083 64.0091 34.4734L64.0469 34.7006L66.3566 47.0438C66.3944 47.271 66.6405 47.4414 66.8867 47.4414H69.8778C70.1239 47.4414 70.37 47.271 70.4079 47.0438L72.7175 34.7006L72.7554 34.4734C72.7554 34.2083 72.5471 34.019 72.2821 34.019H71.0705C70.7676 34.019 70.4836 34.2651 70.4268 34.568L68.3822 45.7376Z" fill="white"/>
<path d="M80.6133 47.4414C80.8972 47.4414 81.1433 47.1953 81.1433 46.8924V45.9837C81.1433 45.6808 80.8972 45.4347 80.6133 45.4347H76.4673V41.3644H79.9507C80.2346 41.3644 80.4807 41.1183 80.4807 40.8154V39.9256C80.4807 39.6227 80.2346 39.3766 79.9507 39.3766H76.4673V36.0258H80.5186C80.8026 36.0258 81.0487 35.7797 81.0487 35.4767V34.568C81.0487 34.2651 80.8026 34.019 80.5186 34.019H74.6877C74.3848 34.019 74.1387 34.2651 74.1387 34.5491V46.9113C74.1387 47.1953 74.3848 47.4414 74.6877 47.4414H80.6133Z" fill="white"/>
<path d="M41.9758 5.31236L44.1681 4.92721L45.1014 2.9126L46.1383 4.86796L48.3455 5.1346L46.8049 6.73444L47.2345 8.912L45.2347 7.93431L43.2942 9.01569L43.62 6.82331L41.9758 5.31236Z" fill="#D6202A"/>
<path d="M27.6959 12.3487C28.3586 12.3487 28.8958 11.8115 28.8958 11.1489C28.8958 10.4862 28.3586 9.94897 27.6959 9.94897C27.0332 9.94897 26.496 10.4862 26.496 11.1489C26.496 11.8115 27.0332 12.3487 27.6959 12.3487Z" fill="#D6202A"/>
<path d="M15.49 24.6439C16.1527 24.6439 16.6899 24.1067 16.6899 23.444C16.6899 22.7813 16.1527 22.2441 15.49 22.2441C14.8274 22.2441 14.2902 22.7813 14.2902 23.444C14.2902 24.1067 14.8274 24.6439 15.49 24.6439Z" fill="#D6202A"/>
<path d="M74.8467 23.8734C75.5094 23.8734 76.0466 23.3362 76.0466 22.6735C76.0466 22.0108 75.5094 21.4736 74.8467 21.4736C74.1841 21.4736 73.6469 22.0108 73.6469 22.6735C73.6469 23.3362 74.1841 23.8734 74.8467 23.8734Z" fill="#D6202A"/>
<path d="M62.5667 11.6375C63.2294 11.6375 63.7666 11.1003 63.7666 10.4377C63.7666 9.77499 63.2294 9.23779 62.5667 9.23779C61.904 9.23779 61.3668 9.77499 61.3668 10.4377C61.3668 11.1003 61.904 11.6375 62.5667 11.6375Z" fill="#D6202A"/>
<path d="M47.3235 79.8086L45.3533 78.7717L43.3831 79.7938L43.7683 77.6163L42.1685 76.0609L44.3756 75.735L45.3681 73.75L46.3458 75.735L48.5382 76.0609L46.9532 77.6163L47.3235 79.8086Z" fill="#D6202A"/>
<path d="M62.3889 72.3722C63.0516 72.3722 63.5888 71.835 63.5888 71.1723C63.5888 70.5096 63.0516 69.9724 62.3889 69.9724C61.7262 69.9724 61.189 70.5096 61.189 71.1723C61.189 71.835 61.7262 72.3722 62.3889 72.3722Z" fill="#D6202A"/>
<path d="M74.5948 60.0772C75.2575 60.0772 75.7947 59.54 75.7947 58.8774C75.7947 58.2147 75.2575 57.6775 74.5948 57.6775C73.9321 57.6775 73.3949 58.2147 73.3949 58.8774C73.3949 59.54 73.9321 60.0772 74.5948 60.0772Z" fill="#D6202A"/>
<path d="M15.2378 60.8475C15.9005 60.8475 16.4377 60.3103 16.4377 59.6476C16.4377 58.985 15.9005 58.4478 15.2378 58.4478C14.5752 58.4478 14.038 58.985 14.038 59.6476C14.038 60.3103 14.5752 60.8475 15.2378 60.8475Z" fill="#D6202A"/>
<path d="M27.5181 73.0685C28.1808 73.0685 28.718 72.5313 28.718 71.8686C28.718 71.2059 28.1808 70.6687 27.5181 70.6687C26.8554 70.6687 26.3182 71.2059 26.3182 71.8686C26.3182 72.5313 26.8554 73.0685 27.5181 73.0685Z" fill="#D6202A"/>
</svg>
