<svg width="12" height="15" viewBox="0 0 12 15" fill="none" xmlns="http://www.w3.org/2000/svg">
<path d="M6 14.419C5.0527 13.611 4.17464 12.7252 3.375 11.7708C2.175 10.3375 0.750001 8.20304 0.750001 6.16904C0.748937 4.0447 2.02819 2.12909 3.9908 1.31609C5.95342 0.503097 8.21255 0.952974 9.714 2.45579C10.7013 3.43875 11.2544 4.77584 11.25 6.16904C11.25 8.20304 9.825 10.3375 8.625 11.7708C7.82536 12.7252 6.9473 13.611 6 14.419ZM6 3.91904C5.19615 3.91904 4.45337 4.34789 4.05144 5.04404C3.64952 5.7402 3.64952 6.59789 4.05144 7.29404C4.45337 7.9902 5.19615 8.41904 6 8.41904C7.24264 8.41904 8.25 7.41168 8.25 6.16904C8.25 4.9264 7.24264 3.91904 6 3.91904Z" fill="white"/>
</svg>
