<svg width="1440" height="834" viewBox="0 0 1440 834" fill="none" xmlns="http://www.w3.org/2000/svg">
<path d="M179.469 126.579L179.863 124.618L179.469 126.579ZM96.7907 452.853L97.9795 451.245L96.7907 452.853ZM668.291 452.854L668.851 454.774L668.291 452.854ZM1272.79 570.853L1271.31 569.507L1272.79 570.853ZM1294.29 696.854L1294.12 694.861L1294.29 696.854ZM-244.755 250.712C-243.695 250.4 -243.089 249.288 -243.401 248.229C-243.713 247.169 -244.825 246.563 -245.884 246.875L-244.755 250.712ZM-230.63 241.862C-231.671 242.232 -232.214 243.376 -231.843 244.417C-231.473 245.457 -230.329 246 -229.288 245.63L-230.63 241.862ZM-228.297 245.275C-227.257 244.902 -226.717 243.757 -227.09 242.717C-227.463 241.678 -228.608 241.137 -229.648 241.51L-228.297 245.275ZM-214.609 235.848C-215.638 236.251 -216.146 237.411 -215.743 238.439C-215.341 239.468 -214.181 239.976 -213.152 239.573L-214.609 235.848ZM-212.204 239.202C-211.176 238.798 -210.67 237.637 -211.074 236.609C-211.478 235.581 -212.639 235.075 -213.667 235.479L-212.204 239.202ZM-198.594 229.406C-199.615 229.827 -200.103 230.995 -199.682 232.017C-199.262 233.038 -198.094 233.526 -197.072 233.106L-198.594 229.406ZM-196.144 232.724C-195.123 232.303 -194.637 231.134 -195.058 230.112C-195.479 229.091 -196.648 228.605 -197.669 229.026L-196.144 232.724ZM-182.782 222.804C-183.799 223.234 -184.276 224.407 -183.846 225.425C-183.415 226.442 -182.242 226.919 -181.225 226.489L-182.782 222.804ZM-180.296 226.096C-179.279 225.665 -178.803 224.492 -179.234 223.475C-179.664 222.457 -180.838 221.982 -181.855 222.412L-180.296 226.096ZM-166.95 216.062C-167.965 216.497 -168.436 217.672 -168.001 218.688C-167.566 219.703 -166.39 220.174 -165.375 219.739L-166.95 216.062ZM-164.438 219.337C-163.423 218.902 -162.952 217.726 -163.387 216.711C-163.822 215.696 -164.998 215.225 -166.013 215.66L-164.438 219.337ZM-151.106 209.258C-152.121 209.694 -152.59 210.87 -152.153 211.885C-151.717 212.9 -150.541 213.369 -149.526 212.932L-151.106 209.258ZM-148.584 212.527C-147.569 212.091 -147.1 210.914 -147.536 209.9C-147.973 208.885 -149.149 208.416 -150.164 208.852L-148.584 212.527ZM-135.272 202.457C-136.288 202.892 -136.758 204.068 -136.323 205.083C-135.888 206.099 -134.712 206.569 -133.697 206.134L-135.272 202.457ZM-132.776 205.739C-131.76 205.304 -131.29 204.129 -131.725 203.113C-132.16 202.098 -133.335 201.627 -134.351 202.062L-132.776 205.739ZM-119.449 195.705C-120.466 196.137 -120.94 197.311 -120.509 198.328C-120.077 199.344 -118.903 199.819 -117.886 199.387L-119.449 195.705ZM-116.96 198.994C-115.943 198.562 -115.468 197.388 -115.899 196.371C-116.331 195.355 -117.505 194.88 -118.522 195.311L-116.96 198.994ZM-103.582 189.015C-104.601 189.441 -105.081 190.613 -104.655 191.632C-104.229 192.651 -103.057 193.131 -102.038 192.705L-103.582 189.015ZM-101.107 192.316C-100.088 191.89 -99.6068 190.718 -100.033 189.699C-100.459 188.68 -101.63 188.199 -102.649 188.625L-101.107 192.316ZM-87.6648 182.419C-88.6867 182.838 -89.1754 184.006 -88.7562 185.028C-88.3371 186.05 -87.1688 186.539 -86.1469 186.12L-87.6648 182.419ZM-85.2113 185.736C-84.1891 185.317 -83.6999 184.149 -84.1186 183.127C-84.5373 182.105 -85.7053 181.616 -86.7275 182.035L-85.2113 185.736ZM-71.6907 175.945C-72.7163 176.355 -73.215 177.519 -72.8048 178.545C-72.3945 179.57 -71.2305 180.069 -70.205 179.659L-71.6907 175.945ZM-69.2654 179.283C-68.2396 178.874 -67.7402 177.71 -68.1499 176.684C-68.5596 175.658 -69.7233 175.159 -70.749 175.569L-69.2654 179.283ZM-55.6518 169.622C-56.6815 170.022 -57.1924 171.181 -56.7928 172.211C-56.3932 173.24 -55.2345 173.751 -54.2047 173.352L-55.6518 169.622ZM-53.2612 172.986C-52.2312 172.587 -51.7196 171.429 -52.1185 170.398C-52.5174 169.368 -53.6758 168.857 -54.7058 169.256L-53.2612 172.986ZM-39.5396 163.48C-40.5742 163.867 -41.0991 165.019 -40.712 166.054C-40.325 167.088 -39.1726 167.613 -38.138 167.226L-39.5396 163.48ZM-37.1906 166.872C-36.1557 166.486 -35.6299 165.334 -36.0162 164.299C-36.4024 163.264 -37.5544 162.739 -38.5893 163.125L-37.1906 166.872ZM-23.3457 157.548C-24.3856 157.921 -24.9267 159.066 -24.5543 160.105C-24.1818 161.145 -23.0369 161.687 -21.997 161.314L-23.3457 157.548ZM-21.0456 160.974C-20.0053 160.602 -19.4632 159.458 -19.8347 158.418C-20.2062 157.377 -21.3506 156.835 -22.3908 157.207L-21.0456 160.974ZM-7.06146 151.862C-8.10727 152.217 -8.66688 153.353 -8.31139 154.399C-7.95589 155.445 -6.81993 156.004 -5.77412 155.649L-7.06146 151.862ZM-4.81859 155.325C-3.77243 154.97 -3.21165 153.835 -3.56605 152.789C-3.92049 151.743 -5.05587 151.182 -6.10203 151.536L-4.81859 155.325ZM9.32111 146.459C8.26888 146.795 7.6882 147.92 8.02413 148.972C8.36007 150.025 9.48542 150.605 10.5377 150.269L9.32111 146.459ZM11.4973 149.964C12.5499 149.629 13.1319 148.504 12.7972 147.452C12.4625 146.399 11.3379 145.817 10.2852 146.152L11.4973 149.964ZM25.8098 141.384C24.7506 141.697 24.1459 142.81 24.4592 143.869C24.7726 144.929 25.8852 145.533 26.9444 145.22L25.8098 141.384ZM27.9113 144.935C28.971 144.623 29.5771 143.511 29.2652 142.451C28.9533 141.392 27.8415 140.785 26.7819 141.097L27.9113 144.935ZM42.4227 136.687C41.3561 136.974 40.7242 138.071 41.0112 139.138C41.2983 140.205 42.3957 140.837 43.4623 140.549L42.4227 136.687ZM44.4435 140.286C45.5106 140.001 46.1443 138.904 45.8589 137.837C45.5735 136.77 44.4771 136.137 43.41 136.422L44.4435 140.286ZM59.1733 132.429C58.0989 132.685 57.4358 133.764 57.6922 134.838C57.9486 135.913 59.0274 136.576 60.1018 136.319L59.1733 132.429ZM61.0888 136.085C62.1637 135.83 62.8288 134.753 62.5743 133.678C62.3199 132.603 61.2423 131.938 60.1674 132.192L61.0888 136.085ZM76.0573 128.689C74.9749 128.909 74.2761 129.965 74.4964 131.048C74.7168 132.13 75.7728 132.829 76.8552 132.608L76.0573 128.689ZM77.8467 132.408C78.9296 132.19 79.6307 131.135 79.4126 130.052C79.1946 128.969 78.1401 128.268 77.0572 128.486L77.8467 132.408ZM93.0727 125.562C91.9825 125.74 91.2427 126.768 91.4203 127.858C91.598 128.948 92.6257 129.688 93.7159 129.51L93.0727 125.562ZM94.7102 129.35C95.8008 129.175 96.5432 128.149 96.3683 127.058C96.1935 125.968 95.1676 125.225 94.0769 125.4L94.7102 129.35ZM110.208 123.167C109.111 123.294 108.324 124.286 108.451 125.383C108.577 126.481 109.569 127.268 110.667 127.141L110.208 123.167ZM111.661 127.028C112.759 126.905 113.548 125.915 113.425 124.817C113.302 123.72 112.312 122.93 111.214 123.053L111.661 127.028ZM127.438 121.652C126.335 121.717 125.494 122.663 125.559 123.766C125.624 124.869 126.571 125.71 127.674 125.645L127.438 121.652ZM128.664 125.588C129.767 125.527 130.611 124.584 130.55 123.481C130.489 122.378 129.546 121.533 128.443 121.594L128.664 125.588ZM144.8 121.201C143.695 121.191 142.792 122.078 142.781 123.182C142.771 124.287 143.658 125.19 144.763 125.201L144.8 121.201ZM145.774 125.212C146.879 125.227 147.786 124.344 147.801 123.24C147.817 122.135 146.933 121.228 145.829 121.213L145.774 125.212ZM162.169 122.061C161.07 121.959 160.095 122.767 159.993 123.867C159.891 124.967 160.7 125.942 161.8 126.044L162.169 122.061ZM162.794 126.139C163.893 126.247 164.872 125.443 164.98 124.344C165.088 123.245 164.284 122.266 163.185 122.158L162.794 126.139ZM179.366 124.519C178.283 124.305 177.231 125.01 177.017 126.094C176.803 127.178 177.508 128.23 178.592 128.443L179.366 124.519ZM179.6 128.646C180.682 128.866 181.738 128.167 181.958 127.085C182.179 126.002 181.48 124.946 180.397 124.726L179.6 128.646ZM195.918 128.621C194.862 128.296 193.743 128.888 193.418 129.944C193.093 131 193.685 132.119 194.741 132.444L195.918 128.621ZM195.734 132.755C196.786 133.089 197.911 132.506 198.245 131.453C198.579 130.4 197.996 129.276 196.943 128.942L195.734 132.755ZM212.06 135.12C211.084 134.603 209.873 134.975 209.356 135.951C208.839 136.927 209.211 138.137 210.187 138.654L212.06 135.12ZM211.06 139.126C212.027 139.659 213.243 139.307 213.776 138.339C214.309 137.372 213.957 136.155 212.99 135.622L211.06 139.126ZM225.804 145.716C225.093 144.87 223.831 144.761 222.986 145.471C222.14 146.182 222.031 147.444 222.741 148.289L225.804 145.716ZM223.309 148.987C223.993 149.855 225.25 150.004 226.118 149.321C226.986 148.638 227.135 147.38 226.452 146.512L223.309 148.987ZM232.577 162.164C232.493 161.063 231.532 160.238 230.43 160.323C229.329 160.407 228.505 161.369 228.589 162.47L232.577 162.164ZM228.643 163.366C228.692 164.47 229.626 165.325 230.729 165.276C231.833 165.227 232.688 164.293 232.639 163.19L228.643 163.366ZM229.866 179.465C230.232 178.423 229.685 177.281 228.642 176.915C227.6 176.548 226.459 177.096 226.092 178.138L229.866 179.465ZM225.75 179.087C225.367 180.122 225.896 181.273 226.932 181.656C227.967 182.04 229.118 181.511 229.502 180.475L225.75 179.087ZM222.498 194.902C223.057 193.949 222.737 192.724 221.784 192.165C220.831 191.607 219.606 191.926 219.047 192.879L222.498 194.902ZM218.551 193.718C217.985 194.667 218.295 195.895 219.244 196.46C220.192 197.026 221.42 196.716 221.986 195.768L218.551 193.718ZM213.057 209.148C213.709 208.256 213.513 207.004 212.621 206.353C211.729 205.702 210.478 205.897 209.826 206.789L213.057 209.148ZM209.229 207.605C208.573 208.494 208.763 209.746 209.653 210.401C210.542 211.056 211.794 210.867 212.449 209.977L209.229 207.605ZM202.608 222.563C203.31 221.71 203.187 220.45 202.333 219.748C201.48 219.047 200.22 219.17 199.518 220.023L202.608 222.563ZM198.907 220.765C198.204 221.617 198.324 222.877 199.175 223.581C200.027 224.284 201.288 224.164 201.991 223.312L198.907 220.765ZM191.66 235.39C192.39 234.562 192.31 233.298 191.482 232.568C190.653 231.837 189.389 231.917 188.659 232.746L191.66 235.39ZM188.014 233.477C187.283 234.305 187.361 235.569 188.189 236.3C189.016 237.031 190.28 236.953 191.012 236.126L188.014 233.477ZM180.371 247.925C181.118 247.111 181.063 245.846 180.249 245.1C179.435 244.353 178.17 244.408 177.423 245.222L180.371 247.925ZM176.759 245.945C176.012 246.759 176.066 248.024 176.879 248.771C177.693 249.518 178.958 249.465 179.705 248.651L176.759 245.945ZM168.906 260.288C169.661 259.482 169.618 258.216 168.811 257.462C168.005 256.707 166.739 256.75 165.985 257.556L168.906 260.288ZM165.311 258.277C164.556 259.083 164.598 260.349 165.405 261.103C166.211 261.858 167.477 261.816 168.232 261.009L165.311 258.277ZM157.381 272.579C158.137 271.773 158.096 270.507 157.291 269.752C156.485 268.996 155.219 269.036 154.464 269.842L157.381 272.579ZM153.787 270.563C153.031 271.369 153.072 272.635 153.878 273.39C154.683 274.146 155.949 274.105 156.705 273.299L153.787 270.563ZM145.89 284.882C146.641 284.073 146.594 282.807 145.784 282.056C144.974 281.305 143.708 281.352 142.957 282.162L145.89 284.882ZM142.283 282.889C141.533 283.7 141.581 284.965 142.391 285.716C143.201 286.466 144.467 286.418 145.218 285.608L142.283 282.889ZM134.524 297.282C135.264 296.462 135.2 295.197 134.381 294.457C133.561 293.716 132.297 293.78 131.556 294.6L134.524 297.282ZM130.89 295.337C130.15 296.157 130.216 297.422 131.036 298.162C131.856 298.902 133.121 298.836 133.86 298.016L130.89 295.337ZM123.378 309.858C124.102 309.024 124.011 307.76 123.176 307.037C122.342 306.314 121.078 306.404 120.355 307.239L123.378 309.858ZM119.703 307.992C118.981 308.828 119.074 310.091 119.91 310.813C120.745 311.535 122.008 311.443 122.73 310.607L119.703 307.992ZM112.569 322.702C113.267 321.845 113.138 320.585 112.281 319.888C111.425 319.191 110.165 319.319 109.468 320.176L112.569 322.702ZM108.839 320.95C108.143 321.808 108.275 323.068 109.133 323.763C109.991 324.459 111.25 324.327 111.946 323.469L108.839 320.95ZM102.252 335.912C102.912 335.026 102.729 333.773 101.843 333.113C100.957 332.453 99.7041 332.636 99.0442 333.522L102.252 335.912ZM98.4495 334.323C97.7923 335.211 97.9793 336.463 98.867 337.121C99.7548 337.778 101.007 337.591 101.664 336.703L98.4495 334.323ZM92.651 349.601C93.2558 348.677 92.9969 347.437 92.0726 346.832C91.1484 346.227 89.9088 346.486 89.304 347.411L92.651 349.601ZM88.7612 348.244C88.1603 349.171 88.4245 350.409 89.3513 351.01C90.2781 351.611 91.5166 351.347 92.1175 350.42L88.7612 348.244ZM84.1143 363.885C84.6366 362.911 84.2709 361.699 83.2976 361.177C82.3242 360.654 81.1119 361.02 80.5896 361.993L84.1143 363.885ZM80.1258 362.864C79.6096 363.841 79.9827 365.051 80.9592 365.567C81.9357 366.083 83.1458 365.71 83.662 364.734L80.1258 362.864ZM77.1976 378.853C77.5914 377.821 77.0742 376.665 76.0423 376.271C75.0103 375.877 73.8544 376.394 73.4605 377.426L77.1976 378.853ZM73.0947 378.399C72.7107 379.434 73.239 380.585 74.2747 380.969C75.3104 381.353 76.4612 380.825 76.8452 379.789L73.0947 378.399ZM72.7289 394.735C72.9162 393.647 72.1855 392.612 71.0969 392.425C70.0084 392.238 68.9741 392.969 68.7868 394.057L72.7289 394.735ZM68.6207 395.065C68.4487 396.156 69.1938 397.18 70.2849 397.352C71.376 397.524 72.3999 396.779 72.5719 395.688L68.6207 395.065ZM72.1031 410.907C71.9847 409.808 70.9983 409.014 69.9002 409.133C68.802 409.251 68.0077 410.237 68.1262 411.336L72.1031 410.907ZM68.2451 412.349C68.3839 413.445 69.3849 414.22 70.4807 414.081C71.5765 413.943 72.3522 412.942 72.2133 411.846L68.2451 412.349ZM76.3946 426.353C75.9285 425.352 74.7388 424.918 73.7374 425.384C72.736 425.85 72.3021 427.039 72.7682 428.041L76.3946 426.353ZM73.2083 428.964C73.6931 429.956 74.8907 430.368 75.8832 429.883C76.8757 429.398 77.2871 428.2 76.8023 427.208L73.2083 428.964ZM85.3498 439.835C84.6187 439.007 83.3548 438.929 82.5268 439.66C81.6989 440.391 81.6203 441.655 82.3515 442.483L85.3498 439.835ZM83.0549 443.268C83.7982 444.085 85.0631 444.144 85.8802 443.401C86.6972 442.658 86.757 441.393 86.0137 440.576L83.0549 443.268ZM97.5631 450.936C96.6782 450.275 95.4249 450.456 94.7638 451.341C94.1026 452.225 94.2839 453.479 95.1688 454.14L97.5631 450.936ZM96.0043 454.758C96.8955 455.41 98.1469 455.217 98.7995 454.326C99.4521 453.435 99.2588 452.183 98.3676 451.531L96.0043 454.758ZM111.709 460.011C110.743 459.476 109.526 459.825 108.99 460.791C108.455 461.757 108.804 462.974 109.77 463.51L111.709 460.011ZM110.656 463.997C111.626 464.526 112.841 464.169 113.37 463.2C113.899 462.23 113.542 461.015 112.572 460.486L110.656 463.997ZM126.916 467.417C125.9 466.982 124.725 467.452 124.289 468.467C123.854 469.483 124.325 470.658 125.34 471.093L126.916 467.417ZM126.281 471.494C127.298 471.924 128.471 471.447 128.901 470.43C129.331 469.412 128.855 468.239 127.837 467.809L126.281 471.494ZM142.797 473.473C141.751 473.118 140.615 473.679 140.26 474.725C139.906 475.771 140.466 476.906 141.512 477.261L142.797 473.473ZM142.486 477.59C143.534 477.94 144.667 477.375 145.018 476.328C145.368 475.281 144.804 474.147 143.756 473.797L142.486 477.59ZM159.096 478.43C158.03 478.14 156.931 478.769 156.641 479.835C156.35 480.901 156.979 482 158.045 482.29L159.096 478.43ZM159.04 482.559C160.107 482.845 161.204 482.213 161.49 481.146C161.777 480.08 161.145 478.982 160.078 478.696L159.04 482.559ZM175.658 482.486C174.579 482.249 173.512 482.931 173.275 484.01C173.039 485.089 173.721 486.156 174.8 486.393L175.658 482.486ZM175.806 486.612C176.885 486.846 177.95 486.161 178.184 485.081C178.418 484.002 177.733 482.937 176.653 482.703L175.806 486.612ZM192.393 485.793C191.306 485.6 190.268 486.326 190.075 487.414C189.883 488.501 190.608 489.539 191.696 489.732L192.393 485.793ZM192.707 489.91C193.795 490.1 194.831 489.372 195.021 488.284C195.211 487.196 194.484 486.159 193.396 485.969L192.707 489.91ZM209.248 488.47C208.154 488.315 207.142 489.076 206.987 490.169C206.832 491.263 207.593 492.275 208.687 492.43L209.248 488.47ZM209.7 492.573C210.794 492.725 211.804 491.962 211.957 490.868C212.11 489.774 211.347 488.764 210.253 488.611L209.7 492.573ZM226.189 490.606C225.091 490.484 224.102 491.275 223.98 492.373C223.858 493.47 224.648 494.459 225.746 494.582L226.189 490.606ZM226.758 494.694C227.856 494.814 228.844 494.022 228.964 492.924C229.085 491.826 228.293 490.838 227.195 490.718L226.758 494.694ZM243.195 492.274C242.095 492.18 241.126 492.996 241.033 494.097C240.939 495.198 241.755 496.166 242.855 496.26L243.195 492.274ZM243.866 496.345C244.966 496.438 245.934 495.62 246.026 494.519C246.118 493.419 245.301 492.452 244.2 492.359L243.866 496.345ZM260.251 493.529C259.148 493.46 258.199 494.298 258.13 495.401C258.062 496.503 258.9 497.453 260.002 497.521L260.251 493.529ZM261.01 497.583C262.113 497.651 263.061 496.811 263.128 495.709C263.196 494.606 262.357 493.658 261.254 493.591L261.01 497.583ZM277.343 494.415C276.239 494.369 275.307 495.227 275.261 496.33C275.215 497.434 276.072 498.366 277.176 498.412L277.343 494.415ZM278.182 498.453C279.286 498.498 280.217 497.64 280.262 496.536C280.306 495.433 279.448 494.502 278.344 494.457L278.182 498.453ZM294.459 494.97C293.355 494.944 292.439 495.819 292.413 496.923C292.388 498.027 293.262 498.943 294.366 498.969L294.459 494.97ZM295.371 498.992C296.475 499.016 297.39 498.141 297.415 497.037C297.439 495.932 296.564 495.017 295.46 494.993L295.371 498.992ZM311.579 495.222C310.475 495.215 309.573 496.105 309.566 497.21C309.559 498.314 310.449 499.215 311.553 499.222L311.579 495.222ZM312.566 499.228C313.671 499.235 314.571 498.344 314.577 497.24C314.584 496.135 313.693 495.235 312.588 495.229L312.566 499.228ZM328.672 495.199C327.567 495.209 326.68 496.112 326.69 497.217C326.7 498.322 327.603 499.209 328.708 499.199L328.672 495.199ZM329.721 499.189C330.826 499.178 331.713 498.274 331.702 497.17C331.691 496.065 330.786 495.179 329.682 495.19L329.721 499.189ZM345.78 494.921C344.676 494.947 343.801 495.863 343.827 496.967C343.853 498.071 344.769 498.946 345.873 498.92L345.78 494.921ZM346.884 498.896C347.988 498.869 348.862 497.952 348.835 496.848C348.809 495.744 347.892 494.87 346.788 494.897L346.884 498.896ZM362.894 494.405C361.79 494.446 360.928 495.373 360.969 496.477C361.01 497.581 361.937 498.443 363.041 498.402L362.894 494.405ZM364.05 498.365C365.154 498.323 366.015 497.395 365.973 496.291C365.932 495.187 365.004 494.326 363.9 494.368L364.05 498.365ZM380.003 493.666C378.9 493.721 378.049 494.659 378.104 495.763C378.159 496.866 379.097 497.716 380.2 497.661L380.003 493.666ZM381.208 497.611C382.312 497.556 383.161 496.617 383.106 495.513C383.05 494.41 382.111 493.561 381.008 493.616L381.208 497.611ZM397.095 492.717C395.993 492.785 395.154 493.734 395.222 494.836C395.29 495.939 396.238 496.778 397.341 496.71L397.095 492.717ZM398.349 496.647C399.452 496.579 400.29 495.63 400.221 494.527C400.153 493.425 399.204 492.587 398.101 492.655L398.349 496.647ZM414.178 491.568C413.077 491.648 412.249 492.607 412.329 493.708C412.41 494.81 413.368 495.638 414.469 495.557L414.178 491.568ZM415.475 495.483C416.577 495.402 417.404 494.444 417.323 493.342C417.242 492.24 416.283 491.413 415.182 491.494L415.475 495.483ZM431.254 490.226C430.154 490.318 429.337 491.286 429.429 492.386C429.522 493.487 430.489 494.304 431.59 494.212L431.254 490.226ZM432.595 494.127C433.696 494.033 434.512 493.066 434.419 491.965C434.326 490.864 433.358 490.048 432.257 490.141L432.595 494.127ZM448.314 488.698C447.214 488.802 446.407 489.778 446.512 490.878C446.616 491.978 447.592 492.784 448.692 492.68L448.314 488.698ZM449.698 492.584C450.797 492.479 451.603 491.503 451.498 490.403C451.393 489.304 450.417 488.497 449.317 488.602L449.698 492.584ZM465.347 486.99C464.248 487.106 463.452 488.091 463.568 489.189C463.684 490.288 464.668 491.084 465.766 490.968L465.347 486.99ZM466.774 490.862C467.872 490.745 468.668 489.76 468.552 488.662C468.435 487.563 467.45 486.767 466.352 486.884L466.774 490.862ZM482.344 485.107C481.247 485.234 480.461 486.227 480.588 487.324C480.716 488.422 481.708 489.208 482.806 489.08L482.344 485.107ZM483.816 488.963C484.913 488.835 485.699 487.842 485.571 486.745C485.443 485.648 484.45 484.862 483.352 484.99L483.816 488.963ZM499.352 483.044C498.257 483.183 497.481 484.184 497.619 485.28C497.758 486.376 498.759 487.151 499.855 487.013L499.352 483.044ZM500.849 486.887C501.944 486.747 502.72 485.746 502.58 484.65C502.441 483.555 501.44 482.779 500.344 482.919L500.849 486.887ZM516.35 480.804C515.255 480.954 514.49 481.963 514.64 483.057C514.79 484.151 515.799 484.917 516.893 484.767L516.35 480.804ZM517.888 484.63C518.982 484.479 519.747 483.47 519.596 482.376C519.445 481.281 518.436 480.517 517.342 480.667L517.888 484.63ZM533.316 478.385C532.223 478.547 531.468 479.564 531.63 480.656C531.792 481.749 532.809 482.504 533.901 482.342L533.316 478.385ZM534.897 482.194C535.99 482.032 536.744 481.015 536.581 479.922C536.419 478.829 535.401 478.075 534.309 478.238L534.897 482.194ZM550.247 475.784C549.156 475.958 548.412 476.983 548.586 478.074C548.76 479.165 549.785 479.908 550.876 479.735L550.247 475.784ZM551.873 479.575C552.964 479.401 553.706 478.375 553.532 477.285C553.358 476.194 552.332 475.451 551.241 475.626L551.873 479.575ZM567.14 472.994C566.051 473.181 565.32 474.214 565.506 475.303C565.693 476.392 566.726 477.123 567.815 476.937L567.14 472.994ZM568.814 476.766C569.902 476.578 570.633 475.544 570.446 474.456C570.259 473.367 569.224 472.636 568.136 472.823L568.814 476.766ZM583.995 470.003C582.909 470.203 582.19 471.245 582.39 472.332C582.59 473.418 583.632 474.136 584.719 473.937L583.995 470.003ZM585.718 473.752C586.804 473.552 587.522 472.508 587.321 471.422C587.121 470.336 586.077 469.618 584.991 469.819L585.718 473.752ZM600.81 466.792C599.727 467.007 599.022 468.06 599.237 469.143C599.452 470.227 600.504 470.931 601.588 470.716L600.81 466.792ZM602.586 470.518C603.67 470.302 604.373 469.249 604.158 468.166C603.942 467.083 602.889 466.379 601.806 466.595L602.586 470.518ZM617.582 463.338C616.502 463.569 615.814 464.633 616.045 465.713C616.276 466.793 617.34 467.481 618.42 467.249L617.582 463.338ZM619.415 467.036C620.494 466.803 621.181 465.739 620.949 464.66C620.716 463.58 619.653 462.893 618.573 463.125L619.415 467.036ZM634.293 459.603C633.217 459.854 632.549 460.93 632.8 462.006C633.051 463.081 634.126 463.75 635.202 463.499L634.293 459.603ZM636.187 463.268C637.263 463.016 637.93 461.939 637.677 460.864C637.425 459.789 636.349 459.122 635.273 459.374L636.187 463.268ZM650.896 455.537C649.827 455.812 649.183 456.903 649.458 457.973C649.734 459.042 650.824 459.686 651.894 459.411L650.896 455.537ZM652.859 459.161C653.928 458.884 654.57 457.793 654.293 456.724C654.016 455.654 652.925 455.012 651.856 455.289L652.859 459.161ZM667.271 451.068C666.21 451.376 665.6 452.485 665.908 453.546C666.216 454.607 667.326 455.217 668.387 454.909L667.271 451.068ZM669.322 454.636C670.382 454.327 670.991 453.217 670.682 452.157C670.373 451.096 669.263 450.487 668.202 450.796L669.322 454.636ZM683.447 446.357C682.387 446.665 681.777 447.775 682.085 448.836C682.394 449.896 683.504 450.506 684.564 450.198L683.447 446.357ZM685.527 449.918C686.588 449.609 687.197 448.499 686.889 447.439C686.581 446.378 685.471 445.768 684.41 446.077L685.527 449.918ZM699.966 441.562C698.905 441.869 698.294 442.979 698.602 444.039C698.909 445.1 700.018 445.711 701.079 445.404L699.966 441.562ZM702.06 445.12C703.121 444.813 703.732 443.703 703.425 442.642C703.118 441.582 702.009 440.97 700.948 441.278L702.06 445.12ZM716.233 436.861C715.172 437.167 714.56 438.275 714.866 439.337C715.172 440.398 716.28 441.01 717.341 440.704L716.233 436.861ZM718.303 440.427C719.365 440.121 719.977 439.013 719.671 437.951C719.365 436.89 718.257 436.278 717.195 436.584L718.303 440.427ZM732.71 432.124C731.648 432.429 731.034 433.536 731.338 434.598C731.642 435.66 732.75 436.274 733.812 435.969L732.71 432.124ZM734.788 435.69C735.85 435.385 736.464 434.278 736.16 433.216C735.856 432.154 734.748 431.54 733.686 431.844L734.788 435.69ZM749.051 427.455C747.989 427.758 747.373 428.864 747.675 429.926C747.978 430.989 749.084 431.605 750.147 431.302L749.051 427.455ZM751.108 431.028C752.17 430.726 752.787 429.62 752.484 428.557C752.182 427.495 751.075 426.879 750.013 427.181L751.108 431.028ZM765.493 422.79C764.43 423.09 763.812 424.196 764.112 425.258C764.413 426.321 765.518 426.939 766.581 426.639L765.493 422.79ZM767.554 426.364C768.617 426.064 769.235 424.959 768.934 423.896C768.634 422.833 767.529 422.215 766.466 422.515L767.554 426.364ZM781.908 418.168C780.845 418.467 780.224 419.571 780.522 420.634C780.821 421.698 781.924 422.318 782.988 422.02L781.908 418.168ZM783.95 421.751C785.013 421.452 785.634 420.349 785.336 419.285C785.038 418.221 783.934 417.601 782.87 417.899L783.95 421.751ZM798.332 413.585C797.268 413.88 796.645 414.983 796.94 416.047C797.236 417.111 798.338 417.734 799.403 417.439L798.332 413.585ZM800.373 417.169C801.437 416.874 802.06 415.771 801.765 414.707C801.469 413.643 800.367 413.02 799.302 413.315L800.373 417.169ZM814.807 409.03C813.742 409.323 813.116 410.424 813.409 411.489C813.702 412.554 814.802 413.18 815.867 412.887L814.807 409.03ZM816.83 412.622C817.895 412.329 818.521 411.229 818.229 410.164C817.936 409.098 816.835 408.472 815.77 408.765L816.83 412.622ZM831.233 404.536C830.168 404.826 829.539 405.925 829.829 406.991C830.119 408.057 831.218 408.686 832.284 408.396L831.233 404.536ZM833.252 408.132C834.318 407.842 834.947 406.743 834.658 405.677C834.368 404.611 833.269 403.982 832.203 404.272L833.252 408.132ZM847.744 400.07C846.677 400.357 846.045 401.454 846.332 402.52C846.619 403.587 847.716 404.219 848.783 403.933L847.744 400.07ZM849.748 403.673C850.815 403.387 851.447 402.289 851.161 401.223C850.874 400.156 849.777 399.523 848.71 399.81L849.748 403.673ZM864.199 395.673C863.131 395.957 862.495 397.052 862.779 398.12C863.062 399.187 864.157 399.823 865.225 399.54L864.199 395.673ZM866.194 399.282C867.262 398.999 867.898 397.904 867.614 396.837C867.331 395.769 866.236 395.133 865.169 395.416L866.194 399.282ZM880.708 391.322C879.639 391.601 879 392.694 879.279 393.763C879.559 394.831 880.652 395.471 881.721 395.191L880.708 391.322ZM882.692 394.937C883.761 394.657 884.401 393.565 884.121 392.496C883.842 391.427 882.749 390.788 881.68 391.067L882.692 394.937ZM897.225 387.03C896.156 387.306 895.512 388.397 895.788 389.466C896.064 390.536 897.154 391.179 898.224 390.904L897.225 387.03ZM899.195 390.653C900.264 390.378 900.908 389.287 900.633 388.218C900.357 387.148 899.267 386.504 898.197 386.78L899.195 390.653ZM913.752 382.804C912.681 383.076 912.033 384.164 912.305 385.234C912.576 386.305 913.665 386.953 914.735 386.682L913.752 382.804ZM915.707 386.435C916.777 386.164 917.425 385.076 917.154 384.005C916.883 382.935 915.795 382.287 914.724 382.558L915.707 386.435ZM930.309 378.643C929.237 378.91 928.585 379.995 928.852 381.067C929.118 382.139 930.204 382.791 931.276 382.524L930.309 378.643ZM932.25 382.282C933.322 382.015 933.975 380.93 933.708 379.858C933.442 378.786 932.356 378.133 931.285 378.4L932.25 382.282ZM946.882 374.555C945.809 374.817 945.152 375.899 945.414 376.972C945.676 378.045 946.758 378.703 947.831 378.441L946.882 374.555ZM948.804 378.203C949.877 377.941 950.535 376.859 950.273 375.786C950.011 374.713 948.929 374.055 947.856 374.317L948.804 378.203ZM963.447 370.552C962.373 370.809 961.71 371.888 961.967 372.962C962.224 374.036 963.303 374.699 964.377 374.442L963.447 370.552ZM965.357 374.208C966.431 373.952 967.094 372.873 966.838 371.798C966.581 370.724 965.502 370.061 964.428 370.318L965.357 374.208ZM980.094 366.618C979.019 366.869 978.35 367.945 978.602 369.021C978.853 370.096 979.928 370.765 981.004 370.513L980.094 366.618ZM981.98 370.286C983.055 370.035 983.724 368.96 983.473 367.884C983.223 366.808 982.147 366.14 981.072 366.39L981.98 370.286ZM996.665 362.798C995.588 363.043 994.913 364.115 995.158 365.192C995.404 366.269 996.475 366.944 997.552 366.699L996.665 362.798ZM998.523 366.478C999.6 366.233 1000.27 365.162 1000.03 364.085C999.786 363.007 998.714 362.333 997.637 362.577L998.523 366.478ZM1013.39 359.046C1012.31 359.285 1011.63 360.352 1011.87 361.431C1012.11 362.509 1013.17 363.19 1014.25 362.952L1013.39 359.046ZM1015.23 362.736C1016.31 362.498 1016.99 361.43 1016.75 360.352C1016.52 359.273 1015.45 358.592 1014.37 358.83L1015.23 362.736ZM1030.02 355.427C1028.94 355.658 1028.25 356.721 1028.48 357.801C1028.71 358.881 1029.78 359.569 1030.86 359.338L1030.02 355.427ZM1031.83 359.13C1032.91 358.899 1033.6 357.836 1033.37 356.756C1033.14 355.676 1032.07 354.987 1030.99 355.218L1031.83 359.13ZM1046.77 351.901C1045.69 352.125 1044.99 353.183 1045.22 354.265C1045.44 355.346 1046.5 356.042 1047.58 355.819L1046.77 351.901ZM1048.57 355.615C1049.65 355.392 1050.34 354.334 1050.12 353.252C1049.9 352.171 1048.84 351.474 1047.76 351.697L1048.57 355.615ZM1063.48 348.515C1062.4 348.73 1061.69 349.783 1061.91 350.867C1062.12 351.95 1063.18 352.654 1064.26 352.439L1063.48 348.515ZM1065.23 352.245C1066.32 352.031 1067.02 350.979 1066.81 349.895C1066.59 348.811 1065.54 348.107 1064.46 348.322L1065.23 352.245ZM1080.25 345.259C1079.16 345.465 1078.45 346.512 1078.66 347.597C1078.86 348.682 1079.91 349.395 1081 349.189L1080.25 345.259ZM1081.99 349.001C1083.07 348.796 1083.79 347.75 1083.58 346.664C1083.38 345.579 1082.33 344.866 1081.24 345.071L1081.99 349.001ZM1097.05 342.153C1095.96 342.349 1095.24 343.389 1095.44 344.476C1095.63 345.563 1096.67 346.285 1097.76 346.09L1097.05 342.153ZM1098.74 345.914C1099.83 345.719 1100.55 344.679 1100.35 343.592C1100.16 342.505 1099.12 341.782 1098.03 341.977L1098.74 345.914ZM1113.85 339.218C1112.76 339.403 1112.02 340.435 1112.21 341.524C1112.39 342.613 1113.43 343.347 1114.51 343.162L1113.85 339.218ZM1115.51 342.993C1116.6 342.809 1117.34 341.778 1117.15 340.688C1116.97 339.599 1115.94 338.865 1114.85 339.049L1115.51 342.993ZM1130.74 336.455C1129.65 336.627 1128.91 337.651 1129.08 338.742C1129.25 339.833 1130.28 340.578 1131.37 340.406L1130.74 336.455ZM1132.35 340.252C1133.44 340.081 1134.18 339.057 1134.01 337.966C1133.84 336.875 1132.82 336.129 1131.73 336.3L1132.35 340.252ZM1147.59 333.909C1146.49 334.067 1145.74 335.081 1145.89 336.175C1146.05 337.268 1147.07 338.026 1148.16 337.868L1147.59 333.909ZM1149.17 337.723C1150.26 337.566 1151.02 336.552 1150.86 335.459C1150.7 334.366 1149.69 333.607 1148.6 333.764L1149.17 337.723ZM1164.56 331.578C1163.47 331.721 1162.7 332.724 1162.84 333.819C1162.98 334.914 1163.98 335.687 1165.08 335.545L1164.56 331.578ZM1166.06 335.418C1167.16 335.277 1167.93 334.274 1167.79 333.179C1167.65 332.083 1166.65 331.309 1165.55 331.451L1166.06 335.418ZM1181.5 329.517C1180.4 329.641 1179.61 330.632 1179.74 331.729C1179.86 332.827 1180.85 333.616 1181.95 333.491L1181.5 329.517ZM1182.96 333.378C1184.06 333.254 1184.85 332.265 1184.72 331.167C1184.6 330.069 1183.61 329.279 1182.51 329.403L1182.96 333.378ZM1198.51 327.747C1197.41 327.851 1196.6 328.826 1196.7 329.926C1196.81 331.026 1197.78 331.833 1198.88 331.729L1198.51 327.747ZM1199.86 331.637C1200.96 331.535 1201.77 330.56 1201.67 329.46C1201.57 328.36 1200.59 327.552 1199.49 327.654L1199.86 331.637ZM1215.59 326.316C1214.49 326.396 1213.66 327.354 1213.74 328.456C1213.82 329.557 1214.78 330.386 1215.88 330.306L1215.59 326.316ZM1216.89 330.233C1217.99 330.155 1218.82 329.198 1218.74 328.096C1218.66 326.995 1217.71 326.165 1216.6 326.243L1216.89 330.233ZM1232.53 325.296C1231.43 325.348 1230.57 326.285 1230.63 327.388C1230.68 328.492 1231.62 329.344 1232.72 329.292L1232.53 325.296ZM1233.69 329.247C1234.79 329.197 1235.65 328.261 1235.59 327.158C1235.54 326.054 1234.61 325.201 1233.51 325.251L1233.69 329.247ZM1249.81 324.739C1248.71 324.757 1247.83 325.667 1247.85 326.771C1247.87 327.875 1248.78 328.756 1249.88 328.738L1249.81 324.739ZM1250.88 328.723C1251.98 328.707 1252.86 327.798 1252.85 326.694C1252.83 325.59 1251.92 324.707 1250.82 324.723L1250.88 328.723ZM1266.81 324.762C1265.71 324.74 1264.79 325.617 1264.77 326.721C1264.75 327.825 1265.62 328.739 1266.73 328.762L1266.81 324.762ZM1267.76 328.784C1268.86 328.809 1269.78 327.935 1269.8 326.83C1269.83 325.726 1268.95 324.81 1267.85 324.785L1267.76 328.784ZM1283.95 325.497C1282.85 325.423 1281.9 326.256 1281.82 327.359C1281.75 328.461 1282.58 329.414 1283.69 329.488L1283.95 325.497ZM1284.65 329.554C1285.75 329.631 1286.7 328.801 1286.78 327.699C1286.86 326.597 1286.03 325.641 1284.93 325.564L1284.65 329.554ZM1301.18 327.154C1300.08 327.013 1299.08 327.788 1298.94 328.883C1298.8 329.979 1299.57 330.981 1300.67 331.121L1301.18 327.154ZM1301.64 331.249C1302.74 331.394 1303.74 330.624 1303.89 329.529C1304.03 328.434 1303.26 327.428 1302.17 327.283L1301.64 331.249ZM1318.13 329.991C1317.05 329.763 1315.99 330.454 1315.76 331.534C1315.53 332.615 1316.22 333.676 1317.3 333.905L1318.13 329.991ZM1318.28 334.116C1319.36 334.35 1320.43 333.665 1320.66 332.586C1320.9 331.507 1320.21 330.441 1319.13 330.207L1318.28 334.116ZM1334.74 334.436C1333.69 334.087 1332.56 334.653 1332.21 335.701C1331.86 336.749 1332.42 337.882 1333.47 338.231L1334.74 334.436ZM1334.44 338.556C1335.48 338.914 1336.62 338.357 1336.98 337.312C1337.33 336.267 1336.78 335.13 1335.73 334.772L1334.44 338.556ZM1350.7 341.174C1349.73 340.656 1348.51 341.026 1348 342.002C1347.48 342.977 1347.85 344.188 1348.82 344.706L1350.7 341.174ZM1349.71 345.186C1350.68 345.716 1351.9 345.361 1352.43 344.392C1352.96 343.423 1352.6 342.208 1351.63 341.677L1349.71 345.186ZM1365.09 351.14C1364.27 350.396 1363.01 350.455 1362.26 351.272C1361.52 352.089 1361.58 353.354 1362.39 354.097L1365.09 351.14ZM1363.11 354.764C1363.92 355.522 1365.18 355.486 1365.94 354.683C1366.7 353.88 1366.66 352.614 1365.86 351.856L1363.11 354.764ZM1375.99 364.914C1375.46 363.943 1374.24 363.583 1373.27 364.109C1372.3 364.636 1371.94 365.85 1372.47 366.821L1375.99 364.914ZM1372.92 367.67C1373.42 368.651 1374.63 369.037 1375.61 368.531C1376.59 368.025 1376.98 366.819 1376.47 365.837L1372.92 367.67ZM1381.56 381.531C1381.39 380.441 1380.36 379.699 1379.27 379.875C1378.18 380.051 1377.44 381.077 1377.61 382.168L1381.56 381.531ZM1377.76 383.135C1377.92 384.228 1378.93 384.988 1380.02 384.832C1381.12 384.676 1381.88 383.663 1381.72 382.569L1377.76 383.135ZM1382 398.939C1382.1 397.839 1381.3 396.864 1380.2 396.76C1379.1 396.656 1378.12 397.464 1378.02 398.563L1382 398.939ZM1377.92 399.555C1377.8 400.653 1378.6 401.639 1379.69 401.756C1380.79 401.873 1381.78 401.078 1381.9 399.98L1377.92 399.555ZM1378.82 415.924C1379.11 414.858 1378.48 413.76 1377.42 413.471C1376.35 413.183 1375.25 413.813 1374.96 414.879L1378.82 415.924ZM1374.7 415.828C1374.41 416.892 1375.03 417.995 1376.09 418.292C1377.15 418.589 1378.26 417.968 1378.56 416.904L1374.7 415.828ZM1373.26 432.377C1373.67 431.351 1373.17 430.187 1372.15 429.776C1371.12 429.366 1369.96 429.864 1369.55 430.89L1373.26 432.377ZM1369.19 431.769C1368.78 432.792 1369.27 433.959 1370.29 434.375C1371.31 434.791 1372.48 434.299 1372.9 433.276L1369.19 431.769ZM1366.09 448.245C1366.58 447.257 1366.18 446.055 1365.19 445.561C1364.21 445.067 1363.01 445.467 1362.51 446.455L1366.09 448.245ZM1362.03 447.412C1361.53 448.398 1361.93 449.601 1362.91 450.099C1363.9 450.598 1365.1 450.202 1365.6 449.217L1362.03 447.412ZM1358.14 462.981C1358.69 462.024 1358.36 460.801 1357.4 460.249C1356.45 459.697 1355.22 460.026 1354.67 460.982L1358.14 462.981ZM1354.17 461.846C1353.62 462.801 1353.94 464.025 1354.9 464.58C1355.85 465.135 1357.08 464.811 1357.63 463.856L1354.17 461.846ZM1348.95 478.019C1349.54 477.09 1349.28 475.853 1348.35 475.255C1347.42 474.657 1346.18 474.926 1345.58 475.855L1348.95 478.019ZM1345.08 476.639C1344.48 477.566 1344.74 478.804 1345.67 479.404C1346.6 480.004 1347.84 479.739 1348.44 478.811L1345.08 476.639ZM1339.7 491.806C1340.33 490.9 1340.11 489.653 1339.2 489.022C1338.3 488.391 1337.05 488.614 1336.42 489.52L1339.7 491.806ZM1335.84 490.346C1335.21 491.251 1335.43 492.498 1336.34 493.131C1337.24 493.765 1338.49 493.544 1339.12 492.639L1335.84 490.346ZM1329.35 506.164C1330.01 505.279 1329.82 504.026 1328.94 503.366C1328.05 502.706 1326.8 502.889 1326.14 503.775L1329.35 506.164ZM1325.58 504.524C1324.92 505.409 1325.1 506.662 1325.98 507.324C1326.87 507.985 1328.12 507.804 1328.78 506.919L1325.58 504.524ZM1319.34 519.244C1320.02 518.375 1319.87 517.118 1319 516.436C1318.13 515.755 1316.88 515.906 1316.19 516.776L1319.34 519.244ZM1315.58 517.558C1314.9 518.426 1315.05 519.683 1315.91 520.366C1316.78 521.049 1318.04 520.899 1318.72 520.031L1315.58 517.558ZM1308.4 532.869C1309.1 532.016 1308.98 530.756 1308.12 530.055C1307.27 529.354 1306.01 529.477 1305.31 530.331L1308.4 532.869ZM1304.64 531.145C1303.93 531.998 1304.06 533.259 1304.91 533.961C1305.76 534.663 1307.02 534.541 1307.72 533.688L1304.64 531.145ZM1297.58 545.781C1298.3 544.941 1298.2 543.678 1297.36 542.961C1296.52 542.244 1295.26 542.344 1294.54 543.185L1297.58 545.781ZM1293.91 543.922C1293.19 544.762 1293.29 546.024 1294.13 546.742C1294.97 547.46 1296.23 547.361 1296.95 546.522L1293.91 543.922ZM1286.48 558.575C1287.21 557.746 1287.13 556.482 1286.31 555.752C1285.48 555.021 1284.21 555.1 1283.48 555.929L1286.48 558.575ZM1282.81 556.692C1282.08 557.52 1282.16 558.784 1282.98 559.515C1283.81 560.247 1285.07 560.168 1285.81 559.341L1282.81 556.692ZM1274.63 571.803C1275.37 570.986 1275.31 569.721 1274.5 568.978C1273.68 568.235 1272.41 568.295 1271.67 569.112L1274.63 571.803ZM1270.98 569.866C1270.24 570.682 1270.3 571.947 1271.11 572.692C1271.93 573.437 1273.19 573.379 1273.94 572.564L1270.98 569.866ZM1262.98 583.99C1263.76 583.21 1263.76 581.944 1262.98 581.161C1262.2 580.379 1260.94 580.376 1260.15 581.156L1262.98 583.99ZM1259.46 581.846C1258.67 582.623 1258.67 583.889 1259.45 584.674C1260.22 585.459 1261.49 585.464 1262.27 584.687L1259.46 581.846ZM1250.82 595.613C1251.64 594.865 1251.69 593.599 1250.94 592.787C1250.19 591.975 1248.92 591.923 1248.11 592.671L1250.82 595.613ZM1247.39 593.335C1246.58 594.082 1246.52 595.347 1247.27 596.161C1248.02 596.975 1249.28 597.029 1250.1 596.282L1247.39 593.335ZM1238.29 606.807C1239.13 606.082 1239.22 604.819 1238.49 603.985C1237.77 603.151 1236.5 603.062 1235.67 603.787L1238.29 606.807ZM1234.93 604.431C1234.09 605.154 1234 606.417 1234.72 607.252C1235.45 608.087 1236.71 608.178 1237.55 607.454L1234.93 604.431ZM1225.51 617.667C1226.35 616.96 1226.47 615.699 1225.76 614.85C1225.06 614.001 1223.79 613.886 1222.95 614.593L1225.51 617.667ZM1222.2 615.218C1221.35 615.924 1221.23 617.185 1221.94 618.034C1222.64 618.884 1223.9 619 1224.75 618.294L1222.2 615.218ZM1212.54 628.311C1213.4 627.614 1213.53 626.355 1212.84 625.497C1212.14 624.64 1210.88 624.509 1210.02 625.205L1212.54 628.311ZM1209.25 625.828C1208.4 626.524 1208.27 627.784 1208.96 628.642C1209.66 629.499 1210.92 629.631 1211.77 628.935L1209.25 625.828ZM1199.54 638.826C1200.4 638.131 1200.53 636.872 1199.84 636.013C1199.14 635.154 1197.88 635.02 1197.02 635.714L1199.54 638.826ZM1196.27 636.322C1195.41 637.017 1195.28 638.276 1195.97 639.135C1196.67 639.994 1197.93 640.128 1198.79 639.433L1196.27 636.322ZM1186.55 649.41C1187.4 648.706 1187.52 647.445 1186.82 646.594C1186.11 645.743 1184.85 645.624 1184 646.328L1186.55 649.41ZM1183.25 646.953C1182.4 647.658 1182.28 648.919 1182.99 649.769C1183.69 650.619 1184.95 650.737 1185.8 650.031L1183.25 646.953ZM1173.87 660.237C1174.7 659.502 1174.77 658.237 1174.03 657.413C1173.3 656.589 1172.03 656.517 1171.21 657.252L1173.87 660.237ZM1170.47 657.911C1169.65 658.649 1169.58 659.913 1170.32 660.735C1171.06 661.557 1172.32 661.625 1173.15 660.886L1170.47 657.911ZM1162.04 671.735C1162.78 670.917 1162.72 669.653 1161.9 668.91C1161.09 668.168 1159.82 668.229 1159.08 669.047L1162.04 671.735ZM1158.44 669.764C1157.7 670.59 1157.78 671.854 1158.6 672.587C1159.43 673.321 1160.69 673.246 1161.43 672.42L1158.44 669.764ZM1153.68 684.82C1153.93 683.743 1153.25 682.671 1152.17 682.427C1151.1 682.183 1150.02 682.858 1149.78 683.935L1153.68 684.82ZM1149.57 685.108C1149.42 686.202 1150.18 687.211 1151.28 687.361C1152.37 687.511 1153.38 686.746 1153.53 685.652L1149.57 685.108ZM1161.16 694.735C1160.14 694.33 1158.97 694.834 1158.57 695.862C1158.16 696.889 1158.67 698.051 1159.7 698.456L1161.16 694.735ZM1160.67 698.826C1161.71 699.201 1162.86 698.664 1163.24 697.625C1163.61 696.586 1163.07 695.44 1162.04 695.064L1160.67 698.826ZM1176.98 698.239C1175.88 698.106 1174.88 698.886 1174.75 699.983C1174.62 701.079 1175.4 702.076 1176.49 702.21L1176.98 698.239ZM1177.55 702.334C1178.64 702.459 1179.63 701.671 1179.76 700.574C1179.88 699.476 1179.1 698.485 1178 698.36L1177.55 702.334ZM1193.43 699.447C1192.33 699.407 1191.4 700.269 1191.36 701.373C1191.32 702.477 1192.18 703.405 1193.28 703.445L1193.43 699.447ZM1194.26 703.479C1195.36 703.515 1196.28 702.65 1196.32 701.546C1196.36 700.442 1195.49 699.518 1194.39 699.481L1194.26 703.479ZM1210.05 699.655C1208.94 699.663 1208.05 700.565 1208.06 701.67C1208.07 702.774 1208.97 703.663 1210.08 703.655L1210.05 699.655ZM1211.08 703.646C1212.19 703.636 1213.08 702.732 1213.07 701.627C1213.06 700.523 1212.15 699.636 1211.05 699.646L1211.08 703.646ZM1226.73 699.285C1225.63 699.324 1224.76 700.25 1224.8 701.354C1224.84 702.458 1225.77 703.321 1226.87 703.283L1226.73 699.285ZM1227.88 703.247C1228.99 703.207 1229.85 702.279 1229.81 701.175C1229.77 700.072 1228.84 699.209 1227.74 699.249L1227.88 703.247ZM1243.38 698.538C1242.27 698.598 1241.43 699.54 1241.49 700.643C1241.54 701.746 1242.49 702.592 1243.59 702.533L1243.38 698.538ZM1244.59 702.478C1245.7 702.418 1246.54 701.475 1246.48 700.372C1246.42 699.269 1245.48 698.424 1244.37 698.484L1244.59 702.478ZM1260.02 697.524C1258.92 697.598 1258.08 698.552 1258.16 699.654C1258.23 700.756 1259.19 701.589 1260.29 701.514L1260.02 697.524ZM1261.27 701.448C1262.37 701.372 1263.21 700.418 1263.13 699.316C1263.05 698.214 1262.1 697.382 1261 697.457L1261.27 701.448ZM1276.74 696.3C1275.64 696.386 1274.82 697.349 1274.91 698.45C1274.99 699.551 1275.95 700.374 1277.06 700.288L1276.74 696.3ZM1278.01 700.213C1279.12 700.126 1279.94 699.163 1279.85 698.062C1279.76 696.961 1278.8 696.138 1277.7 696.225L1278.01 700.213ZM1293.6 694.906C1292.5 695.001 1291.69 695.971 1291.78 697.071C1291.88 698.172 1292.85 698.986 1293.95 698.891L1293.6 694.906ZM1294.98 698.801C1296.08 698.705 1296.9 697.734 1296.8 696.634C1296.7 695.534 1295.73 694.72 1294.63 694.816L1294.98 698.801ZM1310.86 693.257C1309.76 693.372 1308.96 694.356 1309.08 695.455C1309.19 696.553 1310.18 697.35 1311.28 697.235L1310.86 693.257ZM1312.28 697.13C1313.38 697.014 1314.17 696.029 1314.06 694.93C1313.94 693.832 1312.96 693.036 1311.86 693.152L1312.28 697.13ZM1327.81 691.322C1326.72 691.458 1325.94 692.456 1326.07 693.553C1326.21 694.649 1327.21 695.428 1328.3 695.292L1327.81 691.322ZM1329.32 695.165C1330.42 695.028 1331.2 694.029 1331.06 692.932C1330.92 691.836 1329.93 691.059 1328.83 691.196L1329.32 695.165ZM1344.82 689.047C1343.72 689.205 1342.96 690.219 1343.12 691.312C1343.28 692.405 1344.29 693.164 1345.39 693.006L1344.82 689.047ZM1346.37 692.863C1347.47 692.705 1348.22 691.69 1348.07 690.597C1347.91 689.504 1346.89 688.746 1345.8 688.905L1346.37 692.863ZM1361.8 686.418C1360.71 686.598 1359.97 687.628 1360.15 688.718C1360.34 689.807 1361.37 690.544 1362.45 690.364L1361.8 686.418ZM1363.46 690.197C1364.55 690.015 1365.28 688.984 1365.1 687.895C1364.92 686.805 1363.89 686.07 1362.8 686.252L1363.46 690.197ZM1378.56 683.447C1377.48 683.652 1376.77 684.698 1376.97 685.784C1377.18 686.869 1378.22 687.583 1379.31 687.378L1378.56 683.447ZM1380.32 687.185C1381.41 686.979 1382.12 685.932 1381.91 684.847C1381.71 683.762 1380.66 683.049 1379.57 683.256L1380.32 687.185ZM1395.41 680.058C1394.33 680.289 1393.65 681.352 1393.88 682.432C1394.11 683.512 1395.17 684.201 1396.25 683.97L1395.41 680.058ZM1397.23 683.761C1398.31 683.528 1398.99 682.464 1398.76 681.385C1398.53 680.305 1397.46 679.618 1396.39 679.85L1397.23 683.761ZM1412.16 676.259C1411.09 676.517 1410.42 677.597 1410.68 678.671C1410.94 679.745 1412.02 680.406 1413.09 680.148L1412.16 676.259ZM1414.08 679.91C1415.15 679.65 1415.81 678.569 1415.55 677.496C1415.29 676.422 1414.21 675.763 1413.14 676.023L1414.08 679.91ZM1428.71 672.046C1427.64 672.333 1427.01 673.431 1427.29 674.497C1427.58 675.564 1428.68 676.196 1429.75 675.909L1428.71 672.046ZM1430.74 675.641C1431.8 675.353 1432.43 674.254 1432.14 673.188C1431.86 672.122 1430.76 671.492 1429.69 671.781L1430.74 675.641ZM1445.09 667.388C1444.04 667.705 1443.43 668.82 1443.75 669.878C1444.07 670.936 1445.18 671.537 1446.24 671.219L1445.09 667.388ZM1447.22 670.926C1448.27 670.607 1448.87 669.491 1448.55 668.434C1448.23 667.376 1447.12 666.778 1446.06 667.097L1447.22 670.926ZM1461.49 662.197C1460.44 662.547 1459.88 663.68 1460.23 664.728C1460.58 665.776 1461.71 666.341 1462.76 665.992L1461.49 662.197ZM1463.7 665.675C1464.75 665.323 1465.32 664.189 1464.96 663.142C1464.61 662.095 1463.48 661.531 1462.43 661.883L1463.7 665.675ZM1477.66 656.51C1476.63 656.894 1476.1 658.045 1476.48 659.08C1476.87 660.116 1478.02 660.645 1479.05 660.262L1477.66 656.51ZM1480 659.911C1481.03 659.525 1481.56 658.373 1481.17 657.338C1480.79 656.303 1479.64 655.777 1478.6 656.162L1480 659.911ZM1493.6 650.297C1492.58 650.716 1492.09 651.884 1492.51 652.906C1492.93 653.928 1494.1 654.417 1495.12 653.998L1493.6 650.297ZM1496.06 653.612C1497.08 653.191 1497.57 652.021 1497.15 651C1496.73 649.979 1495.56 649.493 1494.54 649.914L1496.06 653.612ZM1509.3 643.527C1508.29 643.984 1507.85 645.169 1508.3 646.175C1508.76 647.181 1509.94 647.626 1510.95 647.17L1509.3 643.527ZM1511.88 646.748C1512.88 646.289 1513.33 645.103 1512.87 644.098C1512.41 643.093 1511.22 642.65 1510.22 643.109L1511.88 646.748ZM1524.72 636.173C1523.73 636.668 1523.33 637.869 1523.83 638.857C1524.32 639.844 1525.53 640.244 1526.51 639.749L1524.72 636.173ZM1527.43 639.289C1528.41 638.792 1528.81 637.589 1528.31 636.603C1527.82 635.617 1526.61 635.22 1525.63 635.717L1527.43 639.289ZM1539.84 628.208C1538.87 628.743 1538.52 629.96 1539.06 630.926C1539.59 631.893 1540.81 632.242 1541.78 631.708L1539.84 628.208ZM1542.67 631.21C1543.64 630.673 1543.99 629.455 1543.45 628.49C1542.91 627.525 1541.69 627.178 1540.73 627.715L1542.67 631.21ZM1554.61 619.612C1553.67 620.188 1553.38 621.419 1553.95 622.362C1554.53 623.304 1555.76 623.601 1556.7 623.025L1554.61 619.612ZM1557.57 622.49C1558.51 621.911 1558.81 620.68 1558.23 619.739C1557.65 618.798 1556.42 618.504 1555.48 619.083L1557.57 622.49ZM1569 610.372C1568.08 610.99 1567.84 612.233 1568.46 613.149C1569.07 614.064 1570.32 614.305 1571.23 613.687L1569 610.372ZM1572.08 613.115C1572.99 612.495 1573.23 611.251 1572.61 610.337C1571.99 609.423 1570.74 609.186 1569.83 609.806L1572.08 613.115ZM1582.93 600.484C1582.04 601.144 1581.86 602.397 1582.52 603.282C1583.18 604.168 1584.43 604.35 1585.32 603.69L1582.93 600.484ZM1586.13 603.083C1587.02 602.42 1587.19 601.166 1586.53 600.283C1585.87 599.399 1584.62 599.22 1583.73 599.883L1586.13 603.083ZM1596.36 589.955C1595.51 590.657 1595.39 591.918 1596.09 592.77C1596.79 593.623 1598.05 593.745 1598.9 593.043L1596.36 589.955ZM1599.68 592.402C1600.53 591.697 1600.65 590.436 1599.94 589.586C1599.24 588.735 1597.98 588.617 1597.13 589.322L1599.68 592.402ZM1609.23 578.809C1608.42 579.553 1608.36 580.818 1609.1 581.635C1609.84 582.452 1611.11 582.512 1611.93 581.768L1609.23 578.809ZM1612.67 581.086C1613.49 580.341 1613.54 579.076 1612.8 578.261C1612.05 577.446 1610.79 577.39 1609.97 578.135L1612.67 581.086ZM1621.61 566.977C1620.83 567.76 1620.84 569.026 1621.62 569.805C1622.4 570.585 1623.67 570.582 1624.45 569.799L1621.61 566.977ZM1625.17 569.073C1625.95 568.288 1625.94 567.022 1625.15 566.244C1624.37 565.467 1623.1 565.474 1622.33 566.259L1625.17 569.073ZM1633.37 554.584C1632.63 555.403 1632.69 556.668 1633.51 557.409C1634.33 558.149 1635.6 558.086 1636.34 557.266L1633.37 554.584ZM1637.01 556.52C1637.75 555.699 1637.68 554.434 1636.86 553.696C1636.04 552.957 1634.77 553.024 1634.03 553.846L1637.01 556.52ZM1644.52 541.655C1643.82 542.508 1643.94 543.768 1644.79 544.471C1645.65 545.173 1646.91 545.052 1647.61 544.199L1644.52 541.655ZM1648.26 543.405C1648.96 542.551 1648.84 541.291 1647.98 540.591C1647.13 539.89 1645.87 540.015 1645.17 540.869L1648.26 543.405ZM1655.11 528.245C1654.45 529.125 1654.62 530.379 1655.5 531.047C1656.38 531.714 1657.63 531.541 1658.3 530.661L1655.11 528.245ZM1658.9 529.868C1659.57 528.986 1659.39 527.732 1658.51 527.067C1657.63 526.401 1656.37 526.577 1655.71 527.458L1658.9 529.868ZM1665.24 514.409C1664.6 515.31 1664.81 516.558 1665.71 517.197C1666.61 517.836 1667.86 517.624 1668.5 516.723L1665.24 514.409ZM1669.08 515.905C1669.72 515.004 1669.5 513.755 1668.6 513.118C1667.7 512.48 1666.45 512.694 1665.81 513.596L1669.08 515.905ZM1675.04 500.329C1674.41 501.238 1674.64 502.484 1675.55 503.11C1676.46 503.737 1677.7 503.508 1678.33 502.598L1675.04 500.329ZM1678.9 501.778C1679.52 500.868 1679.29 499.623 1678.38 498.996C1677.47 498.369 1676.23 498.598 1675.6 499.508L1678.9 501.778ZM1684.9 486.264C1684.25 487.156 1684.45 488.407 1685.34 489.059C1686.23 489.71 1687.48 489.515 1688.13 488.622L1684.9 486.264ZM1688.74 487.799C1689.39 486.91 1689.2 485.658 1688.31 485.003C1687.42 484.348 1686.17 484.538 1685.52 485.428L1688.74 487.799ZM1696.04 472.773C1695.25 473.552 1695.25 474.819 1696.03 475.602C1696.81 476.385 1698.08 476.388 1698.86 475.609L1696.04 472.773ZM-245.222 250.849C-245.066 250.804 -244.911 250.758 -244.755 250.712L-245.884 246.875C-246.038 246.92 -246.19 246.965 -246.342 247.009L-245.222 250.849ZM-229.288 245.63C-228.959 245.513 -228.628 245.394 -228.297 245.275L-229.648 241.51C-229.977 241.628 -230.304 241.745 -230.63 241.862L-229.288 245.63ZM-213.152 239.573C-212.837 239.45 -212.521 239.326 -212.204 239.202L-213.667 235.479C-213.982 235.602 -214.296 235.726 -214.609 235.848L-213.152 239.573ZM-197.072 233.106C-196.763 232.979 -196.454 232.851 -196.144 232.724L-197.669 229.026C-197.978 229.153 -198.286 229.28 -198.594 229.406L-197.072 233.106ZM-181.225 226.489C-180.916 226.358 -180.606 226.227 -180.296 226.096L-181.855 222.412C-182.164 222.543 -182.473 222.674 -182.782 222.804L-181.225 226.489ZM-165.375 219.739C-165.063 219.605 -164.751 219.471 -164.438 219.337L-166.013 215.66C-166.326 215.794 -166.638 215.928 -166.95 216.062L-165.375 219.739ZM-149.526 212.932C-149.212 212.797 -148.898 212.662 -148.584 212.527L-150.164 208.852C-150.478 208.988 -150.792 209.123 -151.106 209.258L-149.526 212.932ZM-133.697 206.134C-133.39 206.002 -133.083 205.871 -132.776 205.739L-134.351 202.062C-134.658 202.194 -134.965 202.326 -135.272 202.457L-133.697 206.134ZM-117.886 199.387C-117.578 199.256 -117.269 199.125 -116.96 198.994L-118.522 195.311C-118.831 195.443 -119.14 195.574 -119.449 195.705L-117.886 199.387ZM-102.038 192.705C-101.728 192.575 -101.417 192.445 -101.107 192.316L-102.649 188.625C-102.96 188.755 -103.271 188.885 -103.582 189.015L-102.038 192.705ZM-86.1469 186.12C-85.8352 185.992 -85.5233 185.864 -85.2113 185.736L-86.7275 182.035C-87.0401 182.163 -87.3525 182.291 -87.6648 182.419L-86.1469 186.12ZM-70.205 179.659C-69.8919 179.534 -69.5787 179.408 -69.2654 179.283L-70.749 175.569C-71.0631 175.694 -71.3769 175.82 -71.6907 175.945L-70.205 179.659ZM-54.2047 173.352C-53.8903 173.23 -53.5758 173.108 -53.2612 172.986L-54.7058 169.256C-55.0212 169.378 -55.3365 169.5 -55.6518 169.622L-54.2047 173.352ZM-38.138 167.226C-37.8223 167.108 -37.5064 166.99 -37.1906 166.872L-38.5893 163.125C-38.9061 163.243 -39.2229 163.361 -39.5396 163.48L-38.138 167.226ZM-21.997 161.314C-21.6799 161.201 -21.3628 161.087 -21.0456 160.974L-22.3908 157.207C-22.7091 157.321 -23.0274 157.434 -23.3457 157.548L-21.997 161.314ZM-5.77412 155.649C-5.45563 155.541 -5.1371 155.433 -4.81859 155.325L-6.10203 151.536C-6.42185 151.645 -6.74166 151.753 -7.06146 151.862L-5.77412 155.649ZM10.5377 150.269C10.8576 150.167 11.1774 150.065 11.4973 149.964L10.2852 146.152C9.96388 146.254 9.64252 146.356 9.32111 146.459L10.5377 150.269ZM26.9444 145.22C27.2668 145.124 27.5891 145.029 27.9113 144.935L26.7819 141.097C26.4579 141.193 26.1339 141.288 25.8098 141.384L26.9444 145.22ZM43.4623 140.549C43.7894 140.461 44.1165 140.374 44.4435 140.286L43.41 136.422C43.081 136.51 42.7519 136.598 42.4227 136.687L43.4623 140.549ZM60.1018 136.319C60.4309 136.241 60.7599 136.163 61.0888 136.085L60.1674 132.192C59.8362 132.271 59.5048 132.35 59.1733 132.429L60.1018 136.319ZM76.8552 132.608C77.1859 132.541 77.5164 132.474 77.8467 132.408L77.0572 128.486C76.7241 128.554 76.3908 128.621 76.0573 128.689L76.8552 132.608ZM93.7159 129.51C94.0476 129.456 94.379 129.403 94.7102 129.35L94.0769 125.4C93.7424 125.454 93.4076 125.508 93.0727 125.562L93.7159 129.51ZM110.667 127.141C110.998 127.103 111.33 127.065 111.661 127.028L111.214 123.053C110.879 123.091 110.544 123.129 110.208 123.167L110.667 127.141ZM127.674 125.645C128.004 125.625 128.334 125.607 128.664 125.588L128.443 121.594C128.108 121.613 127.773 121.632 127.438 121.652L127.674 125.645ZM144.763 125.201C145.1 125.204 145.438 125.208 145.774 125.212L145.829 121.213C145.486 121.208 145.143 121.204 144.8 121.201L144.763 125.201ZM161.8 126.044C162.131 126.074 162.463 126.106 162.794 126.139L163.185 122.158C162.847 122.125 162.508 122.092 162.169 122.061L161.8 126.044ZM178.592 128.443C178.753 128.475 178.914 128.507 179.075 128.54L179.863 124.618C179.697 124.585 179.532 124.552 179.366 124.519L178.592 128.443ZM179.075 128.54C179.251 128.575 179.425 128.61 179.6 128.646L180.397 124.726C180.22 124.69 180.041 124.654 179.863 124.618L179.075 128.54ZM194.741 132.444C195.074 132.547 195.405 132.65 195.734 132.755L196.943 128.942C196.604 128.834 196.262 128.727 195.918 128.621L194.741 132.444ZM210.187 138.654C210.482 138.811 210.773 138.968 211.06 139.126L212.99 135.622C212.683 135.454 212.373 135.286 212.06 135.12L210.187 138.654ZM222.741 148.289C222.936 148.521 223.125 148.754 223.309 148.987L226.452 146.512C226.241 146.245 226.025 145.98 225.804 145.716L222.741 148.289ZM228.589 162.47C228.612 162.767 228.63 163.066 228.643 163.366L232.639 163.19C232.624 162.847 232.604 162.505 232.577 162.164L228.589 162.47ZM226.092 178.138C225.982 178.453 225.868 178.769 225.75 179.087L229.502 180.475C229.627 180.137 229.748 179.801 229.866 179.465L226.092 178.138ZM219.047 192.879C218.884 193.158 218.718 193.438 218.551 193.718L221.986 195.768C222.159 195.479 222.329 195.19 222.498 194.902L219.047 192.879ZM209.826 206.789C209.628 207.061 209.429 207.333 209.229 207.605L212.449 209.977C212.653 209.7 212.856 209.424 213.057 209.148L209.826 206.789ZM199.518 220.023C199.315 220.27 199.112 220.517 198.907 220.765L201.991 223.312C202.198 223.062 202.403 222.813 202.608 222.563L199.518 220.023ZM188.659 232.746C188.444 232.99 188.229 233.233 188.014 233.477L191.012 236.126C191.228 235.88 191.444 235.635 191.66 235.39L188.659 232.746ZM177.423 245.222C177.202 245.463 176.981 245.704 176.759 245.945L179.705 248.651C179.928 248.409 180.15 248.167 180.371 247.925L177.423 245.222ZM165.985 257.556C165.76 257.796 165.536 258.036 165.311 258.277L168.232 261.009C168.457 260.769 168.682 260.529 168.906 260.288L165.985 257.556ZM154.464 269.842C154.238 270.082 154.013 270.323 153.787 270.563L156.705 273.299C156.93 273.059 157.155 272.819 157.381 272.579L154.464 269.842ZM142.957 282.162C142.733 282.405 142.508 282.647 142.283 282.889L145.218 285.608C145.442 285.366 145.666 285.124 145.89 284.882L142.957 282.162ZM131.556 294.6C131.334 294.845 131.112 295.091 130.89 295.337L133.86 298.016C134.081 297.771 134.302 297.526 134.524 297.282L131.556 294.6ZM120.355 307.239C120.138 307.49 119.92 307.741 119.703 307.992L122.73 310.607C122.946 310.357 123.162 310.108 123.378 309.858L120.355 307.239ZM109.468 320.176C109.258 320.434 109.048 320.692 108.839 320.95L111.946 323.469C112.153 323.213 112.361 322.958 112.569 322.702L109.468 320.176ZM99.0442 333.522C98.8454 333.789 98.6471 334.056 98.4495 334.323L101.664 336.703C101.86 336.439 102.055 336.176 102.252 335.912L99.0442 333.522ZM89.304 347.411C89.1221 347.688 88.9412 347.966 88.7612 348.244L92.1175 350.42C92.2944 350.147 92.4722 349.874 92.651 349.601L89.304 347.411ZM80.5896 361.993C80.4338 362.284 80.2792 362.574 80.1258 362.864L83.662 364.734C83.8116 364.451 83.9623 364.168 84.1143 363.885L80.5896 361.993ZM73.4605 377.426C73.3367 377.751 73.2148 378.075 73.0947 378.399L76.8452 379.789C76.9608 379.477 77.0783 379.165 77.1976 378.853L73.4605 377.426ZM68.7868 394.057C68.729 394.393 68.6736 394.729 68.6207 395.065L72.5719 395.688C72.6219 395.371 72.6742 395.053 72.7289 394.735L68.7868 394.057ZM68.1262 411.336C68.1627 411.674 68.2023 412.012 68.2451 412.349L72.2133 411.846C72.1737 411.533 72.137 411.22 72.1031 410.907L68.1262 411.336ZM72.7682 428.041C72.9116 428.349 73.0583 428.657 73.2083 428.964L76.8023 427.208C76.6633 426.923 76.5274 426.638 76.3946 426.353L72.7682 428.041ZM82.3515 442.483C82.583 442.745 82.8175 443.007 83.0549 443.268L86.0137 440.576C85.7895 440.329 85.5682 440.082 85.3498 439.835L82.3515 442.483ZM95.1688 454.14C95.3125 454.247 95.4569 454.355 95.6019 454.462L97.9795 451.245C97.8401 451.142 97.7013 451.039 97.5631 450.936L95.1688 454.14ZM95.6019 454.462C95.7357 454.561 95.8698 454.659 96.0043 454.758L98.3676 451.531C98.2379 451.436 98.1085 451.34 97.9795 451.245L95.6019 454.462ZM109.77 463.51C110.064 463.673 110.359 463.835 110.656 463.997L112.572 460.486C112.283 460.328 111.996 460.17 111.709 460.011L109.77 463.51ZM125.34 471.093C125.652 471.227 125.966 471.361 126.281 471.494L127.837 467.809C127.529 467.679 127.222 467.548 126.916 467.417L125.34 471.093ZM141.512 477.261C141.836 477.371 142.161 477.481 142.486 477.59L143.756 473.797C143.436 473.689 143.116 473.581 142.797 473.473L141.512 477.261ZM158.045 482.29C158.376 482.38 158.708 482.47 159.04 482.559L160.078 478.696C159.75 478.608 159.422 478.519 159.096 478.43L158.045 482.29ZM174.8 486.393C175.135 486.466 175.47 486.539 175.806 486.612L176.653 482.703C176.321 482.631 175.989 482.559 175.658 482.486L174.8 486.393ZM191.696 489.732C192.032 489.791 192.369 489.851 192.707 489.91L193.396 485.969C193.061 485.911 192.727 485.852 192.393 485.793L191.696 489.732ZM208.687 492.43C209.024 492.478 209.362 492.525 209.7 492.573L210.253 488.611C209.918 488.564 209.583 488.517 209.248 488.47L208.687 492.43ZM225.746 494.582C226.083 494.619 226.42 494.657 226.758 494.694L227.195 490.718C226.859 490.681 226.524 490.644 226.189 490.606L225.746 494.582ZM242.855 496.26C243.192 496.288 243.529 496.317 243.866 496.345L244.2 492.359C243.865 492.331 243.53 492.303 243.195 492.274L242.855 496.26ZM260.002 497.521C260.338 497.542 260.674 497.563 261.01 497.583L261.254 493.591C260.919 493.57 260.585 493.55 260.251 493.529L260.002 497.521ZM277.176 498.412C277.511 498.426 277.846 498.44 278.182 498.453L278.344 494.457C278.01 494.443 277.677 494.429 277.343 494.415L277.176 498.412ZM294.366 498.969C294.701 498.977 295.036 498.984 295.371 498.992L295.46 494.993C295.126 494.985 294.793 494.978 294.459 494.97L294.366 498.969ZM311.553 499.222C311.891 499.225 312.229 499.227 312.566 499.228L312.588 495.229C312.252 495.227 311.915 495.225 311.579 495.222L311.553 499.222ZM328.708 499.199C329.046 499.196 329.383 499.193 329.721 499.189L329.682 495.19C329.345 495.193 329.008 495.196 328.672 495.199L328.708 499.199ZM345.873 498.92C346.21 498.912 346.547 498.904 346.884 498.896L346.788 494.897C346.452 494.905 346.116 494.913 345.78 494.921L345.873 498.92ZM363.041 498.402C363.377 498.39 363.714 498.377 364.05 498.365L363.9 494.368C363.564 494.38 363.229 494.393 362.894 494.405L363.041 498.402ZM380.2 497.661C380.536 497.645 380.872 497.628 381.208 497.611L381.008 493.616C380.673 493.633 380.338 493.65 380.003 493.666L380.2 497.661ZM397.341 496.71C397.677 496.689 398.013 496.668 398.349 496.647L398.101 492.655C397.766 492.676 397.431 492.697 397.095 492.717L397.341 496.71ZM414.469 495.557C414.805 495.533 415.14 495.508 415.475 495.483L415.182 491.494C414.847 491.519 414.513 491.543 414.178 491.568L414.469 495.557ZM431.59 494.212C431.925 494.183 432.26 494.155 432.595 494.127L432.257 490.141C431.923 490.169 431.589 490.198 431.254 490.226L431.59 494.212ZM448.692 492.68C449.027 492.648 449.363 492.616 449.698 492.584L449.317 488.602C448.983 488.634 448.648 488.666 448.314 488.698L448.692 492.68ZM465.766 490.968C466.102 490.933 466.438 490.897 466.774 490.862L466.352 486.884C466.017 486.92 465.682 486.955 465.347 486.99L465.766 490.968ZM482.806 489.08C483.142 489.041 483.479 489.002 483.816 488.963L483.352 484.99C483.017 485.029 482.681 485.068 482.344 485.107L482.806 489.08ZM499.855 487.013C500.186 486.971 500.517 486.929 500.849 486.887L500.344 482.919C500.014 482.961 499.683 483.003 499.352 483.044L499.855 487.013ZM516.893 484.767C517.225 484.721 517.556 484.676 517.888 484.63L517.342 480.667C517.011 480.713 516.68 480.758 516.35 480.804L516.893 484.767ZM533.901 482.342C534.234 482.293 534.565 482.244 534.897 482.194L534.309 478.238C533.978 478.287 533.647 478.336 533.316 478.385L533.901 482.342ZM550.876 479.735C551.209 479.682 551.541 479.629 551.873 479.575L551.241 475.626C550.91 475.679 550.579 475.731 550.247 475.784L550.876 479.735ZM567.815 476.937C568.148 476.88 568.481 476.823 568.814 476.766L568.136 472.823C567.804 472.88 567.472 472.937 567.14 472.994L567.815 476.937ZM584.719 473.937C585.052 473.875 585.385 473.814 585.718 473.752L584.991 469.819C584.66 469.88 584.328 469.942 583.995 470.003L584.719 473.937ZM601.588 470.716C601.921 470.65 602.254 470.584 602.586 470.518L601.806 466.595C601.474 466.661 601.143 466.727 600.81 466.792L601.588 470.716ZM618.42 467.249C618.752 467.178 619.084 467.107 619.415 467.036L618.573 463.125C618.243 463.196 617.913 463.267 617.582 463.338L618.42 467.249ZM635.202 463.499C635.531 463.422 635.86 463.345 636.187 463.268L635.273 459.374C634.947 459.45 634.62 459.527 634.293 459.603L635.202 463.499ZM651.894 459.411C652.217 459.328 652.538 459.244 652.859 459.161L651.856 455.289C651.537 455.372 651.217 455.454 650.896 455.537L651.894 459.411ZM668.387 454.909C668.542 454.864 668.696 454.819 668.851 454.774L667.731 450.934C667.578 450.978 667.424 451.023 667.271 451.068L668.387 454.909ZM668.851 454.774C669.008 454.728 669.165 454.682 669.322 454.636L668.202 450.796C668.045 450.842 667.888 450.888 667.731 450.934L668.851 454.774ZM684.564 450.198C684.885 450.104 685.206 450.011 685.527 449.918L684.41 446.077C684.089 446.17 683.768 446.263 683.447 446.357L684.564 450.198ZM701.079 445.404C701.406 445.309 701.733 445.215 702.06 445.12L700.948 441.278C700.62 441.373 700.293 441.467 699.966 441.562L701.079 445.404ZM717.341 440.704C717.662 440.612 717.982 440.52 718.303 440.427L717.195 436.584C716.875 436.676 716.554 436.768 716.233 436.861L717.341 440.704ZM733.812 435.969C734.137 435.876 734.463 435.783 734.788 435.69L733.686 431.844C733.361 431.938 733.035 432.031 732.71 432.124L733.812 435.969ZM750.147 431.302C750.467 431.211 750.788 431.12 751.108 431.028L750.013 427.181C749.692 427.273 749.372 427.364 749.051 427.455L750.147 431.302ZM766.581 426.639C766.905 426.547 767.229 426.456 767.554 426.364L766.466 422.515C766.141 422.607 765.817 422.698 765.493 422.79L766.581 426.639ZM782.988 422.02C783.308 421.93 783.629 421.84 783.95 421.751L782.87 417.899C782.55 417.989 782.229 418.079 781.908 418.168L782.988 422.02ZM799.403 417.439C799.726 417.349 800.049 417.259 800.373 417.169L799.302 413.315C798.979 413.405 798.655 413.495 798.332 413.585L799.403 417.439ZM815.867 412.887C816.188 412.799 816.509 412.71 816.83 412.622L815.77 408.765C815.449 408.853 815.128 408.942 814.807 409.03L815.867 412.887ZM832.284 408.396C832.606 408.308 832.929 408.22 833.252 408.132L832.203 404.272C831.88 404.36 831.557 404.448 831.233 404.536L832.284 408.396ZM848.783 403.933C849.104 403.846 849.426 403.76 849.748 403.673L848.71 399.81C848.388 399.897 848.066 399.983 847.744 400.07L848.783 403.933ZM865.225 399.54C865.548 399.454 865.871 399.368 866.194 399.282L865.169 395.416C864.845 395.502 864.522 395.588 864.199 395.673L865.225 399.54ZM881.721 395.191C882.044 395.106 882.368 395.022 882.692 394.937L881.68 391.067C881.356 391.152 881.032 391.237 880.708 391.322L881.721 395.191ZM898.224 390.904C898.548 390.82 898.871 390.737 899.195 390.653L898.197 386.78C897.873 386.863 897.549 386.947 897.225 387.03L898.224 390.904ZM914.735 386.682C915.059 386.599 915.383 386.517 915.707 386.435L914.724 382.558C914.4 382.64 914.076 382.722 913.752 382.804L914.735 386.682ZM931.276 382.524C931.601 382.443 931.925 382.362 932.25 382.282L931.285 378.4C930.959 378.481 930.634 378.562 930.309 378.643L931.276 382.524ZM947.831 378.441C948.155 378.362 948.479 378.282 948.804 378.203L947.856 374.317C947.531 374.396 947.207 374.476 946.882 374.555L947.831 378.441ZM964.377 374.442C964.704 374.364 965.03 374.286 965.357 374.208L964.428 370.318C964.101 370.396 963.774 370.474 963.447 370.552L964.377 374.442ZM981.004 370.513C981.329 370.438 981.654 370.362 981.98 370.286L981.072 366.39C980.746 366.466 980.42 366.542 980.094 366.618L981.004 370.513ZM997.552 366.699C997.876 366.625 998.199 366.551 998.523 366.478L997.637 362.577C997.313 362.651 996.989 362.725 996.665 362.798L997.552 366.699ZM1014.25 362.952C1014.58 362.88 1014.91 362.808 1015.23 362.736L1014.37 358.83C1014.04 358.902 1013.72 358.974 1013.39 359.046L1014.25 362.952ZM1030.86 359.338C1031.18 359.269 1031.51 359.199 1031.83 359.13L1030.99 355.218C1030.67 355.288 1030.34 355.357 1030.02 355.427L1030.86 359.338ZM1047.58 355.819C1047.91 355.751 1048.24 355.683 1048.57 355.615L1047.76 351.697C1047.43 351.765 1047.1 351.833 1046.77 351.901L1047.58 355.819ZM1064.26 352.439C1064.58 352.374 1064.91 352.31 1065.23 352.245L1064.46 348.322C1064.13 348.386 1063.81 348.451 1063.48 348.515L1064.26 352.439ZM1081 349.189C1081.33 349.127 1081.66 349.064 1081.99 349.001L1081.24 345.071C1080.91 345.134 1080.58 345.196 1080.25 345.259L1081 349.189ZM1097.76 346.09C1098.09 346.031 1098.41 345.972 1098.74 345.914L1098.03 341.977C1097.71 342.035 1097.38 342.094 1097.05 342.153L1097.76 346.09ZM1114.51 343.162C1114.85 343.106 1115.18 343.049 1115.51 342.993L1114.85 339.049C1114.52 339.105 1114.18 339.162 1113.85 339.218L1114.51 343.162ZM1131.37 340.406C1131.69 340.355 1132.02 340.303 1132.35 340.252L1131.73 336.3C1131.4 336.352 1131.07 336.403 1130.74 336.455L1131.37 340.406ZM1148.16 337.868C1148.49 337.82 1148.83 337.771 1149.17 337.723L1148.6 333.764C1148.26 333.812 1147.92 333.861 1147.59 333.909L1148.16 337.868ZM1165.08 335.545C1165.41 335.502 1165.73 335.46 1166.06 335.418L1165.55 331.451C1165.22 331.493 1164.89 331.536 1164.56 331.578L1165.08 335.545ZM1181.95 333.491C1182.29 333.453 1182.62 333.415 1182.96 333.378L1182.51 329.403C1182.17 329.44 1181.84 329.479 1181.5 329.517L1181.95 333.491ZM1198.88 331.729C1199.21 331.698 1199.54 331.668 1199.86 331.637L1199.49 327.654C1199.16 327.685 1198.84 327.716 1198.51 327.747L1198.88 331.729ZM1215.88 330.306C1216.22 330.281 1216.55 330.257 1216.89 330.233L1216.6 326.243C1216.27 326.267 1215.93 326.292 1215.59 326.316L1215.88 330.306ZM1232.72 329.292C1233.04 329.277 1233.37 329.262 1233.69 329.247L1233.51 325.251C1233.18 325.266 1232.86 325.281 1232.53 325.296L1232.72 329.292ZM1249.88 328.738C1250.21 328.733 1250.54 328.727 1250.88 328.723L1250.82 324.723C1250.48 324.728 1250.15 324.733 1249.81 324.739L1249.88 328.738ZM1266.73 328.762C1267.07 328.769 1267.41 328.776 1267.76 328.784L1267.85 324.785C1267.5 324.777 1267.16 324.769 1266.81 324.762L1266.73 328.762ZM1283.69 329.488C1284.01 329.509 1284.33 329.531 1284.65 329.554L1284.93 325.564C1284.6 325.541 1284.28 325.519 1283.95 325.497L1283.69 329.488ZM1300.67 331.121C1300.99 331.163 1301.32 331.206 1301.64 331.249L1302.17 327.283C1301.84 327.24 1301.51 327.196 1301.18 327.154L1300.67 331.121ZM1317.3 333.905C1317.63 333.974 1317.96 334.045 1318.28 334.116L1319.13 330.207C1318.8 330.134 1318.46 330.062 1318.13 329.991L1317.3 333.905ZM1333.47 338.231C1333.8 338.338 1334.12 338.447 1334.44 338.556L1335.73 334.772C1335.4 334.659 1335.07 334.547 1334.74 334.436L1333.47 338.231ZM1348.82 344.706C1349.12 344.865 1349.42 345.025 1349.71 345.186L1351.63 341.677C1351.33 341.508 1351.01 341.34 1350.7 341.174L1348.82 344.706ZM1362.39 354.097C1362.64 354.318 1362.88 354.54 1363.11 354.764L1365.86 351.856C1365.61 351.616 1365.35 351.377 1365.09 351.14L1362.39 354.097ZM1372.47 366.821C1372.62 367.102 1372.77 367.385 1372.92 367.67L1376.47 365.837C1376.31 365.528 1376.15 365.22 1375.99 364.914L1372.47 366.821ZM1377.61 382.168C1377.66 382.488 1377.71 382.811 1377.76 383.135L1381.72 382.569C1381.67 382.221 1381.62 381.875 1381.56 381.531L1377.61 382.168ZM1378.02 398.563C1377.99 398.893 1377.95 399.223 1377.92 399.555L1381.9 399.98C1381.93 399.632 1381.97 399.285 1382 398.939L1378.02 398.563ZM1374.96 414.879C1374.88 415.194 1374.79 415.511 1374.7 415.828L1378.56 416.904C1378.65 416.577 1378.74 416.25 1378.82 415.924L1374.96 414.879ZM1369.55 430.89C1369.43 431.182 1369.31 431.475 1369.19 431.769L1372.9 433.276C1373.02 432.975 1373.14 432.676 1373.26 432.377L1369.55 430.89ZM1362.51 446.455C1362.35 446.773 1362.19 447.092 1362.03 447.412L1365.6 449.217C1365.76 448.892 1365.93 448.568 1366.09 448.245L1362.51 446.455ZM1354.67 460.982C1354.51 461.27 1354.34 461.557 1354.17 461.846L1357.63 463.856C1357.8 463.564 1357.97 463.272 1358.14 462.981L1354.67 460.982ZM1345.58 475.855C1345.42 476.116 1345.25 476.377 1345.08 476.639L1348.44 478.811C1348.61 478.547 1348.78 478.283 1348.95 478.019L1345.58 475.855ZM1336.42 489.52C1336.23 489.795 1336.04 490.07 1335.84 490.346L1339.12 492.639C1339.32 492.361 1339.51 492.083 1339.7 491.806L1336.42 489.52ZM1326.14 503.775C1325.95 504.024 1325.77 504.274 1325.58 504.524L1328.78 506.919C1328.97 506.667 1329.16 506.415 1329.35 506.164L1326.14 503.775ZM1316.19 516.776C1315.99 517.036 1315.78 517.297 1315.58 517.558L1318.72 520.031C1318.93 519.768 1319.14 519.506 1319.34 519.244L1316.19 516.776ZM1305.31 530.331C1305.08 530.602 1304.86 530.874 1304.64 531.145L1307.72 533.688C1307.95 533.415 1308.17 533.142 1308.4 532.869L1305.31 530.331ZM1294.54 543.185C1294.33 543.43 1294.12 543.676 1293.91 543.922L1296.95 546.522C1297.16 546.274 1297.37 546.028 1297.58 545.781L1294.54 543.185ZM1283.48 555.929C1283.26 556.183 1283.03 556.437 1282.81 556.692L1285.81 559.341C1286.03 559.085 1286.26 558.83 1286.48 558.575L1283.48 555.929ZM1271.67 569.112C1271.55 569.244 1271.43 569.375 1271.31 569.507L1274.27 572.2C1274.39 572.068 1274.51 571.935 1274.63 571.803L1271.67 569.112ZM1271.31 569.507C1271.2 569.627 1271.09 569.747 1270.98 569.866L1273.94 572.564C1274.05 572.442 1274.16 572.321 1274.27 572.2L1271.31 569.507ZM1260.15 581.156C1259.92 581.386 1259.69 581.616 1259.46 581.846L1262.27 584.687C1262.51 584.455 1262.74 584.222 1262.98 583.99L1260.15 581.156ZM1248.11 592.671C1247.87 592.893 1247.63 593.114 1247.39 593.335L1250.1 596.282C1250.34 596.059 1250.58 595.836 1250.82 595.613L1248.11 592.671ZM1235.67 603.787C1235.42 604.002 1235.17 604.216 1234.93 604.431L1237.55 607.454C1237.79 607.239 1238.04 607.023 1238.29 606.807L1235.67 603.787ZM1222.95 614.593C1222.7 614.802 1222.45 615.01 1222.2 615.218L1224.75 618.294C1225 618.085 1225.25 617.876 1225.51 617.667L1222.95 614.593ZM1210.02 625.205C1209.77 625.413 1209.51 625.621 1209.25 625.828L1211.77 628.935C1212.03 628.727 1212.29 628.519 1212.54 628.311L1210.02 625.205ZM1197.02 635.714C1196.77 635.917 1196.52 636.12 1196.27 636.322L1198.79 639.433C1199.04 639.231 1199.29 639.028 1199.54 638.826L1197.02 635.714ZM1184 646.328C1183.75 646.537 1183.5 646.745 1183.25 646.953L1185.8 650.031C1186.05 649.825 1186.3 649.618 1186.55 649.41L1184 646.328ZM1171.21 657.252C1170.96 657.472 1170.72 657.692 1170.47 657.911L1173.15 660.886C1173.39 660.671 1173.63 660.454 1173.87 660.237L1171.21 657.252ZM1159.08 669.047C1158.86 669.287 1158.65 669.526 1158.44 669.764L1161.43 672.42C1161.63 672.193 1161.83 671.965 1162.04 671.735L1159.08 669.047ZM1149.78 683.935C1149.69 684.327 1149.62 684.718 1149.57 685.108L1153.53 685.652C1153.57 685.383 1153.62 685.105 1153.68 684.82L1149.78 683.935ZM1159.7 698.456C1160.01 698.582 1160.34 698.705 1160.67 698.826L1162.04 695.064C1161.74 694.956 1161.45 694.846 1161.16 694.735L1159.7 698.456ZM1176.49 702.21C1176.84 702.252 1177.19 702.294 1177.55 702.334L1178 698.36C1177.65 698.32 1177.31 698.28 1176.98 698.239L1176.49 702.21ZM1193.28 703.445C1193.61 703.457 1193.93 703.468 1194.26 703.479L1194.39 699.481C1194.07 699.47 1193.75 699.459 1193.43 699.447L1193.28 703.445ZM1210.08 703.655C1210.41 703.652 1210.75 703.649 1211.08 703.646L1211.05 699.646C1210.71 699.649 1210.38 699.652 1210.05 699.655L1210.08 703.655ZM1226.87 703.283C1227.21 703.271 1227.54 703.259 1227.88 703.247L1227.74 699.249C1227.4 699.261 1227.06 699.273 1226.73 699.285L1226.87 703.283ZM1243.59 702.533C1243.92 702.515 1244.26 702.497 1244.59 702.478L1244.37 698.484C1244.04 698.503 1243.71 698.521 1243.38 698.538L1243.59 702.533ZM1260.29 701.514C1260.61 701.492 1260.94 701.47 1261.27 701.448L1261 697.457C1260.67 697.479 1260.34 697.502 1260.02 697.524L1260.29 701.514ZM1277.06 700.288C1277.37 700.263 1277.69 700.238 1278.01 700.213L1277.7 696.225C1277.38 696.25 1277.06 696.275 1276.74 696.3L1277.06 700.288ZM1293.95 698.891C1294.12 698.876 1294.29 698.861 1294.46 698.846L1294.12 694.861C1293.95 694.876 1293.77 694.891 1293.6 694.906L1293.95 698.891ZM1294.46 698.846C1294.64 698.831 1294.81 698.816 1294.98 698.801L1294.63 694.816C1294.46 694.831 1294.29 694.846 1294.12 694.861L1294.46 698.846ZM1311.28 697.235C1311.61 697.2 1311.94 697.165 1312.28 697.13L1311.86 693.152C1311.53 693.187 1311.19 693.222 1310.86 693.257L1311.28 697.235ZM1328.3 695.292C1328.64 695.25 1328.98 695.207 1329.32 695.165L1328.83 691.196C1328.49 691.238 1328.15 691.28 1327.81 691.322L1328.3 695.292ZM1345.39 693.006C1345.72 692.959 1346.04 692.911 1346.37 692.863L1345.8 688.905C1345.47 688.953 1345.14 689 1344.82 689.047L1345.39 693.006ZM1362.45 690.364C1362.79 690.308 1363.12 690.253 1363.46 690.197L1362.8 686.252C1362.47 686.307 1362.13 686.362 1361.8 686.418L1362.45 690.364ZM1379.31 687.378C1379.65 687.314 1379.98 687.25 1380.32 687.185L1379.57 683.256C1379.24 683.32 1378.9 683.384 1378.56 683.447L1379.31 687.378ZM1396.25 683.97C1396.58 683.9 1396.9 683.83 1397.23 683.761L1396.39 679.85C1396.06 679.92 1395.74 679.989 1395.41 680.058L1396.25 683.97ZM1413.09 680.148C1413.42 680.069 1413.75 679.99 1414.08 679.91L1413.14 676.023C1412.81 676.102 1412.49 676.18 1412.16 676.259L1413.09 680.148ZM1429.75 675.909C1430.08 675.82 1430.41 675.731 1430.74 675.641L1429.69 671.781C1429.36 671.869 1429.04 671.958 1428.71 672.046L1429.75 675.909ZM1446.24 671.219C1446.57 671.122 1446.89 671.024 1447.22 670.926L1446.06 667.097C1445.74 667.194 1445.42 667.291 1445.09 667.388L1446.24 671.219ZM1462.76 665.992C1463.07 665.886 1463.39 665.781 1463.7 665.675L1462.43 661.883C1462.12 661.988 1461.81 662.093 1461.49 662.197L1462.76 665.992ZM1479.05 660.262C1479.37 660.145 1479.68 660.028 1480 659.911L1478.6 656.162C1478.29 656.278 1477.98 656.394 1477.66 656.51L1479.05 660.262ZM1495.12 653.998C1495.43 653.869 1495.75 653.741 1496.06 653.612L1494.54 649.914C1494.23 650.042 1493.91 650.17 1493.6 650.297L1495.12 653.998ZM1510.95 647.17C1511.26 647.03 1511.57 646.889 1511.88 646.748L1510.22 643.109C1509.91 643.248 1509.61 643.388 1509.3 643.527L1510.95 647.17ZM1526.51 639.749C1526.82 639.596 1527.12 639.443 1527.43 639.289L1525.63 635.717C1525.33 635.869 1525.02 636.021 1524.72 636.173L1526.51 639.749ZM1541.78 631.708C1542.08 631.542 1542.38 631.376 1542.67 631.21L1540.73 627.715C1540.43 627.88 1540.14 628.044 1539.84 628.208L1541.78 631.708ZM1556.7 623.025C1556.99 622.847 1557.28 622.668 1557.57 622.49L1555.48 619.083C1555.19 619.259 1554.9 619.436 1554.61 619.612L1556.7 623.025ZM1571.23 613.687C1571.52 613.496 1571.8 613.306 1572.08 613.115L1569.83 609.806C1569.55 609.995 1569.27 610.183 1569 610.372L1571.23 613.687ZM1585.32 603.69C1585.59 603.488 1585.86 603.285 1586.13 603.083L1583.73 599.883C1583.46 600.083 1583.2 600.283 1582.93 600.484L1585.32 603.69ZM1598.9 593.043C1599.16 592.829 1599.42 592.615 1599.68 592.402L1597.13 589.322C1596.87 589.533 1596.62 589.744 1596.36 589.955L1598.9 593.043ZM1611.93 581.768C1612.18 581.541 1612.42 581.314 1612.67 581.086L1609.97 578.135C1609.73 578.36 1609.48 578.585 1609.23 578.809L1611.93 581.768ZM1624.45 569.799C1624.69 569.557 1624.93 569.315 1625.17 569.073L1622.33 566.259C1622.09 566.498 1621.85 566.737 1621.61 566.977L1624.45 569.799ZM1636.34 557.266C1636.56 557.017 1636.79 556.769 1637.01 556.52L1634.03 553.846C1633.81 554.092 1633.59 554.338 1633.37 554.584L1636.34 557.266ZM1647.61 544.199C1647.83 543.934 1648.05 543.67 1648.26 543.405L1645.17 540.869C1644.95 541.131 1644.74 541.393 1644.52 541.655L1647.61 544.199ZM1658.3 530.661C1658.5 530.396 1658.7 530.132 1658.9 529.868L1655.71 527.458C1655.51 527.72 1655.31 527.982 1655.11 528.245L1658.3 530.661ZM1668.5 516.723C1668.69 516.45 1668.89 516.177 1669.08 515.905L1665.81 513.596C1665.62 513.866 1665.43 514.137 1665.24 514.409L1668.5 516.723ZM1678.33 502.598C1678.52 502.323 1678.71 502.05 1678.9 501.778L1675.6 499.508C1675.41 499.78 1675.23 500.054 1675.04 500.329L1678.33 502.598ZM1688.13 488.622C1688.34 488.346 1688.54 488.071 1688.74 487.799L1685.52 485.428C1685.31 485.704 1685.11 485.983 1684.9 486.264L1688.13 488.622ZM1698.86 475.609C1698.97 475.5 1699.08 475.391 1699.19 475.284L1696.39 472.423C1696.27 472.539 1696.16 472.656 1696.04 472.773L1698.86 475.609Z" fill="white"/>
<path opacity="0.6" d="M1365.91 305.01C1365.91 305.01 1359.76 313.315 1351.45 307.165C1351.45 307.165 1359.75 313.322 1353.6 321.631C1353.6 321.631 1359.76 313.327 1368.07 319.477C1368.07 319.477 1359.76 313.32 1365.91 305.01Z" stroke="white" stroke-width="2.8563" stroke-miterlimit="10" stroke-linecap="round" stroke-linejoin="round"/>
<path opacity="0.6" d="M94.0413 399.395C95.6172 400.173 97.2071 400.477 98.6671 400.516L97.5018 405.23C97.4722 405.215 97.4426 405.2 97.413 405.186C95.8371 404.408 94.2472 404.104 92.7872 404.065C92.8021 404.035 92.8169 404.006 92.8315 403.976C93.6097 402.4 93.9136 400.81 93.9525 399.35C93.9821 399.365 94.0117 399.38 94.0413 399.395Z" stroke="white" stroke-width="4" stroke-miterlimit="10" stroke-linecap="round" stroke-linejoin="round"/>
<path opacity="0.6" d="M116.798 67.8568L116.731 70.6481L116.697 72.0781L118.039 72.5726L120.783 73.5836L118.003 74.4492L116.633 74.8759L116.598 76.3109L116.532 79.0903L115.072 76.8749L114.244 75.6184L112.807 76.0658L110.196 76.8788L111.942 74.4934L112.763 73.3721L111.999 72.2117L110.373 69.7445L112.929 70.6879L114.345 71.2102L115.236 69.9923L116.798 67.8568Z" stroke="white" stroke-width="4" stroke-miterlimit="10"/>
</svg>
