<svg width="111" height="123" viewBox="0 0 111 123" fill="none" xmlns="http://www.w3.org/2000/svg">
<path d="M41.0407 23.6379C41.0407 23.6379 49.1372 28.3124 53.8117 20.2159C53.8117 20.2159 49.1372 28.3124 57.2337 32.9869C57.2337 32.9869 49.1372 28.3124 44.4627 36.4089C44.4627 36.4089 49.1372 28.3124 41.0407 23.6379Z" fill="white"/>
<path d="M93.246 30.294C93.246 30.294 97.2943 32.6313 99.6316 28.583C99.6316 28.583 97.2943 32.6313 101.343 34.9685C101.343 34.9685 97.2943 32.6313 94.957 36.6795C94.9659 36.6847 97.3032 32.6364 93.246 30.294Z" fill="white"/>
<path d="M40.1369 84.1476C37.4136 82.0781 34.978 79.654 32.9175 76.9492L46.2645 53.8315C48.6172 49.7566 51.359 45.9301 54.4645 42.3965" stroke="white" stroke-width="3.022" stroke-miterlimit="10"/>
<path d="M77.7736 55.8422C76.2572 60.2933 74.3232 64.5862 71.9655 68.67L58.6185 91.7877C55.2407 91.3645 51.9197 90.4533 48.7748 89.1347" stroke="white" stroke-width="3.022" stroke-miterlimit="10"/>
<path d="M61.2219 35.6327C65.2557 32.0905 69.7022 28.9404 74.5256 26.2447L81.6256 22.271L81.7343 30.4066C81.8081 35.835 81.3279 41.1567 80.3157 46.3133" stroke="white" stroke-width="3.022" stroke-miterlimit="10"/>
<path d="M81.0978 51.4995C81.0978 51.4995 65.998 49.3393 56.5774 37.3427" stroke="white" stroke-width="3.156" stroke-miterlimit="10"/>
<path d="M58.7979 66.9329C62.4578 67.4147 65.8153 64.8384 66.2971 61.1785C66.7789 57.5187 64.2025 54.1612 60.5427 53.6794C56.8828 53.1976 53.5254 55.7739 53.0436 59.4338C52.5618 63.0936 55.1381 66.4511 58.7979 66.9329Z" stroke="white" stroke-width="3.379" stroke-miterlimit="10"/>
<path d="M34.6233 41.334L21.9836 63.2266" stroke="white" stroke-width="3.379" stroke-miterlimit="10"/>
<path d="M21.2517 52.0088L13.4608 65.5029" stroke="white" stroke-width="3.379" stroke-miterlimit="10"/>
<path d="M83.0421 69.6793L90.628 56.5403" stroke="white" stroke-width="3.379" stroke-miterlimit="10"/>
<path d="M93.1235 64.7045L99.3562 53.9091" stroke="white" stroke-width="3.379" stroke-miterlimit="10"/>
<path d="M52.0974 73.416L39.6269 95.0156" stroke="white" stroke-width="3.379" stroke-miterlimit="10"/>
<path d="M39.1357 65.9326L24.265 71.7408L11.7945 93.3404L26.6652 87.5322L39.1357 65.9326Z" stroke="white" stroke-width="3.022" stroke-miterlimit="10"/>
<path d="M65.0499 80.8941L67.4552 96.6767L54.9847 118.276L52.5793 102.494L65.0499 80.8941Z" stroke="white" stroke-width="3.022" stroke-miterlimit="10"/>
</svg>
