<svg width="100" height="102" viewBox="0 0 100 102" fill="none" xmlns="http://www.w3.org/2000/svg">
<path d="M69.3191 86.4665C63.5277 89.5623 56.9241 91.3162 49.8967 91.3162C27.1196 91.3162 8.66246 72.859 8.66246 50.0819C8.66246 27.3047 27.1196 8.84761 49.8967 8.84761C72.6739 8.84761 91.131 27.3047 91.131 50.0819C91.131 57.2034 89.33 63.8894 86.1518 69.7397" stroke="white" stroke-width="3.243" stroke-miterlimit="10"/>
<path d="M67.0825 11.5787C80.7017 2.67969 91.7666 -0.828104 96.0277 3.43305C103.196 10.6017 88.3529 37.0514 62.8802 62.5241C37.3957 87.9969 10.946 102.84 3.77735 95.6716C-0.424948 91.4693 2.9416 80.6399 11.5816 67.2561" stroke="white" stroke-width="3.243" stroke-miterlimit="10"/>
<path d="M68.801 82.7233C68.801 75.1309 74.9573 68.9746 82.5497 68.9746C90.1421 68.9746 96.2984 75.1309 96.2984 82.7233C96.2984 90.3157 90.1421 96.472 82.5497 96.472C74.9573 96.472 68.801 90.3157 68.801 82.7233Z" stroke="white" stroke-width="3.243" stroke-miterlimit="10"/>
<path d="M1.79978 8.84761C1.79978 8.84761 8.67413 8.84761 8.67413 1.97327C8.67413 1.97327 8.67413 8.84761 15.5485 8.84761C15.5485 8.84761 8.67413 8.84761 8.67413 15.722C8.67413 15.722 8.67413 8.84761 1.79978 8.84761Z" fill="white"/>
<path d="M80.8313 12.2849C80.8313 12.2849 87.7056 12.2849 87.7056 5.41052C87.7056 5.41052 87.7056 12.2849 94.58 12.2849C94.58 12.2849 87.7056 12.2849 87.7056 19.1592C87.6939 19.1592 87.6939 12.2849 80.8313 12.2849Z" fill="white"/>
<path d="M39.5968 91.3162C39.5968 91.3162 49.9083 91.3162 49.9083 81.0047C49.9083 81.0047 49.9083 91.3162 60.2198 91.3162C60.2198 91.3162 49.9083 91.3162 49.9083 101.628C49.8965 101.628 49.8965 91.3162 39.5968 91.3162Z" fill="white"/>
</svg>
