<svg width="98" height="98" viewBox="0 0 98 98" fill="none" xmlns="http://www.w3.org/2000/svg">
<g clip-path="url(#clip0_1081_2753)">
<path d="M72.786 51.1854L92.0816 42.7166L72.786 51.1854ZM64.8939 40.55L72.3328 32.0837L64.8939 40.55ZM27.7748 38.0475L15.4595 19.5783L27.7748 38.0475ZM40.1222 33.3033L38.2597 21.0967L40.1222 33.3033ZM53.3058 34.1987L59.6531 12.5066L53.3058 34.1987ZM56.1714 60.2388C55.1189 63.7231 52.9477 66.1425 51.3199 65.6469C49.6922 65.1513 49.2241 61.9356 50.2766 58.4513C51.329 54.967 53.5071 52.5494 55.1349 53.045C56.7646 53.5337 57.2308 56.7563 56.1714 60.2388ZM42.8888 56.2192C41.8364 59.7035 39.6652 62.1229 38.0356 61.6342C36.4078 61.1386 35.9397 57.9229 36.9922 54.4386C38.0428 50.9612 40.2227 48.5367 41.8505 49.0323C43.4751 49.5122 43.9413 52.7348 42.8888 56.2192ZM61.1667 68.6271C58.4167 77.7258 48.8075 82.8694 39.7019 80.1175C30.6051 77.3606 25.4596 67.7583 28.2115 58.6527L61.1667 68.6271ZM67.1447 70.4369C63.3905 82.8397 50.293 89.8566 37.8902 86.1024C25.4875 82.3483 18.4705 69.2508 22.2247 56.848C25.9789 44.4452 39.0763 37.4283 51.4791 41.1824C63.8888 44.9385 70.8989 58.0341 67.1447 70.4369Z" stroke="white" stroke-width="3.521" stroke-miterlimit="10"/>
</g>
<defs>
<clipPath id="clip0_1081_2753">
<rect width="80" height="80" fill="white" transform="translate(20.7056) rotate(15)"/>
</clipPath>
</defs>
</svg>
