<svg width="26" height="27" viewBox="0 0 26 27" fill="none" xmlns="http://www.w3.org/2000/svg">
<path d="M14.9603 1.28195C15.5489 0.512424 16.7783 0.94574 16.7543 1.91425L16.5665 9.49254C16.5557 9.92555 16.825 10.3162 17.2335 10.4603L24.3852 12.9834C25.2986 13.3057 25.2663 14.6083 24.338 14.8849L17.07 17.05C16.6549 17.1737 16.3666 17.5506 16.3558 17.9836L16.168 25.5619C16.144 26.5304 14.8946 26.9023 14.3449 26.1045L10.0428 19.8615C9.79703 19.5049 9.34955 19.347 8.93436 19.4705L1.66458 21.6323C0.73602 21.9084 -0.00338553 20.835 0.585577 20.0658L5.19479 14.0464C5.45823 13.7024 5.47012 13.2278 5.22425 12.871L0.922024 6.62786C0.372323 5.83017 1.16457 4.7951 2.07814 5.1174L9.22729 7.63957C9.63597 7.78375 10.091 7.64828 10.3543 7.30406L14.9603 1.28195Z" fill="#2576B9"/>
</svg>
