<svg width="450" height="130" viewBox="0 0 450 130" fill="none" xmlns="http://www.w3.org/2000/svg">
<path d="M-9.00098 -15C-5.30592 -7.57797 2.62924 -1.00306 8.40188 4.8098C14.8505 11.3032 21.6 17.4953 28.615 23.372C42.6484 35.1146 57.7577 45.5707 73.7059 54.5346C101.897 70.3852 131.956 77.8037 161.722 61.2583C176.987 52.773 182.816 48.144 196.259 39.7259C208.483 32.07 224.538 32.9313 237.881 38.4039C251.224 43.8729 262.454 53.3755 273.441 62.7257C294.245 80.4337 305.195 89.5925 330.668 105.131C345.215 114.006 359.835 124.689 376.637 127.514C393.438 130.339 412 123 424 100.5C436 78 448.5 21 473.5 12" stroke="#BCDAF2" stroke-width="4" stroke-miterlimit="10" stroke-linecap="round" stroke-linejoin="round" stroke-dasharray="1 10"/>
</svg>
