<svg width="150" height="158" viewBox="0 0 150 158" fill="none" xmlns="http://www.w3.org/2000/svg">
<path d="M126.379 72.8279L125.773 79.2831L131.721 81.8525L125.396 83.263L124.789 89.7182L121.49 84.1352L115.17 85.5623L119.448 80.6936L116.153 75.1272L122.101 77.6965L126.379 72.8279Z" fill="#2276BB"/>
<g style="mix-blend-mode:multiply" opacity="0.75">
<g style="mix-blend-mode:multiply" opacity="0.75">
<g style="mix-blend-mode:multiply" opacity="0.75">
<path d="M90.3252 24.3061C99.1336 28.8817 105.767 36.7651 108.769 46.2261C111.771 55.6871 110.897 65.9528 106.339 74.7701C105.454 76.4035 104.061 79.1796 85.1613 96.7412L85.0973 96.8594C84.2143 98.5698 82.7455 99.9055 80.9591 100.622C79.1825 102.259 77.4175 103.875 75.6982 105.431C72.7988 108.082 68.9834 109.504 65.0564 109.396C64.5987 110.087 64.0834 110.737 63.5158 111.341L63.6505 111.734C64.1521 113.306 64.3384 114.962 64.1989 116.606C64.0593 118.25 63.5966 119.851 62.8372 121.316L60.5833 125.655C59.0513 128.613 56.4076 130.841 53.2332 131.851C50.0588 132.86 46.6135 132.567 43.6548 131.037L30.0884 124.006C28.2332 123.045 26.6448 121.64 25.4651 119.916C24.7861 118.908 24.2534 117.81 23.8826 116.653C23.3828 115.081 23.1983 113.426 23.3397 111.783C23.4811 110.14 23.9456 108.54 24.7066 107.077L26.9498 102.732C27.742 101.208 28.8384 99.8632 30.1713 98.7801C31.5042 97.6971 33.0451 96.899 34.6988 96.4354C34.8573 95.6153 35.0925 94.812 35.4013 94.0359L34.9989 93.4703C32.9308 90.4228 32.0381 86.7287 32.4865 83.0731C32.7698 80.7801 33.0724 78.4001 33.3809 76.0094C32.9349 74.1371 33.1784 72.1667 34.0668 70.4593L34.1309 70.341C37.5706 44.7778 38.9958 42.0192 39.8545 40.3576C44.433 31.5505 52.3168 24.9181 61.7775 21.9143C71.2382 18.9105 81.504 19.7805 90.3243 24.3334" fill="#C1C3C5"/>
</g>
</g>
</g>
<path d="M90.8576 18.1876C99.6723 22.7555 106.312 30.6367 109.318 40.0987C112.324 49.5607 111.45 59.8292 106.888 68.6467C105.997 70.2909 104.593 73.0611 85.6995 90.6121L85.6354 90.7302C84.7493 92.4455 83.2741 93.7834 81.4807 94.4982L76.2306 99.3129C73.3195 101.951 69.5054 103.368 65.578 103.272C65.1293 103.969 64.6133 104.62 64.0374 105.217L64.1779 105.599C64.6835 107.17 64.872 108.827 64.7324 110.472C64.5927 112.116 64.1279 113.717 63.3647 115.181L61.1107 119.52C60.3531 120.986 59.314 122.289 58.0529 123.354C56.7918 124.418 55.3333 125.224 53.7607 125.725C52.1881 126.225 50.5323 126.411 48.8878 126.272C47.2433 126.133 45.6423 125.671 44.1764 124.913L30.6099 117.881C28.7585 116.92 27.1754 115.512 26.0032 113.786C25.3139 112.785 24.7804 111.685 24.4208 110.524C23.9138 108.953 23.7246 107.296 23.8643 105.651C24.0039 104.006 24.4695 102.405 25.234 100.942L27.4879 96.6028C28.2811 95.0668 29.3842 93.7119 30.7276 92.6237C32.0709 91.5356 33.6252 90.7378 35.2925 90.2808C35.451 89.4607 35.6862 88.6573 35.995 87.8812L35.4989 87.3344C33.4282 84.2944 32.5368 80.6039 32.9915 76.9539C33.27 74.6442 33.5668 72.275 33.8752 69.8843C33.4349 68.0075 33.6802 66.0351 34.5669 64.3233L34.631 64.2051C38.0648 38.6526 39.4901 35.894 40.3487 34.2324C44.9164 25.4315 52.786 18.7996 62.2338 15.7896C71.6815 12.7795 81.9371 13.6367 90.7541 18.1733" fill="white"/>
<path d="M49.6729 39.5208C53.0357 33.0256 58.841 28.1322 65.8118 25.9172C72.7825 23.7022 80.3477 24.3471 86.843 27.7099C93.3383 31.0728 98.2317 36.8781 100.447 43.8489C102.662 50.8196 102.017 58.3848 98.6539 64.8801C96.8909 68.262 77.4073 86.1325 70.1226 92.778C69.3256 93.5086 68.3234 93.9769 67.2517 94.1196C66.1799 94.2623 65.0902 94.0725 64.1298 93.5759L46.1968 84.2897C45.2326 83.7933 44.4447 83.0121 43.9402 82.0522C43.4356 81.0923 43.2388 80.0004 43.3765 78.9248C44.5256 69.1077 47.948 42.9095 49.6944 39.5325" fill="#FFD95C"/>
<path d="M49.6729 39.5208C53.0357 33.0256 58.841 28.1322 65.8118 25.9172C72.7825 23.7022 80.3477 24.3471 86.843 27.7099C93.3383 31.0728 98.2317 36.8781 100.447 43.8489C102.662 50.8196 102.017 58.3848 98.6539 64.8801C96.8909 68.262 77.4073 86.1325 70.1226 92.778C69.3256 93.5086 68.3234 93.9769 67.2517 94.1196C66.1799 94.2623 65.0902 94.0725 64.1298 93.5759L46.1968 84.2897C45.2326 83.7933 44.4447 83.0121 43.9402 82.0522C43.4356 81.0923 43.2388 80.0004 43.3765 78.9248C44.5579 69.1251 47.9265 42.8978 49.6729 39.5208Z" stroke="#2276BB" stroke-width="2.96" stroke-miterlimit="10"/>
<path d="M78.0302 85.2463L45.0197 68.1516" stroke="#2276BB" stroke-width="2.96" stroke-miterlimit="10"/>
<path d="M67.6061 79.8493C67.6061 79.8493 81.6559 67.7227 97.5009 37.121" stroke="#2276BB" stroke-width="2.96" stroke-miterlimit="10"/>
<path d="M55.3588 73.5172C55.3588 73.5172 57.1706 55.0372 73.0156 24.4355" stroke="#2276BB" stroke-width="2.96" stroke-miterlimit="10"/>
<path d="M58.0206 98.3581L61.2622 92.0936L49.0184 85.751L45.7768 92.0155C45.576 92.4026 45.4542 92.8258 45.4185 93.2604C45.3828 93.6951 45.4339 94.1324 45.5689 94.5471C45.7038 94.9617 45.9199 95.3454 46.2046 95.6758C46.4893 96.0061 46.8368 96.2765 47.227 96.4713L53.6312 99.7886C54.0143 99.9889 54.4332 100.111 54.8639 100.149C55.2945 100.187 55.7284 100.139 56.1404 100.008C56.5524 99.8772 56.9346 99.6661 57.2646 99.387C57.5947 99.1078 57.8662 98.766 58.0636 98.3813" fill="#FFD95C"/>
<path d="M58.0206 98.3581L61.2622 92.0936L49.0184 85.751L45.7768 92.0155C45.576 92.4026 45.4542 92.8258 45.4185 93.2604C45.3828 93.6951 45.4339 94.1324 45.5689 94.5471C45.7038 94.9617 45.9199 95.3454 46.2046 95.6758C46.4893 96.0061 46.8368 96.2765 47.227 96.4713L53.6312 99.7886C54.4035 100.178 55.2984 100.246 56.1207 99.978C56.9431 99.7101 57.626 99.1277 58.0206 98.3581V98.3581Z" stroke="#2276BB" stroke-width="2.96" stroke-miterlimit="10"/>
<path d="M35.6863 109.901L49.2528 116.932C49.5672 117.095 49.9108 117.195 50.2638 117.225C50.6168 117.255 50.9721 117.214 51.3095 117.107C51.647 116.999 51.9598 116.825 52.23 116.596C52.5002 116.367 52.7225 116.087 52.8841 115.772L55.138 111.433C55.4647 110.796 55.5267 110.056 55.3105 109.374C55.0943 108.692 54.6175 108.123 53.9837 107.791L40.4173 100.759C40.1014 100.595 39.7563 100.496 39.4018 100.465C39.0472 100.435 38.6901 100.475 38.3511 100.584C38.0122 100.692 37.6979 100.866 37.4265 101.096C37.155 101.326 36.9317 101.608 36.7694 101.924L34.5262 106.269C34.3628 106.584 34.2631 106.928 34.2327 107.282C34.2022 107.635 34.2417 107.991 34.3489 108.329C34.4561 108.668 34.6289 108.981 34.8574 109.253C35.0858 109.524 35.3655 109.748 35.6805 109.911" fill="#FFD95C"/>
<path d="M35.6863 109.901L49.2528 116.932C49.5672 117.095 49.9108 117.195 50.2638 117.225C50.6168 117.255 50.9721 117.214 51.3095 117.107C51.647 116.999 51.9598 116.825 52.23 116.596C52.5002 116.367 52.7225 116.087 52.8841 115.772L55.138 111.433C55.4647 110.796 55.5267 110.056 55.3105 109.374C55.0944 108.692 54.6175 108.123 53.9837 107.791L40.4173 100.759C40.1014 100.595 39.7563 100.496 39.4018 100.465C39.0472 100.435 38.6901 100.475 38.3511 100.584C38.0122 100.692 37.6979 100.866 37.4265 101.096C37.155 101.326 36.9317 101.608 36.7694 101.924L34.5262 106.269C34.2 106.905 34.139 107.644 34.3564 108.325C34.5738 109.005 35.052 109.572 35.6863 109.901Z" stroke="#2276BB" stroke-width="2.96" stroke-miterlimit="10"/>
</svg>
