<svg width="91" height="106" viewBox="0 0 91 106" fill="none" xmlns="http://www.w3.org/2000/svg">
<path opacity="0.75" d="M86.2254 68.0699L62.6244 45.1679C65.4238 44.0322 67.6731 41.9242 68.9757 39.1544C70.3511 36.2376 70.513 32.9612 69.445 29.9217C67.8025 25.2482 63.5305 22.1107 58.6679 21.9065C59.2586 20.975 59.655 19.9292 59.7926 18.818C61.6454 16.8652 62.3655 13.9484 61.4026 11.2194C60.4398 8.49863 58.0611 6.69294 55.4073 6.35795C54.0238 5.01798 52.1467 4.2663 50.2049 4.29898C49.4362 4.31532 48.6514 4.45422 47.8828 4.72385C46.9928 5.0425 46.208 5.53273 45.5364 6.121C43.4409 4.08654 40.5929 2.90182 37.5427 2.95901C36.329 2.98352 35.1316 3.20413 33.9827 3.61265L19.7589 8.74374C13.9173 10.8436 10.859 17.3473 12.9302 23.2383C13.0759 23.6549 13.2539 24.0471 13.44 24.4393C12.9302 24.5047 12.4124 24.6191 11.9027 24.807C8.33463 26.0898 6.36046 29.8809 7.23427 33.5168C3.88465 35.1264 2.21794 39.0646 3.4882 42.6678C4.57238 45.7399 7.46082 47.6436 10.5192 47.5864C11.0451 47.5782 11.5791 47.5047 12.1131 47.374C13.3672 50.0294 16.0371 51.639 18.8528 51.5818C19.6214 51.5655 20.4062 51.4266 21.1748 51.1569C22.7364 50.5932 23.9905 49.5555 24.8319 48.2646L19.5162 92.0177C18.9903 96.3399 20.6894 100.54 24.0471 103.26C26.2964 105.082 29.112 106.055 31.9761 105.997C33.3111 105.973 34.63 105.728 35.8921 105.278L81.7835 88.7985C85.8452 87.3442 88.8064 83.9289 89.7126 79.6802C90.643 75.4234 89.3323 71.0848 86.2254 68.0699Z" fill="#CFD8DC"/>
<path d="M83.1629 65.0966L59.57 42.1946C62.3694 41.0589 64.6187 38.9509 65.9213 36.1811C67.2967 33.2642 67.4585 29.9878 66.3906 26.9484C64.7481 22.2748 60.4761 19.1374 55.6135 18.9331C56.2042 18.0016 56.6006 16.9558 56.7381 15.8446C58.591 13.8919 59.311 10.975 58.3482 8.24604C57.3854 5.52526 55.0067 3.71957 52.3529 3.38458C50.9694 2.04461 49.0923 1.29292 47.1505 1.32561C46.3818 1.34195 45.597 1.48085 44.8284 1.75047C43.9384 2.06912 43.1536 2.55935 42.482 3.14763C40.3865 1.12951 37.5385 -0.0552132 34.4883 0.00198046C33.2746 0.026492 32.0772 0.247096 30.9283 0.655622L16.6964 5.77037C10.8548 7.8702 7.79648 14.3739 9.86775 20.2649C10.0134 20.6816 10.1914 21.0738 10.3775 21.466C9.86775 21.5313 9.34993 21.6457 8.8402 21.8336C5.27213 23.1164 3.29796 26.9075 4.17177 30.5434C0.822154 32.153 -0.844565 36.0912 0.425701 39.6944C1.50988 42.7665 4.39832 44.6702 7.45667 44.613C7.98257 44.6049 8.51657 44.5313 9.05057 44.4006C10.3047 47.056 12.9746 48.6656 15.7903 48.6084C16.5589 48.5921 17.3437 48.4532 18.1123 48.1836C19.6739 47.6198 20.928 46.5821 21.7694 45.2912L16.4537 89.0444C15.9278 93.3666 17.6269 97.5662 20.9846 100.287C23.2339 102.109 26.0495 103.081 28.9137 103.024C30.2486 103 31.5675 102.755 32.8296 102.305L78.721 85.8252C82.7827 84.3708 85.7439 80.9555 86.6501 76.7069C87.5805 72.45 86.2698 68.1115 83.1629 65.0966Z" fill="white"/>
<path d="M56.6602 35.4102C59.0712 34.5441 60.3334 31.8641 59.4758 29.4293C58.6181 26.9945 55.9643 25.7199 53.5533 26.586C51.1422 27.4521 49.88 30.132 50.7376 32.5668C51.5953 34.9935 54.2491 36.2681 56.6602 35.4102ZM54.4918 29.2496C55.4465 28.9064 56.4983 29.413 56.8382 30.3771C57.178 31.3412 56.6763 32.4034 55.7216 32.7466C54.7669 33.0897 53.7151 32.5832 53.3753 31.619C53.0354 30.6549 53.5371 29.5927 54.4918 29.2496Z" fill="#2576B9"/>
<path d="M21.764 20.1874L35.9958 15.0808C38.0266 14.3536 39.0946 12.0822 38.3745 10.0314C37.6544 7.98064 35.4052 6.90213 33.3744 7.62931L19.1425 12.7359C17.1117 13.4631 16.0437 15.7345 16.7638 17.7853C17.4839 19.8361 19.7332 20.9146 21.764 20.1874ZM20.0811 15.3913L34.3129 10.2847C34.8955 10.0723 35.5346 10.3828 35.745 10.971C35.9554 11.5593 35.6479 12.2048 35.0654 12.4172L20.8335 17.5238C20.251 17.7362 19.6118 17.4258 19.4014 16.8375C19.1911 16.2492 19.4985 15.6037 20.0811 15.3913Z" fill="#2576B9"/>
<path d="M78.0793 70.4286L41.0878 34.5273L29.971 38.5146L23.7248 89.9317C23.5145 91.6883 24.2022 93.396 25.5695 94.499C26.9369 95.602 28.7331 95.9125 30.3836 95.3161L76.2831 78.8361C77.9336 78.2478 79.1392 76.8588 79.5033 75.1267C79.8754 73.4109 79.3414 71.6542 78.0793 70.4286ZM32.5439 40.598L40.4001 37.7792L52.3503 49.3732L30.5211 57.2087L32.5439 40.598ZM76.7685 74.5466C76.6067 75.3228 76.0808 75.9192 75.3446 76.1889L29.4532 92.6688C28.7088 92.9384 27.9402 92.7995 27.3253 92.3093C26.7103 91.8109 26.4191 91.0755 26.5081 90.2912L30.149 60.3544L54.6077 51.5711L76.1375 72.4631C76.7038 73.0105 76.9385 73.7704 76.7685 74.5466Z" fill="#2576B9"/>
<path d="M40.8443 32.2233L35.6904 17.5898L23.5703 21.9447L28.7242 36.5781L40.8443 32.2233ZM27.1384 23.6524L33.9914 21.193L37.2682 30.5074L30.4152 32.9668L27.1384 23.6524Z" fill="#2576B9"/>
<path d="M49.4559 14.9401C48.849 13.2243 49.739 11.345 51.4381 10.7322C49.739 11.345 47.8781 10.4463 47.2713 8.73047C47.8781 10.4463 46.9881 12.3255 45.2891 12.9383C46.9881 12.3255 48.8571 13.2243 49.4559 14.9401Z" fill="#2576B9"/>
<path d="M13.4744 41.5869C17.0759 41.5869 19.9956 38.6385 19.9956 35.0015C19.9956 31.3644 17.0759 28.416 13.4744 28.416C9.87278 28.416 6.95312 31.3644 6.95312 35.0015C6.95312 38.6385 9.87278 41.5869 13.4744 41.5869Z" fill="#2576B9"/>
<path d="M32.554 40.6004L40.4102 37.7734L52.3604 49.3756L30.5312 57.2111L32.554 40.6004Z" fill="#D22329"/>
<path d="M76.7762 74.5478C76.6144 75.324 76.0885 75.9204 75.3522 76.1901L29.4608 92.67C28.7164 92.9396 27.9478 92.8007 27.3329 92.3105C26.718 91.8121 26.4267 91.0768 26.5157 90.2924L30.1566 60.3556L54.6153 51.5723L76.1451 72.4643C76.7115 73.0117 76.9461 73.7716 76.7762 74.5478Z" fill="#D22329"/>
<path d="M34.0017 21.1878L27.1484 23.6484L30.4281 32.9633L37.2813 30.5027L34.0017 21.1878Z" fill="#D22329"/>
</svg>
