<svg width="126" height="126" viewBox="0 0 126 126" fill="none" xmlns="http://www.w3.org/2000/svg">
<g style="mix-blend-mode:multiply" opacity="0.75">
<path d="M101.929 15.4297H67.6657C63.3389 15.4502 59.1969 17.1868 56.1488 20.2577C53.1007 23.3286 51.3954 27.4832 51.4071 31.81V32.2412H33.8998C30.11 32.2411 26.4737 33.7381 23.7826 36.4065C21.0915 39.0748 19.5635 42.6981 19.5314 46.4877V84.752C17.4296 85.6922 15.6445 87.2204 14.3914 89.152C13.1382 91.0837 12.4706 93.3365 12.4688 95.639V103.608C12.4717 106.77 13.729 109.801 15.9649 112.037C18.2008 114.273 21.2326 115.531 24.3946 115.534H101.243C104.404 115.528 107.432 114.269 109.666 112.033C111.899 109.798 113.155 106.768 113.158 103.608V95.639C113.159 93.3374 112.493 91.0849 111.242 89.1531C109.991 87.2213 108.207 85.6927 106.107 84.752V68.328C109.58 67.3837 112.647 65.3217 114.832 62.4611C117.018 59.6005 118.201 56.1001 118.198 52.5003V31.81C118.21 27.4832 116.505 23.3286 113.457 20.2577C110.409 17.1868 106.267 15.4502 101.94 15.4297" fill="#C1C3C5"/>
</g>
<path d="M98.2928 11.0527H64.0296C59.7018 11.0761 55.56 12.8151 52.5122 15.8877C49.4644 18.9604 47.7595 23.116 47.7712 27.4439V27.8637H30.2638C26.4721 27.8636 22.8341 29.3626 20.1426 32.0333C17.4512 34.704 15.9245 38.3305 15.8953 42.1221V80.3751C13.7947 81.3188 12.0116 82.8492 10.7606 84.7826C9.50952 86.7161 8.84388 88.9699 8.84375 91.2728V99.2309C8.84667 102.394 10.1038 105.427 12.3394 107.664C14.575 109.902 17.6066 111.162 20.7696 111.168H97.6075C100.771 111.162 103.802 109.902 106.038 107.664C108.273 105.427 109.53 102.394 109.533 99.2309V91.2728C109.531 88.969 108.863 86.7149 107.61 84.7816C106.357 82.8483 104.573 81.3183 102.471 80.3751V63.951C105.958 63.0208 109.04 60.9646 111.238 58.1025C113.437 55.2404 114.629 51.7323 114.629 48.1233V27.4439C114.64 23.116 112.935 18.9604 109.888 15.8877C106.84 12.8151 102.698 11.0761 98.3701 11.0527" fill="white"/>
<path d="M93.0547 58.6445V88.7187" stroke="#0071B9" stroke-width="3" stroke-linejoin="round"/>
<path d="M25.2656 88.731V42.1221C25.2714 41.4782 25.4042 40.8414 25.6564 40.2489C25.9085 39.6563 26.275 39.1194 26.7349 38.6687C27.1949 38.218 27.7391 37.8623 28.3367 37.6223C28.9342 37.3822 29.5734 37.2626 30.2173 37.2698H53.4278" stroke="#0071B9" stroke-width="3" stroke-linejoin="round"/>
<path d="M100.111 91.2724V99.2305C100.111 99.9028 99.8447 100.547 99.3704 101.024C98.896 101.5 98.2523 101.769 97.58 101.772H20.731C20.3986 101.771 20.0697 101.704 19.7632 101.575C19.4567 101.447 19.1785 101.259 18.9445 101.023C18.7105 100.787 18.5253 100.507 18.3994 100.2C18.2736 99.8921 18.2095 99.5629 18.211 99.2305V91.2724C18.2095 90.94 18.2736 90.6107 18.3994 90.3031C18.5253 89.9955 18.7105 89.7156 18.9445 89.4795C19.1785 89.2435 19.4567 89.056 19.7632 88.9275C20.0697 88.7989 20.3986 88.7319 20.731 88.7305H97.58C98.2523 88.7334 98.896 89.0026 99.3704 89.479C99.8447 89.9554 100.111 90.6001 100.111 91.2724Z" fill="#E99EC4"/>
<path d="M100.111 91.2724V99.2305C100.111 99.9028 99.8447 100.547 99.3704 101.024C98.896 101.5 98.2523 101.769 97.58 101.772H20.731C20.3986 101.771 20.0697 101.704 19.7632 101.575C19.4567 101.447 19.1785 101.259 18.9445 101.023C18.7105 100.787 18.5253 100.507 18.3994 100.2C18.2736 99.8921 18.2095 99.5629 18.211 99.2305V91.2724C18.2095 90.94 18.2736 90.6107 18.3994 90.3031C18.5253 89.9955 18.7105 89.7156 18.9445 89.4795C19.1785 89.2435 19.4567 89.056 19.7632 88.9275C20.0697 88.7989 20.3986 88.7319 20.731 88.7305H97.58C98.2523 88.7334 98.896 89.0026 99.3704 89.479C99.8447 89.9554 100.111 90.6001 100.111 91.2724V91.2724Z" stroke="#0071B9" stroke-width="3" stroke-linejoin="round"/>
<path d="M57.6875 95.1191H60.6386" stroke="#0071B9" stroke-width="3" stroke-linecap="round" stroke-linejoin="round"/>
<path d="M98.2834 20.4473H64.0202C63.1101 20.4559 62.2107 20.6441 61.3732 21.0004C60.5357 21.3567 59.7766 21.8743 59.1392 22.524C58.5019 23.1736 57.9988 23.9427 57.6586 24.7868C57.3184 25.631 57.1478 26.5336 57.1566 27.4437V48.1231C57.1478 49.0332 57.3184 49.9363 57.6586 50.7805C57.9988 51.6246 58.5019 52.3931 59.1392 53.0428C59.7766 53.6925 60.5357 54.2106 61.3732 54.5669C62.2107 54.9232 63.1101 55.1108 64.0202 55.1195H69.657L66.3412 68.2834L84.0254 55.1195H98.3166C100.156 55.102 101.912 54.3557 103.201 53.0439C104.49 51.7321 105.206 49.9621 105.191 48.1231V27.4437C105.206 25.6047 104.49 23.8352 103.201 22.5234C101.912 21.2117 100.156 20.4648 98.3166 20.4473H98.2834ZM75.6144 45.3491V30.0411L88.8776 37.6787L75.6144 45.3491Z" fill="#E99EC4"/>
<path d="M98.2834 20.4473H64.0202C63.1101 20.4559 62.2107 20.6441 61.3732 21.0004C60.5357 21.3567 59.7766 21.8743 59.1392 22.524C58.5019 23.1736 57.9988 23.9427 57.6586 24.7868C57.3184 25.631 57.1478 26.5336 57.1566 27.4437V48.1231C57.1478 49.0332 57.3184 49.9363 57.6586 50.7805C57.9988 51.6246 58.5019 52.3931 59.1392 53.0428C59.7766 53.6925 60.5357 54.2106 61.3732 54.5669C62.2107 54.9232 63.1101 55.1108 64.0202 55.1195H69.657L66.3412 68.2834L84.0254 55.1195H98.3166C100.156 55.102 101.912 54.3557 103.201 53.0439C104.49 51.7321 105.206 49.9621 105.191 48.1231V27.4437C105.199 26.5303 105.025 25.6245 104.682 24.7782C104.338 23.9318 103.831 23.1615 103.19 22.5115C102.548 21.8616 101.784 21.3449 100.942 20.9907C100.1 20.6365 99.1968 20.4516 98.2834 20.4473V20.4473ZM75.6144 45.3491V30.0411L88.8776 37.6787L75.6144 45.3491Z" stroke="#0071B9" stroke-width="3" stroke-linecap="round" stroke-linejoin="round"/>
<path d="M88.8283 37.7118L75.6094 45.3493V30.0742L88.8283 37.7118Z" stroke="#0071B9" stroke-width="3" stroke-linecap="round" stroke-linejoin="round"/>
<path d="M88.8283 37.7118L75.6094 45.3493V30.0742L88.8283 37.7118Z" stroke="#0071B9" stroke-width="3" stroke-linecap="round" stroke-linejoin="round"/>
</svg>
