<svg width="108" height="135" viewBox="0 0 108 135" fill="none" xmlns="http://www.w3.org/2000/svg">
<g clip-path="url(#clip0_6447_8301)">
<path opacity="0.75" d="M77.9645 135C76.9691 135 75.9737 134.926 74.9866 134.777C69.6529 133.975 64.958 131.032 61.8806 126.807C59.8981 127.096 57.8907 127.237 55.8751 127.237C53.7764 127.237 51.6612 127.08 49.5875 126.766C45.1912 126.104 41.0022 124.781 37.0787 122.822C30.2022 125.592 24.3128 126.997 19.5184 126.997C12.3101 126.997 8.46953 123.864 6.52022 121.226C1.22805 114.075 3.83266 104.038 14.2594 91.3642C13.6622 87.2966 13.6704 83.1711 14.2926 79.0704C17.37 58.7489 35.2373 43.421 55.8502 43.421C57.9488 43.421 60.064 43.5781 62.1543 43.8922C66.2022 44.504 70.1009 45.6863 73.7672 47.4142C81.0917 44.3717 87.346 42.834 92.3893 42.834C99.5728 42.834 103.397 45.9674 105.346 48.5964C110.389 55.4088 108.258 64.8586 99.017 76.6894C98.5027 77.3508 97.9635 78.0205 97.3912 78.7067C98.0797 82.9562 98.0963 87.2801 97.441 91.5957C96.8271 95.6302 95.6078 99.5904 93.8576 103.286C93.8907 103.336 93.9239 103.377 93.9654 103.426C97.1175 107.684 98.4198 112.918 97.6235 118.151C96.1635 127.758 87.7193 135 77.9645 135Z" fill="#CFD8DC"/>
<path d="M74.107 131.156C73.1116 131.156 72.1162 131.082 71.1292 130.933C65.7955 130.131 61.1006 127.188 58.0232 122.963C56.0407 123.253 54.0333 123.393 52.0176 123.393C49.919 123.393 47.8038 123.236 45.7301 122.922C41.3338 122.26 37.1448 120.938 33.2213 118.978C26.3448 121.748 20.4554 123.153 15.661 123.153C8.45266 123.153 4.6121 120.02 2.6628 117.383C-2.62937 110.231 -0.0247612 100.195 10.402 87.5205C9.80473 83.4529 9.81303 79.3274 10.4351 75.2267C13.5126 54.9052 31.3798 39.5772 51.9928 39.5772C54.0914 39.5772 56.2066 39.7343 58.2969 40.0485C62.3448 40.6603 66.2434 41.8425 69.9098 43.5704C77.2342 40.528 83.4886 38.9902 88.5319 38.9902C95.7153 38.9902 99.5393 42.1236 101.489 44.7527C106.532 51.5651 104.4 61.0149 95.1596 72.8456C94.6453 73.507 94.1061 74.1767 93.5338 74.8629C94.2222 79.1124 94.2388 83.4363 93.5835 87.752C92.9697 91.7865 91.7504 95.7466 90.0001 99.4422C90.0333 99.4918 90.0665 99.5331 90.108 99.5827C93.26 103.84 94.5623 109.074 93.766 114.307C92.3061 123.906 83.8536 131.156 74.107 131.156Z" fill="#2576B9"/>
<path d="M64.311 112.719C59.3258 114.48 53.8428 115.084 48.252 114.241C30.1027 111.504 17.6023 94.6218 20.3479 76.5325C23.0935 58.4432 40.0318 45.9841 58.1811 48.7207C76.3304 51.4572 88.8308 68.3394 86.0852 86.4287C85.2308 92.0837 82.9829 97.1847 79.7479 101.451" fill="#FFD95C"/>
<path d="M64.311 112.719C59.3258 114.48 53.8428 115.084 48.252 114.241C30.1027 111.504 17.6023 94.6218 20.3479 76.5325C23.0935 58.4432 40.0318 45.9841 58.1811 48.7207C76.3304 51.4572 88.8308 68.3394 86.0852 86.4287C85.2308 92.0837 82.9829 97.1847 79.7479 101.451" stroke="white" stroke-width="3.8992" stroke-miterlimit="10"/>
<path d="M71.5523 52.946C83.4804 47.5143 92.721 46.0592 95.6076 49.9449C100.452 56.5011 85.438 75.7395 62.0629 92.9194C38.6878 110.099 15.8104 118.714 10.9661 112.166C8.12097 108.322 12.1108 100.12 20.6048 90.5301" stroke="white" stroke-width="3.8992" stroke-miterlimit="10"/>
<path d="M75.3096 122.376C81.43 122.376 86.3916 117.431 86.3916 111.331C86.3916 105.23 81.43 100.285 75.3096 100.285C69.1891 100.285 64.2275 105.23 64.2275 111.331C64.2275 117.431 69.1891 122.376 75.3096 122.376Z" stroke="white" stroke-width="3.8992" stroke-miterlimit="10"/>
<path d="M75.0363 1.22266C75.0363 1.22266 75.0363 12.0035 64.2197 12.0035C64.2197 12.0035 75.0363 12.0035 75.0363 22.7843C75.0363 22.7843 75.0363 12.0035 85.8529 12.0035C85.8612 12.0035 75.0446 12.0035 75.0363 1.22266Z" stroke="#2576B9" stroke-width="3" stroke-miterlimit="10" stroke-linecap="round" stroke-linejoin="round"/>
</g>
<defs>
<clipPath id="clip0_6447_8301">
<rect width="108" height="135" fill="white"/>
</clipPath>
</defs>
</svg>
