<svg width="92" height="94" viewBox="0 0 92 94" fill="none" xmlns="http://www.w3.org/2000/svg">
<g clip-path="url(#clip0_6447_8315)">
<path d="M77.4583 1.47852C77.4583 1.47852 77.4583 14.5088 64.3984 14.5088C64.3984 14.5088 77.4583 14.5088 77.4583 27.5391C77.4583 27.5391 77.4583 14.5088 90.5182 14.5088C90.5182 14.5088 77.4583 14.5088 77.4583 1.47852Z" stroke="#2576B9" stroke-width="2.9625" stroke-miterlimit="10" stroke-linecap="round" stroke-linejoin="round"/>
<path opacity="0.85" d="M66.931 53.2305L47.6818 50.2428L44.577 31.0571C44.2866 29.2384 42.9145 27.8694 41.0817 27.5896C39.279 27.3098 37.5163 28.2092 36.695 29.838L27.9017 47.1751L8.66238 44.1873C6.85963 43.9075 5.09695 44.8068 4.2757 46.4356C3.45445 48.0544 3.76492 50.0129 5.05689 51.292L18.8679 64.9918L10.0745 82.3389C9.24326 83.9876 9.54372 85.8962 10.8557 87.1953C12.1477 88.4743 14.1107 88.7841 15.7231 87.9547L33.0495 79.0813L46.8705 92.7811C47.872 93.7704 49.2642 94.1801 50.5962 93.9302C50.9868 93.8603 51.3774 93.7304 51.7479 93.5405C53.3704 92.7111 54.2618 90.9425 53.9713 89.1538L50.8666 69.9681L68.193 61.0947C69.8154 60.2653 70.7068 58.5066 70.4163 56.708C70.1359 54.8993 68.7338 53.5103 66.931 53.2305Z" fill="#CFD8DC"/>
<path d="M38.5282 29.8377L41.673 49.2632C41.8032 50.0826 42.4542 50.7322 43.2854 50.8621L62.7751 53.8798C64.6179 54.1696 65.0185 56.6478 63.356 57.4971L45.8093 66.4804C45.0682 66.8601 44.6475 67.6795 44.7877 68.4989L47.9325 87.9245C48.233 89.7631 45.9896 90.9122 44.6675 89.5932L30.6763 75.7235C30.0854 75.134 29.174 74.9941 28.4328 75.3738L10.8861 84.3571C9.22361 85.2065 7.4409 83.4378 8.28218 81.779L17.1857 64.2221C17.5663 63.4727 17.4161 62.5733 16.8252 61.9838L2.8439 48.1141C1.52189 46.7951 2.65361 44.5568 4.49642 44.8465L23.9861 47.8643C24.8173 47.9942 25.6286 47.5745 26.0092 46.8351L34.9127 29.2781C35.744 27.6094 38.2277 27.9991 38.5282 29.8377Z" fill="#EB9CC3" stroke="#2576B9" stroke-width="4.5202" stroke-miterlimit="10"/>
</g>
<defs>
<clipPath id="clip0_6447_8315">
<rect width="92" height="94" fill="white"/>
</clipPath>
</defs>
</svg>
