<svg width="57" height="72" viewBox="0 0 57 72" fill="none" xmlns="http://www.w3.org/2000/svg">
<path opacity="0.75" d="M44.8978 5.69793C41.5303 3.87292 37.7301 2.9082 33.9099 2.9082C25.3942 2.9082 17.5898 7.54781 13.5458 15.012C12.9937 16.0264 12.0834 17.7122 9.66595 33.456L9.62615 33.5306C9.03423 34.6196 8.89495 35.833 9.13869 36.9569C8.91982 38.4288 8.70594 39.8958 8.50697 41.313C8.15878 43.7497 8.80044 46.1814 10.1882 48.1108C9.98927 48.5832 9.84004 49.0706 9.73061 49.5678C9.64605 49.5877 9.56646 49.6076 9.4819 49.6325C7.49722 50.2242 5.85575 51.552 4.86589 53.377L3.41344 56.0573C2.42359 57.8774 2.20472 59.9759 2.79665 61.965C3.38857 63.9541 4.71667 65.5902 6.53721 66.5797L14.8391 71.0751C15.9732 71.6868 17.2515 72.015 18.5299 72.015C19.281 72.015 20.0271 71.9056 20.7483 71.6918C22.733 71.1 24.3745 69.7723 25.3594 67.9522L26.8118 65.2669C27.8713 63.3076 27.9957 61.0898 27.3391 59.1255C27.6972 58.7675 28.0255 58.3746 28.314 57.947C28.4583 57.952 28.6025 57.9569 28.7468 57.9569C31.0249 57.9569 33.2235 57.1314 34.9296 55.6396C36.009 54.6948 37.1183 53.7201 38.2325 52.7305C39.3417 52.3078 40.2669 51.5023 40.834 50.453L40.8737 50.3784C52.747 39.7565 53.6623 38.0708 54.2144 37.0563C60.2878 25.8377 56.1096 11.7747 44.8978 5.69793Z" fill="#CFD8DC"/>
<path d="M43.326 3.30096C39.9586 1.47595 36.1583 0.51123 32.3382 0.51123C23.8224 0.51123 16.018 5.15084 11.974 12.615C11.4219 13.6294 10.5116 15.3152 8.09417 31.059L8.05437 31.1336C7.46245 32.2227 7.32317 33.436 7.56691 34.5599C7.34805 36.0318 7.13416 37.4988 6.93519 38.916C6.587 41.3527 7.22867 43.7844 8.61645 45.7138C8.41749 46.1862 8.26826 46.6736 8.15883 47.1709C8.07427 47.1908 7.99468 47.2106 7.91012 47.2355C5.92544 47.8273 4.28397 49.155 3.29412 50.98L1.84167 53.6603C0.851811 55.4804 0.632947 57.5789 1.22487 59.568C1.81679 61.5571 3.14489 63.1932 4.96543 64.1828L13.2673 68.6782C14.4014 69.2898 15.6797 69.618 16.9581 69.618C17.7092 69.618 18.4553 69.5086 19.1766 69.2948C21.1613 68.703 22.8027 67.3753 23.7876 65.5553L25.2401 62.8699C26.2995 60.9107 26.4239 58.6928 25.7673 56.7286C26.1255 56.3705 26.4537 55.9777 26.7422 55.55C26.8865 55.555 27.0307 55.56 27.175 55.56C29.4532 55.56 31.6517 54.7345 33.3579 53.2426C34.4372 52.2978 35.5465 51.3231 36.6607 50.3336C37.7699 49.9109 38.6951 49.1053 39.2622 48.056L39.302 47.9814C51.1753 37.3596 52.0905 35.6738 52.6426 34.6593C58.7161 23.4358 54.5378 9.37273 43.326 3.30096Z" fill="white"/>
<path d="M46.7085 31.7404C51.1902 23.4706 48.1162 13.1372 39.8491 8.65673C31.5821 4.17625 21.2359 7.24943 16.7542 15.5142C15.635 17.5829 13.2474 33.7395 12.3868 39.7714C12.1929 41.129 12.8644 42.4667 14.0731 43.1181L25.0411 49.0606C26.2498 49.712 27.7321 49.5479 28.7667 48.6429C33.3529 44.6249 45.5843 33.8091 46.7085 31.7404Z" fill="#BCDAF2" stroke="#2576B9" stroke-width="3" stroke-miterlimit="10"/>
<path d="M13.4911 33.1179L33.6911 44.0577" stroke="#2576B9" stroke-width="3" stroke-miterlimit="10"/>
<path d="M19.8729 36.5739C19.8729 36.5739 21.201 25.1862 31.3433 6.47363L19.8729 36.5739Z" fill="#BCDAF2"/>
<path d="M19.8729 36.5739C19.8729 36.5739 21.201 25.1862 31.3433 6.47363" stroke="#2576B9" stroke-width="3" stroke-miterlimit="10"/>
<path d="M27.359 40.6317C27.359 40.6317 36.1732 33.3018 46.3205 14.5842L27.359 40.6317Z" fill="#BCDAF2"/>
<path d="M27.359 40.6317C27.359 40.6317 36.1732 33.3018 46.3205 14.5842" stroke="#2576B9" stroke-width="3" stroke-miterlimit="10"/>
<path d="M13.7398 47.8868L15.814 44.0579L23.3001 48.1155L21.2259 51.9444C20.6936 52.929 19.46 53.297 18.4702 52.7649L14.5555 50.6416C13.5706 50.1095 13.2026 48.8763 13.7398 47.8868Z" fill="#BCDAF2" stroke="#2576B9" stroke-width="3" stroke-miterlimit="10"/>
<path d="M15.5902 63.3072L7.28832 58.8119C6.47753 58.3743 6.17908 57.3599 6.61681 56.5494L8.06926 53.8691C8.50698 53.0586 9.52171 52.7602 10.3325 53.1978L18.6343 57.6931C19.4451 58.1306 19.7436 59.1451 19.3059 59.9556L17.8534 62.6358C17.4157 63.4464 16.401 63.7447 15.5902 63.3072Z" fill="#BCDAF2" stroke="#2576B9" stroke-width="3" stroke-miterlimit="10"/>
</svg>
