<svg width="42" height="54" viewBox="0 0 42 54" fill="none" xmlns="http://www.w3.org/2000/svg">
<path opacity="0.75" d="M32.8421 4.6601C30.366 3.31822 27.5718 2.60889 24.763 2.60889C18.5016 2.60889 12.7632 6.02026 9.78977 11.5084C9.3838 12.2543 8.71451 13.4938 6.93703 25.0698L6.90778 25.1247C6.47255 25.9254 6.37014 26.8176 6.54936 27.6439C6.38843 28.7262 6.23117 29.8048 6.08487 30.8469C5.82886 32.6385 6.30066 34.4264 7.32106 35.8451C7.17476 36.1925 7.06504 36.5508 6.98458 36.9164C6.9224 36.931 6.86389 36.9457 6.80171 36.964C5.34243 37.3991 4.1355 38.3753 3.40769 39.7172L2.33974 41.688C1.61193 43.0262 1.45101 44.5692 1.88623 46.0317C2.32146 47.4942 3.29797 48.6972 4.63656 49.4248L10.7407 52.7301C11.5746 53.1799 12.5145 53.4212 13.4544 53.4212C14.0067 53.4212 14.5553 53.3407 15.0856 53.1835C16.5449 52.7484 17.7518 51.7722 18.476 50.4339L19.5439 48.4595C20.3229 47.0189 20.4144 45.3882 19.9316 43.9439C20.1949 43.6807 20.4363 43.3918 20.6484 43.0774C20.7545 43.081 20.8606 43.0847 20.9666 43.0847C22.6417 43.0847 24.2582 42.4777 25.5127 41.3808C26.3064 40.6861 27.122 39.9695 27.9412 39.2419C28.7568 38.9311 29.4371 38.3387 29.854 37.5672L29.8833 37.5124C38.6134 29.7024 39.2863 28.4629 39.6923 27.717C44.1579 19.4683 41.0857 9.12816 32.8421 4.6601Z" fill="#CFD8DC"/>
<path d="M31.6868 2.89777C29.2108 1.55589 26.4165 0.846558 23.6077 0.846558C17.3463 0.846558 11.6079 4.25793 8.6345 9.74611C8.22853 10.492 7.55924 11.7315 5.78176 23.3075L5.7525 23.3624C5.31728 24.1631 5.21487 25.0552 5.39408 25.8816C5.23316 26.9639 5.07589 28.0425 4.9296 29.0845C4.67358 30.8762 5.14538 32.6641 6.16578 34.0828C6.01949 34.4301 5.90977 34.7885 5.82931 35.1541C5.76713 35.1687 5.70861 35.1833 5.64644 35.2016C4.18716 35.6367 2.98023 36.613 2.25242 37.9548L1.18447 39.9256C0.456658 41.2638 0.295734 42.8068 0.730959 44.2694C1.16618 45.7319 2.1427 46.9348 3.48129 47.6625L9.58541 50.9678C10.4193 51.4175 11.3592 51.6589 12.2992 51.6589C12.8514 51.6589 13.4 51.5784 13.9303 51.4212C15.3896 50.9861 16.5965 50.0098 17.3207 48.6716L18.3887 46.6972C19.1677 45.2566 19.2591 43.6258 18.7763 42.1816C19.0397 41.9183 19.281 41.6295 19.4932 41.315C19.5992 41.3187 19.7053 41.3223 19.8114 41.3223C21.4864 41.3223 23.103 40.7154 24.3575 39.6185C25.1511 38.9238 25.9667 38.2071 26.7859 37.4795C27.6015 37.1687 28.2818 36.5764 28.6987 35.8049L28.728 35.7501C37.4581 27.9401 38.131 26.7006 38.537 25.9547C43.0026 17.7023 39.9305 7.36217 31.6868 2.89777Z" fill="white"/>
<path d="M34.1732 23.8084C37.4684 17.7279 35.2082 10.13 29.1297 6.83562C23.0511 3.54125 15.4438 5.80088 12.1486 11.8777C11.3257 13.3988 9.57014 25.2782 8.93741 29.7134C8.79478 30.7116 9.28852 31.6951 10.1773 32.1741L18.2417 36.5435C19.1305 37.0224 20.2203 36.9018 20.9811 36.2363C24.3532 33.282 33.3466 25.3294 34.1732 23.8084Z" fill="#BCDAF2" stroke="#2576B9" stroke-width="2" stroke-miterlimit="10"/>
<path d="M9.75 24.8213L24.6025 32.865" stroke="#2576B9" stroke-width="2" stroke-miterlimit="10"/>
<path d="M14.4414 27.3624C14.4414 27.3624 15.4179 18.9894 22.8753 5.23053L14.4414 27.3624Z" fill="#BCDAF2"/>
<path d="M14.4414 27.3624C14.4414 27.3624 15.4179 18.9894 22.8753 5.23053" stroke="#2576B9" stroke-width="2" stroke-miterlimit="10"/>
<path d="M19.9463 30.3461C19.9463 30.3461 26.4271 24.9566 33.8881 11.1941L19.9463 30.3461Z" fill="#BCDAF2"/>
<path d="M19.9463 30.3461C19.9463 30.3461 26.4271 24.9566 33.8881 11.1941" stroke="#2576B9" stroke-width="2" stroke-miterlimit="10"/>
<path d="M9.93177 35.6805L11.4569 32.8652L16.9612 35.8487L15.4361 38.664C15.0448 39.388 14.1377 39.6585 13.4099 39.2673L10.5316 37.7061C9.80742 37.3149 9.53678 36.4081 9.93177 35.6805Z" fill="#BCDAF2" stroke="#2576B9" stroke-width="2" stroke-miterlimit="10"/>
<path d="M11.2929 47.0188L5.18879 43.7135C4.59264 43.3918 4.3732 42.6459 4.69505 42.0499L5.763 40.0792C6.08484 39.4833 6.83094 39.2639 7.42709 39.5856L13.5312 42.8909C14.1274 43.2126 14.3468 43.9585 14.025 44.5545L12.957 46.5252C12.6352 47.1211 11.8891 47.3405 11.2929 47.0188Z" fill="#BCDAF2" stroke="#2576B9" stroke-width="2" stroke-miterlimit="10"/>
</svg>
