<svg width="85" height="81" viewBox="0 0 85 81" fill="none" xmlns="http://www.w3.org/2000/svg">
<g clip-path="url(#clip0_3313_5181)">
<path d="M77.1628 40.0093L68.6071 37.3055C67.8922 37.0795 67.1437 37.0469 66.4345 37.1936C66.4554 37.1183 66.4858 37.0457 66.5024 36.9712C66.9198 35.1632 66.1509 33.2874 64.5852 32.2965L58.8424 28.6545C59.0343 28.4525 59.2091 28.2316 59.361 27.984L60.0382 26.8954C60.6516 25.9128 60.852 24.7255 60.5883 23.5973C60.3289 22.4682 59.6315 21.4865 58.6499 20.8717L51.0597 16.1154C49.4708 15.1201 47.4928 15.2775 46.0892 16.3558L42.4743 14.0361C41.4996 13.411 40.3243 13.1944 39.1868 13.4466C39.0334 13.4808 38.8861 13.5228 38.7403 13.5734C38.4697 13.3011 38.1646 13.0577 37.8149 12.8586C37.8106 12.8594 37.445 12.5788 37.2387 12.2718C37.1249 12.098 37.0323 11.9647 37.3924 11.325C38.5797 9.22491 37.8439 6.55937 35.7505 5.36832C33.6775 4.1911 31.0506 4.89742 29.8439 6.94342C29.2013 7.95849 28.7517 7.70314 28.2765 7.4305C26.1788 6.24028 23.5175 6.97553 22.3294 9.07134C21.1551 11.1467 21.862 13.7778 23.9057 14.9874C24.8642 15.5978 24.6866 16.0329 24.4404 16.4813C22.6383 16.1951 20.8057 16.026 18.9604 15.9751L13.9876 15.8376C12.4461 15.7945 11.0047 16.5642 10.1826 17.8678C9.52272 18.9085 9.35285 20.161 9.66424 21.329C9.26982 21.4946 8.89991 21.7179 8.56653 21.9918C6.82509 21.7205 5.02248 22.5292 4.10289 24.1545C3.57014 25.0948 3.42521 26.1555 3.61691 27.142C3.75526 27.8539 4.06919 28.5318 4.54452 29.1026C4.46491 29.6077 4.47856 30.1124 4.57441 30.6056C4.80945 31.8151 5.5524 32.917 6.70663 33.574C7.65015 34.1072 8.70519 34.2538 9.69011 34.0624C10.401 33.9243 11.0776 33.6103 11.6473 33.1346C13.0177 33.349 14.4165 32.8858 15.4055 31.8924C15.8973 32.5936 16.408 33.2777 16.941 33.9397C17.0353 34.0593 17.1374 34.173 17.2421 34.2773C17.3469 34.5418 17.4816 34.8005 17.6454 35.049L17.2905 35.5097C15.884 37.3275 16.1359 39.9045 17.8136 41.4256C16.9272 43.2447 17.405 45.4975 19.0642 46.7863L26.3928 52.4835C27.3089 53.1957 28.464 53.5142 29.613 53.3666C29.708 53.3526 29.8031 53.3386 29.8973 53.3203C30.9336 53.1189 31.8623 52.5468 32.5126 51.7082L32.8675 51.2476C33.1964 52.1629 33.8187 52.941 34.6399 53.4624L46.4537 60.972C47.4165 61.5816 48.5525 61.7792 49.6231 61.5712C50.1883 61.4613 50.7346 61.2306 51.2291 60.8941C51.3764 61.6978 51.7429 62.4634 52.3121 63.0827L58.4101 69.6734C59.1972 70.5219 60.2863 71.0268 61.4454 71.0686C61.7816 71.0834 62.118 71.0537 62.4434 70.9904C63.2356 70.8365 63.9768 70.4654 64.5751 69.9085L65.5122 69.0365C67.278 67.3982 67.3847 64.6312 65.7434 62.8627L64.371 61.3802C64.4689 61.152 64.542 60.9108 64.6006 60.6635C64.8667 59.4946 64.6274 58.286 63.9831 57.3029L64.9767 57.5683C65.6286 57.7442 66.2934 57.7575 66.9271 57.6343C68.079 57.4105 69.1238 56.7268 69.7794 55.6869C70.7999 54.0777 70.6567 51.9913 69.4313 50.5337L69.3046 50.3847C70.1545 50.3219 70.9834 50.0139 71.6741 49.4747C71.8751 49.3199 72.0591 49.1462 72.2235 48.9629L74.1505 49.5721C74.851 49.792 75.5874 49.8314 76.294 49.6941C76.7008 49.615 77.1002 49.4751 77.476 49.2819C78.5012 48.7489 79.2725 47.8245 79.6222 46.7195L80.0067 45.4965C80.7364 43.1915 79.4597 40.7379 77.1628 40.0093ZM32.587 31.6469L32.5998 31.6445C32.724 31.6203 32.8762 31.6486 32.9828 31.7169C33.0945 31.7887 33.1854 31.9134 33.2112 32.0464C33.2405 32.1742 33.2123 32.3266 33.1407 32.4384C33.0692 32.5502 32.9438 32.6369 32.8162 32.6662L32.587 31.6469ZM32.2589 31.8798C32.3228 31.774 32.4439 31.6881 32.5621 31.6562L32.7776 32.6737C32.6612 32.6918 32.5176 32.6619 32.4212 32.6005C32.173 32.444 32.102 32.124 32.2589 31.8798Z" fill="#CFD8DC"/>
<path d="M76.6628 37.4359L68.1071 34.7322C67.3922 34.5061 66.6437 34.4735 65.9345 34.6203C65.9554 34.545 65.9858 34.4723 66.0024 34.3979C66.4198 32.5898 65.6509 30.7141 64.0852 29.7231L58.3424 26.0811C58.5343 25.8791 58.7091 25.6582 58.861 25.4106L59.5382 24.3221C60.1516 23.3394 60.352 22.1521 60.0883 21.0239C59.8289 19.8948 59.1315 18.9132 58.1499 18.2983L50.5597 13.542C48.9708 12.5467 46.9928 12.7041 45.5892 13.7825L41.9743 11.4628C40.9996 10.8377 39.8243 10.621 38.6868 10.8732C38.5334 10.9074 38.3861 10.9494 38.2403 11C37.9697 10.7277 37.6646 10.4843 37.3149 10.2852C37.3106 10.2861 36.945 10.0055 36.7387 9.69841C36.6249 9.52467 36.5323 9.39133 36.8924 8.75164C38.0797 6.65155 37.3439 3.98601 35.2505 2.79496C33.1775 1.61774 30.5506 2.32405 29.3439 4.37006C28.7013 5.38512 28.2517 5.12977 27.7765 4.85713C25.6788 3.66692 23.0175 4.40217 21.8294 6.49798C20.6551 8.5733 21.362 11.2044 23.4057 12.414C24.3642 13.0245 24.1866 13.4596 23.9404 13.908C22.1383 13.6217 20.3057 13.4526 18.4604 13.4017L13.4876 13.2643C11.9461 13.2211 10.5047 13.9908 9.68262 15.2945C9.02272 16.3351 8.85285 17.5877 9.16424 18.7556C8.76982 18.9213 8.39991 19.1445 8.06653 19.4185C6.32509 19.1471 4.52248 19.9559 3.60289 21.5811C3.07014 22.5214 2.92521 23.5822 3.11691 24.5686C3.25526 25.2806 3.56919 25.9584 4.04452 26.5292C3.96491 27.0343 3.97856 27.5391 4.07441 28.0323C4.30945 29.2418 5.0524 30.3436 6.20662 31.0006C7.15015 31.5338 8.20519 31.6804 9.19011 31.489C9.90096 31.3509 10.5776 31.0369 11.1473 30.5612C12.5177 30.7756 13.9165 30.3124 14.9055 29.3191C15.3973 30.0202 15.908 30.7043 16.441 31.3663C16.5353 31.4859 16.6374 31.5996 16.7421 31.7039C16.8469 31.9684 16.9816 32.2271 17.1454 32.4757L16.7905 32.9363C15.384 34.7541 15.6359 37.3312 17.3136 38.8523C16.4272 40.6713 16.905 42.9241 18.5642 44.2129L25.8928 49.9102C26.8089 50.6223 27.964 50.9409 29.113 50.7933C29.208 50.7792 29.3031 50.7652 29.3973 50.7469C30.4336 50.5455 31.3623 49.9734 32.0126 49.1349L32.3675 48.6742C32.6964 49.5895 33.3187 50.3676 34.1399 50.889L45.9537 58.3986C46.9165 59.0082 48.0525 59.2058 49.1231 58.9978C49.6883 58.888 50.2345 58.6572 50.7291 58.3207C50.8764 59.1244 51.2429 59.89 51.8121 60.5093L57.9101 67.1C58.6971 67.9485 59.7863 68.4534 60.9454 68.4953C61.2816 68.51 61.618 68.4803 61.9434 68.417C62.7356 68.2631 63.4768 67.8921 64.0751 67.3352L65.0122 66.4632C66.778 64.8248 66.8847 62.0579 65.2434 60.2893L63.871 58.8068C63.9688 58.5786 64.042 58.3374 64.1006 58.0901C64.3667 56.9213 64.1274 55.7126 63.4831 54.7295L64.4767 54.9949C65.1286 55.1709 65.7934 55.1841 66.4271 55.061C67.579 54.8371 68.6238 54.1534 69.2794 53.1135C70.2999 51.5043 70.1567 49.418 68.9313 47.9603L68.8046 47.8113C69.6545 47.7485 70.4834 47.4406 71.1741 46.9013C71.3751 46.7465 71.5591 46.5728 71.7235 46.3895L73.6505 46.9987C74.351 47.2187 75.0874 47.258 75.794 47.1207C76.2008 47.0417 76.6002 46.9017 76.976 46.7085C78.0012 46.1755 78.7725 45.2511 79.1222 44.1461L79.5067 42.9231C80.2364 40.6181 78.9597 38.1646 76.6628 37.4359ZM32.087 29.0736L32.0998 29.0711C32.224 29.0469 32.3762 29.0752 32.4828 29.1435C32.5945 29.2153 32.6854 29.3401 32.7112 29.473C32.7405 29.6009 32.7123 29.7532 32.6407 29.865C32.5692 29.9769 32.4438 30.0636 32.3162 30.0928L32.087 29.0736ZM31.7589 29.3065C31.8228 29.2006 31.9439 29.1147 32.0621 29.0829L32.2776 30.1003C32.1612 30.1185 32.0176 30.0885 31.9212 30.0271C31.673 29.8706 31.602 29.5506 31.7589 29.3065Z" fill="white"/>
<path d="M21.1877 27.8224C19.6448 25.8968 18.2868 23.7795 17.1425 21.5271L16.0406 19.3556L18.4709 19.4218C21.045 19.4958 23.5852 19.83 26.0257 20.4284L26.4383 18.7326C23.8773 18.1086 21.2131 17.754 18.5193 17.6811L13.1572 17.5302L15.5855 22.3193C16.7823 24.6816 18.209 26.9013 19.8234 28.9198L21.1877 27.8224Z" fill="#2576B9"/>
<path d="M46.4719 31.2634C46.2041 32.5839 45.773 33.8872 45.1856 35.1408L46.7646 35.8799C47.3235 34.6853 47.75 33.4496 48.0482 32.1944L52.2354 34.8524L62.6162 33.7075L50.1611 25.8018L42.465 26.652L37.0975 23.2486C35.1565 22.019 33.0769 20.9677 30.9199 20.1362L30.2904 21.7674C32.3422 22.5615 34.3178 23.5573 36.1632 24.7298L46.4719 31.2634ZM49.7471 27.6047L57.482 32.5109L52.6529 33.0443L44.918 28.1381L49.7471 27.6047Z" fill="#2576B9"/>
<path d="M20.8237 30.0429L21.3343 30.7493L21.8457 31.46C22.099 31.2772 28.0723 26.8895 29.4498 19.4337L27.7351 19.1171C26.487 25.8668 20.8779 30.0012 20.8237 30.0429Z" fill="#2576B9"/>
<path d="M28.941 27.5397C28.3596 28.4583 28.1682 29.5548 28.41 30.6161C28.6475 31.6782 29.2863 32.5867 30.2039 33.1695C31.1164 33.7488 32.1756 33.9169 33.1605 33.7255C34.2225 33.5191 35.2028 32.8924 35.8247 31.9081C36.4061 30.9895 36.5932 29.8938 36.3557 28.8317C36.1182 27.7696 35.4794 26.8611 34.5618 26.2783C33.6442 25.6955 32.5578 25.5016 31.4896 25.7448C30.4283 25.9778 29.5215 26.6169 28.941 27.5397ZM33.6302 27.7501C34.715 28.4384 35.0395 29.8797 34.3529 30.9657C33.6662 32.0516 32.2271 32.3757 31.1424 31.6875C30.6154 31.3537 30.2527 30.8367 30.1164 30.2267C29.9809 29.621 30.0859 28.9952 30.4189 28.4676C30.7519 27.94 31.268 27.5771 31.877 27.441C32.474 27.3116 33.1032 27.4163 33.6302 27.7501Z" fill="#2576B9"/>
<path d="M38.9831 32.8686L38.0498 34.3448L51.3878 42.8062L52.321 41.33L38.9831 32.8686Z" fill="#2576B9"/>
<path d="M66.7166 38.7101L66.9559 41.4053L62.5472 39.8942L61.9834 41.5438L68.9356 43.9315L68.6872 41.1668L75.0791 43.1872L75.6036 41.5185L66.7166 38.7101Z" fill="#2576B9"/>
<path d="M60.4469 57.3537L55.3209 52.0829L54.0732 53.3001L57.3226 56.6433L54.7895 57.5807L61.1232 64.4238L62.3998 63.241L57.847 58.3129L60.4469 57.3537Z" fill="#2576B9"/>
<path d="M54.3897 37.7094L54.3539 37.6852C52.4232 36.4626 50.0441 36.0659 47.8288 36.6032L48.2393 38.3038C49.9955 37.8735 51.8881 38.1911 53.424 39.1656L53.4598 39.1898C54.1446 39.6265 54.7595 40.1612 55.2851 40.7846L61.5328 48.2141L52.1077 45.7016C51.3251 45.4932 50.5816 45.1659 49.8976 44.7335C48.3668 43.7625 47.2738 42.1856 46.9057 40.4056L45.197 40.7599C45.6628 42.9972 47.0352 44.9827 48.9617 46.2062C49.7932 46.7345 50.7015 47.1321 51.6576 47.387L66.4346 51.3252L56.6171 39.6578C55.981 38.9002 55.2314 38.2447 54.3897 37.7094Z" fill="#2576B9"/>
<path d="M41.3153 42.8496C42.3231 42.044 43.251 41.1249 44.0896 40.1118L42.7443 38.9979C41.8627 40.0638 40.8731 41.0083 39.7951 41.8187L29.4899 35.28C27.6445 34.1075 25.9001 32.7463 24.3071 31.2265L23.1045 32.4928C24.7792 34.0902 26.613 35.5231 28.5548 36.7569L33.9224 40.1603L36.4496 47.4939L48.9081 55.3945L45.506 45.5025L41.3153 42.8496ZM37.8972 46.3447L36.3141 41.7429L44.0498 46.6534L45.6329 51.2551L37.8972 46.3447Z" fill="#2576B9"/>
<path d="M39.9349 15.0857L38.9941 16.557L49.9103 23.5613L50.8511 22.09L39.9349 15.0857Z" fill="#2576B9"/>
<path d="M48.5539 17.1816L47.6289 18.663L55.2201 23.4194L56.1451 21.938L48.5539 17.1816Z" fill="#2576B9"/>
<path d="M21.3303 34.5575L20.2607 35.9377L27.5893 41.6351L28.6589 40.2549L21.3303 34.5575Z" fill="#2576B9"/>
<path d="M22.3303 39.7044L21.2607 41.0846L28.5893 46.782L29.6589 45.4018L22.3303 39.7044Z" fill="#2576B9"/>
<path d="M33.2789 6.73441C33.2789 6.73441 30.572 11.5111 25.8007 8.79742C25.8007 8.79742 30.572 11.511 27.8651 16.2877C27.8651 16.2877 30.572 11.5111 35.3433 14.2247C35.3433 14.2247 30.572 11.5111 33.2789 6.73441Z" fill="#2576B9"/>
<path d="M11.031 22.9194C11.031 22.9194 9.78067 25.1296 7.57204 23.8719C7.57204 23.8719 9.77984 25.1253 8.52526 27.3364C8.52526 27.3364 9.77555 25.1262 11.9842 26.3839C11.9833 26.3796 9.77984 25.1253 11.031 22.9194Z" fill="#2576B9"/>
</g>
<defs>
<clipPath id="clip0_3313_5181">
<rect width="72.031" height="73.1835" fill="white" transform="translate(0 8.57684) rotate(-10.9972)"/>
</clipPath>
</defs>
</svg>
