<svg width="170" height="169" viewBox="0 0 170 169" fill="none" xmlns="http://www.w3.org/2000/svg">
<g clip-path="url(#clip0_2263_3273)">
<path d="M122.189 33.7972L109.827 44.177C108.794 45.0443 108.022 46.1492 107.561 47.3675C107.467 47.2631 107.386 47.1469 107.289 47.0498C104.946 44.6711 101.357 44.0282 98.3412 45.449L87.2696 50.6527C87.1481 50.1666 86.9814 49.688 86.7521 49.2184L85.7531 47.1397C84.8531 45.2601 83.244 43.8101 81.2766 43.1216C79.3121 42.4258 77.1487 42.5371 75.2679 43.434L60.7217 50.3673C57.6772 51.8188 56.0072 54.9738 56.2898 58.1455L49.2794 61.3949C47.3897 62.2714 45.9264 63.8467 45.2115 65.8171C45.1155 66.0829 45.037 66.3472 44.9732 66.6172C44.2985 66.7653 43.6346 66.9936 42.9948 67.3324C42.992 67.3397 42.2132 67.624 41.5479 67.6409C41.1743 67.6459 40.8825 67.6578 40.2589 66.4938C38.2163 62.6645 33.4594 61.209 29.6308 63.2379C25.8429 65.249 24.3801 69.9188 26.3218 73.7253C27.2426 75.6806 26.4211 76.1167 25.5486 76.575C21.7171 78.6111 20.265 83.361 22.3003 87.1874C24.3177 90.9731 28.9944 92.4392 32.8032 90.5038C34.6551 89.6377 35.1442 90.3273 35.5874 91.1338C33.4136 93.5934 31.3883 96.2126 29.5302 98.9649L24.5223 106.382C22.969 108.681 22.7466 111.612 23.9324 114.118C24.8754 116.124 26.6131 117.591 28.6868 118.245C28.5577 119.004 28.5396 119.781 28.6338 120.552C26.5412 122.934 26.0293 126.451 27.6093 129.415C28.5227 131.132 29.9933 132.376 31.6759 133.037C32.8903 133.514 34.2224 133.691 35.5478 133.52C36.2377 134.129 37.0172 134.595 37.8585 134.926C39.9216 135.736 42.3115 135.671 44.4228 134.553C46.143 133.635 47.3837 132.175 48.0437 130.495C48.52 129.282 48.6964 127.952 48.524 126.628C50.172 124.754 50.8187 122.184 50.2651 119.724C51.8042 119.654 53.3356 119.539 54.8551 119.368C55.1278 119.34 55.3989 119.295 55.6582 119.237C56.1609 119.333 56.6836 119.378 57.2191 119.369L57.576 120.353C58.9783 124.243 63.134 126.347 67.0624 125.268C68.9687 128.369 72.85 129.818 76.4079 128.543L92.1302 122.915C94.0955 122.211 95.6939 120.765 96.5787 118.878C96.6491 118.72 96.7196 118.563 96.7827 118.402C97.4771 116.634 97.5047 114.672 96.8592 112.876L96.5024 111.892C98.2094 112.276 99.9914 112.082 101.576 111.339L124.378 100.651C126.233 99.7772 127.629 98.2431 128.346 96.417C128.725 95.4529 128.902 94.4009 128.868 93.3254C130.231 93.8774 131.747 94.0597 133.236 93.7933L149.127 90.8959C151.175 90.5199 152.993 89.3537 154.175 87.6343C154.522 87.1382 154.801 86.5987 155.019 86.0436C155.55 84.6923 155.702 83.209 155.434 81.7631L155.015 79.4989C154.231 75.2368 150.134 72.4045 145.865 73.1896L142.289 73.8425C142.037 73.4737 141.742 73.1299 141.423 72.8023C139.905 71.2701 137.839 70.467 135.725 70.4965L137.087 69.244C137.983 68.4241 138.645 67.4277 139.069 66.3466C139.841 64.3818 139.811 62.1357 138.865 60.1368C137.407 57.0345 134.101 55.2385 130.706 55.6921L130.357 55.7407C131.082 54.3898 131.415 52.834 131.263 51.265C131.222 50.8105 131.135 50.3635 131.016 49.9371L133.8 47.5993C134.81 46.7482 135.581 45.6681 136.054 44.4628C136.327 43.7689 136.5 43.0275 136.569 42.2706C136.749 40.1997 136.09 38.1365 134.75 36.5393L133.264 34.7752C130.469 31.4429 125.512 31.0132 122.189 33.7972ZM66.474 93.4018L66.4826 93.3799C66.5658 93.1681 66.7556 92.9644 66.9622 92.8685C67.1789 92.7681 67.4561 92.7505 67.6829 92.8396C67.9052 92.9185 68.1093 93.1083 68.21 93.3249C68.3107 93.5415 68.3213 93.8155 68.2425 94.0375L66.474 93.4018ZM66.511 94.1246C66.4118 93.9254 66.3984 93.6588 66.4641 93.4485L68.2167 94.1033C68.1319 94.2976 67.9479 94.4867 67.7617 94.5737C67.2846 94.7995 66.7301 94.5985 66.511 94.1246Z" fill="#CFD8DC"/>
<path d="M117.8 32.0728L105.438 42.4526C104.405 43.3199 103.633 44.4248 103.171 45.6431C103.077 45.5387 102.996 45.4225 102.899 45.3254C100.557 42.9467 96.9672 42.3038 93.9517 43.7246L82.8801 48.9284C82.7586 48.4422 82.592 47.9636 82.3626 47.4941L81.3636 45.4153C80.4636 43.5357 78.8545 42.0857 76.8871 41.3972C74.9226 40.7014 72.7592 40.8128 70.8784 41.7097L56.3322 48.6429C53.2877 50.0945 51.6177 53.2495 51.9003 56.4211L44.8899 59.6705C43.0002 60.5471 41.5369 62.1223 40.822 64.0927C40.726 64.3585 40.6475 64.6228 40.5837 64.8928C39.909 65.041 39.2452 65.2692 38.6053 65.6081C38.6025 65.6154 37.8237 65.8997 37.1584 65.9165C36.7848 65.9216 36.493 65.9334 35.8694 64.7694C33.8268 60.9401 29.0699 59.4847 25.2413 61.5135C21.4534 63.5246 19.9906 68.1944 21.9323 72.0009C22.8531 73.9562 22.0316 74.3923 21.1591 74.8506C17.3276 76.8868 15.8755 81.6366 17.9108 85.4631C19.9282 89.2488 24.6049 90.7149 28.4137 88.7794C30.2656 87.9133 30.7547 88.6029 31.1979 89.4094C29.0241 91.8691 26.9988 94.4882 25.1407 97.2406L20.1328 104.658C18.5796 106.956 18.3571 109.887 19.5429 112.394C20.4859 114.4 22.2236 115.867 24.2973 116.521C24.1682 117.28 24.1501 118.057 24.2443 118.827C22.1517 121.209 21.6398 124.726 23.2198 127.691C24.1332 129.407 25.6038 130.651 27.2864 131.312C28.5009 131.789 29.8329 131.967 31.1583 131.796C31.8482 132.404 32.6277 132.871 33.469 133.201C35.5321 134.012 37.922 133.947 40.0333 132.829C41.7535 131.911 42.9942 130.451 43.6542 128.771C44.1305 127.558 44.3069 126.228 44.1345 124.904C45.7825 123.03 46.4292 120.46 45.8756 117.999C47.4147 117.929 48.9461 117.814 50.4656 117.644C50.7383 117.616 51.0094 117.571 51.2687 117.513C51.7714 117.609 52.2941 117.654 52.8296 117.645L53.1865 118.628C54.5888 122.518 58.7445 124.623 62.6729 123.544C64.5792 126.645 68.4605 128.094 72.0184 126.819L87.7407 121.191C89.706 120.487 91.3044 119.041 92.1892 117.154C92.2596 116.996 92.3301 116.838 92.3932 116.678C93.0876 114.91 93.1152 112.948 92.4698 111.151L92.1129 110.168C93.8199 110.552 95.6019 110.358 97.186 109.614L119.988 98.9262C121.843 98.0528 123.239 96.5188 123.957 94.6927C124.336 93.7285 124.512 92.6765 124.479 91.601C125.841 92.153 127.357 92.3354 128.847 92.0689L144.738 89.1715C146.786 88.7955 148.603 87.6293 149.785 85.9099C150.132 85.4138 150.412 84.8744 150.63 84.3192C151.161 82.9679 151.313 81.4847 151.045 80.0388L150.625 77.7745C149.842 73.5125 145.744 70.6802 141.475 71.4652L137.9 72.1181C137.648 71.7493 137.352 71.4055 137.033 71.0779C135.516 69.5458 133.45 68.7427 131.335 68.7721L132.697 67.5196C133.593 66.6997 134.255 65.7033 134.68 64.6223C135.452 62.6574 135.422 60.4113 134.476 58.4125C133.018 55.3101 129.712 53.5141 126.316 53.9677L125.968 54.0163C126.693 52.6654 127.025 51.1097 126.873 49.5407C126.832 49.0861 126.746 48.6391 126.626 48.2127L129.411 45.8749C130.421 45.0238 131.191 43.9437 131.665 42.7385C131.937 42.0446 132.11 41.3031 132.18 40.5462C132.36 38.4753 131.701 36.4121 130.361 34.8149L128.875 33.0508C126.08 29.7185 121.123 29.2889 117.8 32.0728ZM62.0845 91.6774L62.0931 91.6555C62.1763 91.4437 62.3661 91.24 62.5727 91.1441C62.7894 91.0438 63.0666 91.0261 63.2934 91.1152C63.5157 91.1941 63.7198 91.3839 63.8205 91.6006C63.9212 91.8172 63.9318 92.0911 63.8531 92.3132L62.0845 91.6774ZM62.1215 92.4002C62.0223 92.2011 62.0089 91.9344 62.0746 91.7241L63.8272 92.3789C63.7424 92.5732 63.5584 92.7623 63.3722 92.8494C62.8951 93.0751 62.3406 92.8742 62.1215 92.4002Z" fill="white"/>
<path d="M49.6658 107.018C45.2532 107.502 40.7281 107.521 36.2043 107.084L31.844 106.661L34.2901 103.035C36.8866 99.1988 39.8455 95.6648 43.1093 92.5372L40.9329 90.2741C37.514 93.56 34.4044 97.2625 31.6939 101.282L26.29 109.277L35.9043 110.212C40.6457 110.675 45.3926 110.651 50.0152 110.148L49.6658 107.018Z" fill="#2576B9"/>
<path d="M79.2908 71.9532C81.0372 73.6342 82.5999 75.5465 83.9362 77.6481L86.5822 75.9641C85.3079 73.9628 83.8435 72.1228 82.2256 70.4586L90.302 66.6667L98.5821 49.8017L74.5594 61.0813L68.4228 73.5861L58.0757 78.4505C54.3357 80.2107 50.7326 82.3534 47.3885 84.8255L49.2574 87.3556C52.4432 85.0068 55.8617 82.9686 59.4228 81.2984L79.2908 71.9532ZM76.8971 63.4499L91.8105 56.4417L87.9598 64.288L73.0464 71.2962L76.8971 63.4499Z" fill="#2576B9"/>
<path d="M52.6857 109.713L54.2509 109.62L55.8234 109.53C55.7904 108.969 54.8937 95.6654 44.9036 86.3786L42.7681 88.6763C51.8111 97.0851 52.6746 109.591 52.6857 109.713Z" fill="#2576B9"/>
<path d="M56.719 94.9746C57.5526 96.7438 59.0326 98.0925 60.8772 98.7496C62.7189 99.4141 64.7146 99.3212 66.485 98.4905C68.2451 97.6642 69.5225 96.2183 70.1824 94.5383C70.894 92.7268 70.8887 90.6337 69.9945 88.7395C69.161 86.9703 67.678 85.6289 65.8363 84.9645C63.9946 84.3 61.9989 84.3929 60.2286 85.2236C58.4582 86.0543 57.1153 87.5166 56.4536 89.373C55.7831 91.209 55.8782 93.2025 56.719 94.9746ZM61.564 88.0584C63.6558 87.0758 66.1572 87.9741 67.1432 90.0646C68.1292 92.1551 67.2325 94.6527 65.1407 95.6353C64.1253 96.1133 62.9903 96.165 61.9327 95.7832C60.8824 95.4044 60.0338 94.641 59.5541 93.6263C59.0745 92.6116 59.0216 91.4778 59.4026 90.4218C59.7824 89.3906 60.5486 88.5364 61.564 88.0584Z" fill="#2576B9"/>
<path d="M74.5008 84.8713L75.8413 87.7129L101.56 75.6291L100.219 72.7876L74.5008 84.8713Z" fill="#2576B9"/>
<path d="M110.135 48.4039L114.458 50.6417L107.909 55.8767L109.869 58.3246L120.203 50.0742L115.766 47.7832L125.002 40.0287L122.975 37.622L110.135 48.4039Z" fill="#2576B9"/>
<path d="M132.389 75.9145L119.44 78.6102L120.084 81.6792L128.295 79.9724L127.274 84.7228L143.775 81.7112L143.212 78.6315L131.336 80.7875L132.389 75.9145Z" fill="#2576B9"/>
<path d="M96.7194 66.1521L96.6481 66.1831C92.9285 67.9344 90.0302 71.1634 88.708 75.0453L91.686 76.0633C92.7276 72.9818 95.0364 70.415 97.9981 69.0237L98.0694 68.9926C99.3932 68.3744 100.799 67.9568 102.252 67.7606L119.561 65.4455L106.651 77.3298C105.579 78.3168 104.365 79.1298 103.048 79.7509C100.097 81.1378 96.6477 81.2754 93.5899 80.1164L92.4788 83.0525C96.325 84.5044 100.664 84.337 104.381 82.593C105.985 81.8405 107.465 80.8453 108.775 79.6397L129.015 61.0059L101.827 64.6509C100.063 64.8854 98.3443 65.3907 96.7194 66.1521Z" fill="#2576B9"/>
<path d="M91.9046 90.9635C91.6541 88.656 91.1542 86.3602 90.4254 84.1093L87.436 85.0767C88.2035 87.4439 88.6824 89.8579 88.8723 92.2765L68.9999 101.611C65.4388 103.282 61.6887 104.616 57.8441 105.568L58.6059 108.616C62.6473 107.615 66.5925 106.214 70.3398 104.456L80.6869 99.592L94.2597 102.833L118.278 91.5429L99.9766 87.1615L91.9046 90.9635ZM93.912 99.5259L85.3979 97.4882L100.319 90.4829L108.833 92.5206L93.912 99.5259Z" fill="#2576B9"/>
<path d="M48.4212 66.2648L49.7469 69.113L70.9158 59.2999L69.5901 56.4517L48.4212 66.2648Z" fill="#2576B9"/>
<path d="M59.9217 55.2012L61.278 58.0352L75.8254 51.1005L74.4691 48.2666L59.9217 55.2012Z" fill="#2576B9"/>
<path d="M60.029 113.301L61.0922 116.257L76.8147 110.629L75.7515 107.673L60.029 113.301Z" fill="#2576B9"/>
<path d="M68.8082 116.75L69.8714 119.706L85.5939 114.078L84.5307 111.122L68.8082 116.75Z" fill="#2576B9"/>
<path d="M29.3191 68.3093C29.3191 68.3093 33.9586 77.0288 25.2341 81.6537C25.2341 81.6537 33.9586 77.0288 38.5981 85.7483C38.5981 85.7483 33.9586 77.0288 42.6832 72.4039C42.6832 72.4039 33.9586 77.0288 29.3191 68.3093Z" fill="#2576B9"/>
<path d="M32.4204 117.705C32.4204 117.705 34.5694 121.737 30.5285 123.876C30.5285 123.876 34.5621 121.734 36.7082 125.772C36.7082 125.772 34.5592 121.741 38.6002 119.602C38.5928 119.599 34.5621 121.734 32.4204 117.705Z" fill="#2576B9"/>
</g>
<defs>
<clipPath id="clip0_2263_3273">
<rect width="129.582" height="131.656" fill="white" transform="translate(0 120.61) rotate(-68.554)"/>
</clipPath>
</defs>
</svg>
