<svg width="81" height="58" viewBox="0 0 81 58" fill="none" xmlns="http://www.w3.org/2000/svg">
<path d="M0.434669 31.5901L33.2758 0.390547C33.5736 0.111624 33.9761 -0.0318219 34.3866 0.00802424L79.7121 4.07233C80.2675 4.12014 80.7344 4.48673 80.9195 5.00473C81.1046 5.52273 80.9597 6.09651 80.5653 6.47903L66.2859 20.0426C66.3664 20.1542 66.4388 20.2738 66.4871 20.4092L72.5724 37.5988C72.9105 38.5472 75.2126 47.0743 53.1414 54.7327C31.0703 62.3911 27.4964 54.3023 27.1583 53.354L21.073 36.1644C21.0247 36.0289 21.0086 35.8934 21.0006 35.758L11.6312 34.9212L16.1791 47.7676C16.9196 47.5126 17.7245 47.8951 17.9821 48.6283C18.2397 49.3614 17.8533 50.1583 17.1128 50.4134L17.4267 51.2979C18.1672 51.0429 18.9722 51.4254 19.2298 52.1586C19.4873 52.8918 19.101 53.6887 18.3604 53.9437L18.6744 54.8283C18.9319 55.5615 18.5456 56.3584 17.805 56.6134C17.0645 56.8684 16.2596 56.4859 16.002 55.7527L15.6881 54.8682C14.9475 55.1232 14.1426 54.7406 13.885 54.0075C13.6274 53.2743 14.0138 52.4774 14.7543 52.2224L14.4404 51.3378C13.6999 51.5928 12.895 51.2103 12.6374 50.4771C12.3798 49.7439 12.7662 48.947 13.5067 48.692L8.53225 34.6423L1.28789 33.9888C0.732491 33.941 0.265633 33.5744 0.0804977 33.0564C-0.104637 32.5384 0.0322037 31.9646 0.434669 31.5901ZM29.8146 52.3977C29.8387 52.4614 32.7848 58.8289 52.1996 52.0949C71.6145 45.3529 69.9 38.5631 69.892 38.5312L64.0884 22.1306L47.7162 37.6785C47.5713 37.822 47.3942 37.9256 47.201 37.9893C47.0159 38.0531 46.8066 38.077 46.6054 38.0611L24.011 36.0369L29.8146 52.3977ZM46.2271 35.2081L76.3636 6.58263L34.7729 2.85304L4.63639 31.4785L46.2271 35.2081Z" fill="#BCDAF2"/>
</svg>
