<svg width="76" height="68" viewBox="0 0 76 68" fill="none" xmlns="http://www.w3.org/2000/svg">
<g clip-path="url(#clip0_2790_6182)">
<path d="M75.192 23.7211L69.1774 22.0974L71.2952 14.3737C71.4516 13.7915 71.1062 13.1899 70.5197 13.0346C54.4635 8.70052 47.3672 11.6179 44.5456 13.7785C43.3597 10.4988 38.896 4.48933 22.4162 0.0388015C21.8297 -0.11645 21.2237 0.226397 21.0673 0.808588L18.9495 8.53233L12.9349 6.90866C12.3484 6.75341 11.7424 7.09626 11.586 7.67845L0.0390759 49.8097C-0.117316 50.3919 0.22805 50.9935 0.81452 51.1488L24.5144 57.5529C25.1009 57.7081 25.7069 57.3653 25.8633 56.7831C26.0197 56.2009 25.6743 55.5993 25.0879 55.444L2.45012 49.331L13.4236 9.30212L18.376 10.6412L9.70932 42.2412C9.55292 42.8234 9.89829 43.425 10.4848 43.5803C31.5195 49.2599 31.0829 57.0548 31.0699 57.2165C30.9982 57.7599 31.3501 58.2644 31.8714 58.4068C31.917 58.4197 31.9626 58.4262 32.0082 58.4326C32.0212 58.4326 32.0408 58.4326 32.0538 58.4326C32.1125 58.4585 32.1646 58.4844 32.2298 58.4973C32.308 58.5167 32.3796 58.5297 32.4578 58.5361C32.4969 58.5555 32.5425 58.5749 32.5816 58.5879C33.0639 58.7173 33.5917 58.5038 33.8393 58.0574C33.8784 57.9863 38.0293 51.0194 58.5883 56.5761C59.1748 56.7313 59.7808 56.3885 59.9372 55.8063L68.5974 24.2062L73.5498 25.5453L62.5763 65.5742L39.2283 59.2671C38.6418 59.1119 38.0358 59.4547 37.8794 60.0369C37.723 60.6191 38.0684 61.2207 38.6549 61.3759L63.0585 67.9676C63.645 68.1229 64.251 67.78 64.4074 67.1978L75.9544 25.0601C76.1238 24.4779 75.7784 23.8763 75.192 23.7211ZM12.1204 41.7625L22.8984 2.43872C42.1476 7.89192 42.7602 15.1758 42.7732 15.8485L32.3601 53.8527C30.6528 50.5472 25.7851 45.6309 12.1204 41.7625ZM58.1061 54.1891C44.4023 50.6765 37.6188 52.6236 34.4388 54.616L44.891 16.476C45.4449 15.745 50.4169 10.1301 68.8841 14.8653L58.1061 54.1891Z" fill="white"/>
<path d="M60.5693 24.3485C55.7732 23.5658 51.5376 23.3912 47.9862 23.831C47.3867 23.9087 46.9566 24.4521 47.0283 25.0472C47.087 25.5 47.4128 25.8558 47.8298 25.9657C47.9667 26.0046 48.11 26.011 48.2534 25.9981C51.5963 25.5841 55.6168 25.7523 60.2043 26.5027C60.8038 26.5997 61.3708 26.1986 61.4685 25.6035C61.5793 25.0084 61.1688 24.4456 60.5693 24.3485Z" fill="white"/>
<path d="M58.2624 32.7774C53.4664 31.9947 49.2307 31.82 45.6793 32.2599C45.0798 32.3375 44.6497 32.8809 44.7214 33.476C44.7801 33.9288 45.1059 34.2846 45.5229 34.3946C45.6598 34.4334 45.8031 34.4399 45.9465 34.4269C49.2894 34.0129 53.31 34.1811 57.8975 34.9315C58.497 35.0285 59.0639 34.6275 59.1616 34.0323C59.2659 33.4372 58.8619 32.8744 58.2624 32.7774Z" fill="white"/>
<path d="M55.9491 41.2062C51.1531 40.4235 46.9175 40.2488 43.3661 40.6887C42.7666 40.7663 42.3365 41.3097 42.4147 41.9048C42.4733 42.3577 42.7992 42.707 43.2162 42.8234C43.3531 42.8622 43.4964 42.8687 43.6398 42.8558C46.9827 42.4418 51.0032 42.6099 55.5907 43.3603C56.1902 43.4574 56.7572 43.0563 56.8549 42.4612C56.9592 41.866 56.5486 41.3032 55.9491 41.2062Z" fill="white"/>
<path d="M24.3906 16.8317C28.7305 18.4942 32.2819 20.3701 34.9535 22.4078C35.0708 22.4984 35.2012 22.5631 35.338 22.5954C35.7551 22.7054 36.2177 22.5695 36.4979 22.2073C36.8694 21.7286 36.7781 21.0429 36.2959 20.6742C33.4613 18.5071 29.7209 16.5277 25.1856 14.794C24.6121 14.5741 23.98 14.8587 23.765 15.4215C23.5435 15.9778 23.8302 16.6118 24.3906 16.8317Z" fill="white"/>
<path d="M22.0838 25.2541C26.4236 26.9166 29.975 28.7925 32.6467 30.8302C32.764 30.9207 32.8944 30.9854 33.0312 31.0178C33.4482 31.1277 33.9109 30.9919 34.1911 30.6296C34.5625 30.151 34.4713 29.4653 33.9891 29.0965C31.1545 26.9295 27.4141 24.95 22.8788 23.2164C22.3053 22.9965 21.6732 23.2811 21.4582 23.8439C21.2366 24.4067 21.5168 25.0406 22.0838 25.2541Z" fill="white"/>
<path d="M31.6757 37.5255C28.8411 35.3584 25.1007 33.379 20.5654 31.6454C19.9984 31.4254 19.3598 31.71 19.1448 32.2728C18.9233 32.8356 19.21 33.4696 19.7769 33.683C24.1168 35.3455 27.6682 37.2215 30.3399 39.2591C30.4572 39.3497 30.5875 39.4144 30.7243 39.4467C31.1414 39.5567 31.604 39.4209 31.8842 39.0586C32.2492 38.5799 32.1579 37.8942 31.6757 37.5255Z" fill="white"/>
</g>
<defs>
<clipPath id="clip0_2790_6182">
<rect width="76" height="68" fill="white"/>
</clipPath>
</defs>
</svg>
