<svg width="96" height="96" viewBox="0 0 96 96" fill="none" xmlns="http://www.w3.org/2000/svg">
<path d="M63.6143 48.4236C65.2085 40.5654 60.5321 32.6829 52.9092 30.3933C44.4746 27.8595 35.7109 32.901 33.5244 41.4139C33.5239 41.43 33.5204 41.4396 33.5133 41.4587C32.9963 43.4918 33.046 45.6284 33.5669 47.6584C34.074 49.6233 34.879 52.5382 35.6518 54.6027C37.0881 58.4565 37.3116 62.6564 36.2934 66.636L36.2853 66.6874L48.8779 69.9677L48.889 69.9229C49.9107 65.9337 52.1322 62.3667 55.2426 59.699C56.8557 58.3106 58.8785 56.2645 60.2533 54.8195C61.4055 53.6123 62.3117 52.1932 62.9089 50.6311C63.207 49.8662 63.4841 49.0554 63.6143 48.4236Z" fill="#FFD95C" stroke="#2576B9" stroke-width="3" stroke-miterlimit="10"/>
<path d="M37.5438 61.7472L50.1364 65.0275" stroke="#2576B9" stroke-width="3" stroke-miterlimit="10"/>
<path d="M48.6994 74.3056L34.3477 70.5677" stroke="#2576B9" stroke-width="3" stroke-miterlimit="10"/>
<path d="M47.6935 78.2082L33.3484 74.4673" stroke="#2576B9" stroke-width="3" stroke-miterlimit="10"/>
<path d="M55.8979 13.8171L53.331 23.8317" stroke="#2576B9" stroke-width="3" stroke-miterlimit="10"/>
<path d="M15.9209 37.9485L24.1636 40.0946" stroke="#2576B9" stroke-width="3" stroke-miterlimit="10"/>
<path d="M71.0283 52.3108L79.271 54.4569" stroke="#2576B9" stroke-width="3" stroke-miterlimit="10"/>
<path d="M32.4674 25.2222L27.4875 17.3131" stroke="#2576B9" stroke-width="3" stroke-miterlimit="10"/>
<path d="M71.5343 35.4045L79.147 30.7756" stroke="#2576B9" stroke-width="3" stroke-miterlimit="10"/>
<path d="M53.1406 39.1631L44.0158 44.2762L49.3975 49.4829L39.7406 54.9847" stroke="#2576B9" stroke-width="3" stroke-miterlimit="10"/>
</svg>
