<svg width="101" height="99" viewBox="0 0 101 99" fill="none" xmlns="http://www.w3.org/2000/svg">
<g clip-path="url(#clip0_2355_22631)">
<path opacity="0.75" d="M66.5982 15.0668L64.2286 14.4806C60.8054 13.6393 57.3612 15.1166 55.5076 17.9145C54.9965 18.6911 54.6041 19.569 54.3729 20.5283L52.3967 28.6277C52.3376 28.8277 52.3057 29.0306 52.2715 29.2398C51.3147 29.2425 50.3518 29.3002 49.3931 29.4239L45.2206 22.2988C42.9342 18.3935 37.9378 17.1114 34.0644 19.4314L31.9604 20.6904C30.8988 21.3271 30.0021 22.1896 29.3317 23.2077C28.8252 23.9717 28.442 24.8244 28.2146 25.735C27.6746 27.8466 27.9924 30.0905 29.0897 31.9653L33.2443 39.0622C33.0547 39.3283 32.8613 39.5858 32.6842 39.8564C32.4097 40.2771 32.1539 40.7047 31.9083 41.1432C31.6918 41.0771 31.4752 41.0111 31.258 40.9662L22.8387 39.0934C19.461 38.3405 16.1109 39.8313 14.2929 42.5708C13.7509 43.3932 13.3416 44.3364 13.1146 45.3617L12.5859 47.7709C12.1168 49.9017 12.5022 52.1349 13.664 53.9692C14.8235 55.8098 16.6568 57.1059 18.7653 57.5737L25.7317 59.1219L21.901 61.4221C20.8393 62.0587 19.9489 62.9236 19.2723 63.9394C18.7658 64.7033 18.3825 65.5561 18.1551 66.4666C17.6151 68.5782 17.9329 70.8221 19.0303 72.6969L20.271 74.8182C22.5574 78.7235 27.5538 80.0056 31.4272 77.6855L38.2326 73.605C38.6424 73.3563 39.0154 73.0724 39.3767 72.7628C39.3892 72.7674 39.4056 72.7806 39.418 72.7853C42.1332 74.3802 44.4088 75.59 46.1678 76.3933C47.9042 77.1811 49.2807 78.4294 50.2864 80.1484L50.9083 81.1953C51.339 81.9135 51.8589 82.5432 52.4429 83.0749L53.1878 84.3464C53.2912 84.528 53.414 84.6953 53.5283 84.8665C53.6248 85.067 53.7173 85.2588 53.8309 85.4513L55.0716 87.5725C57.358 91.4778 62.3544 92.76 66.2278 90.4399L78.0755 83.3422C79.1371 82.7056 80.0338 81.8431 80.7042 80.8249C81.2107 80.0609 81.5939 79.2082 81.8213 78.2977C82.3613 76.1861 82.0435 73.9422 80.9462 72.0674L79.7054 69.9461C79.5738 69.7255 79.4377 69.5175 79.2929 69.3134C79.2161 69.156 79.154 68.997 79.06 68.8476L78.2932 67.5393C78.1111 66.7416 77.8108 65.9572 77.3807 65.2178L76.7573 64.156C75.8072 62.5363 75.3843 60.6757 75.5346 58.7773C75.685 56.879 75.7271 54.3678 75.6713 51.3121C75.6725 51.2123 75.6566 51.1205 75.6515 51.0184C76.088 50.8512 76.5151 50.6518 76.9311 50.4054L83.7365 46.3249C84.7982 45.6882 85.6886 44.8234 86.3652 43.8076C86.8717 43.0436 87.255 42.1909 87.4824 41.2803C88.0224 39.1687 87.7046 36.9248 86.6072 35.05L85.3665 32.9288C83.0801 29.0235 78.0837 27.7413 74.2103 30.0614L70.8258 32.0905L72.5525 25.0008C73.0676 22.88 72.7327 20.644 71.6183 18.7772C70.5015 16.9167 68.6968 15.581 66.5982 15.0668Z" fill="#CFD8DC"/>
<path d="M62.8283 15.8289L60.4587 15.2428C57.0355 14.4015 53.5913 15.8787 51.7377 18.6766C51.2266 19.4532 50.8342 20.3311 50.6031 21.2904L48.6268 29.3898C48.5801 29.5944 48.542 29.795 48.5079 30.0042C47.551 30.0069 46.5881 30.0646 45.6294 30.1883L41.4569 23.0632C39.1705 19.1579 34.1742 17.8758 30.3007 20.1959L28.1968 21.4549C27.1351 22.0915 26.2385 22.954 25.5681 23.9721C25.0616 24.7361 24.6783 25.5889 24.4509 26.4994C23.9109 28.611 24.2287 30.8549 25.3261 32.7297L29.4806 39.8267C29.2911 40.0927 29.0976 40.3502 28.9205 40.6209C28.6461 41.0415 28.3903 41.4691 28.1446 41.9076C27.9281 41.8416 27.7116 41.7755 27.4943 41.7306L19.0688 39.8555C15.6911 39.1027 12.341 40.5934 10.523 43.3329C9.98099 44.1553 9.57167 45.0985 9.34472 46.1238L8.816 48.533C8.34686 50.6638 8.7323 52.897 9.89408 54.7313C11.0536 56.5719 12.8869 57.8681 14.9954 58.3358L21.9618 59.884L18.1311 62.1842C17.0694 62.8208 16.179 63.6857 15.5024 64.7015C14.9959 65.4655 14.6126 66.3182 14.3852 67.2287C13.8452 69.3403 14.163 71.5842 15.2604 73.459L16.5011 75.5803C18.7875 79.4856 23.7839 80.7677 27.6573 78.4477L34.4627 74.3671C34.8725 74.1184 35.2455 73.8346 35.6068 73.5249C35.6193 73.5295 35.6357 73.5427 35.6481 73.5474C38.3633 75.1423 40.6389 76.3521 42.3979 77.1554C44.1343 77.9432 45.5108 79.1915 46.5165 80.9106L47.1384 81.9574C47.5691 82.6757 48.089 83.3053 48.673 83.837L49.4179 85.1085C49.5213 85.2901 49.6441 85.4574 49.7584 85.6286C49.8549 85.8291 49.9474 86.0209 50.061 86.2134L51.3017 88.3347C53.5881 92.24 58.5845 93.5221 62.4579 91.202L74.3056 84.1044C75.3672 83.4677 76.2639 82.6052 76.9343 81.5871C77.4408 80.8231 77.824 79.9704 78.0514 79.0598C78.5914 76.9482 78.2736 74.7043 77.1763 72.8295L75.9355 70.7082C75.8039 70.4876 75.6678 70.2796 75.523 70.0755C75.4462 69.9181 75.3841 69.7591 75.2901 69.6097L74.5233 68.3014C74.3412 67.5037 74.0409 66.7193 73.6108 65.9799L72.9874 64.9181C72.0373 63.2984 71.6144 61.4378 71.7648 59.5395C71.9151 57.6411 71.9572 55.1299 71.9014 52.0742C71.9026 51.9744 71.8867 51.8826 71.8816 51.7805C72.3181 51.6133 72.7452 51.4139 73.1612 51.1675L79.9666 47.087C81.0283 46.4504 81.9187 45.5855 82.5953 44.5697C83.1018 43.8057 83.4851 42.953 83.7125 42.0424C84.2525 39.9309 83.9347 37.6869 82.8373 35.8121L81.5966 33.6909C79.3102 29.7856 74.3138 28.5035 70.4404 30.8235L67.0559 32.8527L68.7826 25.7629C69.2977 23.6421 68.9628 21.4061 67.8484 19.5393C66.7293 17.6851 64.9269 16.3432 62.8283 15.8289Z" fill="white"/>
<path d="M60.6341 45.78C56.5578 39.571 48.3525 37.52 41.8601 41.0939C34.6761 45.0482 32.2138 54.1841 36.3284 61.2161C36.3386 61.2271 36.3425 61.2357 36.3504 61.2529C37.3365 62.9289 38.7617 64.2955 40.4265 65.2786C42.0398 66.2282 44.4678 67.602 46.3203 68.44C49.7744 70.0086 52.6585 72.6111 54.5846 75.8959L54.6127 75.935L65.0106 69.7021L64.9887 69.6653C63.0587 66.3719 62.1909 62.5566 62.4922 58.7387C62.6453 56.7555 62.6385 54.0687 62.5984 52.207C62.5673 50.6493 62.2368 49.1165 61.6103 47.6957C61.3072 46.9962 60.9605 46.2805 60.6341 45.78Z" fill="#FFD95C" stroke="#2576B9" stroke-width="3.6769" stroke-miterlimit="10"/>
<path d="M52.2184 71.8608L62.6164 65.6279" stroke="#2576B9" stroke-width="3.6769" stroke-miterlimit="10"/>
<path d="M67.721 72.6624L55.871 79.7664" stroke="#2576B9" stroke-width="3.6769" stroke-miterlimit="10"/>
<path d="M69.6048 75.8886L57.7571 82.9863" stroke="#2576B9" stroke-width="3.6769" stroke-miterlimit="10"/>
<path d="M33.4434 27.8121L38.2871 36.0812" stroke="#2576B9" stroke-width="3.6769" stroke-miterlimit="10"/>
<path d="M22.9502 70.2295L29.7556 66.149" stroke="#2576B9" stroke-width="3.6769" stroke-miterlimit="10"/>
<path d="M68.458 42.9581L75.2634 38.8775" stroke="#2576B9" stroke-width="3.6769" stroke-miterlimit="10"/>
<path d="M25.509 50.879L17.0873 49.0124" stroke="#2576B9" stroke-width="3.6769" stroke-miterlimit="10"/>
<path d="M57.7703 31.5461L59.7466 23.4467" stroke="#2576B9" stroke-width="3.6769" stroke-miterlimit="10"/>
<path d="M48.1558 46.2513L45.5033 55.6745L52.427 55.5033L49.6789 65.5352" stroke="#2576B9" stroke-width="3.6769" stroke-miterlimit="10"/>
</g>
<defs>
<clipPath id="clip0_2355_22631">
<rect width="79.2417" height="76.0587" fill="white" transform="matrix(0.937486 0.348023 -0.344028 0.938959 26.166 0)"/>
</clipPath>
</defs>
</svg>
