<svg width="82" height="53" viewBox="0 0 82 53" fill="none" xmlns="http://www.w3.org/2000/svg">
<path opacity="0.85" d="M78.9066 21.5848L64.2701 19.3132L61.9113 4.67937C61.6913 3.28819 60.6439 2.2492 59.2533 2.03789C57.8891 1.82657 56.5425 2.51335 55.9176 3.74604L49.2286 16.9711L34.592 14.6906C33.219 14.4793 31.8812 15.166 31.2563 16.4075C30.6314 17.649 30.8691 19.1371 31.8548 20.1144L42.3636 30.5659L35.6746 43.7909C35.0409 45.05 35.2697 46.5028 36.2731 47.4978C37.2588 48.4751 38.7462 48.704 39.9784 48.0701L53.154 41.3079L63.6628 51.7593C64.4197 52.5166 65.4846 52.8247 66.4968 52.631C66.796 52.5782 67.0865 52.4726 67.3681 52.3317C68.6003 51.6977 69.278 50.3506 69.058 48.9858L66.6992 34.352L79.8748 27.5898C81.107 26.9559 81.7847 25.6087 81.5646 24.2439C81.3446 22.8616 80.2797 21.7962 78.9066 21.5848Z" fill="#CFD8DC"/>
<path d="M57.3083 3.74609L59.6935 18.556C59.7991 19.1811 60.292 19.6742 60.9169 19.7711L75.7383 22.078C77.1465 22.2981 77.4457 24.1823 76.1872 24.8339L62.8444 31.693C62.2811 31.9835 61.9642 32.6087 62.0611 33.2338L64.4462 48.0437C64.675 49.4525 62.9676 50.3242 61.9642 49.3204L51.3322 38.7369C50.8834 38.2879 50.1969 38.1822 49.6248 38.4728L36.282 45.323C35.0146 45.9746 33.6592 44.6186 34.3017 43.3507L41.0699 29.9584C41.3604 29.3949 41.2459 28.6993 40.7971 28.2502L30.1563 17.6843C29.1441 16.6805 30.0155 14.9724 31.4149 15.1925L46.2363 17.4994C46.8612 17.5963 47.4861 17.2793 47.7677 16.707L54.5359 3.31465C55.1872 2.04674 57.0795 2.3373 57.3083 3.74609Z" fill="#EB9CC3" stroke="#2576B9" stroke-width="3.9123" stroke-miterlimit="10"/>
<path d="M13.4769 27.7987C13.4769 27.7987 13.4769 39.2803 2 39.2803C2 39.2803 13.4769 39.2803 13.4769 50.762C13.4769 50.762 13.4769 39.2803 24.9538 39.2803C24.9626 39.2803 13.4857 39.2803 13.4769 27.7987Z" stroke="#2576B9" stroke-width="2.9625" stroke-miterlimit="10" stroke-linecap="round" stroke-linejoin="round"/>
</svg>
