<svg width="52" height="52" viewBox="0 0 52 52" fill="none" xmlns="http://www.w3.org/2000/svg">
<path d="M34.6568 0C25.0978 0 17.3196 7.77818 17.3196 17.3432C17.3196 21.6598 18.9118 25.6108 21.5301 28.6478L16.1756 34.0023L14.4713 32.298L0 46.7693L5.23066 52L19.702 37.5287L17.9977 35.8245L23.3522 30.4699C26.3892 33.0882 30.3402 34.6804 34.6568 34.6804C44.2218 34.6804 52 26.9022 52 17.3373C52 7.77228 44.2218 0 34.6568 0ZM5.23066 48.3497L3.65026 46.7693L14.4713 35.9483L16.0517 37.5287L5.23066 48.3497ZM34.6568 32.1034C26.5189 32.1034 19.8966 25.4811 19.8966 17.3432C19.8966 9.20526 26.5189 2.5829 34.6568 2.5829C42.7947 2.5829 49.4171 9.20526 49.4171 17.3432C49.4171 25.4811 42.8006 32.1034 34.6568 32.1034Z" fill="white"/>
<path d="M44.6051 15.7392C44.6051 22.108 39.4216 27.2915 33.0529 27.2915V29.8744C40.8428 29.8744 47.1821 23.5351 47.1821 15.7451H44.6051V15.7392Z" fill="white"/>
</svg>
