<svg width="57" height="50" viewBox="0 0 57 50" fill="none" xmlns="http://www.w3.org/2000/svg">
<path d="M35.0277 41.3341C32.0881 42.3685 28.8314 42.742 25.5459 42.2248C14.8249 40.6158 7.44696 30.6171 9.06088 19.9288C10.6748 9.24045 20.7042 1.88505 31.4252 3.49404C42.1463 5.10304 49.5242 15.1018 47.9103 25.7901C47.4203 29.123 46.0658 32.1399 44.1637 34.6683" fill="#FFD95C"/>
<path d="M35.0277 41.3341C32.0881 42.3685 28.8314 42.742 25.5459 42.2248C14.8249 40.6158 7.44696 30.6171 9.06088 19.9288C10.6748 9.24045 20.7042 1.88505 31.4252 3.49404C42.1463 5.10304 49.5242 15.1018 47.9103 25.7901C47.4203 29.123 46.0658 32.1399 44.1637 34.6683" stroke="#2576B9" stroke-width="4" stroke-miterlimit="10"/>
<path d="M39.2929 6.0226C46.325 2.80461 51.8008 1.94265 53.5012 4.24121C56.3543 8.12004 47.4778 19.4979 33.673 29.6403C19.8682 39.7827 6.35162 44.897 3.46961 41.0182C1.79805 38.7484 4.13247 33.8927 9.17598 28.2325" stroke="#2576B9" stroke-width="4" stroke-miterlimit="10"/>
<path d="M35.0565 39.5527C35.6041 35.99 38.9184 33.5477 42.5209 34.0649C46.0945 34.6108 48.5731 37.9437 48.0255 41.5065C47.4779 45.0693 44.1348 47.5115 40.5611 46.9943C36.9586 46.4484 34.5089 43.1155 35.0565 39.5527Z" stroke="#2576B9" stroke-width="4" stroke-miterlimit="10"/>
</svg>
