<svg width="100" height="103" viewBox="0 0 100 103" fill="none" xmlns="http://www.w3.org/2000/svg">
<g clip-path="url(#clip0_3078_3490)">
<path d="M24.268 53.7615C24.268 53.7615 18.8337 64.892 30.0188 70.353C30.0188 70.353 18.8337 64.892 13.3994 76.0224C13.3994 76.0224 18.8337 64.892 7.64864 59.431C7.64006 59.4268 18.8252 64.8878 24.268 53.7615Z" stroke="#2576B9" stroke-width="2.9625" stroke-miterlimit="10" stroke-linecap="round" stroke-linejoin="round"/>
<path opacity="0.85" d="M40.2243 27.7377L55.5639 32.4999L64.789 19.4361C65.6619 18.1922 67.1743 17.6834 68.6296 18.1402C70.0591 18.5845 71.0464 19.891 71.072 21.3833L71.3315 37.3866L86.6752 42.1403C88.1134 42.5887 89.0921 43.8911 89.1135 45.3919C89.1349 46.8928 88.199 48.2222 86.7757 48.7006L71.5875 53.8321L71.8469 69.8353C71.8686 71.3574 70.9579 72.6569 69.5092 73.144C68.0859 73.6224 66.5279 73.1366 65.6271 71.9357L55.9872 59.1111L40.7989 64.2426C39.7028 64.6165 38.5191 64.4085 37.6244 63.7391C37.3577 63.5455 37.1247 63.3049 36.9169 63.0343C36.0161 61.8334 35.9932 60.205 36.8536 58.9867L46.0786 45.9229L36.4386 33.0983C35.5378 31.8974 35.515 30.269 36.3754 29.0507C37.2441 27.8153 38.7862 27.2892 40.2243 27.7377Z" fill="#CFD8DC"/>
<path d="M69.7166 20.7216L60.3825 33.9436C59.9837 34.4994 59.27 34.7428 58.6152 34.5394L43.0787 29.7233C41.6022 29.2667 40.4187 30.9509 41.3369 32.1814L51.094 45.1794C51.5054 45.7291 51.5183 46.4859 51.1281 47.0459L41.794 60.2679C40.9042 61.5247 42.1557 63.1821 43.6086 62.6865L58.9795 57.4857C59.6295 57.2639 60.3485 57.4882 60.7685 58.0421L70.5298 71.0316C71.4566 72.2663 73.4193 71.5967 73.3933 70.0619L73.1358 53.8588C73.1194 53.1743 73.5602 52.5544 74.2102 52.3327L89.5813 47.1531C91.0428 46.6617 91.0021 44.5911 89.5341 44.1387L73.9977 39.3226C73.3428 39.1192 72.8838 38.5145 72.8802 37.8257L72.6228 21.6226C72.5881 20.0835 70.6064 19.4648 69.7166 20.7216Z" fill="#EB9CC3" stroke="#2576B9" stroke-width="3.9123" stroke-miterlimit="10"/>
</g>
<defs>
<clipPath id="clip0_3078_3490">
<rect width="72" height="79" fill="white" transform="matrix(-0.898615 -0.438739 -0.438739 0.898615 99.6802 31.7993)"/>
</clipPath>
</defs>
</svg>
