<svg width="90" height="65" viewBox="0 0 90 65" fill="none" xmlns="http://www.w3.org/2000/svg">
<g clip-path="url(#clip0_2790_6192)">
<path d="M89.5171 35.4026L53.027 0.437627C52.6961 0.125041 52.2489 -0.0357172 51.7927 0.00893796L1.43103 4.56376C0.813919 4.61735 0.295187 5.02817 0.0894831 5.60869C-0.116221 6.18921 0.0447648 6.83224 0.483004 7.26093L16.349 22.4615C16.2596 22.5866 16.1791 22.7205 16.1255 22.8724L9.36405 42.1366C8.98842 43.1994 6.43053 52.7556 30.954 61.3383C55.4775 69.921 59.4485 60.856 59.8242 59.7932L66.5855 40.529C66.6392 40.3772 66.6571 40.2253 66.666 40.0735L77.0765 39.1358L72.0233 53.5326C71.2005 53.2468 70.3061 53.6755 70.0199 54.4971C69.7337 55.3188 70.163 56.2119 70.9858 56.4977L70.637 57.489C69.8142 57.2032 68.9198 57.6319 68.6336 58.4536C68.3475 59.2752 68.7767 60.1683 69.5996 60.4541L69.2508 61.4455C68.9646 62.2671 69.3939 63.1602 70.2167 63.446C71.0395 63.7318 71.9339 63.3031 72.2201 62.4815L72.5689 61.4901C73.3917 61.7759 74.286 61.3472 74.5722 60.5256C74.8584 59.7039 74.4291 58.8108 73.6063 58.525L73.9551 57.5337C74.7779 57.8195 75.6723 57.3908 75.9585 56.5691C76.2447 55.7475 75.8154 54.8544 74.9926 54.5686L80.5198 38.8232L88.5691 38.0908C89.1862 38.0373 89.7049 37.6264 89.9106 37.0459C90.1163 36.4654 89.9643 35.8224 89.5171 35.4026ZM56.8727 58.7215C56.8459 58.793 53.5725 65.9288 32.0004 58.3821C10.4283 50.8265 12.3333 43.2172 12.3423 43.1815L18.7907 24.8015L36.9821 42.2259C37.143 42.3867 37.3398 42.5028 37.5545 42.5742C37.7602 42.6457 37.9927 42.6724 38.2163 42.6546L63.3211 40.3861L56.8727 58.7215ZM38.6366 39.4573L5.15159 7.37704L51.3634 3.19731L84.8485 35.2776L38.6366 39.4573Z" fill="white"/>
</g>
<defs>
<clipPath id="clip0_2790_6192">
<rect width="90" height="65" fill="white"/>
</clipPath>
</defs>
</svg>
