<svg width="20" height="207" viewBox="0 0 20 207" fill="none" xmlns="http://www.w3.org/2000/svg">
<path d="M13.987 85.2149L12.0371 84.7699L13.987 85.2149ZM17.216 205.424C16.9823 204.345 15.9177 203.659 14.8381 203.893C13.7586 204.127 13.0729 205.191 13.3066 206.271L17.216 205.424ZM11.4095 196.279C11.5925 197.368 12.6238 198.103 13.7132 197.92C14.8025 197.737 15.5372 196.706 15.3543 195.617L11.4095 196.279ZM15.1905 194.631C15.0115 193.541 13.9828 192.802 12.8928 192.981C11.8029 193.16 11.0644 194.189 11.2434 195.279L15.1905 194.631ZM9.76302 185.236C9.90719 186.331 10.9118 187.102 12.007 186.958C13.1021 186.814 13.873 185.809 13.7288 184.714L9.76302 185.236ZM13.6 183.724C13.459 182.628 12.4566 181.855 11.361 181.996C10.2655 182.137 9.49169 183.139 9.63268 184.235L13.6 183.724ZM8.48065 174.16C8.59093 175.259 9.57128 176.061 10.6703 175.95C11.7694 175.84 12.5709 174.86 12.4607 173.761L8.48065 174.16ZM12.3628 172.772C12.2555 171.673 11.2773 170.868 10.178 170.976C9.07864 171.083 8.27443 172.061 8.38173 173.161L12.3628 172.772ZM7.53395 163.057C7.61133 164.159 8.56729 164.989 9.66915 164.912C10.771 164.834 11.6015 163.878 11.5241 162.776L7.53395 163.057ZM11.4555 161.78C11.3811 160.678 10.4274 159.845 9.32535 159.919C8.22329 159.994 7.39019 160.947 7.46458 162.049L11.4555 161.78ZM6.92202 151.933C6.96573 153.036 7.89589 153.896 8.99959 153.852C10.1033 153.808 10.9626 152.878 10.9189 151.774L6.92202 151.933ZM10.8805 150.769C10.84 149.665 9.91227 148.803 8.80844 148.844C7.70462 148.884 6.84266 149.812 6.8832 150.916L10.8805 150.769ZM6.65895 140.784C6.66693 141.889 7.5688 142.778 8.67335 142.77C9.77789 142.762 10.6668 141.86 10.6588 140.755L6.65895 140.784ZM10.6531 139.755C10.6486 138.65 9.74941 137.758 8.64485 137.763C7.54029 137.768 6.64859 138.667 6.65318 139.771L10.6531 139.755ZM6.77144 129.628C6.74059 130.732 7.61066 131.652 8.71479 131.683C9.81893 131.714 10.739 130.844 10.7699 129.74L6.77144 129.628ZM10.7996 128.738C10.8341 127.634 9.96719 126.711 8.86316 126.676C7.75913 126.642 6.83611 127.509 6.80153 128.613L10.7996 128.738ZM7.2968 118.477C7.22289 119.579 8.05641 120.533 9.1585 120.607C10.2606 120.681 11.2139 119.847 11.2878 118.745L7.2968 118.477ZM11.3566 117.747C11.4347 116.645 10.6048 115.689 9.50299 115.611C8.40118 115.533 7.4447 116.363 7.36663 117.464L11.3566 117.747ZM8.28482 107.348C8.16236 108.445 8.95301 109.435 10.0508 109.557C11.1485 109.68 12.1377 108.889 12.2602 107.791L8.28482 107.348ZM12.3731 106.799C12.5003 105.701 11.7139 104.709 10.6167 104.582C9.51944 104.454 8.52686 105.241 8.39967 106.338L12.3731 106.799ZM9.80015 96.2637C9.6221 97.3538 10.3615 98.3819 11.4516 98.5599C12.5417 98.738 13.5698 97.9986 13.7478 96.9085L9.80015 96.2637ZM13.9112 95.9241C14.0947 94.8348 13.3605 93.8031 12.2712 93.6196C11.182 93.436 10.1503 94.1703 9.96675 95.2595L13.9112 95.9241ZM11.9248 85.2656C11.6823 86.3432 12.3592 87.4134 13.4368 87.656C14.5144 87.8985 15.5846 87.2216 15.8272 86.144L11.9248 85.2656ZM16.0492 85.164C16.2915 84.0863 15.6144 83.0162 14.5367 82.7739C13.459 82.5316 12.389 83.2088 12.1467 84.2865L16.0492 85.164ZM13.9861 74.6667C13.8147 75.7579 14.5604 76.7814 15.6516 76.9528C16.7428 77.1241 17.7663 76.3784 17.9376 75.2872L13.9861 74.6667ZM18.0898 74.2965C18.2537 73.2041 17.501 72.1857 16.4087 72.0218C15.3164 71.8579 14.298 72.6105 14.134 73.7029L18.0898 74.2965ZM15.2424 63.9926C15.1571 65.0939 15.9806 66.0559 17.0819 66.1412C18.1832 66.2266 19.1451 65.403 19.2305 64.3018L15.2424 63.9926ZM19.3047 63.2956C19.3818 62.1937 18.551 61.238 17.4491 61.1609C16.3473 61.0838 15.3915 61.9145 15.3144 63.0164L19.3047 63.2956ZM15.6189 53.2637C15.6283 54.3682 16.5314 55.256 17.6359 55.2465C18.7404 55.2371 19.6282 54.3341 19.6188 53.2295L15.6189 53.2637ZM19.606 52.2207C19.5875 51.1163 18.6772 50.236 17.5728 50.2545C16.4684 50.273 15.5881 51.1833 15.6066 52.2877L19.606 52.2207ZM15.0309 42.5622C15.1442 43.6609 16.1268 44.4597 17.2255 44.3464C18.3242 44.2331 19.1231 43.2505 19.0097 42.1518L15.0309 42.5622ZM18.9027 41.1573C18.7795 40.0596 17.7898 39.2696 16.6922 39.3927C15.5945 39.5159 14.8045 40.5055 14.9276 41.6032L18.9027 41.1573ZM13.3903 31.9915C13.6175 33.0725 14.6779 33.7646 15.7588 33.5375C16.8398 33.3104 17.532 32.25 17.3049 31.169L13.3903 31.9915ZM17.0921 30.1811C16.8541 29.1025 15.7868 28.421 14.7081 28.659C13.6295 28.897 12.9481 29.9643 13.1861 31.0429L17.0921 30.1811ZM10.598 21.6954C10.9514 22.742 12.0862 23.3039 13.1327 22.9506C14.1793 22.5972 14.7412 21.4624 14.3879 20.4159L10.598 21.6954ZM14.061 19.4662C13.6955 18.4239 12.5542 17.8752 11.5119 18.2407C10.4696 18.6062 9.92089 19.7475 10.2864 20.7898L14.061 19.4662ZM6.51553 11.9021C7.017 12.8862 8.22136 13.2775 9.20553 12.7761C10.1897 12.2746 10.581 11.0703 10.0795 10.0861L6.51553 11.9021ZM9.61024 9.18252C9.09338 8.20634 7.88303 7.83399 6.90685 8.35085C5.93067 8.86771 5.55832 10.0781 6.07518 11.0542L9.61024 9.18252ZM0.856974 3.18086C1.58302 4.01328 2.84641 4.09952 3.67883 3.37347C4.51126 2.64742 4.5975 1.38403 3.87145 0.551608L0.856974 3.18086ZM17.3185 205.894C17.2845 205.739 17.2503 205.583 17.216 205.424L13.3066 206.271C13.3418 206.433 13.3768 206.594 13.4118 206.753L17.3185 205.894ZM15.3543 195.617C15.2996 195.291 15.2451 194.963 15.1905 194.631L11.2434 195.279C11.2987 195.616 11.3541 195.949 11.4095 196.279L15.3543 195.617ZM13.7288 184.714C13.6856 184.386 13.6427 184.056 13.6 183.724L9.63268 184.235C9.67588 184.57 9.71933 184.904 9.76302 185.236L13.7288 184.714ZM12.4607 173.761C12.4277 173.432 12.3951 173.103 12.3628 172.772L8.38173 173.161C8.41438 173.495 8.44736 173.828 8.48065 174.16L12.4607 173.761ZM11.5241 162.776C11.5009 162.445 11.478 162.113 11.4555 161.78L7.46458 162.049C7.4873 162.386 7.51043 162.722 7.53395 163.057L11.5241 162.776ZM10.9189 151.774C10.9056 151.44 10.8928 151.105 10.8805 150.769L6.8832 150.916C6.89568 151.255 6.90862 151.594 6.92202 151.933L10.9189 151.774ZM10.6588 140.755C10.6564 140.422 10.6545 140.089 10.6531 139.755L6.65318 139.771C6.65459 140.109 6.65652 140.447 6.65895 140.784L10.6588 140.755ZM10.7699 129.74C10.7792 129.406 10.7891 129.072 10.7996 128.738L6.80153 128.613C6.79092 128.951 6.78089 129.29 6.77144 129.628L10.7699 129.74ZM11.2878 118.745C11.3101 118.412 11.3331 118.08 11.3566 117.747L7.36663 117.464C7.34271 117.802 7.31943 118.14 7.2968 118.477L11.2878 118.745ZM12.2602 107.791C12.2971 107.46 12.3347 107.129 12.3731 106.799L8.39967 106.338C8.36066 106.674 8.32238 107.011 8.28482 107.348L12.2602 107.791ZM13.7478 96.9085C13.8015 96.58 13.8559 96.2519 13.9112 95.9241L9.96675 95.2595C9.9104 95.5939 9.85487 95.9287 9.80015 96.2637L13.7478 96.9085ZM15.8272 86.144C15.8635 85.9824 15.9001 85.821 15.9369 85.6598L12.0371 84.7699C11.9995 84.935 11.962 85.1003 11.9248 85.2656L15.8272 86.144ZM15.9369 85.6598C15.9747 85.4943 16.0121 85.329 16.0492 85.164L12.1467 84.2865C12.1105 84.4474 12.074 84.6086 12.0371 84.7699L15.9369 85.6598ZM17.9376 75.2872C17.9896 74.9561 18.0403 74.6258 18.0898 74.2965L14.134 73.7029C14.086 74.0232 14.0367 74.3445 13.9861 74.6667L17.9376 75.2872ZM19.2305 64.3018C19.2566 63.9652 19.2813 63.6298 19.3047 63.2956L15.3144 63.0164C15.2917 63.3407 15.2677 63.6661 15.2424 63.9926L19.2305 64.3018ZM19.6188 53.2295C19.6159 52.8919 19.6116 52.5556 19.606 52.2207L15.6066 52.2877C15.612 52.6116 15.6161 52.937 15.6189 53.2637L19.6188 53.2295ZM19.0097 42.1518C18.9754 41.8186 18.9397 41.4871 18.9027 41.1573L14.9276 41.6032C14.9633 41.9212 14.9977 42.2408 15.0309 42.5622L19.0097 42.1518ZM17.3049 31.169C17.2352 30.8374 17.1643 30.5081 17.0921 30.1811L13.1861 31.0429C13.2553 31.3569 13.3234 31.6731 13.3903 31.9915L17.3049 31.169ZM14.3879 20.4159C14.2799 20.0962 14.171 19.7797 14.061 19.4662L10.2864 20.7898C10.3912 21.0886 10.4951 21.3905 10.598 21.6954L14.3879 20.4159ZM10.0795 10.0861C9.92349 9.77981 9.76702 9.47862 9.61024 9.18252L6.07518 11.0542C6.22209 11.3317 6.36892 11.6143 6.51553 11.9021L10.0795 10.0861ZM3.87145 0.551608C3.75545 0.418616 3.64002 0.288789 3.52521 0.162162L0.561866 2.8489C0.65901 2.95605 0.757402 3.06669 0.856974 3.18086L3.87145 0.551608Z" fill="#2576B9"/>
</svg>
