<svg width="66" height="89" viewBox="0 0 66 89" fill="none" xmlns="http://www.w3.org/2000/svg">
<g clip-path="url(#clip0_2790_6194)">
<path d="M60.7917 65.1391L55.6662 55.2624C55.3602 54.6784 54.6463 54.4538 54.0661 54.7554L47.0664 58.4327C41.6987 47.6639 44.0319 32.6851 44.0574 32.5375C44.1403 32.0433 43.9044 31.5491 43.4709 31.3053L6.13915 10.0821H6.13277C6.1264 10.0821 6.1264 10.0757 6.12003 10.0757C6.1009 10.0693 6.08815 10.0628 6.06903 10.0564C6.03715 10.0436 6.00528 10.0308 5.9734 10.0179C5.95428 10.0115 5.93515 9.99867 5.91603 9.99225C5.89053 9.98583 5.86503 9.97942 5.83953 9.973C5.83953 9.973 5.83953 9.973 5.83315 9.973C5.78215 9.95375 5.73753 9.94091 5.68653 9.93449H5.68015C5.65465 9.93449 5.62915 9.93449 5.59728 9.93449C5.55265 9.93449 5.50803 9.92808 5.4634 9.93449C5.45703 9.93449 5.45065 9.93449 5.45065 9.93449C5.4124 9.94091 5.37415 9.94733 5.3359 9.95375C5.32315 9.95375 5.3104 9.96016 5.29765 9.96016C5.27853 9.96658 5.2594 9.96658 5.24028 9.973C5.2339 9.973 5.22753 9.97942 5.22115 9.97942C5.1829 9.99225 5.14466 10.0115 5.10641 10.0243C5.08091 10.0372 5.04903 10.0436 5.02353 10.0564C5.01716 10.0564 5.01716 10.0564 5.01078 10.0628C5.01078 10.0628 5.01078 10.0628 5.00441 10.0693C4.97253 10.0885 4.94066 10.1142 4.90878 10.1334C4.88328 10.1527 4.85141 10.1655 4.82591 10.1912C4.79403 10.2169 4.76216 10.249 4.73028 10.281L4.72391 10.2875C4.69841 10.3131 4.67928 10.3324 4.65378 10.3581C4.64741 10.3645 4.64741 10.3645 4.64103 10.3709C4.61553 10.403 4.59641 10.4351 4.57091 10.4736C4.56453 10.48 4.56453 10.4864 4.55816 10.4928C4.54541 10.5121 4.53266 10.5249 4.51991 10.5506V10.557C4.51991 10.5634 4.51353 10.5634 4.51353 10.5698C4.48803 10.6148 4.47528 10.6597 4.45616 10.7046C4.44978 10.7303 4.43066 10.7495 4.42428 10.7752C4.42428 10.7816 4.42428 10.788 4.41791 10.7945C4.40516 10.8265 4.40516 10.8651 4.39879 10.8971C4.39241 10.9292 4.37966 10.9677 4.37966 10.9998V11.0062V11.0127L0.00643444 54.1521C-0.0445653 54.6527 0.223183 55.134 0.675806 55.3522C0.816055 55.4164 14.3437 62.0266 20.0684 72.635L12.0169 76.8706C11.4367 77.1787 11.2136 77.8974 11.5132 78.4814L16.6387 88.3582C16.9447 88.9422 17.6587 89.1668 18.2388 88.8652L60.2881 66.7564C60.8682 66.4483 61.0913 65.7296 60.7917 65.1391ZM2.44805 53.5745L6.33677 15.197L17.6842 37.0683C17.7033 37.1004 17.7225 37.1261 17.7416 37.1518C14.8282 39.3273 13.8274 43.3769 15.555 46.7141C17.4738 50.4106 22.0192 51.8482 25.6912 49.9165C29.3631 47.9848 30.7911 43.409 28.8723 39.7124C27.1383 36.3752 23.2687 34.8863 19.8262 36.0543C19.8134 36.0223 19.8071 35.9902 19.7879 35.9581L8.46601 14.1381L41.5967 32.9867C41.1505 36.4073 39.9073 49.448 44.9627 59.5429L22.1722 71.5247C16.83 61.5902 5.50165 55.1725 2.44805 53.5745ZM19.8326 38.6342C22.3443 37.3122 25.4553 38.2941 26.7685 40.8227C28.0818 43.3512 27.1064 46.483 24.5947 47.8051C22.0829 49.1271 18.972 48.1452 17.6587 45.6166C16.3455 43.0881 17.3208 39.9563 19.8326 38.6342ZM18.1878 86.189L14.1589 78.4301L54.1044 57.4251L58.1334 65.1841L18.1878 86.189Z" fill="white"/>
<path d="M56.3866 30.1565C56.3866 30.1565 57.464 21.6467 49.0044 20.5621C49.0044 20.5621 57.4576 21.6467 58.535 13.1305C58.535 13.1305 57.4576 21.6403 65.9172 22.7249C65.9172 22.7313 57.464 21.6467 56.3866 30.1565Z" stroke="white" stroke-width="2" stroke-miterlimit="10"/>
<path d="M36.8665 9.92167C36.8665 9.92167 35.311 5.05709 30.4788 6.62299C30.4788 6.62299 35.311 5.05709 33.7555 0.192505C33.7555 0.192505 35.311 5.05709 40.1432 3.49118C40.1368 3.49118 35.3046 5.0635 36.8665 9.92167Z" stroke="white" stroke-width="2" stroke-miterlimit="10"/>
</g>
<defs>
<clipPath id="clip0_2790_6194">
<rect width="66" height="89" fill="white"/>
</clipPath>
</defs>
</svg>
