<svg width="54" height="69" viewBox="0 0 54 69" fill="none" xmlns="http://www.w3.org/2000/svg">
<g clip-path="url(#clip0_2790_6153)">
<path d="M53.958 0.979574C53.9371 0.899609 53.9371 0.819644 53.9056 0.749674C53.9056 0.739678 53.9056 0.729683 53.8951 0.719687C53.8427 0.609735 53.7693 0.519774 53.6959 0.439809C53.6749 0.419817 53.6749 0.399826 53.6539 0.379835C53.5491 0.269883 53.4233 0.189917 53.287 0.129944C53.245 0.109952 53.2031 0.109952 53.1716 0.0899609C53.0668 0.0499783 52.9514 0.0199913 52.8361 0.0199913C52.8151 0.00999565 52.7941 0 52.7732 0C52.6788 0 52.5844 0 52.4901 0.0199913C52.3957 0.0399826 52.3118 0.0599739 52.2174 0.0999565L34.927 7.46675C34.8955 7.47675 34.8745 7.50674 34.8431 7.51673C34.7697 7.55671 34.7068 7.60669 34.6334 7.65667C34.5705 7.70665 34.5075 7.76662 34.4551 7.8266C34.4341 7.85658 34.4027 7.86658 34.3817 7.89657L0.220164 56.4255C-0.167798 56.9852 -0.010516 57.7349 0.566183 58.1047L17.2695 68.7901C17.8567 69.1599 18.6431 69.02 19.031 68.4602L26.5072 57.8448L53.2031 19.9313C53.224 19.9013 53.224 19.8714 53.245 19.8414C53.287 19.7714 53.3184 19.7014 53.3394 19.6215C53.3708 19.5415 53.3918 19.4615 53.4023 19.3816C53.4023 19.3516 53.4233 19.3216 53.4233 19.2916L54 1.24946C54 1.23946 53.9895 1.22947 54 1.21947C54 1.1395 53.9685 1.05954 53.958 0.979574ZM10.5064 46.1499L35.7868 10.2455L42.0256 14.2438L16.7557 50.1482L10.5064 46.1499ZM38.0516 8.78618L51.3996 3.09865L50.9487 17.0226L38.0516 8.78618ZM17.626 66.1113L3.03026 56.7653L9.09084 48.1591L16.3887 52.827L23.6866 57.495L17.626 66.1113ZM25.1021 55.4959L18.8633 51.4976L44.1437 15.5932L50.3825 19.5915L25.1021 55.4959Z" fill="white"/>
</g>
<defs>
<clipPath id="clip0_2790_6153">
<rect width="54" height="69" fill="white"/>
</clipPath>
</defs>
</svg>
