<svg width="108" height="97" viewBox="0 0 108 97" fill="none" xmlns="http://www.w3.org/2000/svg">
<path opacity="0.75" d="M77.964 96.9999C76.9686 96.9999 75.9732 96.9255 74.9861 96.7767C69.6525 95.9748 64.9575 93.0315 61.8801 88.8069C59.8976 89.0962 57.8902 89.2368 55.8746 89.2368C53.776 89.2368 51.6607 89.0797 49.587 88.7655C45.1907 88.1041 41.0018 86.7813 37.0783 84.8219C30.2018 87.5915 24.3124 88.997 19.5179 88.997C12.3096 88.997 8.46904 85.8636 6.51973 83.2263C1.22756 76.0749 3.83217 66.0382 14.2589 53.3641C13.6617 49.2965 13.67 45.171 14.2921 41.0703C17.3695 20.7488 35.2368 5.42085 55.8497 5.42085C57.9483 5.42085 60.0635 5.57794 62.1538 5.8921C66.2018 6.5039 70.1004 7.68615 73.7667 9.41405C81.0912 6.37161 87.3455 4.83386 92.3889 4.83386C99.5723 4.83386 103.396 7.96724 105.346 10.5963C110.389 17.4087 108.257 26.8585 99.0165 38.6893C98.5022 39.3507 97.9631 40.0203 97.3907 40.7065C98.0792 44.956 98.0958 49.2799 97.4405 53.5956C96.8266 57.6301 95.6073 61.5902 93.8571 65.2858C93.8902 65.3354 93.9234 65.3768 93.9649 65.4264C97.117 69.6841 98.4193 74.9175 97.623 80.1508C96.1631 89.7576 87.7188 96.9999 77.964 96.9999Z" fill="#CFD8DC"/>
<path d="M74.1068 93.1556C73.1114 93.1556 72.116 93.0812 71.1289 92.9324C65.7953 92.1304 61.1003 89.1872 58.0229 84.9625C56.0404 85.2519 54.0331 85.3924 52.0174 85.3924C49.9188 85.3924 47.8036 85.2353 45.7298 84.9212C41.3335 84.2598 37.1446 82.937 33.2211 80.9776C26.3446 83.7472 20.4552 85.1527 15.6607 85.1527C8.45241 85.1527 4.61186 82.0193 2.66255 79.3819C-2.62961 72.2305 -0.0250053 62.1938 10.4017 49.5197C9.80449 45.4521 9.81278 41.3266 10.4349 37.226C13.5123 16.9044 31.3796 1.57649 51.9925 1.57649C54.0911 1.57649 56.2063 1.73358 58.2966 2.04774C62.3446 2.65954 66.2432 3.84179 69.9096 5.5697C77.234 2.52726 83.4884 0.989502 88.5317 0.989502C95.7151 0.989502 99.539 4.12289 101.488 6.75195C106.532 13.5644 104.4 23.0141 95.1593 34.8449C94.645 35.5063 94.1059 36.176 93.5335 36.8622C94.222 41.1117 94.2386 45.4356 93.5833 49.7512C92.9695 53.7858 91.7501 57.7459 89.9999 61.4415C90.0331 61.4911 90.0662 61.5324 90.1077 61.582C93.2598 65.8398 94.5621 71.0731 93.7658 76.3064C92.3059 85.905 83.8533 93.1556 74.1068 93.1556Z" fill="#2576B9"/>
<path d="M64.3105 74.7191C59.3253 76.4801 53.8423 77.0836 48.2515 76.2403C30.1022 73.5038 17.6018 56.6216 20.3474 38.5323C23.093 20.443 40.0313 7.98387 58.1806 10.7204C76.3299 13.457 88.8304 30.3392 86.0847 48.4285C85.2303 54.0835 82.9824 59.1845 79.7474 63.4505" fill="#FFD95C"/>
<path d="M64.3105 74.7191C59.3253 76.4801 53.8423 77.0836 48.2515 76.2403C30.1022 73.5038 17.6018 56.6216 20.3474 38.5323C23.093 20.443 40.0313 7.98387 58.1806 10.7204C76.3299 13.457 88.8304 30.3392 86.0847 48.4285C85.2304 54.0835 82.9824 59.1845 79.7474 63.4505" stroke="white" stroke-width="3.8992" stroke-miterlimit="10"/>
<path d="M71.5521 14.9451C83.4802 9.51332 92.7207 8.05823 95.6074 11.944C100.452 18.5001 85.4378 37.7386 62.0627 54.9184C38.6875 72.0983 15.8101 80.713 10.9659 74.1652C8.12073 70.3208 12.1106 62.1194 20.6046 52.5291" stroke="white" stroke-width="3.8992" stroke-miterlimit="10"/>
<path d="M75.3096 84.3755C81.43 84.3755 86.3916 79.4304 86.3916 73.3302C86.3916 67.23 81.43 62.2848 75.3096 62.2848C69.1891 62.2848 64.2275 67.23 64.2275 73.3302C64.2275 79.4304 69.1891 84.3755 75.3096 84.3755Z" stroke="white" stroke-width="3.8992" stroke-miterlimit="10"/>
</svg>
