<svg width="81" height="80" viewBox="0 0 81 80" fill="none" xmlns="http://www.w3.org/2000/svg">
<g filter="url(#filter0_d_2895_2600)">
<path d="M69.7372 22.0034C70.9268 23.2597 71.5757 24.912 71.6028 26.6463C71.6163 26.8648 71.6298 27.1106 71.6298 27.3837V58.5714C71.6298 63.228 67.8716 64.9642 63.2482 64.9642H49.4856L49.9208 68.4677C50.0691 69.6609 49.1385 70.7143 47.9361 70.7143H9.34277C8.2382 70.7143 7.34277 69.8196 7.34277 68.7151V63.5714C7.34277 59.2857 10.1999 52.1429 16.6298 47.8571C16.6298 47.7206 16.5817 44.3168 16.5817 44.1802C16.5817 37.1339 21.8946 31.3302 28.681 30.6064V18.4529C28.681 13.7963 32.4392 10 37.0625 10H54.6098C54.7855 10 54.9613 10 55.1505 10.0137C55.2722 10 55.3939 10 55.5155 10C57.3676 10 59.1656 10.7784 60.4363 12.1303L69.7372 22.0034Z" fill="white"/>
</g>
<path d="M43.0571 40H57.3832" stroke="#1E5796" stroke-width="1.5301" stroke-miterlimit="10" stroke-linecap="round"/>
<path d="M43.0571 43.7863H57.3832" stroke="#1E5796" stroke-width="1.5301" stroke-miterlimit="10" stroke-linecap="round"/>
<path d="M43.0571 47.5732H57.3832" stroke="#1E5796" stroke-width="1.5301" stroke-miterlimit="10" stroke-linecap="round"/>
<path d="M40.6672 22.8981C40.6672 25.0901 42.4645 26.8705 44.6773 26.8705C46.8901 26.8705 48.6873 25.0901 48.6873 22.8981C48.6873 20.7061 46.8901 18.9258 44.6773 18.9258C42.4645 18.9361 40.6672 20.7061 40.6672 22.8981Z" fill="#D22329" stroke="#1E5796" stroke-width="1.059" stroke-miterlimit="10"/>
<path d="M41.7163 25.3774L38.4646 31.0272L41.7682 30.0083L42.8383 32.9619L45.6017 26.7872" stroke="#1E5796" stroke-width="1.059" stroke-miterlimit="10"/>
<path d="M47.784 25.5936L51.0357 31.2434L47.7321 30.2349L46.6621 33.1884L44.709 28.8147" stroke="#1E5796" stroke-width="1.059" stroke-miterlimit="10"/>
<path d="M47.3427 58.8133H63.8026C64.7064 58.8133 65.4544 58.0826 65.4544 57.177V26.695C65.4544 25.7997 64.7168 25.0587 63.8026 25.0587H57.9745C57.0707 25.0587 56.3227 24.3178 56.3227 23.4225V17.361C56.3227 16.4657 55.5851 15.7248 54.6709 15.7248H36.1374C35.2336 15.7248 34.4856 16.4657 34.4856 17.361V32.1698" stroke="#1E5796" stroke-width="2.0946" stroke-miterlimit="10" stroke-linecap="round"/>
<path d="M65.4343 26.0465L55.5962 15.7143" stroke="#1E5796" stroke-width="2.0946" stroke-miterlimit="10" stroke-linecap="round"/>
<path d="M36.3428 44.2857C36.3428 48.4673 32.953 51.8571 28.7714 51.8571C24.5898 51.8571 21.2 48.4673 21.2 44.2857C21.2 40.1041 24.5898 36.7143 28.7714 36.7143C32.953 36.7143 36.3428 40.1041 36.3428 44.2857Z" stroke="#1E5796" stroke-width="2"/>
<path d="M25.9143 38.5714C26.0995 40.3175 28.3588 43.9048 35.9143 44.2857" stroke="#1E5796" stroke-width="2"/>
<mask id="path-12-inside-1_2895_2600" fill="white">
<path fill-rule="evenodd" clip-rule="evenodd" d="M11.7876 65.7145C11.7878 59.776 14.8938 54.563 19.5699 51.6112C21.7099 54.1224 24.8957 55.715 28.4536 55.715C32.0117 55.715 35.1978 54.1222 37.3377 51.6107C42.0143 54.5623 45.1207 59.7756 45.1209 65.7145H11.7876Z"/>
</mask>
<path fill-rule="evenodd" clip-rule="evenodd" d="M11.7876 65.7145C11.7878 59.776 14.8938 54.563 19.5699 51.6112C21.7099 54.1224 24.8957 55.715 28.4536 55.715C32.0117 55.715 35.1978 54.1222 37.3377 51.6107C42.0143 54.5623 45.1207 59.7756 45.1209 65.7145H11.7876Z" fill="#D22329"/>
<path d="M19.5699 51.6112L21.0922 50.314L19.968 48.9948L18.5024 49.92L19.5699 51.6112ZM11.7876 65.7145L9.7876 65.7144L9.78753 67.7145H11.7876V65.7145ZM37.3377 51.6107L38.4052 49.9194L36.9394 48.9943L35.8153 50.3136L37.3377 51.6107ZM45.1209 65.7145V67.7145H47.121L47.1209 65.7144L45.1209 65.7145ZM18.5024 49.92C13.2703 53.2227 9.78782 59.0612 9.7876 65.7144L13.7876 65.7146C13.7878 60.4909 16.5174 55.9033 20.6375 53.3025L18.5024 49.92ZM28.4536 53.715C25.5062 53.715 22.8683 52.3983 21.0922 50.314L18.0477 52.9084C20.5514 55.8465 24.2853 57.715 28.4536 57.715V53.715ZM35.8153 50.3136C34.0392 52.3981 31.4012 53.715 28.4536 53.715V57.715C32.6221 57.715 36.3563 55.8462 38.86 52.9078L35.8153 50.3136ZM47.1209 65.7144C47.1207 59.0607 43.6378 53.222 38.4052 49.9194L36.2702 53.302C40.3908 55.9027 43.1207 60.4905 43.1209 65.7146L47.1209 65.7144ZM11.7876 67.7145H45.1209V63.7145H11.7876V67.7145Z" fill="#1E5796" mask="url(#path-12-inside-1_2895_2600)"/>
<defs>
<filter id="filter0_d_2895_2600" x="7.34277" y="10" width="67.2871" height="63.7143" filterUnits="userSpaceOnUse" color-interpolation-filters="sRGB">
<feFlood flood-opacity="0" result="BackgroundImageFix"/>
<feColorMatrix in="SourceAlpha" type="matrix" values="0 0 0 0 0 0 0 0 0 0 0 0 0 0 0 0 0 0 127 0" result="hardAlpha"/>
<feOffset dx="3" dy="3"/>
<feComposite in2="hardAlpha" operator="out"/>
<feColorMatrix type="matrix" values="0 0 0 0 0.811765 0 0 0 0 0.847059 0 0 0 0 0.862745 0 0 0 1 0"/>
<feBlend mode="normal" in2="BackgroundImageFix" result="effect1_dropShadow_2895_2600"/>
<feBlend mode="normal" in="SourceGraphic" in2="effect1_dropShadow_2895_2600" result="shape"/>
</filter>
</defs>
</svg>
