<svg width="81" height="80" viewBox="0 0 81 80" fill="none" xmlns="http://www.w3.org/2000/svg">
<g filter="url(#filter0_d_2895_2583)">
<path d="M68.438 52.9996C68.7937 52.1621 68.9773 51.2557 68.9773 50.3263C68.9773 48.9609 68.5643 47.6529 67.8299 46.54V40.4105C67.8299 37.6491 65.5914 35.4105 62.8299 35.4105H57.5037V29.3639L62.7242 27.6658C65.0877 26.8971 66.6826 24.7056 66.6826 22.2158C66.6826 19.7261 65.0877 17.5346 62.7242 16.7544L39.7769 9.29652C39.2032 9.11294 38.6066 9.02115 37.9985 9.02115C37.3904 9.02115 36.7937 9.11294 36.22 9.29652L13.2727 16.7544C10.9092 17.5346 9.31433 19.7261 9.31433 22.2158C9.31433 24.7056 10.9092 26.8971 13.2727 27.6773L18.4933 29.3639V33.1158C18.4933 34.3832 17.4659 35.4105 16.1985 35.4105C14.9312 35.4105 13.9038 36.4379 13.9038 37.7053V45.7368C13.9038 46.3705 14.4175 46.8842 15.0512 46.8842H15.6248C15.9417 46.8842 16.1985 47.141 16.1985 47.4579C16.1985 47.7747 15.9417 48.0316 15.6248 48.0316H13.3301C11.7459 48.0316 10.4617 49.3158 10.4617 50.9V65.9789C10.4617 68.7403 12.7003 70.9789 15.4617 70.9789H54.8647C59.4886 70.9789 63.2405 67.2614 63.2405 62.7064C63.2405 62.2058 63.6463 61.7999 64.1469 61.7999H66.4261C68.4649 61.7999 69.979 59.9112 69.5353 57.9212L68.438 52.9996Z" fill="white"/>
</g>
<path d="M28.3723 53.7684H55.9676C55.9676 53.7684 57.5031 53.7684 57.5031 58.7639C57.5031 61.9224 57.041 64.0173 57.041 64.0173C57.041 64.0173 56.9813 65.0648 53.7313 65.0648C50.4813 65.0648 28.819 65.242 28.819 65.242C28.819 65.242 32.8299 58.9573 28.3723 53.7684Z" fill="#1E5796"/>
<path d="M21.9352 49.337C21.9352 49.8814 23.0396 50.3263 24.3912 50.3263H51.6054C52.957 50.3263 54.0614 49.8814 54.0614 49.337V45.5788C54.0614 45.0343 52.957 44.5895 51.6054 44.5895H24.3912C23.0396 44.5895 21.9352 45.0343 21.9352 45.5788V49.337Z" fill="#D22329" stroke="#1E5796" stroke-width="2"/>
<path d="M18.4932 41.1474H62.093V49.1789" stroke="#1E5796" stroke-width="2" stroke-miterlimit="10"/>
<path d="M60.9457 50.3263C60.9457 50.9623 61.457 51.4737 62.093 51.4737C62.7291 51.4737 63.2404 50.9623 63.2404 50.3263C63.2404 49.6903 62.7291 49.1789 62.093 49.1789C61.4695 49.1789 60.9457 49.6903 60.9457 50.3263Z" stroke="#1E5796" stroke-width="2" stroke-miterlimit="10"/>
<path d="M62.4712 52.621L63.2404 56.0631H60.9457L61.9713 52.621C61.9584 52.621 62.3943 52.6964 62.4712 52.621Z" stroke="#1E5796" stroke-width="2" stroke-miterlimit="10"/>
<path d="M15.051 65.242H54.8631C56.3153 65.242 57.5035 64.0989 57.5035 62.7017V56.3087C57.5035 54.9115 56.3153 53.7684 54.8631 53.7684H15.051" stroke="#1E5796" stroke-width="2" stroke-miterlimit="10"/>
<path d="M24.23 65.242C25.5803 64.2449 26.5247 61.9184 26.5247 59.2017C26.5247 56.9475 25.8703 54.9533 24.8679 53.7684" stroke="#1E5796" stroke-width="2" stroke-miterlimit="10"/>
<path d="M15.0511 22.2158L37.9984 14.758L60.9457 22.2158L37.9984 29.6737L15.0511 22.2158Z" stroke="#1E5796" stroke-width="2" stroke-linejoin="round"/>
<path d="M24.23 25.0843V35.7053C24.23 36.8098 25.1254 37.7053 26.23 37.7053H49.7667C50.8713 37.7053 51.7667 36.8098 51.7667 35.7053V25.0843" stroke="#1E5796" stroke-width="2"/>
<defs>
<filter id="filter0_d_2895_2583" x="9.31433" y="9.02115" width="63.2986" height="64.9577" filterUnits="userSpaceOnUse" color-interpolation-filters="sRGB">
<feFlood flood-opacity="0" result="BackgroundImageFix"/>
<feColorMatrix in="SourceAlpha" type="matrix" values="0 0 0 0 0 0 0 0 0 0 0 0 0 0 0 0 0 0 127 0" result="hardAlpha"/>
<feOffset dx="3" dy="3"/>
<feComposite in2="hardAlpha" operator="out"/>
<feColorMatrix type="matrix" values="0 0 0 0 0.811765 0 0 0 0 0.847059 0 0 0 0 0.862745 0 0 0 1 0"/>
<feBlend mode="normal" in2="BackgroundImageFix" result="effect1_dropShadow_2895_2583"/>
<feBlend mode="normal" in="SourceGraphic" in2="effect1_dropShadow_2895_2583" result="shape"/>
</filter>
</defs>
</svg>
