<svg width="81" height="80" viewBox="0 0 81 80" fill="none" xmlns="http://www.w3.org/2000/svg">
<g filter="url(#filter0_d_2895_2642)">
<path d="M14.7765 70C12.1387 70 9.70586 68.4381 8.58512 66.0055C7.46438 63.5729 7.84707 60.6842 9.54185 58.6386L23.3324 42.0525C23.4144 41.9558 23.5101 41.8452 23.5921 41.7484C21.3643 37.1873 20.2436 33.0822 20.2436 29.4886C20.2436 24.2916 22.2253 19.4126 25.8199 15.736C29.4282 12.0318 34.2528 10 39.3781 10C44.5035 10 49.3145 12.0318 52.9364 15.736C56.5309 19.4126 58.5127 24.2916 58.5127 29.4886C58.5127 33.0822 57.3783 37.1873 55.1505 41.7484C55.2462 41.8452 55.3282 41.9419 55.4102 42.0387L69.2144 58.6247C70.9229 60.6704 71.2919 63.5729 70.1848 65.9917C69.0641 68.4243 66.6313 69.9862 63.9934 69.9862H14.7765V70Z" fill="white"/>
</g>
<path d="M13.657 63.436L28.0762 46.2931H50.6663L65.0856 63.436H13.657Z" stroke="#1E5796" stroke-width="2" stroke-linejoin="round"/>
<path fill-rule="evenodd" clip-rule="evenodd" d="M20.7998 53.1489C22.1994 51.7427 24.6986 50.552 27.8836 49.7392C28.6165 49.8658 30.2787 50.0439 32.0814 49.9026C32.4205 49.8761 32.731 49.8495 33.0168 49.825C34.7616 49.6757 35.5895 49.6048 36.4174 50.0914C36.8992 50.3745 37.7423 50.3745 38.465 50.3745C39.1876 50.3745 39.7899 50.3745 39.7899 50.6577C39.7899 50.7825 39.8367 50.9165 39.8839 51.0516C40.0508 51.5293 40.2224 52.0206 38.3445 52.1678C37.9188 52.2011 37.4931 52.2286 37.078 52.2554C35.1444 52.3801 33.4416 52.49 33.045 53.1116C32.9053 53.3305 32.8871 53.5018 32.873 53.6347C32.8384 53.9602 32.8283 54.0554 31.1178 54.0554C28.709 54.0554 27.7454 54.2441 28.709 54.8104C29.4798 55.2635 30.3149 55.6284 30.6361 55.7542C31.1178 55.6913 32.6595 55.641 34.9721 55.943C35.6782 56.0352 36.413 56.1049 37.1134 56.1713C39.2804 56.3768 41.1175 56.5511 40.7534 57.2643C40.5211 57.7194 39.6168 58.2622 38.7425 58.7871C37.8035 59.3507 36.8992 59.8935 36.8992 60.2845C36.8992 61.0396 36.4174 62.1721 35.4538 61.9834C34.4903 61.7946 33.5267 61.0396 32.0814 59.5295C31.2275 58.6374 30.2055 58.404 29.5121 58.2457C29.0317 58.136 28.709 58.0624 28.709 57.8306C28.709 57.2643 28.709 56.6981 27.2636 55.943C26.8144 55.7083 26.086 55.4919 25.2665 55.2484C23.6528 54.7689 21.6856 54.1844 20.7998 53.1489Z" fill="#1E5796"/>
<path fill-rule="evenodd" clip-rule="evenodd" d="M54.4598 58.5728C56.2562 57.6893 57.3298 56.5702 57.3298 55.3529C57.3298 53.7832 55.545 52.3769 52.7271 51.4284C51.5074 51.5067 49.6869 51.7397 49.6869 52.2224C49.6869 52.9029 49.6869 53.175 51.4237 53.039C53.1604 52.9029 54.8972 52.9029 54.2025 53.4472C53.8022 53.7609 52.4795 53.6679 51.2973 53.5849C50.4276 53.5237 49.634 53.468 49.3395 53.5833C48.9227 53.7466 48.881 53.91 48.8393 54.0733C48.8115 54.1821 48.7838 54.291 48.6448 54.3999C48.6026 54.433 48.5501 54.4701 48.493 54.5105C48.0801 54.8024 47.4242 55.2661 48.6448 55.6248C49.1899 55.7849 49.8954 55.8194 50.5515 55.8515C51.5678 55.9012 52.4657 55.9451 52.4657 56.4413C52.4657 56.7374 52.3744 56.9797 52.2911 57.2009C52.1446 57.5897 52.0229 57.9129 52.4657 58.3466C52.7587 58.6336 53.5795 58.6559 54.4598 58.5728Z" fill="#1E5796"/>
<path d="M39.3713 33.357C38.1535 33.357 36.9855 32.8678 36.1244 31.9971C35.2632 31.1264 34.7795 29.9455 34.7795 28.7141C34.7795 27.4828 35.2632 26.3018 36.1244 25.4311C36.9855 24.5604 38.1535 24.0713 39.3713 24.0713C40.5891 24.0713 41.7571 24.5604 42.6182 25.4311C43.4794 26.3018 43.9631 27.4828 43.9631 28.7141C43.9631 29.3238 43.8444 29.9276 43.6136 30.4909C43.3828 31.0542 43.0446 31.566 42.6182 31.9971C42.1918 32.4283 41.6856 32.7703 41.1285 33.0036C40.5714 33.2369 39.9743 33.357 39.3713 33.357ZM39.3713 15.7141C35.9614 15.7141 32.6911 17.0838 30.2799 19.5218C27.8687 21.9597 26.5142 25.2663 26.5142 28.7141C26.5142 38.4641 39.3713 52.857 39.3713 52.857C39.3713 52.857 52.2284 38.4641 52.2284 28.7141C52.2284 25.2663 50.8739 21.9597 48.4627 19.5218C46.0515 17.0838 42.7812 15.7141 39.3713 15.7141Z" fill="#D22329" stroke="#1E5796" stroke-width="2"/>
<defs>
<filter id="filter0_d_2895_2642" x="7.94824" y="10" width="65.8667" height="63" filterUnits="userSpaceOnUse" color-interpolation-filters="sRGB">
<feFlood flood-opacity="0" result="BackgroundImageFix"/>
<feColorMatrix in="SourceAlpha" type="matrix" values="0 0 0 0 0 0 0 0 0 0 0 0 0 0 0 0 0 0 127 0" result="hardAlpha"/>
<feOffset dx="3" dy="3"/>
<feComposite in2="hardAlpha" operator="out"/>
<feColorMatrix type="matrix" values="0 0 0 0 0.811765 0 0 0 0 0.847059 0 0 0 0 0.862745 0 0 0 1 0"/>
<feBlend mode="normal" in2="BackgroundImageFix" result="effect1_dropShadow_2895_2642"/>
<feBlend mode="normal" in="SourceGraphic" in2="effect1_dropShadow_2895_2642" result="shape"/>
</filter>
</defs>
</svg>
