<svg width="111" height="81" viewBox="0 0 111 81" fill="none" xmlns="http://www.w3.org/2000/svg">
<g style="mix-blend-mode:multiply" opacity="0.75">
<g style="mix-blend-mode:multiply" opacity="0.75">
<g style="mix-blend-mode:multiply" opacity="0.75">
<path d="M70.8203 64.8037C75.5103 56.3037 75.9903 46.3937 72.0803 38.9437L71.9403 38.6837C70.7965 36.5618 69.2943 34.6537 67.5003 33.0437C67.3153 32.8892 67.1784 32.6848 67.106 32.4549C67.0336 32.2249 67.0287 31.979 67.0919 31.7463C67.155 31.5137 67.2837 31.304 67.4624 31.1423C67.6412 30.9805 67.8626 30.8734 68.1004 30.8337H68.1704L72.6604 30.3537C72.9924 30.3159 73.2961 30.1488 73.5057 29.8887C73.7154 29.6285 73.8141 29.2961 73.7803 28.9637L72.7103 17.8637C72.675 17.5318 72.5103 17.2271 72.2521 17.0157C71.9938 16.8042 71.6627 16.7029 71.3303 16.7337L66.8103 17.1837C65.3058 17.3785 63.8227 17.7133 62.3803 18.1837C62.2085 18.2446 62.0256 18.2678 61.8441 18.2517C61.6625 18.2356 61.4866 18.1807 61.3281 18.0906C61.1697 18.0004 61.0325 17.8773 60.9259 17.7294C60.8193 17.5816 60.7458 17.4125 60.7103 17.2337C60.6403 16.9337 60.5704 16.6337 60.4804 16.3437C60.1905 15.3286 59.788 14.3492 59.2803 13.4237C57.3105 10.0376 54.3897 7.30451 50.8803 5.5637L46.3803 3.38371C46.0981 3.24958 45.7765 3.22328 45.4763 3.30986C45.176 3.39643 44.9178 3.58988 44.7503 3.85368L42.1004 8.09367C41.4304 9.17367 38.4303 14.3837 39.3103 20.3837H38.5103C30.1103 21.0437 21.9804 26.7337 17.2904 35.2237C12.4004 44.0837 11.8803 54.8337 15.9703 62.6337L16.1104 62.8937C17.5885 65.6109 19.6389 67.9749 22.1199 69.8223C24.6009 71.6697 27.4534 72.9565 30.4804 73.5937C30.71 73.6441 30.919 73.7627 31.0803 73.9337C33.1451 76.0557 35.6433 77.7071 38.4046 78.7754C41.1659 79.8436 44.1251 80.3036 47.0803 80.1237C56.6003 79.6537 65.9004 73.6437 70.7904 64.7937" fill="#C1C3C5"/>
</g>
</g>
</g>
<path d="M2.01025 9.23358C2.01025 9.23358 8.29025 14.9236 14.0103 8.64355C14.0103 8.64355 8.32029 14.9236 14.6103 20.6436C14.6103 20.6436 8.32029 14.9536 2.61029 21.2436C2.60029 21.2336 8.29025 14.9536 2.01025 9.23358Z" stroke="#F095C3" stroke-width="3" stroke-linecap="round" stroke-linejoin="round"/>
<path d="M86.6304 22.704C86.6304 22.704 97.9404 22.144 97.3804 10.834C97.3804 10.834 97.9404 22.144 109.25 21.584C109.25 21.584 97.9404 22.144 98.5004 33.454C98.5004 33.454 97.9404 22.144 86.6304 22.704Z" stroke="#F095C3" stroke-width="3" stroke-linecap="round" stroke-linejoin="round"/>
<path d="M68.4302 61.874C73.1202 53.384 73.6002 43.474 69.6902 36.014L69.5502 35.754C68.4088 33.6334 66.9063 31.7282 65.1102 30.124C64.926 29.9674 64.7902 29.7615 64.7189 29.5304C64.6476 29.2993 64.6438 29.0527 64.7079 28.8196C64.772 28.5864 64.9012 28.3764 65.0806 28.2142C65.2599 28.052 65.4818 27.9443 65.7202 27.9039H65.7802L70.2702 27.424C70.4351 27.4065 70.595 27.3567 70.7406 27.2773C70.8862 27.198 71.0148 27.0906 71.1188 26.9615C71.2229 26.8323 71.3004 26.684 71.347 26.5248C71.3936 26.3656 71.4082 26.1988 71.3902 26.0339L70.2702 14.944C70.2348 14.6121 70.0702 14.3074 69.812 14.0959C69.5537 13.8845 69.2226 13.7832 68.8902 13.814L64.3702 14.2739C62.8639 14.4589 61.3799 14.7939 59.9402 15.2739C59.7673 15.3261 59.5853 15.3412 59.4061 15.3181C59.227 15.2949 59.0548 15.2341 58.9009 15.1396C58.7469 15.0452 58.6147 14.9192 58.5129 14.77C58.4111 14.6208 58.342 14.4517 58.3102 14.2739C58.2402 13.9739 58.1702 13.684 58.0802 13.384C57.7921 12.3715 57.3895 11.3952 56.8802 10.4739C54.9119 7.08413 51.991 4.34743 48.4802 2.60394L43.9802 0.433961C43.698 0.299834 43.3764 0.273594 43.0762 0.36017C42.7759 0.446746 42.5177 0.640128 42.3502 0.903932L39.7102 5.15393C39.0402 6.22393 36.0502 11.434 36.9202 17.434H36.1202C27.7202 18.094 19.5902 23.7839 14.9002 32.2839C10.0102 41.1339 9.49021 51.894 13.5802 59.684L13.7202 59.944C15.1967 62.6625 17.2466 65.0274 19.7279 66.875C22.2092 68.7226 25.0626 70.0086 28.0902 70.6439C28.3191 70.7021 28.5269 70.8234 28.6902 70.994C30.7523 73.1281 33.2518 74.7908 36.017 75.8679C38.7823 76.945 41.7479 77.411 44.7102 77.2339C54.2302 76.7739 63.5302 70.7539 68.4202 61.9039" fill="white"/>
<path d="M63.4301 58.5438C56.8801 70.4038 39.8501 75.8738 32.0801 64.5438C16.5901 63.0038 13.9401 46.6639 20.4901 34.8039C27.0401 22.9439 41.4901 17.8039 51.0801 30.1339C66.5701 31.6839 69.9701 46.6639 63.4301 58.5139" fill="#D1232A"/>
<path d="M63.4301 58.5438C56.8801 70.4038 39.8501 75.8738 32.0801 64.5438C16.5901 63.0038 13.9401 46.6639 20.4901 34.8039C27.0401 22.9439 41.4901 17.8039 51.0801 30.1339C66.5701 31.7139 69.9701 46.6938 63.4301 58.5438Z" stroke="#2276BB" stroke-width="2.17" stroke-miterlimit="10"/>
<path d="M51.0801 30.1637C52.6409 27.4083 54.8078 25.0438 57.4168 23.249C60.0258 21.4542 63.0088 20.2761 66.1401 19.8037" stroke="#2276BB" stroke-width="2.17" stroke-miterlimit="10"/>
<path d="M52.1303 13.824C53.3803 18.164 50.4703 22.824 50.4703 22.824C50.4703 22.824 45.5303 20.434 44.2703 16.104C43.0103 11.774 45.9403 7.104 45.9403 7.104C45.9403 7.104 50.8803 9.48404 52.1303 13.824Z" fill="#D1232A"/>
<path d="M52.1303 13.824C53.3803 18.164 50.4703 22.824 50.4703 22.824C50.4703 22.824 45.5303 20.434 44.2703 16.104C43.0103 11.774 45.9403 7.104 45.9403 7.104C45.9403 7.104 50.8803 9.48404 52.1303 13.824Z" stroke="#2276BB" stroke-width="2.17" stroke-miterlimit="10"/>
</svg>
