<svg width="85" height="109" viewBox="0 0 85 109" fill="none" xmlns="http://www.w3.org/2000/svg">
<path d="M62.9669 0.0351562L68.7069 6.11514L76.2668 2.53516L72.2568 9.87515L78.0068 15.9551L69.7869 14.4052L65.7769 21.7451L64.7069 13.4551L56.4868 11.9152L64.0369 8.32516L62.9669 0.0351562Z" fill="#F095C3"/>
<path d="M77.5571 34.5054L79.6371 39.3854L84.9171 38.9154L80.9171 42.3954L82.9971 47.2754L78.4471 44.5454L74.4572 48.0354L75.6371 42.8654L71.0972 40.1454L76.3771 39.6754L77.5571 34.5054Z" fill="#2276BB"/>
<g style="mix-blend-mode:multiply" opacity="0.75">
<g style="mix-blend-mode:multiply" opacity="0.75">
<g style="mix-blend-mode:multiply" opacity="0.75">
<path d="M32.7069 13.6551C40.8268 13.5132 48.6714 16.5986 54.5189 22.2343C60.3664 27.8699 63.7392 35.5954 63.8969 43.7151C63.8969 45.2351 63.9769 47.7751 57.2269 67.7751V67.8851C57.2584 69.4596 56.7224 70.993 55.7169 72.2051C55.0769 74.0751 54.4368 75.9251 53.8068 77.7151C52.7544 80.7521 50.5638 83.2618 47.6968 84.7151C47.6369 85.3904 47.5198 86.0595 47.3469 86.7151L47.5969 86.9451C48.5705 87.8805 49.3499 88.9989 49.8904 90.2361C50.431 91.4733 50.722 92.8051 50.7468 94.1551L50.8168 98.1551C50.8677 100.88 49.8345 103.513 47.9443 105.477C46.0541 107.44 43.4617 108.573 40.7369 108.625L28.2369 108.855C26.5279 108.887 24.8375 108.496 23.3168 107.715C22.4358 107.255 21.6244 106.673 20.9069 105.985C19.9346 105.049 19.1567 103.93 18.6179 102.693C18.079 101.456 17.7898 100.124 17.7668 98.7751L17.6868 94.7751C17.6627 93.3701 17.9272 91.9751 18.4639 90.6765C19.0005 89.3778 19.7979 88.2031 20.8068 87.2251C20.6012 86.5733 20.4572 85.9037 20.3768 85.2251L19.8669 84.9751C17.1913 83.5889 15.1092 81.2795 14.0068 78.4751C13.3168 76.7151 12.6069 74.8851 11.8969 73.0451C10.8462 71.872 10.2533 70.3597 10.2269 68.7851V68.6751C2.73687 48.9451 2.68686 46.4051 2.65686 44.8751C2.51758 36.7549 5.60357 28.9108 11.2384 23.0622C16.8732 17.2137 24.5971 13.838 32.7169 13.6751" fill="#C1C3C5"/>
</g>
</g>
</g>
<path d="M30.707 9.04527C38.8285 8.89533 46.6772 11.9765 52.5278 17.6114C58.3783 23.2463 61.752 30.9739 61.907 39.0953C61.907 40.6253 61.977 43.1653 55.227 63.1553V63.2653C55.2582 64.8445 54.7184 66.382 53.707 67.5953L51.8069 73.1053C50.7411 76.1377 48.5499 78.644 45.687 80.1053C45.636 80.7818 45.5188 81.4516 45.337 82.1053L45.587 82.3253C46.5632 83.2586 47.3444 84.3766 47.8851 85.6143C48.4259 86.852 48.7155 88.1848 48.737 89.5353L48.8069 93.5353C48.8335 94.8853 48.5938 96.2274 48.1015 97.4848C47.6092 98.7422 46.8741 99.8903 45.9381 100.863C45.002 101.837 43.8834 102.616 42.6461 103.157C41.4088 103.698 40.0771 103.989 38.727 104.015L26.227 104.245C24.5203 104.275 22.8329 103.88 21.317 103.095C20.4308 102.644 19.6183 102.06 18.907 101.365C17.9298 100.433 17.148 99.3148 16.6072 98.0769C16.0664 96.8391 15.7774 95.506 15.757 94.1553L15.687 90.1553C15.6588 88.7411 15.9242 87.3365 16.4664 86.0301C17.0086 84.7237 17.8157 83.5439 18.837 82.5653C18.6313 81.9136 18.4874 81.2439 18.407 80.5653L17.837 80.3653C15.1624 78.9856 13.0826 76.6782 11.987 73.8753C11.287 72.1053 10.577 70.2853 9.86701 68.4453C8.81872 67.2668 8.22635 65.7523 8.19696 64.1753V64.0653C0.706964 44.3453 0.656956 41.8053 0.626956 40.2753C0.482217 32.1638 3.55828 24.3255 9.18134 18.4775C14.8044 12.6296 22.516 9.24861 30.627 9.07526" fill="white"/>
<path d="M9.39707 40.445C9.28436 34.4618 11.5531 28.6788 15.7042 24.3683C19.8553 20.0577 25.5488 17.5728 31.5321 17.4601C37.5154 17.3473 43.2983 19.6161 47.6089 23.7672C51.9194 27.9183 54.4044 33.6118 54.5171 39.5951C54.5671 42.7151 47.5171 63.1651 44.8671 70.7851C44.5785 71.6213 44.0402 72.3488 43.3248 72.8692C42.6094 73.3897 41.7516 73.6779 40.8671 73.695L24.3471 74.0051C23.46 74.0238 22.5887 73.7689 21.8516 73.2751C21.1145 72.7813 20.5473 72.0725 20.2271 71.2451C17.2271 63.7351 9.47709 43.555 9.41709 40.445" fill="#B9D7EF"/>
<path d="M9.39707 40.445C9.28436 34.4618 11.5531 28.6788 15.7042 24.3683C19.8553 20.0577 25.5488 17.5728 31.5321 17.4601C37.5154 17.3473 43.2983 19.6161 47.6089 23.7672C51.9194 27.9183 54.4044 33.6118 54.5171 39.5951C54.5671 42.7151 47.5171 63.1651 44.8671 70.7851C44.5785 71.6213 44.0402 72.3488 43.3248 72.8692C42.6094 73.3897 41.7516 73.6779 40.8671 73.695L24.3471 74.0051C23.46 74.0238 22.5887 73.7689 21.8516 73.2751C21.1145 72.7813 20.5473 72.0725 20.2271 71.2451C17.2571 63.7351 9.45707 43.555 9.39707 40.445Z" stroke="#2276BB" stroke-width="2.96" stroke-miterlimit="10"/>
<path d="M47.6169 62.2852L17.207 62.8552" stroke="#2276BB" stroke-width="2.96" stroke-miterlimit="10"/>
<path d="M38.0171 62.4652C38.0171 62.4652 43.3971 48.2652 42.8671 20.0752" stroke="#2276BB" stroke-width="2.96" stroke-miterlimit="10"/>
<path d="M26.7372 62.6851C26.7372 62.6851 20.8371 48.6851 20.3071 20.4951" stroke="#2276BB" stroke-width="2.96" stroke-miterlimit="10"/>
<path d="M38.3373 79.5151L38.2273 73.7451L26.9473 73.9551L27.0573 79.7251C27.0637 80.0818 27.1411 80.4337 27.2848 80.7603C27.4285 81.0868 27.6358 81.3815 27.8945 81.6272C28.1532 81.8729 28.4582 82.0647 28.7917 82.1914C29.1253 82.3181 29.4807 82.3771 29.8373 82.3651L35.7373 82.2551C36.091 82.2499 36.4401 82.1748 36.7646 82.034C37.0891 81.8932 37.3825 81.6896 37.6279 81.4349C37.8733 81.1802 38.0659 80.8794 38.1945 80.5499C38.3231 80.2204 38.3852 79.8687 38.3773 79.5151" fill="#B9D7EF"/>
<path d="M38.3373 79.5151L38.2273 73.7451L26.9473 73.9551L27.0573 79.7251C27.0637 80.0818 27.1411 80.4337 27.2848 80.7603C27.4285 81.0868 27.6358 81.3815 27.8945 81.6272C28.1532 81.8729 28.4582 82.0647 28.7917 82.1914C29.1253 82.3181 29.4807 82.3771 29.8373 82.3651L35.7373 82.2551C36.4446 82.2342 37.115 81.9343 37.6021 81.421C38.0891 80.9077 38.3534 80.2226 38.3373 79.5151V79.5151Z" stroke="#2276BB" stroke-width="2.96" stroke-miterlimit="10"/>
<path d="M26.7671 96.5252L39.2671 96.2952C39.5569 96.29 39.8428 96.2276 40.1084 96.1116C40.374 95.9955 40.614 95.8282 40.8147 95.6191C41.0154 95.4101 41.1729 95.1634 41.278 94.8933C41.3831 94.6232 41.4338 94.3349 41.4271 94.0452L41.3571 90.0452C41.344 89.4599 41.1002 88.9035 40.6788 88.4971C40.2574 88.0907 39.6925 87.8672 39.1071 87.8752L26.6071 88.1052C26.316 88.1104 26.0289 88.1731 25.762 88.2896C25.4952 88.4061 25.254 88.5742 25.0524 88.7842C24.8507 88.9942 24.6926 89.242 24.587 89.5133C24.4814 89.7846 24.4305 90.0741 24.4371 90.3652L24.5171 94.3652C24.5223 94.6554 24.5847 94.9418 24.7006 95.2079C24.8165 95.4741 24.9836 95.7148 25.1926 95.9163C25.4015 96.1178 25.6481 96.2762 25.9183 96.3824C26.1885 96.4886 26.4769 96.5405 26.7671 96.5352" fill="#B9D7EF"/>
<path d="M26.7671 96.5252L39.2671 96.2952C39.5569 96.29 39.8428 96.2276 40.1084 96.1116C40.374 95.9955 40.614 95.8282 40.8147 95.6191C41.0154 95.4101 41.1729 95.1634 41.278 94.8933C41.3831 94.6232 41.4338 94.3349 41.4271 94.0452L41.3571 90.0452C41.344 89.4599 41.1002 88.9035 40.6788 88.4971C40.2574 88.0907 39.6925 87.8672 39.1071 87.8752L26.6071 88.1052C26.316 88.1104 26.0289 88.1731 25.762 88.2896C25.4952 88.4061 25.254 88.5742 25.0524 88.7842C24.8507 88.9942 24.6926 89.242 24.587 89.5133C24.4814 89.7846 24.4305 90.0741 24.4371 90.3652L24.5171 94.3652C24.5302 94.9496 24.7744 95.505 25.1961 95.9098C25.6178 96.3147 26.1827 96.5359 26.7671 96.5252Z" stroke="#2276BB" stroke-width="2.96" stroke-miterlimit="10"/>
</svg>
