<svg width="68" height="66" viewBox="0 0 68 66" fill="none" xmlns="http://www.w3.org/2000/svg">
<path d="M50.7466 42.3751C52.374 43.1701 53.7677 44.3731 54.792 45.8668C55.8163 47.3605 56.4362 49.0941 56.5915 50.8986C56.7467 52.7031 56.432 54.517 55.6778 56.1638C54.9237 57.8105 53.7559 59.2338 52.2883 60.2951C50.8206 61.3564 49.1031 62.0195 47.303 62.2198C45.5029 62.4201 43.6817 62.1507 42.0166 61.438C40.3516 60.7252 38.8995 59.5934 37.8019 58.1527C36.7043 56.712 35.9985 55.0116 35.7533 53.2171C34.2173 55.4885 32.0607 57.2704 29.5404 58.3505C27.0201 59.4306 24.2424 59.7634 21.5384 59.3091C18.8343 58.8549 16.3178 57.6327 14.2888 55.7884C12.2598 53.9441 10.8038 51.5553 10.0944 48.9066C9.38492 46.258 9.45189 43.4613 10.2873 40.8497C11.1228 38.2381 12.6915 35.9217 14.8065 34.1766C16.9214 32.4316 19.4935 31.3314 22.2163 31.0071C24.939 30.6828 27.6976 31.1482 30.1633 32.3477" fill="#FFD75D"/>
<path d="M50.7466 42.3751C52.374 43.1701 53.7677 44.3731 54.792 45.8668C55.8163 47.3605 56.4362 49.0941 56.5915 50.8986C56.7467 52.7031 56.432 54.517 55.6778 56.1638C54.9237 57.8105 53.7559 59.2338 52.2883 60.2951C50.8206 61.3564 49.1031 62.0195 47.303 62.2198C45.5029 62.4201 43.6817 62.1507 42.0166 61.438C40.3516 60.7252 38.8995 59.5934 37.8019 58.1527C36.7043 56.712 35.9985 55.0116 35.7533 53.2171C34.2173 55.4885 32.0607 57.2704 29.5404 58.3505C27.0201 59.4306 24.2424 59.7634 21.5384 59.3091C18.8343 58.8549 16.3178 57.6327 14.2888 55.7884C12.2598 53.9441 10.8038 51.5553 10.0944 48.9066C9.38492 46.258 9.45189 43.4613 10.2873 40.8497C11.1228 38.2381 12.6915 35.9217 14.8065 34.1766C16.9214 32.4316 19.4935 31.3314 22.2163 31.0071C24.939 30.6828 27.6976 31.1482 30.1633 32.3477" stroke="#2276BB" stroke-width="2.76" stroke-miterlimit="10"/>
<path d="M30.1634 32.348C27.6962 31.1459 25.6268 29.2596 24.2018 26.9141C22.7769 24.5686 22.0566 21.8627 22.1267 19.1192C22.1969 16.3756 23.0546 13.7102 24.5975 11.4405C26.1405 9.17088 28.3036 7.39283 30.829 6.31839C33.3543 5.24395 36.1354 4.91846 38.8407 5.38068C41.5459 5.8429 44.0611 7.07333 46.0865 8.92532C48.1118 10.7773 49.5618 13.1727 50.2636 15.8259C50.9654 18.4791 50.8895 21.2781 50.0447 23.8893C51.609 22.9757 53.3832 22.483 55.1945 22.459C57.0058 22.4351 58.7925 22.8807 60.3804 23.7526C61.9682 24.6245 63.3032 25.8928 64.2551 27.434C65.2071 28.9752 65.7435 30.7367 65.8123 32.5469C65.881 34.357 65.4797 36.1541 64.6474 37.7631C63.815 39.372 62.5801 40.738 61.063 41.7277C59.5458 42.7175 57.7981 43.2974 55.9902 43.4109C54.1822 43.5244 52.3757 43.1676 50.7467 42.3753" fill="#FFD75D"/>
<path d="M30.1634 32.348C27.6962 31.1459 25.6268 29.2596 24.2018 26.9141C22.7769 24.5686 22.0566 21.8627 22.1267 19.1192C22.1969 16.3756 23.0546 13.7102 24.5975 11.4405C26.1405 9.17088 28.3036 7.39283 30.829 6.31839C33.3543 5.24395 36.1354 4.91846 38.8407 5.38068C41.5459 5.8429 44.0611 7.07333 46.0865 8.92532C48.1118 10.7773 49.5618 13.1727 50.2636 15.8259C50.9654 18.4791 50.8895 21.2781 50.0447 23.8893C51.609 22.9757 53.3832 22.483 55.1945 22.459C57.0058 22.4351 58.7925 22.8807 60.3804 23.7526C61.9682 24.6245 63.3032 25.8928 64.2551 27.434C65.2071 28.9752 65.7435 30.7367 65.8123 32.5469C65.881 34.357 65.4797 36.1541 64.6474 37.7631C63.815 39.372 62.5801 40.738 61.063 41.7277C59.5458 42.7175 57.7981 43.2974 55.9902 43.4109C54.1822 43.5244 52.3757 43.1676 50.7467 42.3753" stroke="#2276BB" stroke-width="2.76" stroke-miterlimit="10"/>
<path d="M34.3236 21.6446C35 21.9784 35.7603 22.1041 36.5082 22.0058C37.2561 21.9075 37.958 21.5895 38.5252 21.0922C39.0923 20.5949 39.4993 19.9406 39.6945 19.2119C39.8897 18.4833 39.8645 17.7131 39.6219 16.9989C39.3794 16.2846 38.9305 15.6583 38.332 15.1992C37.7334 14.7401 37.0122 14.4688 36.2595 14.4197C35.5067 14.3706 34.7563 14.5458 34.1032 14.9232C33.4501 15.3006 32.9236 15.8633 32.5903 16.5399C32.1459 17.4472 32.0788 18.4934 32.4036 19.4499C32.7284 20.4065 33.4187 21.1955 34.3236 21.6446Z" fill="#E99EC4"/>
<path d="M34.3236 21.6446C35 21.9784 35.7603 22.1041 36.5082 22.0058C37.2561 21.9075 37.958 21.5895 38.5252 21.0922C39.0923 20.5949 39.4993 19.9406 39.6945 19.2119C39.8897 18.4833 39.8645 17.7131 39.6219 16.9989C39.3794 16.2846 38.9305 15.6583 38.332 15.1992C37.7334 14.7401 37.0122 14.4688 36.2595 14.4197C35.5067 14.3706 34.7563 14.5458 34.1032 14.9232C33.4501 15.3006 32.9236 15.8633 32.5903 16.5399C32.1459 17.4472 32.0788 18.4934 32.4036 19.4499C32.7284 20.4065 33.4187 21.1955 34.3236 21.6446V21.6446Z" stroke="#2276BB" stroke-width="2.76" stroke-miterlimit="10"/>
<path d="M52.3934 36.8111C53.0699 37.1449 53.8301 37.2706 54.578 37.1723C55.3258 37.074 56.0278 36.756 56.595 36.2587C57.1621 35.7614 57.569 35.1071 57.7643 34.3784C57.9595 33.6498 57.9343 32.8797 57.6917 32.1654C57.4492 31.4511 57.0003 30.8248 56.4017 30.3657C55.8032 29.9066 55.082 29.6354 54.3292 29.5862C53.5765 29.5371 52.8262 29.7124 52.173 30.0897C51.5199 30.4671 50.9934 31.0298 50.6601 31.7064C50.2134 32.6133 50.145 33.6604 50.4701 34.6176C50.7951 35.5748 51.4869 36.3638 52.3934 36.8111Z" fill="#E99EC4"/>
<path d="M52.3934 36.8111C53.0699 37.1449 53.8301 37.2706 54.578 37.1723C55.3258 37.074 56.0278 36.756 56.595 36.2587C57.1621 35.7614 57.569 35.1071 57.7643 34.3784C57.9595 33.6498 57.9343 32.8797 57.6917 32.1654C57.4492 31.4511 57.0003 30.8248 56.4017 30.3657C55.8032 29.9066 55.082 29.6354 54.3292 29.5862C53.5765 29.5371 52.8262 29.7124 52.173 30.0897C51.5199 30.4671 50.9934 31.0298 50.6601 31.7064C50.2134 32.6133 50.145 33.6604 50.4701 34.6176C50.7951 35.5748 51.4869 36.3638 52.3934 36.8111V36.8111Z" stroke="#2276BB" stroke-width="2.76" stroke-miterlimit="10"/>
<path d="M44.039 53.9623C44.7169 54.2988 45.4793 54.4264 46.2298 54.329C46.9803 54.2316 47.685 53.9137 48.2546 53.4154C48.8241 52.9171 49.233 52.261 49.4292 51.5301C49.6255 50.7992 49.6004 50.0265 49.3571 49.3099C49.1138 48.5933 48.6632 47.9651 48.0625 47.5049C47.4618 47.0446 46.7379 46.7731 45.9827 46.7246C45.2275 46.6762 44.4748 46.853 43.8202 47.2328C43.1656 47.6125 42.6385 48.178 42.3056 48.8577C41.8637 49.7652 41.7978 50.8106 42.1223 51.7665C42.4469 52.7224 43.1357 53.5115 44.039 53.9623Z" fill="#E99EC4"/>
<path d="M44.039 53.9623C44.7169 54.2988 45.4793 54.4264 46.2298 54.329C46.9803 54.2316 47.685 53.9137 48.2546 53.4154C48.8241 52.9171 49.233 52.261 49.4292 51.5301C49.6255 50.7992 49.6004 50.0265 49.3571 49.3099C49.1138 48.5933 48.6632 47.9651 48.0625 47.5049C47.4618 47.0446 46.7379 46.7731 45.9827 46.7246C45.2275 46.6762 44.4748 46.853 43.8202 47.2328C43.1656 47.6125 42.6385 48.178 42.3056 48.8577C41.8637 49.7652 41.7978 50.8106 42.1223 51.7665C42.4469 52.7224 43.1357 53.5115 44.039 53.9623Z" stroke="#2276BB" stroke-width="2.76" stroke-miterlimit="10"/>
<path d="M20.9593 49.083C21.6358 49.4169 22.396 49.5426 23.1439 49.4442C23.8918 49.3459 24.5937 49.028 25.1609 48.5306C25.7281 48.0333 26.135 47.379 26.3302 46.6504C26.5255 45.9217 26.5002 45.1516 26.2577 44.4374C26.0151 43.7231 25.5662 43.0968 24.9677 42.6377C24.3691 42.1786 23.6479 41.9073 22.8952 41.8582C22.1425 41.8091 21.3921 41.9843 20.739 42.3617C20.0858 42.7391 19.5593 43.3017 19.226 43.9784C18.7817 44.8856 18.7146 45.9319 19.0394 46.8884C19.3642 47.8449 20.0545 48.634 20.9593 49.083Z" fill="#E99EC4"/>
<path d="M20.9593 49.083C21.6358 49.4169 22.396 49.5426 23.1439 49.4442C23.8918 49.3459 24.5937 49.028 25.1609 48.5306C25.7281 48.0333 26.135 47.379 26.3302 46.6504C26.5255 45.9217 26.5002 45.1516 26.2577 44.4374C26.0151 43.7231 25.5662 43.0968 24.9677 42.6377C24.3691 42.1786 23.6479 41.9073 22.8952 41.8582C22.1425 41.8091 21.3921 41.9843 20.739 42.3617C20.0858 42.7391 19.5593 43.3017 19.226 43.9784C18.7817 44.8856 18.7146 45.9319 19.0394 46.8884C19.3642 47.8449 20.0545 48.634 20.9593 49.083V49.083Z" stroke="#2276BB" stroke-width="2.76" stroke-miterlimit="10"/>
<path d="M29.3052 31.932C29.3052 31.932 7.05782 25.3366 15.4385 8.09863" stroke="#2276BB" stroke-width="2.76" stroke-miterlimit="10"/>
<path d="M29.1754 32.192C29.1754 32.192 10.2647 18.7413 1.8667 35.9793" stroke="#2276BB" stroke-width="2.76" stroke-miterlimit="10"/>
</svg>
