<svg width="1109" height="190" viewBox="0 0 1109 190" fill="none" xmlns="http://www.w3.org/2000/svg">
<path d="M0 188.505C87.4771 118.271 202.201 72.4244 321.906 59.1997C388.844 52.3281 503.639 52.2915 546.871 103.37C563.199 122.321 565.426 150.229 548.541 169.458C536.452 183.225 513.159 190.41 494.02 183.381C474.694 176.534 464.247 156.04 472.611 139.621C483.529 118.62 516.856 109.88 541.676 106.878C582.767 101.429 624.986 102.321 666.062 106.782C813.756 122.309 957.624 183.647 1108.51 159.548L1109 161.598C1079.41 166.608 1049.24 168.727 1019.08 167.914C867.906 163.864 725.608 100.827 573.233 109.579L559.346 110.784C552.951 111.303 543.646 112.641 537.294 113.449C516.57 116.86 488.439 124.587 479.304 142.019C474.038 152.652 478.205 165.697 488.496 173.171C507.679 187.734 538.879 176.98 547.87 158.149C558.289 138.342 551.339 115.377 533.897 100.055C513.802 81.7668 484.4 73.5332 456.197 68.2529C353.206 52.4725 246.032 71.8693 151.647 107.818C100.522 127.438 52.8944 152.997 10.1478 183.755L1.68416 190L0 188.505Z" fill="white"/>
<path d="M251.662 34.4151C248.521 26.1712 242.243 19.5066 234.201 15.879C226.159 12.2513 217.008 11.9556 208.749 15.0567C200.49 18.1578 193.795 24.4033 190.128 32.4273C186.462 40.4513 186.121 49.601 189.182 57.8751C190.802 62.1951 211.642 86.4652 219.462 95.4952C220.321 96.4859 221.463 97.1902 222.734 97.5137C224.005 97.8372 225.344 97.7646 226.572 97.3052L249.452 88.7051C250.676 88.2488 251.731 87.4297 252.476 86.3575C253.221 85.2852 253.621 84.0109 253.622 82.7051C253.622 70.7651 253.282 38.7751 251.622 34.4551" fill="#FFD75D"/>
<path d="M251.662 34.4151C248.521 26.1712 242.243 19.5066 234.201 15.879C226.159 12.2513 217.008 11.9556 208.749 15.0567C200.49 18.1578 193.795 24.4033 190.128 32.4273C186.462 40.4513 186.121 49.601 189.182 57.8751C190.802 62.1951 211.642 86.4652 219.462 95.4952C220.321 96.4859 221.463 97.1902 222.734 97.5137C224.005 97.8372 225.344 97.7646 226.572 97.3052L249.452 88.7051C250.676 88.2488 251.731 87.4297 252.476 86.3575C253.221 85.2852 253.621 84.0109 253.622 82.7051C253.572 70.7251 253.252 38.7351 251.662 34.4151Z" stroke="#2276BB" stroke-width="4.39" stroke-miterlimit="10"/>
<path d="M208.723 86.1849L255.573 68.5848" stroke="#2276BB" stroke-width="4.39" stroke-miterlimit="10"/>
<path d="M224.342 80.3148C224.342 80.3148 209.202 63.7249 194.542 24.6849L224.342 80.3148Z" fill="#FFD75D"/>
<path d="M224.342 80.3148C224.342 80.3148 209.202 63.7249 194.542 24.6849" stroke="#2276BB" stroke-width="4.39" stroke-miterlimit="10"/>
<path d="M239.962 74.475C239.962 74.475 240.442 52.015 225.772 12.975L239.962 74.475Z" fill="#FFD75D"/>
<path d="M239.962 74.475C239.962 74.475 240.442 52.015 225.772 12.975" stroke="#2276BB" stroke-width="4.39" stroke-miterlimit="10"/>
<path d="M233.252 103.925L230.252 95.9252L245.872 90.0648L248.872 98.0648C249.239 99.0531 249.202 100.147 248.767 101.107C248.333 102.068 247.537 102.818 246.552 103.195L238.382 106.265C237.392 106.632 236.298 106.593 235.337 106.157C234.376 105.72 233.627 104.922 233.252 103.935" fill="#FFD75D"/>
<path d="M233.252 103.925L230.252 95.9252L245.872 90.0648L248.872 98.0648C249.239 99.0531 249.202 100.147 248.767 101.107C248.333 102.068 247.537 102.818 246.552 103.195L238.382 106.265C237.391 106.631 236.296 106.591 235.335 106.153C234.373 105.714 233.625 104.914 233.252 103.925Z" stroke="#2276BB" stroke-width="4.39" stroke-miterlimit="10"/>
<path d="M258.403 120.995L241.093 127.495C240.281 127.8 239.382 127.77 238.592 127.412C237.803 127.054 237.188 126.396 236.883 125.585L234.783 119.985C234.478 119.173 234.508 118.274 234.866 117.485C235.224 116.695 235.881 116.08 236.693 115.775L254.003 109.275C254.815 108.973 255.713 109.005 256.502 109.362C257.29 109.72 257.905 110.375 258.213 111.185L260.313 116.785C260.615 117.597 260.583 118.495 260.226 119.284C259.868 120.072 259.213 120.688 258.403 120.995Z" fill="#FFD75D"/>
<path d="M258.403 120.995L241.093 127.495C240.281 127.8 239.382 127.77 238.592 127.412C237.803 127.054 237.188 126.396 236.883 125.585L234.783 119.985C234.478 119.173 234.508 118.274 234.866 117.485C235.224 116.695 235.881 116.08 236.693 115.775L254.003 109.275C254.815 108.973 255.713 109.005 256.502 109.362C257.29 109.72 257.905 110.375 258.213 111.185L260.313 116.785C260.615 117.597 260.583 118.495 260.226 119.284C259.868 120.072 259.213 120.688 258.403 120.995V120.995Z" stroke="#2276BB" stroke-width="4.39" stroke-miterlimit="10"/>
<path d="M176.152 103.657C176.152 103.657 183.882 110.656 190.882 102.916C190.882 102.916 183.882 110.656 191.612 117.646C191.612 117.646 183.882 110.647 176.882 118.387C176.882 118.387 183.882 110.657 176.152 103.657Z" fill="#2276BB"/>
<path d="M306.482 20.0448L293.422 21.1351L290.412 33.8851L285.352 21.8051L272.292 22.8851L282.212 14.3348L277.152 2.245L288.352 9.0448L298.282 0.494995L295.272 13.245L306.482 20.0448Z" fill="white"/>
<path d="M992.617 147.815L1012.99 135.525" stroke="#2276BB" stroke-width="4.13" stroke-miterlimit="10"/>
<path d="M1045.65 143.606C1042.97 145.287 1039.99 146.419 1036.87 146.935C1033.75 147.45 1030.56 147.34 1027.49 146.609C1024.41 145.878 1021.51 144.542 1018.96 142.679C1016.41 140.815 1014.25 138.462 1012.62 135.756C1010.99 133.05 1009.91 130.046 1009.45 126.918C1008.99 123.791 1009.16 120.605 1009.95 117.543C1010.73 114.482 1012.12 111.608 1014.03 109.09C1015.94 106.571 1018.33 104.459 1021.07 102.876C1032.32 96.0855 1074.07 98.6656 1074.07 98.6656C1074.07 98.6656 1056.88 136.826 1045.63 143.606" fill="#FFD75D"/>
<path d="M1045.65 143.606C1042.97 145.287 1039.99 146.419 1036.87 146.935C1033.75 147.45 1030.56 147.34 1027.49 146.609C1024.41 145.878 1021.51 144.542 1018.96 142.679C1016.41 140.815 1014.25 138.462 1012.62 135.756C1010.99 133.05 1009.91 130.046 1009.45 126.918C1008.99 123.791 1009.16 120.605 1009.95 117.543C1010.73 114.482 1012.12 111.608 1014.03 109.09C1015.94 106.571 1018.33 104.459 1021.07 102.876C1032.32 96.0855 1074.07 98.6656 1074.07 98.6656C1074.07 98.6656 1056.9 136.826 1045.65 143.606Z" stroke="#2276BB" stroke-width="4.13" stroke-miterlimit="10"/>
<path d="M1012.99 135.525L1053.72 110.945L1055.74 102.785" stroke="#2276BB" stroke-width="4.13" stroke-miterlimit="10"/>
<path d="M1061.89 112.965L1053.72 110.945" stroke="#2276BB" stroke-width="4.13" stroke-miterlimit="10"/>
<path d="M1049.68 127.275L1033.36 123.235L1037.4 106.905" stroke="#2276BB" stroke-width="4.13" stroke-miterlimit="10"/>
<path d="M1028.79 132.935L1020.63 130.915L1022.65 122.755" stroke="#2276BB" stroke-width="4.13" stroke-miterlimit="10"/>
<path d="M591.772 138.935C591.772 138.935 599.502 145.935 606.502 138.205C606.502 138.205 599.503 145.935 607.243 152.935C607.243 152.935 599.502 145.935 592.512 153.665C592.512 153.665 599.502 145.935 591.772 138.935Z" stroke="#FFD75D" stroke-width="3.56" stroke-linecap="round" stroke-linejoin="round"/>
</svg>
