<svg width="81" height="58" viewBox="0 0 81 58" fill="none" xmlns="http://www.w3.org/2000/svg">
<path d="M0.434425 31.5901L33.2755 0.390547C33.5733 0.111624 33.9758 -0.0318219 34.3863 0.00802424L79.7119 4.07233C80.2673 4.12014 80.7341 4.48673 80.9193 5.00473C81.1044 5.52273 80.9595 6.09651 80.5651 6.47903L66.2857 20.0426C66.3661 20.1542 66.4386 20.2738 66.4869 20.4092L72.5721 37.5988C72.9102 38.5472 75.2123 47.0743 53.1412 54.7327C31.07 62.3911 27.4961 54.3023 27.1581 53.354L21.0728 36.1644C21.0245 36.0289 21.0084 35.8934 21.0004 35.758L11.631 34.9212L16.1788 47.7676C16.9194 47.5126 17.7243 47.8951 17.9819 48.6283C18.2394 49.3614 17.8531 50.1583 17.1125 50.4134L17.4265 51.2979C18.167 51.0429 18.9719 51.4254 19.2295 52.1586C19.4871 52.8918 19.1007 53.6887 18.3602 53.9437L18.6741 54.8283C18.9317 55.5615 18.5453 56.3584 17.8048 56.6134C17.0642 56.8684 16.2593 56.4859 16.0017 55.7527L15.6878 54.8682C14.9473 55.1232 14.1424 54.7406 13.8848 54.0075C13.6272 53.2743 14.0136 52.4774 14.7541 52.2224L14.4402 51.3378C13.6996 51.5928 12.8947 51.2103 12.6371 50.4771C12.3796 49.7439 12.7659 48.947 13.5065 48.692L8.53201 34.6423L1.28764 33.9888C0.732246 33.941 0.265388 33.5744 0.0802536 33.0564C-0.104881 32.5384 0.0319595 31.9646 0.434425 31.5901ZM29.8143 52.3977C29.8385 52.4614 32.7845 58.8289 52.1994 52.0949C71.6143 45.3529 69.8998 38.5631 69.8917 38.5312L64.0882 22.1306L47.7159 37.6785C47.5711 37.822 47.394 37.9256 47.2008 37.9893C47.0157 38.0531 46.8064 38.077 46.6051 38.0611L24.0108 36.0369L29.8143 52.3977ZM46.2268 35.2081L76.3634 6.58263L34.7727 2.85304L4.63615 31.4785L46.2268 35.2081Z" fill="#E3F0F9"/>
</svg>
