<svg width="138" height="137" viewBox="0 0 138 137" fill="none" xmlns="http://www.w3.org/2000/svg">
<path d="M126.304 7.23438L120.797 15.902L110.865 13.3448L117.407 21.2558L111.9 29.9138L121.448 26.1403L127.98 34.0417L127.339 23.8034L136.878 20.0299L126.946 17.4727L126.304 7.23438Z" fill="#2276BB"/>
<path d="M1.5 86.019C1.5 86.019 7.51465 91.4686 12.993 85.4443C12.993 85.4443 7.53377 91.4686 13.558 96.9373C13.558 96.9373 7.53377 91.4877 2.06504 97.5119C2.06504 97.4928 7.51465 91.4781 1.5 86.019Z" stroke="#B9D7EF" stroke-width="2.89" stroke-linecap="round" stroke-linejoin="round"/>
<path d="M81.1173 119.013C72.8336 121.938 63.7741 121.787 55.5929 118.586C47.4118 115.385 40.6546 109.349 36.555 101.579C32.4554 93.8092 31.2868 84.8242 33.2625 76.2642C35.2383 67.7043 40.2266 60.1404 47.3168 54.9534C54.407 49.7664 63.1262 47.3023 71.8826 48.0109C80.6389 48.7196 88.8484 52.5537 95.0123 58.8134C101.176 65.073 104.883 73.3406 105.457 82.1069C106.03 90.8731 103.432 99.5533 98.1364 106.563" fill="#B9D7EF"/>
<path d="M81.1173 119.013C72.8336 121.938 63.7741 121.787 55.5929 118.586C47.4118 115.385 40.6546 109.349 36.555 101.579C32.4554 93.8092 31.2868 84.8242 33.2625 76.2642C35.2383 67.7043 40.2266 60.1404 47.3168 54.9534C54.407 49.7664 63.1262 47.3023 71.8826 48.0109C80.6389 48.7196 88.8484 52.5537 95.0123 58.8134C101.176 65.073 104.883 73.3406 105.457 82.1069C106.03 90.8731 103.432 99.5533 98.1364 106.563" stroke="#2276BB" stroke-width="3.22" stroke-miterlimit="10"/>
<path d="M89.0958 52.9091C102.236 46.9136 112.427 45.2471 115.597 49.5953C120.941 56.8454 104.391 78.117 78.6276 97.1187C52.8642 116.12 27.6564 125.64 22.3122 118.4C19.1804 114.147 23.5764 105.078 32.9336 94.4561" stroke="#2276BB" stroke-width="3.72" stroke-miterlimit="10"/>
<path d="M81.1558 115.651C81.5182 113.264 82.5804 111.037 84.2079 109.253C85.8355 107.469 87.9554 106.208 90.2998 105.629C92.6441 105.05 95.1077 105.179 97.3788 105.999C99.6499 106.82 101.627 108.295 103.059 110.24C104.492 112.184 105.316 114.509 105.427 116.921C105.538 119.333 104.932 121.724 103.684 123.792C102.437 125.86 100.604 127.511 98.4185 128.537C96.2326 129.564 93.7915 129.919 91.4038 129.558C89.8176 129.318 88.2941 128.768 86.9205 127.939C85.547 127.111 84.3501 126.019 83.3984 124.728C82.4468 123.436 81.7589 121.97 81.3741 120.413C80.9893 118.855 80.9151 117.237 81.1558 115.651V115.651Z" stroke="#2276BB" stroke-width="3.72" stroke-miterlimit="10"/>
</svg>
