<svg width="26" height="26" viewBox="0 0 26 26" fill="none" xmlns="http://www.w3.org/2000/svg">
<path opacity="0.75" d="M11.9251 1.63002C10.7088 1.88982 9.56516 2.45252 8.61834 3.2569C6.50771 5.04999 5.54371 7.83547 6.10246 10.5245C6.17778 10.8905 6.30473 11.4971 8.99823 15.8819L9.00397 15.9086C9.08502 16.3014 9.30427 16.6294 9.59972 16.8547C9.85331 17.2632 10.1071 17.6693 10.3542 18.0601C10.7775 18.7333 11.4451 19.1968 12.1926 19.3796C12.2421 19.5377 12.307 19.6891 12.3839 19.8346C12.3671 19.8573 12.3515 19.879 12.3358 19.9029C11.9676 20.4665 11.8385 21.1389 11.9748 21.7966L12.1754 22.7623C12.3107 23.4188 12.6953 23.9815 13.258 24.3465C13.8208 24.7115 14.4921 24.8346 15.1503 24.6949L18.148 24.0535C18.557 23.9653 18.9425 23.7769 19.2594 23.5077C19.4455 23.3496 19.6076 23.1655 19.7416 22.961C20.1098 22.3975 20.2389 21.725 20.1024 21.0695L19.9008 20.1027C19.7536 19.3972 19.3206 18.8251 18.747 18.4798C18.7609 18.3162 18.7601 18.1504 18.7422 17.9844C18.779 17.9552 18.8158 17.9261 18.8515 17.8957C19.4162 17.416 19.7884 16.7498 19.8993 16.0233C19.9692 15.5635 20.0403 15.09 20.1095 14.6117C20.296 14.2741 20.3569 13.881 20.278 13.5033L20.2722 13.4766C20.9936 8.36165 20.8678 7.75394 20.7925 7.38795C19.9516 3.34738 15.9748 0.765198 11.9251 1.63002Z" fill="#CFD8DC"/>
<path d="M11.0345 1.37092C9.81819 1.63072 8.67453 2.19342 7.72771 2.99779C5.61709 4.79089 4.65309 7.57637 5.21184 10.2654C5.28715 10.6314 5.41411 11.238 8.10761 15.6228L8.11334 15.6495C8.1944 16.0423 8.41364 16.3703 8.70909 16.5956C8.96269 17.0041 9.21648 17.4102 9.46357 17.801C9.88687 18.4742 10.5545 18.9377 11.302 19.1204C11.3514 19.2786 11.4164 19.43 11.4933 19.5755C11.4765 19.5982 11.4609 19.6198 11.4451 19.6438C11.077 20.2074 10.9478 20.8798 11.0842 21.5375L11.2848 22.5032C11.4201 23.1597 11.8047 23.7224 12.3674 24.0874C12.9301 24.4524 13.6015 24.5755 14.2596 24.4358L17.2574 23.7944C17.6664 23.7062 18.0519 23.5178 18.3687 23.2486C18.5549 23.0905 18.7169 22.9064 18.851 22.7019C19.2191 22.1383 19.3483 21.4659 19.2117 20.8104L19.0101 19.8435C18.863 19.1381 18.4299 18.566 17.8564 18.2207C17.8703 18.0571 17.8695 17.8913 17.8516 17.7253C17.8884 17.6961 17.9251 17.667 17.9609 17.6366C18.5255 17.1569 18.8978 16.4907 19.0087 15.7642C19.0786 15.3044 19.1497 14.8309 19.2189 14.3526C19.4054 14.015 19.4662 13.6219 19.3873 13.2442L19.3816 13.2175C20.1029 8.10255 19.9772 7.49484 19.9019 7.12885C19.0599 3.08705 15.0832 0.504868 11.0345 1.37092Z" fill="white"/>
<path d="M17.8204 7.65982C17.2017 4.68033 14.2787 2.78377 11.2926 3.42152C8.30659 4.05926 6.38501 6.99433 7.00271 9.97259C7.15796 10.7175 9.94518 15.1976 10.9934 16.8637C11.2293 17.2388 11.6755 17.4267 12.1113 17.3325L16.0725 16.486C16.5083 16.3918 16.8414 16.0393 16.9085 15.5986C17.2049 13.6438 17.9744 8.40578 17.8204 7.65982Z" fill="#BCDAF2" stroke="#2576B9" stroke-miterlimit="10"/>
<path d="M9.87549 14.9934L17.17 13.4331" stroke="#2576B9" stroke-miterlimit="10"/>
<path d="M12.1803 14.5002C12.1803 14.5002 10.1278 11.4172 8.72803 4.67505L12.1803 14.5002Z" fill="#BCDAF2"/>
<path d="M12.1803 14.5002C12.1803 14.5002 10.1278 11.4172 8.72803 4.67505" stroke="#2576B9" stroke-miterlimit="10"/>
<path d="M14.8842 13.9229C14.8842 13.9229 15.5358 10.2625 14.1362 3.51807L14.8842 13.9229Z" fill="#BCDAF2"/>
<path d="M14.8842 13.9229C14.8842 13.9229 15.5358 10.2625 14.1362 3.51807" stroke="#2576B9" stroke-miterlimit="10"/>
<path d="M13.0259 18.5766L12.7393 17.1973L15.4433 16.6199L15.73 17.9992C15.804 18.3537 15.5752 18.704 15.2186 18.7814L13.8043 19.083C13.4489 19.1594 13.0998 18.9333 13.0259 18.5766Z" fill="#BCDAF2" stroke="#2576B9" stroke-miterlimit="10"/>
<path d="M16.7097 21.9833L13.712 22.6247C13.4195 22.6877 13.1334 22.5008 13.0724 22.2091L12.8718 21.2435C12.8108 20.9518 12.9999 20.6647 13.2923 20.6017L16.2901 19.9602C16.5826 19.8972 16.8687 20.0841 16.9297 20.3758L17.1303 21.3414C17.1913 21.6332 17.0022 21.9203 16.7097 21.9833Z" fill="#BCDAF2" stroke="#2576B9" stroke-miterlimit="10"/>
</svg>
