<svg width="32" height="32" viewBox="0 0 32 32" fill="none" xmlns="http://www.w3.org/2000/svg">
<path opacity="0.75" d="M25.9239 23.1427L21.2241 15.6496C22.0281 15.5336 22.7506 15.1285 23.2682 14.4899C23.8141 13.8176 24.0661 12.9734 23.9816 12.1119C23.8516 10.7871 22.9364 9.69369 21.6792 9.32738C21.8931 9.12244 22.0636 8.87517 22.1707 8.59418C22.7797 8.2041 23.1544 7.48962 23.0776 6.71581C23.0002 5.94414 22.4943 5.32001 21.8225 5.06178C21.5468 4.6232 21.1046 4.30629 20.5952 4.18981C20.3934 4.14459 20.1794 4.13029 19.9614 4.15114C19.7085 4.17696 19.4721 4.25431 19.259 4.36453C18.8418 3.69895 18.1736 3.20658 17.3731 3.02514C17.0545 2.9534 16.7276 2.93386 16.4013 2.96645L12.3572 3.38918C10.6968 3.56083 9.4816 5.06039 9.64569 6.73033C9.65707 6.84839 9.67847 6.96215 9.70198 7.07643C9.56464 7.06066 9.42205 7.05717 9.27686 7.07337C8.26266 7.17827 7.50432 8.04006 7.49991 9.0447C6.52186 9.24891 5.83442 10.1689 5.93566 11.1905C6.02228 12.0616 6.65501 12.7441 7.45762 12.9261C7.59553 12.9578 7.73974 12.973 7.8876 12.9733C8.04527 13.7467 8.63976 14.3384 9.37896 14.5048C9.5808 14.55 9.79471 14.5643 10.0128 14.5434C10.4568 14.4969 10.8508 14.307 11.1532 14.0244L6.9645 25.0948C6.55051 26.1883 6.72561 27.3932 7.42864 28.319C7.89962 28.9391 8.57294 29.374 9.32482 29.5434C9.67514 29.623 10.0353 29.6439 10.3938 29.608L23.437 28.2637C24.5911 28.1458 25.5832 27.4456 26.0918 26.3957C26.6073 25.3452 26.5426 24.1292 25.9239 23.1427Z" fill="#CFD8DC"/>
<path d="M25.3155 22.1702L20.6178 14.6776C21.4218 14.5616 22.1443 14.1565 22.6619 13.5179C23.2079 12.8456 23.4598 12.0014 23.3753 11.1398C23.2454 9.81506 22.3301 8.72166 21.0729 8.35534C21.2868 8.15041 21.4573 7.90313 21.5644 7.62214C22.1734 7.23206 22.5482 6.51758 22.4713 5.74377C22.3939 4.9721 21.888 4.34797 21.2162 4.08975C20.9405 3.65116 20.4983 3.33425 19.9889 3.21777C19.7871 3.17255 19.5732 3.15826 19.3551 3.1791C19.1022 3.20493 18.8658 3.28228 18.6527 3.39249C18.2345 2.73118 17.5663 2.23881 16.7658 2.05736C16.4472 1.98563 16.1203 1.96608 15.794 1.99868L11.7488 2.41662C10.0884 2.58828 8.87321 4.08783 9.03729 5.75777C9.04867 5.87584 9.07007 5.98959 9.09358 6.10387C8.95624 6.08811 8.81365 6.08461 8.66847 6.10081C7.65427 6.20571 6.89592 7.0675 6.89151 8.07214C5.91346 8.27635 5.22602 9.1963 5.32727 10.2179C5.41389 11.0891 6.04662 11.7716 6.84922 11.9535C6.98713 11.9853 7.13134 12.0005 7.2792 12.0007C7.43688 12.7741 8.03136 13.3659 8.77056 13.5322C8.9724 13.5774 9.18631 13.5917 9.40436 13.5709C9.84837 13.5243 10.2424 13.3344 10.5448 13.0518L6.35611 24.1222C5.94211 25.2158 6.11721 26.4206 6.82024 27.3465C7.29122 27.9665 7.96454 28.4014 8.71642 28.5709C9.06674 28.6504 9.42694 28.6714 9.78543 28.6354L22.8286 27.2911C23.9827 27.1732 24.9748 26.473 25.4834 25.4231C25.9989 24.3727 25.9342 23.1566 25.3155 22.1702Z" fill="white"/>
<path d="M20.2953 12.7222C20.9805 12.6515 21.4818 12.0337 21.4135 11.3434C21.3453 10.6531 20.7336 10.1498 20.0483 10.2205C19.3631 10.2912 18.8618 10.909 18.93 11.5993C18.9988 12.2874 19.6105 12.7908 20.2953 12.7222ZM20.1231 10.9757C20.3944 10.9476 20.6368 11.1475 20.6638 11.4208C20.6909 11.6942 20.4919 11.939 20.2205 11.967C19.9492 11.9951 19.7068 11.7952 19.6797 11.5219C19.6527 11.2485 19.8517 11.0037 20.1231 10.9757Z" fill="#2576B9"/>
<path d="M12.1532 6.50535L16.1979 6.08955C16.7749 6.03061 17.1993 5.50688 17.1424 4.92559C17.0856 4.34431 16.567 3.91819 15.9899 3.97713L11.9453 4.39293C11.3682 4.45187 10.9438 4.9756 11.0007 5.55689C11.0576 6.13818 11.5761 6.56429 12.1532 6.50535ZM12.0205 5.146L16.0652 4.73019C16.2309 4.71228 16.3781 4.83441 16.3954 5.0014C16.4127 5.16839 16.291 5.31696 16.1253 5.33487L12.0806 5.75068C11.9148 5.76859 11.7677 5.64646 11.7504 5.47947C11.7331 5.31248 11.8547 5.16391 12.0205 5.146Z" fill="#2576B9"/>
<path d="M23.6486 23.2354L16.2827 11.4895L13.1234 11.8139L8.20115 24.8234C8.03378 25.2681 8.10415 25.7578 8.39076 26.1335C8.67737 26.5093 9.12673 26.7059 9.59608 26.6566L22.6413 25.3128C23.1101 25.2656 23.514 24.9809 23.7199 24.5525C23.927 24.1289 23.8999 23.6363 23.6486 23.2354ZM13.6622 12.523L15.8949 12.2934L18.2748 16.0869L12.0708 16.7255L13.6622 12.523ZM23.0426 24.2252C22.9507 24.4172 22.7751 24.5389 22.5656 24.5619L9.52243 25.9062C9.31072 25.9286 9.11881 25.8429 8.98955 25.6754C8.86081 25.5058 8.83178 25.2953 8.90523 25.0964L11.7722 17.522L18.7238 16.8056L23.0111 23.6411C23.124 23.8203 23.1367 24.0336 23.0426 24.2252Z" fill="#2576B9"/>
<path d="M16.367 10.8727L15.9571 6.72388L12.5122 7.07956L12.9221 11.2283L16.367 10.8727ZM13.335 7.75468L15.2827 7.55436L15.5426 10.1949L13.595 10.3952L13.335 7.75468Z" fill="#2576B9"/>
<path d="M19.7216 6.91953C19.6729 6.43291 20.0257 6.00003 20.5088 5.94957C20.0257 6.00003 19.5971 5.6458 19.5484 5.15918C19.5971 5.6458 19.2443 6.07868 18.7612 6.12914C19.2443 6.07868 19.675 6.43343 19.7216 6.91953Z" fill="#2576B9"/>
<path d="M8.6171 11.5531C9.55796 11.785 10.5094 11.2039 10.7421 10.2552C10.9749 9.3065 10.4009 8.34948 9.46 8.11762C8.51914 7.88576 7.56773 8.46687 7.33497 9.41556C7.10221 10.3642 7.67624 11.3213 8.6171 11.5531Z" fill="#2576B9"/>
<path d="M13.6622 12.5229L15.8955 12.2913L18.2748 16.0869L12.0708 16.7254L13.6622 12.5229Z" fill="#D22329"/>
<path d="M23.0427 24.225C22.9508 24.4171 22.7752 24.5388 22.5657 24.5617L9.52253 25.906C9.31082 25.9284 9.11892 25.8427 8.98965 25.6753C8.86092 25.5057 8.83188 25.2951 8.90533 25.0962L11.7723 17.5219L18.7239 16.8054L23.0112 23.6409C23.1241 23.8202 23.1368 24.0335 23.0427 24.225Z" fill="#D22329"/>
<path d="M15.2832 7.55298L13.3354 7.75363L13.5961 10.3945L15.5439 10.1938L15.2832 7.55298Z" fill="#D22329"/>
</svg>
