<svg width="28" height="30" viewBox="0 0 28 30" fill="none" xmlns="http://www.w3.org/2000/svg">
<path opacity="0.75" d="M27.2083 8.89721L26.7566 8.13996C26.1027 7.04743 24.86 6.53652 23.6874 6.76869C23.3627 6.834 23.0426 6.95545 22.7428 7.13895L20.2052 8.68189C20.14 8.71733 20.0809 8.76052 20.0196 8.80472C19.777 8.55955 19.519 8.32678 19.2454 8.11178L19.983 5.2357C20.3874 3.65946 19.4466 2.05111 17.8833 1.64333L17.0345 1.42152C16.6059 1.30994 16.1622 1.29795 15.7365 1.38348C15.4162 1.44678 15.1047 1.56422 14.8181 1.73633C14.1503 2.13223 13.6661 2.78203 13.4719 3.53866L12.7368 6.40298C12.6219 6.42165 12.5083 6.43713 12.3954 6.46018C12.2201 6.49615 12.0479 6.53869 11.8754 6.58661C11.8373 6.51425 11.7992 6.44189 11.7555 6.37472L10.0977 3.73735C9.43301 2.6789 8.2108 2.1956 7.06182 2.42213C6.71784 2.49108 6.37702 2.62473 6.06167 2.826L5.3218 3.30017C4.66707 3.71912 4.20265 4.38359 4.03492 5.14652C3.86503 5.91044 4.0025 6.70966 4.41799 7.36985L5.79005 9.55173L4.24266 9.14987C3.81402 9.03829 3.37126 9.02849 2.94458 9.11183C2.62428 9.17514 2.31283 9.29257 2.02623 9.46469C1.3584 9.86058 0.874185 10.5104 0.67998 11.267L0.460009 12.1229C0.0555971 13.6991 0.996441 15.3075 2.55965 15.7153L5.30721 16.4306C5.47341 16.4729 5.63916 16.4969 5.80843 16.5113C5.81042 16.5157 5.81124 16.5233 5.81322 16.5276C6.09853 17.6291 6.36957 18.5201 6.61225 19.1754C6.85313 19.821 6.88714 20.4907 6.70894 21.1844L6.60279 21.6092C6.53101 21.9017 6.50404 22.1947 6.51793 22.4794L6.38639 22.9927C6.36686 23.0653 6.35582 23.1392 6.34163 23.2119C6.31559 23.2874 6.29073 23.3598 6.27102 23.4377L6.05105 24.2936C5.64664 25.8698 6.58748 27.4782 8.15069 27.8859L12.9324 29.1329C13.361 29.2445 13.8048 29.2565 14.2305 29.1709C14.5508 29.1076 14.8622 28.9902 15.1488 28.8181C15.8167 28.4222 16.3009 27.7724 16.4951 27.0158L16.7151 26.1599C16.7373 26.0702 16.7552 25.9826 16.7699 25.8937C16.7901 25.8341 16.8144 25.7779 16.8283 25.7159L16.9635 25.1877C17.1182 24.9389 17.2396 24.6631 17.3169 24.3654L17.4264 23.9364C17.5936 23.2822 17.9548 22.7025 18.4705 22.2604C18.9861 21.8184 19.6286 21.1934 20.3833 20.4054C20.4087 20.3804 20.4278 20.3531 20.4522 20.326C20.6046 20.3958 20.7628 20.455 20.93 20.4995L23.6775 21.2149C24.1062 21.3265 24.5489 21.3363 24.9756 21.2529C25.2959 21.1896 25.6074 21.0722 25.894 20.9001C26.5618 20.5042 27.046 19.8544 27.2402 19.0977L27.4602 18.2419C27.8646 16.6656 26.9238 15.0573 25.3606 14.6495L23.9942 14.2937L26.2146 12.9423C26.8785 12.5376 27.3563 11.8855 27.5442 11.1265C27.7299 10.3685 27.6096 9.5666 27.2083 8.89721Z" fill="#CFD8DC"/>
<path d="M27.2083 8.12158L26.7566 7.36434C26.1027 6.27181 24.86 5.7609 23.6874 5.99307C23.3627 6.05838 23.0426 6.17982 22.7428 6.36333L20.2052 7.90627C20.142 7.94608 20.0819 7.98709 20.0206 8.03128C19.778 7.78611 19.5199 7.55334 19.2464 7.33834L19.984 4.46226C20.3884 2.88603 19.4475 1.27767 17.8843 0.869889L17.0355 0.648084C16.6069 0.536498 16.1631 0.524515 15.7375 0.610043C15.4172 0.673346 15.1057 0.790782 14.8191 0.962897C14.1513 1.35879 13.6671 2.00859 13.4729 2.76522L12.7378 5.62954C12.6229 5.64821 12.5092 5.66369 12.3964 5.68674C12.2211 5.72272 12.0489 5.76526 11.8764 5.81317C11.8383 5.74081 11.8001 5.66845 11.7565 5.60128L10.0977 2.96172C9.43301 1.90327 8.2108 1.41998 7.06182 1.6465C6.71784 1.71545 6.37701 1.84911 6.06167 2.05038L5.3218 2.52455C4.66707 2.9435 4.20265 3.60797 4.03492 4.37089C3.86503 5.13482 4.0025 5.93404 4.41799 6.59423L5.79005 8.7761L4.24266 8.37425C3.81402 8.26266 3.37126 8.25287 2.94458 8.33621C2.62428 8.39951 2.31283 8.51695 2.02623 8.68906C1.3584 9.08495 0.874185 9.73475 0.67998 10.4914L0.460009 11.3473C0.0555971 12.9235 0.996441 14.5318 2.55965 14.9396L5.30721 15.655C5.47341 15.6973 5.63916 15.7213 5.80843 15.7357C5.81042 15.7401 5.81123 15.7476 5.81322 15.752C6.09852 16.8534 6.36956 17.7444 6.61225 18.3998C6.85313 19.0454 6.88714 19.7151 6.70894 20.4088L6.60279 20.8336C6.531 21.1261 6.50404 21.4191 6.51793 21.7038L6.38638 22.2171C6.36686 22.2896 6.35582 22.3635 6.34163 22.4363C6.31559 22.5118 6.29073 22.5842 6.27102 22.6621L6.05105 23.518C5.64664 25.0942 6.58748 26.7025 8.15069 27.1103L12.9324 28.3573C13.361 28.4689 13.8048 28.4808 14.2305 28.3953C14.5508 28.332 14.8622 28.2146 15.1488 28.0425C15.8167 27.6466 16.3009 26.9968 16.4951 26.2401L16.7151 25.3843C16.7373 25.2946 16.7552 25.2069 16.7699 25.1181C16.7901 25.0585 16.8144 25.0023 16.8283 24.9403L16.9635 24.412C17.1182 24.1633 17.2396 23.8875 17.3169 23.5898L17.4264 23.1608C17.5936 22.5066 17.9548 21.9268 18.4705 21.4848C18.9861 21.0428 19.6286 20.4178 20.3833 19.6298C20.4087 19.6048 20.4278 19.5775 20.4522 19.5503C20.6046 19.6201 20.7628 19.6794 20.93 19.7239L23.6775 20.4393C24.1062 20.5508 24.5489 20.5606 24.9756 20.4773C25.2959 20.414 25.6074 20.2966 25.894 20.1244C26.5618 19.7286 27.046 19.0788 27.2402 18.3221L27.4602 17.4663C27.8646 15.89 26.9238 14.2817 25.3606 13.8739L23.9942 13.5181L26.2146 12.1666C26.8785 11.762 27.3563 11.1098 27.5442 10.3508C27.7278 9.59384 27.6096 8.79097 27.2083 8.12158Z" fill="white"/>
<path d="M19.2045 15.1411C19.7359 12.5217 18.177 9.89421 15.6361 9.13101C12.8245 8.28641 9.9033 9.96691 9.17449 12.8045C9.17431 12.8099 9.17313 12.8131 9.17078 12.8195C8.99846 13.4972 9.01501 14.2094 9.18865 14.886C9.35768 15.541 9.626 16.5127 9.8836 17.2008C10.3624 18.4854 10.4369 19.8854 10.0975 21.2119L10.0948 21.229L14.2923 22.3225L14.296 22.3075C14.6366 20.9778 15.3771 19.7888 16.4139 18.8996C16.9516 18.4368 17.6259 17.7547 18.0841 17.2731C18.4682 16.8707 18.7702 16.3977 18.9693 15.877C19.0687 15.622 19.161 15.3517 19.2045 15.1411Z" fill="#FFD95C" stroke="#2576B9" stroke-miterlimit="10"/>
<path d="M10.5143 19.5823L14.7118 20.6757" stroke="#2576B9" stroke-miterlimit="10"/>
<path d="M14.2331 23.7684L9.44925 22.5224" stroke="#2576B9" stroke-miterlimit="10"/>
<path d="M13.8977 25.0694L9.11597 23.8224" stroke="#2576B9" stroke-miterlimit="10"/>
<path d="M16.6323 3.60571L15.7767 6.9439" stroke="#2576B9" stroke-miterlimit="10"/>
<path d="M3.30648 11.6494L6.05404 12.3648" stroke="#2576B9" stroke-miterlimit="10"/>
<path d="M21.6756 16.437L24.4232 17.1524" stroke="#2576B9" stroke-miterlimit="10"/>
<path d="M8.82214 7.40749L7.16218 4.77112" stroke="#2576B9" stroke-miterlimit="10"/>
<path d="M21.8443 10.8015L24.3818 9.25854" stroke="#2576B9" stroke-miterlimit="10"/>
<path d="M15.7134 12.0544L12.6718 13.7588L14.4657 15.4944L11.2467 17.3283" stroke="#2576B9" stroke-miterlimit="10"/>
</svg>
