<svg width="33" height="32" viewBox="0 0 33 32" fill="none" xmlns="http://www.w3.org/2000/svg">
<g clip-path="url(#clip0_3584_12466)">
<path d="M30.4519 19.8365L27.0131 17.971C26.7258 17.8151 26.4081 17.739 26.0923 17.7428C26.1075 17.7124 26.1265 17.6839 26.1398 17.6534C26.4681 16.9156 26.2942 16.0503 25.7059 15.497L23.5489 13.4641C23.6477 13.3937 23.7408 13.3139 23.8263 13.2207L24.2063 12.8118C24.5502 12.4429 24.7342 11.9523 24.7147 11.4483C24.6971 10.9444 24.4798 10.4671 24.1105 10.1229L21.2548 7.46059C20.657 6.90341 19.7972 6.80642 19.1071 7.15062L17.7516 5.8594C17.386 5.5114 16.9008 5.32124 16.393 5.33455C16.3245 5.33645 16.258 5.34216 16.1914 5.35166C16.0981 5.21284 15.9876 5.08353 15.8544 4.96943C15.8525 4.96943 15.7192 4.8192 15.6563 4.67087C15.6219 4.5872 15.5934 4.52254 15.8004 4.27913C16.4825 3.48044 16.3881 2.2805 15.5905 1.59781C14.8005 0.922724 13.6175 1.0064 12.9316 1.78037C12.5725 2.1607 12.4012 2.01427 12.2203 1.85834C11.4208 1.17564 10.2207 1.26882 9.53866 2.06561C8.86422 2.8548 8.94908 4.03762 9.72389 4.72412C10.0837 5.06451 9.97165 5.23566 9.82917 5.40681C9.0814 5.13488 8.31086 4.91048 7.52515 4.73553L5.40772 4.26392C4.75138 4.11749 4.07066 4.32667 3.61085 4.8154C3.24224 5.20524 3.06587 5.72629 3.10252 6.25114C2.91997 6.28918 2.74314 6.35383 2.57775 6.44321C1.85472 6.18268 1.01612 6.37855 0.487968 6.99659C0.182095 7.3541 0.0322702 7.79528 0.0327025 8.23266C0.0330146 8.54833 0.11131 8.86401 0.267556 9.14735C0.191682 9.35654 0.155758 9.57332 0.155974 9.79201C0.156504 10.3283 0.383372 10.8607 0.823113 11.2373C1.1829 11.5434 1.62242 11.6937 2.05988 11.6937C2.37562 11.6937 2.69128 11.6157 2.97453 11.4598C3.54344 11.6651 4.18054 11.5834 4.68614 11.2411C4.83864 11.5815 5.00064 11.9162 5.17405 12.2432C5.20454 12.3022 5.23884 12.3592 5.27503 12.4125C5.29797 12.5342 5.33423 12.6559 5.3838 12.7757L5.19376 12.943C4.44121 13.6029 4.33581 14.7249 4.92812 15.5141C4.39815 16.2177 4.41626 17.2199 5.01988 17.9082L7.68573 20.9509C8.01896 21.3312 8.48709 21.5632 8.99116 21.5955C9.03301 21.5974 9.07486 21.5993 9.1167 21.5993C9.57699 21.5993 10.0219 21.432 10.3697 21.1277L10.5597 20.9604C10.6248 21.3788 10.8268 21.7629 11.1352 22.0538L15.5711 26.2432C15.9328 26.5836 16.4028 26.7623 16.8783 26.7623C17.1294 26.7623 17.3823 26.7091 17.6218 26.6064C17.6184 26.962 17.7119 27.3195 17.9043 27.6314L19.9694 30.9536C20.2361 31.3814 20.6606 31.6876 21.1533 31.8017C21.296 31.8359 21.4425 31.8511 21.587 31.8511C21.9389 31.8511 22.2869 31.7542 22.5891 31.5659L23.0624 31.2711C23.9539 30.7178 24.2286 29.5444 23.6723 28.6526L23.2075 27.9052C23.2683 27.8158 23.3195 27.7189 23.3651 27.6181C23.5757 27.1407 23.5733 26.6045 23.3788 26.131L23.7822 26.3268C24.0467 26.4562 24.3302 26.517 24.6117 26.517C25.1233 26.517 25.6272 26.3116 25.9939 25.9218C26.5639 25.319 26.6752 24.4157 26.2713 23.6912L26.2294 23.617C26.5984 23.6607 26.9787 23.598 27.319 23.4249C27.4179 23.3755 27.511 23.3165 27.5966 23.2519L28.3711 23.6721C28.6528 23.8243 28.9648 23.9022 29.2786 23.9022C29.4593 23.9022 29.6419 23.8756 29.8187 23.8243C30.3017 23.6817 30.7084 23.3508 30.9495 22.9077L31.2153 22.4171C31.7184 21.4929 31.3749 20.3386 30.4519 19.8365ZM12.0616 12.5627H12.0673C12.1225 12.5627 12.1853 12.5874 12.2253 12.6255C12.2671 12.6654 12.2957 12.7263 12.2958 12.7852C12.2978 12.8423 12.2731 12.905 12.2332 12.9468C12.1933 12.9887 12.1324 13.0153 12.0754 13.0172L12.0616 12.5627ZM11.9019 12.635C11.938 12.595 11.997 12.5684 12.0502 12.5646L12.0583 13.0172C12.0069 13.0153 11.9479 12.9906 11.9118 12.9564C11.8185 12.8689 11.8145 12.7263 11.9019 12.635Z" fill="#CFD8DC"/>
<path d="M30.4503 18.6954L27.0115 16.8299C26.7242 16.674 26.4064 16.5979 26.0907 16.6017C26.1059 16.5713 26.1249 16.5427 26.1382 16.5123C26.4665 15.7745 26.2926 14.9092 25.7044 14.3558L23.5474 12.323C23.6463 12.2526 23.7394 12.1728 23.8249 12.0796L24.2049 11.6707C24.5488 11.3018 24.7329 10.8112 24.7134 10.3072C24.6958 9.8033 24.4785 9.32598 24.1092 8.98178L21.2536 6.31948C20.6558 5.76229 19.796 5.66531 19.1059 6.00951L17.7504 4.71829C17.3849 4.37029 16.8997 4.18012 16.3919 4.19343C16.3234 4.19534 16.2568 4.20104 16.1903 4.21055C16.0969 4.07173 15.9865 3.94242 15.8533 3.82832C15.8514 3.82832 15.7181 3.67809 15.6552 3.52976C15.6208 3.44609 15.5923 3.38143 15.7993 3.13802C16.4814 2.33933 16.3871 1.13939 15.5895 0.456696C14.7995 -0.218389 13.6165 -0.134717 12.9306 0.639254C12.5715 1.01958 12.4002 0.873157 12.2193 0.717222C11.4198 0.0345301 10.2197 0.127711 9.53765 0.924501C8.86318 1.71369 8.948 2.89651 9.72278 3.58301C10.0826 3.9234 9.97053 4.09455 9.82804 4.2657C9.08028 3.99376 8.30974 3.76937 7.52404 3.59442L5.40663 3.12281C4.75029 2.97638 4.06956 3.18556 3.60973 3.67428C3.24111 4.06412 3.06472 4.58517 3.10135 5.11003C2.91879 5.14806 2.74197 5.21272 2.57658 5.3021C1.85356 5.04157 1.01495 5.23744 0.486769 5.85548C0.180881 6.21299 0.0310402 6.65417 0.0314558 7.09155C0.0317558 7.40722 0.110039 7.72289 0.266275 8.00624C0.190393 8.21542 0.15446 8.43221 0.154668 8.6509C0.155177 9.18716 0.382025 9.71962 0.821752 10.0962C1.18153 10.4023 1.62104 10.5525 2.05851 10.5525C2.37424 10.5525 2.68991 10.4746 2.97316 10.3186C3.54206 10.524 4.17917 10.4423 4.68478 10.1C4.83727 10.4403 4.99926 10.775 5.17265 11.1021C5.20314 11.1611 5.23743 11.2181 5.27362 11.2714C5.29656 11.3931 5.33282 11.5148 5.38238 11.6346L5.19234 11.8019C4.43976 12.4618 4.33431 13.5838 4.9266 14.373C4.3966 15.0766 4.41467 16.0787 5.01827 16.7671L7.684 19.8098C8.01722 20.1901 8.48534 20.4221 8.98941 20.4544C9.03125 20.4563 9.0731 20.4582 9.11495 20.4582C9.57524 20.4582 10.0202 20.2909 10.3679 19.9866L10.558 19.8193C10.623 20.2376 10.825 20.6218 11.1334 20.9127L15.5691 25.1021C15.9309 25.4425 16.4008 25.6212 16.8763 25.6212C17.1274 25.6212 17.3803 25.568 17.6199 25.4653C17.6164 25.8209 17.71 26.1784 17.9024 26.4903L19.9673 29.8124C20.234 30.2403 20.6585 30.5465 21.1512 30.6606C21.2939 30.6948 21.4403 30.71 21.5849 30.71C21.9368 30.71 22.2848 30.613 22.587 30.4248L23.0603 30.13C23.9519 29.5766 24.2265 28.4033 23.6703 27.5114L23.2055 26.7641C23.2663 26.6747 23.3175 26.5777 23.3631 26.4769C23.5737 25.9996 23.5713 25.4634 23.3769 24.9899L23.7803 25.1857C24.0448 25.315 24.3283 25.3759 24.6098 25.3759C25.1214 25.3759 25.6253 25.1705 25.992 24.7807C26.562 24.1779 26.6734 23.2746 26.2695 22.55L26.2275 22.4759C26.5966 22.5196 26.9769 22.4569 27.3172 22.2838C27.4161 22.2344 27.5092 22.1754 27.5948 22.1108L28.3693 22.531C28.6509 22.6832 28.9629 22.7611 29.2768 22.7611C29.4575 22.7611 29.64 22.7345 29.8169 22.6832C30.2998 22.5405 30.7066 22.2096 30.9477 21.7666L31.2135 21.2759C31.7167 20.3517 31.3732 19.1974 30.4503 18.6954ZM12.0602 11.4216L12.0659 11.4216C12.1211 11.4216 12.1839 11.4463 12.2238 11.4844C12.2657 11.5243 12.2943 11.5851 12.2944 11.6441C12.2963 11.7011 12.2717 11.7639 12.2318 11.8057C12.1919 11.8476 12.131 11.8742 12.074 11.8761L12.0602 11.4216ZM11.9005 11.4939C11.9366 11.4539 11.9956 11.4273 12.0488 11.4235L12.0568 11.8761C12.0055 11.8742 11.9465 11.8495 11.9103 11.8152C11.817 11.7278 11.8131 11.5851 11.9005 11.4939Z" fill="white"/>
<path d="M7.49777 9.98206C6.9966 9.03124 6.59046 8.01385 6.28699 6.95654L5.99497 5.93726L7.02991 6.16735C8.12572 6.41267 9.1855 6.76637 10.1807 7.22467L10.4977 6.53437C9.45298 6.05516 8.34183 5.68243 7.19465 5.42761L4.91171 4.91797L5.55492 7.16572C5.87175 8.27438 6.29886 9.3412 6.8229 10.3377L7.49777 9.98206Z" fill="#2576B9"/>
<path d="M18.0367 13.5515C17.8127 14.0934 17.5204 14.6145 17.1652 15.1013L17.78 15.5482C18.1181 15.0842 18.4029 14.5917 18.6344 14.0801L20.207 15.5634L24.7456 15.9361L20.0679 11.5243L16.703 11.2486L14.6868 9.34881C13.9577 8.66232 13.1544 8.04048 12.2999 7.50612L11.8954 8.15077C12.708 8.66041 13.4713 9.24993 14.1643 9.90409L18.0367 13.5515ZM19.7415 12.2602L22.6467 14.9986L20.5353 14.8256L17.6301 12.0872L19.7415 12.2602Z" fill="#2576B9"/>
<path d="M7.15822 10.9006L7.31833 11.2448L7.47844 11.5909C7.60202 11.5338 10.5222 10.1551 11.7288 7.08395L11.021 6.80631C9.92818 9.58652 7.18483 10.8872 7.15822 10.9006Z" fill="#2576B9"/>
<path d="M10.8402 10.505C10.5153 10.8492 10.3426 11.3018 10.3583 11.7753C10.3721 12.2488 10.5703 12.69 10.9149 13.0152C11.2576 13.3385 11.6971 13.4982 12.1346 13.4982C12.6063 13.4982 13.0778 13.3118 13.4255 12.9429C13.7504 12.5987 13.9212 12.1461 13.9074 11.6726C13.8936 11.1991 13.6954 10.7579 13.3508 10.4328C13.0062 10.1076 12.5571 9.93452 12.0797 9.94973C11.6061 9.96114 11.1651 10.1589 10.8402 10.505ZM12.8302 10.9842C13.2376 11.3684 13.2572 12.0111 12.8734 12.4181C12.4896 12.825 11.8467 12.844 11.4393 12.4599C11.2413 12.2735 11.1289 12.0225 11.121 11.7506C11.1131 11.4806 11.2099 11.2219 11.3961 11.0242C11.5823 10.8264 11.8332 10.7142 12.1052 10.7066C12.3715 10.7009 12.6322 10.7979 12.8302 10.9842Z" fill="#2576B9"/>
<path d="M14.6981 13.6155L14.1764 14.1688L19.186 18.8913L19.7077 18.3381L14.6981 13.6155Z" fill="#2576B9"/>
<path d="M26.0871 18.414L25.9665 19.5854L24.2042 18.5737L23.8263 19.2317L26.6049 20.8291L26.7273 19.6272L29.2965 21.0211L29.6591 20.3517L26.0871 18.414Z" fill="#2576B9"/>
<path d="M21.8605 25.8589L20.1023 23.1814L19.4674 23.5979L20.5818 25.296L19.4198 25.4862L21.5649 28.9358L22.2093 28.5364L20.6681 26.0529L21.8605 25.8589Z" fill="#2576B9"/>
<path d="M20.8931 16.963L20.8797 16.9497C20.1544 16.267 19.1688 15.9 18.176 15.9456L18.211 16.7063C18.9984 16.6683 19.7823 16.9611 20.3591 17.505L20.3725 17.5183C20.6295 17.7617 20.8485 18.0412 21.0219 18.3512L23.0816 22.0442L19.2548 20.1882C18.937 20.0342 18.6458 19.8326 18.3888 19.5911C17.8138 19.0491 17.4764 18.2847 17.4661 17.4936L16.7053 17.5031C16.7196 18.4976 17.1428 19.4599 17.8663 20.1426C18.1785 20.4373 18.5344 20.6826 18.9226 20.8709L24.9226 23.7804L21.6853 17.9804C21.4757 17.6039 21.2091 17.2616 20.8931 16.963Z" fill="#2576B9"/>
<path d="M14.8704 18.0736C15.3685 17.813 15.8418 17.4974 16.2846 17.1342L15.8009 16.5465C15.3353 16.9288 14.8335 17.2502 14.305 17.5069L10.4345 13.8576C9.74155 13.2035 9.10746 12.477 8.55129 11.6954L7.93166 12.1366C8.5164 12.9581 9.18287 13.7226 9.91203 14.411L11.9282 16.3107L12.4032 19.6538L17.0827 24.0638L16.4449 19.555L14.8704 18.0736ZM13.118 19.283L12.8211 17.1855L15.7263 19.9258L16.0232 22.0233L13.118 19.283Z" fill="#2576B9"/>
<path d="M16.577 6.0968L16.0525 6.64729L20.1459 10.5462L20.6704 9.99572L16.577 6.0968Z" fill="#2576B9"/>
<path d="M20.0935 7.70792L19.5749 8.26404L22.431 10.9265L22.9495 10.3704L20.0935 7.70792Z" fill="#2576B9"/>
<path d="M7.00161 12.8715L6.42952 13.3724L9.09531 16.4151L9.66741 15.9142L7.00161 12.8715Z" fill="#2576B9"/>
<path d="M7.00385 15.1536L6.43175 15.6545L9.09755 18.6971L9.66964 18.1962L7.00385 15.1536Z" fill="#2576B9"/>
<path d="M14.4188 1.97619C14.4188 1.97619 12.8647 3.79226 11.0468 2.23671C11.0468 2.23671 12.8647 3.79226 11.3107 5.60834C11.3107 5.60834 12.8647 3.79226 14.6827 5.34781C14.6827 5.34781 12.8647 3.79226 14.4188 1.97619Z" fill="#2576B9"/>
<path d="M3.55561 7.04405C3.55561 7.04405 2.83747 7.88458 1.99606 7.16385C1.99606 7.16385 2.83747 7.88268 2.11743 8.7232C2.11743 8.7232 2.83557 7.88268 3.67698 8.6034C3.67698 8.6015 2.83747 7.88268 3.55561 7.04405Z" fill="#2576B9"/>
</g>
<defs>
<clipPath id="clip0_3584_12466">
<rect width="32" height="32" fill="white" transform="matrix(1 0 0.000988458 0.999999 0 0)"/>
</clipPath>
</defs>
</svg>
