<svg width="1440" height="370" viewBox="0 0 1440 370" fill="none" xmlns="http://www.w3.org/2000/svg">
<path d="M1436.82 324.682C1387.39 286.785 1236.53 186.557 1178.95 162.831C1158.8 154.522 1137.63 147.046 1115.84 147.763C1094.05 148.481 1071.36 159.057 1061.86 178.669C1043.08 217.472 1083.3 261.41 1078.03 304.192C1072.75 347.01 1021.72 371.543 979.154 364.399C936.59 357.255 899.55 330.24 862.698 307.795C798.167 268.5 770.425 245.339 717.721 200.558C689.889 176.912 661.438 152.882 627.635 139.051C593.832 125.212 553.16 123.034 522.19 142.394C488.136 163.682 473.368 175.389 434.696 196.847C359.288 238.688 283.137 219.928 211.719 179.843C171.317 157.175 133.039 130.733 97.4873 101.037C79.7159 86.1762 62.617 70.5171 46.2802 54.0963C31.656 39.3963 11.5533 22.7693 2.19238 4" stroke="white" stroke-width="8" stroke-miterlimit="10" stroke-linecap="round" stroke-linejoin="round" stroke-dasharray="1 20"/>
</svg>
