<svg width="95" height="95" viewBox="0 0 95 95" fill="none" xmlns="http://www.w3.org/2000/svg">
<g clip-path="url(#clip0_4745_17006)">
<path d="M4.64338 58.2988L14.75 52.8161C15.5945 52.3578 16.5283 52.1343 17.4562 52.1455C17.4116 52.056 17.3558 51.9722 17.3167 51.8828C16.3518 49.7143 16.863 47.1713 18.5919 45.545L24.9314 39.5704C24.6409 39.3636 24.3672 39.1289 24.1159 38.855L22.9991 37.6534C21.9884 36.5692 21.4476 35.1272 21.5049 33.6462C21.5567 32.1651 22.1954 30.7623 23.2808 29.7507L31.6736 21.9262C33.4305 20.2887 35.9575 20.0036 37.9857 21.0152L41.9695 17.2204C43.0438 16.1976 44.4698 15.6387 45.9623 15.6778C46.1636 15.6834 46.3592 15.7002 46.5548 15.7281C46.8291 15.3201 47.1537 14.9401 47.5454 14.6048C47.5509 14.6048 47.9427 14.1632 48.1276 13.7273C48.2285 13.4814 48.3125 13.2914 47.7039 12.576C45.6994 10.2286 45.9768 6.70203 48.321 4.69561C50.6428 2.71155 54.1196 2.95746 56.1353 5.23215C57.1907 6.34993 57.6943 5.91959 58.2258 5.4613C60.5756 3.45488 64.1026 3.72873 66.1071 6.07049C68.0893 8.38988 67.8399 11.8662 65.5627 13.8838C64.5052 14.8842 64.8346 15.3872 65.2533 15.8902C67.451 15.091 69.7156 14.4315 72.0248 13.9173L78.2479 12.5313C80.1769 12.1009 82.1775 12.7157 83.5289 14.1521C84.6122 15.2978 85.1305 16.8291 85.0228 18.3717C85.5593 18.4835 86.079 18.6735 86.5651 18.9362C88.6901 18.1705 91.1547 18.7461 92.7069 20.5625C93.6059 21.6132 94.0462 22.9099 94.045 24.1953C94.044 25.1231 93.8139 26.0508 93.3547 26.8836C93.5777 27.4984 93.6833 28.1355 93.6827 28.7782C93.6811 30.3543 93.0143 31.9192 91.722 33.0258C90.6645 33.9256 89.3728 34.3671 88.0871 34.3671C87.1592 34.3671 86.2314 34.138 85.399 33.6797C83.727 34.2833 81.8545 34.043 80.3686 33.037C79.9204 34.0374 79.4443 35.021 78.9346 35.9823C78.845 36.1556 78.7442 36.3233 78.6379 36.4797C78.5704 36.8374 78.4639 37.1951 78.3182 37.5472L78.8767 38.039C81.0884 39.9784 81.3982 43.2759 79.6574 45.5953C81.215 47.6632 81.1618 50.6085 79.3877 52.6317L71.5528 61.5739C70.5735 62.6917 69.1977 63.3736 67.7162 63.4686C67.5932 63.4742 67.4702 63.4798 67.3473 63.4798C65.9945 63.4798 64.6869 62.9879 63.6648 62.0937L63.1063 61.6019C62.915 62.8315 62.3213 63.9604 61.4149 64.8155L48.378 77.1279C47.3149 78.1283 45.9336 78.6537 44.5361 78.6537C43.7982 78.6537 43.0549 78.4972 42.3508 78.1954C42.361 79.2405 42.086 80.2912 41.5205 81.2078L35.4513 90.9716C34.6675 92.2291 33.42 93.1289 31.9718 93.4643C31.5525 93.5649 31.122 93.6096 30.6972 93.6096C29.663 93.6096 28.6403 93.3246 27.752 92.7713L26.361 91.905C23.7409 90.2786 22.9337 86.8302 24.5686 84.209L25.9347 82.0126C25.7561 81.7499 25.6055 81.4649 25.4716 81.1687C24.8525 79.7658 24.8596 78.1898 25.4312 76.7982L24.2455 77.3738C23.4681 77.7538 22.6351 77.9327 21.8077 77.9327C20.304 77.9327 18.8233 77.3291 17.7455 76.1834C16.0703 74.4117 15.7431 71.7569 16.9303 69.6276L17.0535 69.4096C15.9689 69.5381 14.851 69.3537 13.8509 68.8451C13.5604 68.6998 13.2866 68.5266 13.0353 68.3365L10.7589 69.5717C9.93115 70.0188 9.01416 70.2479 8.0918 70.2479C7.56075 70.2479 7.02418 70.1697 6.50446 70.0188C5.085 69.5996 3.88969 68.6272 3.18105 67.3249L2.39987 65.883C0.921201 63.1668 1.93075 59.7743 4.64338 58.2988ZM58.6922 36.9213H58.6754C58.5133 36.9213 58.3288 36.9939 58.2113 37.1057C58.0882 37.2231 58.0041 37.4019 58.004 37.5752C57.9982 37.7428 58.0707 37.9273 58.188 38.0502C58.3052 38.1732 58.484 38.2514 58.6517 38.257L58.6922 36.9213ZM59.1615 37.1336C59.0554 37.0163 58.8822 36.938 58.7257 36.9269L58.702 38.257C58.853 38.2514 59.0263 38.1788 59.1327 38.0782C59.4068 37.8211 59.4184 37.4019 59.1615 37.1336Z" fill="#CFD8DC"/>
<path d="M4.64838 54.9454L14.7548 49.4627C15.5993 49.0044 16.5331 48.7809 17.461 48.7921C17.4164 48.7026 17.3606 48.6188 17.3215 48.5294C16.3565 46.3609 16.8676 43.8179 18.5965 42.1916L24.9357 36.217C24.6452 36.0102 24.3715 35.7755 24.1202 35.5016L23.0033 34.3C21.9925 33.2158 21.4517 31.7738 21.509 30.2928C21.5607 28.8117 22.1993 27.4089 23.2847 26.3973L31.6772 18.5728C33.4341 16.9353 35.961 16.6502 37.9892 17.6618L41.973 13.867C43.0472 12.8442 44.4732 12.2853 45.9657 12.3244C46.1669 12.33 46.3626 12.3468 46.5582 12.3747C46.8325 11.9667 47.1571 11.5867 47.5487 11.2514C47.5543 11.2514 47.946 10.8098 48.1309 10.3739C48.2318 10.128 48.3158 9.93796 47.7072 9.22258C45.7026 6.87524 45.9798 3.34864 48.324 1.34222C50.6457 -0.641842 54.1225 -0.39593 56.1383 1.87876C57.1938 2.99654 57.6973 2.56619 58.2288 2.1079C60.5785 0.101483 64.1055 0.37534 66.1101 2.71709C68.0924 5.03649 67.8431 8.51279 65.5661 10.5304C64.5086 11.5308 64.8379 12.0338 65.2567 12.5368C67.4544 11.7376 69.7189 11.0781 72.0281 10.5639L78.2511 9.17787C80.1801 8.74753 82.1808 9.36231 83.5322 10.7987C84.6156 11.9444 85.134 13.4757 85.0263 15.0183C85.5628 15.1301 86.0825 15.3201 86.5686 15.5828C88.6936 14.8171 91.1582 15.3927 92.7105 17.2091C93.6095 18.2598 94.0499 19.5565 94.0487 20.8419C94.0478 21.7697 93.8177 22.6974 93.3586 23.5302C93.5816 24.145 93.6872 24.7821 93.6866 25.4248C93.6851 27.0009 93.0184 28.5658 91.726 29.6724C90.6686 30.5722 89.3769 31.0137 88.0912 31.0137C87.1633 31.0137 86.2355 30.7846 85.4031 30.3263C83.7311 30.9299 81.8586 30.6896 80.3726 29.6836C79.9245 30.684 79.4484 31.6676 78.9388 32.6289C78.8492 32.8022 78.7484 32.9699 78.6421 33.1263C78.5746 33.484 78.4681 33.8417 78.3224 34.1938L78.8809 34.6857C81.0928 36.625 81.4027 39.9225 79.662 42.2419C81.2196 44.3098 81.1665 47.2551 79.3925 49.2783L71.558 58.2205C70.5787 59.3383 69.2029 60.0202 67.7214 60.1152C67.5984 60.1208 67.4755 60.1264 67.3525 60.1264C65.9997 60.1264 64.6921 59.6345 63.67 58.7403L63.1114 58.2485C62.9202 59.4781 62.3266 60.607 61.4202 61.4621L48.3837 73.7745C47.3206 74.7749 45.9394 75.3003 44.5419 75.3003C43.804 75.3003 43.0607 75.1438 42.3566 74.842C42.3668 75.8871 42.0919 76.9378 41.5264 77.8544L35.4575 87.6182C34.6738 88.8757 33.4263 89.7755 31.9782 90.1109C31.5588 90.2115 31.1284 90.2562 30.7035 90.2562C29.6693 90.2562 28.6466 89.9711 27.7584 89.4178L26.3673 88.5516C23.7471 86.9252 22.9398 83.4768 24.5746 80.8556L25.9406 78.6592C25.762 78.3965 25.6114 78.1115 25.4775 77.8153C24.8583 76.4124 24.8654 74.8364 25.4369 73.4447L24.2513 74.0204C23.4739 74.4004 22.6408 74.5793 21.8135 74.5793C20.3098 74.5793 18.829 73.9757 17.7512 72.83C16.0759 71.0583 15.7486 68.4035 16.9357 66.2742L17.0589 66.0562C15.9743 66.1848 14.8565 66.0003 13.8563 65.4917C13.5658 65.3464 13.292 65.1732 13.0407 64.9831L10.7644 66.2183C9.93661 66.6654 9.01961 66.8945 8.09725 66.8945C7.5662 66.8945 7.02964 66.8163 6.50991 66.6654C5.09044 66.2462 3.89509 65.2737 3.18639 63.9715L2.40516 62.5296C0.926386 59.8134 1.93581 56.4209 4.64838 54.9454ZM58.6964 33.5679L58.6796 33.5679C58.5175 33.5679 58.333 33.6405 58.2155 33.7523C58.0924 33.8697 58.0084 34.0485 58.0082 34.2218C58.0024 34.3894 58.0749 34.5739 58.1922 34.6968C58.3095 34.8198 58.4883 34.898 58.656 34.9036L58.6964 33.5679ZM59.1657 33.7802C59.0596 33.6629 58.8864 33.5846 58.7299 33.5735L58.7063 34.9036C58.8572 34.898 59.0306 34.8254 59.1369 34.7248C59.4111 34.4677 59.4226 34.0485 59.1657 33.7802Z" fill="white"/>
<path d="M72.1044 29.337C73.5774 26.5426 74.771 23.5525 75.6629 20.4451L76.5211 17.4494L73.4795 18.1257C70.2589 18.8466 67.1442 19.8862 64.2193 21.2331L63.2878 19.2043C66.3581 17.7959 69.6238 16.7005 72.9953 15.9516L79.7048 14.4538L77.8144 21.0599C76.8833 24.3182 75.628 27.4536 74.0878 30.3822L72.1044 29.337Z" fill="#2576B9"/>
<path d="M41.1308 39.8274C41.7889 41.4202 42.6483 42.9516 43.6922 44.3824L41.8853 45.6958C40.8916 44.3321 40.0545 42.8845 39.374 41.3811L34.7524 45.7405L21.4135 46.8359L35.161 33.8696L45.0506 33.0592L50.9759 27.4759C53.1189 25.4583 55.4797 23.6308 57.9912 22.0603L59.18 23.9549C56.7916 25.4527 54.5483 27.1853 52.5116 29.1079L41.1308 39.8274ZM36.1203 36.0325L27.582 44.0806L33.7874 43.572L42.3258 35.524L36.1203 36.0325Z" fill="#2576B9"/>
<path d="M73.1024 32.0365L72.6318 33.0481L72.1612 34.0652C71.798 33.8976 63.2158 29.8456 59.6694 20.8195L61.7497 20.0036C64.9615 28.1745 73.0241 31.9973 73.1024 32.0365Z" fill="#2576B9"/>
<path d="M62.2812 30.874C63.2361 31.8856 63.7435 33.2157 63.6974 34.6074C63.6569 35.999 63.0742 37.2956 62.0615 38.2513C61.0544 39.2015 59.7626 39.6709 58.4769 39.6709C57.0906 39.6709 55.7048 39.1232 54.6829 38.039C53.728 37.0274 53.2262 35.6972 53.2667 34.3056C53.3072 32.9139 53.8898 31.6173 54.9026 30.6616C55.9153 29.7059 57.2351 29.1973 58.6381 29.242C60.03 29.2756 61.3263 29.8568 62.2812 30.874ZM56.4326 32.2824C55.2353 33.4113 55.1775 35.3004 56.3055 36.4964C57.4335 37.6924 59.3229 37.7483 60.5203 36.6194C61.1022 36.0717 61.4327 35.3339 61.4559 34.5347C61.479 33.7411 61.1947 32.981 60.6474 32.3998C60.1002 31.8185 59.3626 31.4888 58.5633 31.4664C57.7807 31.4496 57.0145 31.7347 56.4326 32.2824Z" fill="#2576B9"/>
<path d="M50.9429 40.0158L52.4761 41.6417L37.7529 55.5212L36.2197 53.8952L50.9429 40.0158Z" fill="#2576B9"/>
<path d="M17.4709 54.1182L17.8252 57.561L23.0045 54.5877L24.115 56.5215L15.949 61.2162L15.5891 57.684L8.03849 61.7806L6.97275 59.8133L17.4709 54.1182Z" fill="#2576B9"/>
<path d="M29.8927 75.9988L35.06 68.1296L36.9259 69.3536L33.6508 74.3445L37.0658 74.9034L30.7614 85.0417L28.8675 83.868L33.397 76.5689L29.8927 75.9988Z" fill="#2576B9"/>
<path d="M32.7359 49.8539L32.775 49.8148C34.9068 47.8084 37.8035 46.7297 40.7214 46.8638L40.6186 49.0994C38.3044 48.9876 36.0005 49.8483 34.3051 51.4467L34.2659 51.4859C33.5106 52.2013 32.8669 53.0228 32.3573 53.9338L26.3038 64.7875L37.5507 59.3327C38.4847 58.88 39.3406 58.2876 40.0959 57.5778C41.7857 55.9849 42.7773 53.7382 42.8076 51.4132L45.0436 51.4412C45.0015 54.3642 43.7578 57.1921 41.6316 59.1986C40.7139 60.0648 39.6679 60.7858 38.527 61.3391L20.8931 69.8901L30.4075 52.844C31.0235 51.7374 31.8071 50.7314 32.7359 49.8539Z" fill="#2576B9"/>
<path d="M50.4363 53.1178C48.9725 52.3522 47.5815 51.4244 46.28 50.3569L47.7016 48.6299C49.0701 49.7533 50.5449 50.6978 52.0982 51.4523L63.4733 40.7272C65.51 38.8046 67.3736 36.6697 69.0082 34.3726L70.8292 35.6693C69.1107 38.0837 67.152 40.3304 65.009 42.3536L59.0836 47.9369L57.6876 57.7622L43.9345 70.7229L45.809 57.4716L50.4363 53.1178ZM55.5868 56.6724L56.4593 50.5078L47.921 58.5614L47.0484 64.726L55.5868 56.6724Z" fill="#2576B9"/>
<path d="M45.4208 17.9183L46.9623 19.5362L34.9317 30.9951L33.3903 29.3772L45.4208 17.9183Z" fill="#2576B9"/>
<path d="M35.0859 22.6534L36.61 24.2878L28.216 32.1127L26.692 30.4783L35.0859 22.6534Z" fill="#2576B9"/>
<path d="M73.5626 37.8291L75.244 39.3012L67.4093 48.2437L65.7279 46.7715L73.5626 37.8291Z" fill="#2576B9"/>
<path d="M73.5561 44.536L75.2374 46.0081L67.4027 54.9505L65.7213 53.4784L73.5561 44.536Z" fill="#2576B9"/>
<path d="M51.7629 5.80778C51.7629 5.80778 56.3303 11.1452 61.6733 6.57346C61.6733 6.57346 56.3303 11.1452 60.8976 16.4826C60.8976 16.4826 56.3303 11.1452 50.9873 15.7169C50.9873 15.7169 56.3303 11.1452 51.7629 5.80778Z" fill="#2576B9"/>
<path d="M83.6903 20.7021C83.6903 20.7021 85.8009 23.1724 88.2738 21.0542C88.2738 21.0542 85.8009 23.1668 87.9171 25.6371C87.9171 25.6371 85.8065 23.1668 83.3336 25.285C83.3336 25.2795 85.8009 23.1668 83.6903 20.7021Z" fill="#2576B9"/>
</g>
<defs>
<clipPath id="clip0_4745_17006">
<rect width="94.0474" height="94.0474" fill="white" transform="matrix(-1 0 -0.000988458 0.999999 94.1406 0)"/>
</clipPath>
</defs>
</svg>
