<svg width="82" height="70" viewBox="0 0 82 70" fill="none" xmlns="http://www.w3.org/2000/svg">
<path d="M58.6302 2C58.6302 2 68.4102 14.17 80.6302 4.40002C80.6302 4.40002 68.4603 14.17 78.2303 26.4C78.2303 26.4 68.4603 14.22 56.2803 24C56.2803 24 68.4603 14.22 58.6803 2.05005" fill="#FFD95C"/>
<path d="M58.6294 2C58.6294 2 68.4094 14.17 80.6294 4.40002C80.6294 4.40002 68.4595 14.17 78.2295 26.4C78.2295 26.4 68.4595 14.22 56.2795 24C56.2295 23.95 68.4094 14.17 58.6294 2Z" fill="#FFD95C" stroke="#2576B9" stroke-width="3.65" stroke-miterlimit="10"/>
<path d="M51.0503 28.0999L16.9902 55.4498" stroke="#2576B9" stroke-width="3.65" stroke-miterlimit="10"/>
<path d="M11.8101 59.6099L2 67.4799" stroke="#2576B9" stroke-width="3.65" stroke-miterlimit="10"/>
<path d="M7.84961 34.8597L50.1995 16.4297" stroke="#2576B9" stroke-width="3.65" stroke-miterlimit="10"/>
<path d="M34.7598 68.3798L61.8997 31.0098" stroke="#2576B9" stroke-width="3.65" stroke-miterlimit="10"/>
</svg>
