<svg width="71" height="69" viewBox="0 0 71 69" fill="none" xmlns="http://www.w3.org/2000/svg">
<path d="M67.0199 38.3153C68.5809 42.2663 68.9353 46.5914 68.0384 50.7438C67.1415 54.8961 65.0335 58.6894 61.981 61.6439C58.9285 64.5983 55.0685 66.5813 50.8891 67.3422C46.7097 68.1031 42.3985 67.6076 38.5006 65.9185C34.6027 64.2294 31.2931 61.4226 28.9904 57.8527C26.6876 54.2829 25.495 50.1104 25.5633 45.8628C25.6317 41.6153 26.958 37.4833 29.3744 33.9894C31.7909 30.4955 35.189 27.7966 39.1392 26.2338C41.763 25.1942 44.566 24.6819 47.3878 24.7266C50.2097 24.7712 52.995 25.3718 55.5846 26.4939C58.1741 27.616 60.517 29.2377 62.4792 31.2661C64.4414 33.2946 65.9844 35.69 67.0199 38.3153V38.3153Z" stroke="#198BE1" stroke-width="2.36" stroke-miterlimit="10"/>
<path d="M61.6664 40.4211C63.1199 44.2912 62.995 48.5773 61.3186 52.3562C59.6421 56.135 56.5484 59.1041 52.7038 60.6237C48.8592 62.1433 44.5715 62.0918 40.7645 60.4804C36.9575 58.869 33.9359 55.8266 32.3506 52.0086" stroke="#198BE1" stroke-width="2.36" stroke-miterlimit="10"/>
<path d="M41.5266 41.9034C42.703 45.0091 42.5619 47.9737 41.1149 48.5501C39.6679 49.1265 37.5033 47.0796 36.2799 43.9857C35.0564 40.8917 35.2329 37.9037 36.6799 37.339C38.1268 36.7743 40.3032 38.8095 41.5266 41.9034Z" stroke="#198BE1" stroke-width="2.36" stroke-miterlimit="10"/>
<path d="M53.3499 37.2333C54.5263 40.3272 54.3851 43.3035 52.9381 43.88C51.4912 44.4564 49.3265 42.4095 48.1031 39.3038C46.8796 36.1981 47.0561 33.2335 48.5031 32.6571C49.9501 32.0806 52.1264 34.1394 53.3499 37.2333Z" stroke="#198BE1" stroke-width="2.36" stroke-miterlimit="10"/>
<path d="M36.4684 20.1754L28.6924 1" stroke="#198BE1" stroke-width="2.36" stroke-miterlimit="10"/>
<path d="M26.5046 27.0338L18.2227 19.3401" stroke="#198BE1" stroke-width="2.36" stroke-miterlimit="10"/>
<path d="M20.3401 37.4682L1 31.2098" stroke="#198BE1" stroke-width="2.36" stroke-miterlimit="10"/>
<path d="M48.3975 18.1519L48.9268 7.83496" stroke="#198BE1" stroke-width="2.36" stroke-miterlimit="10"/>
<path d="M60.1143 21.2929L69.1373 4.23511" stroke="#198BE1" stroke-width="2.36" stroke-miterlimit="10"/>
</svg>
