<svg width="121" height="100" viewBox="0 0 121 100" fill="none" xmlns="http://www.w3.org/2000/svg">
<path d="M90.4933 84.7896V56.6597H103.623L82.9933 36.02L77.3633 41.6499" stroke="white" stroke-width="3.75" stroke-linejoin="round"/>
<path d="M30.463 73.5396V54.7798H17.333L37.963 34.1396" stroke="white" stroke-width="3.75" stroke-linejoin="round"/>
<path d="M90.4922 88.5498V94.1699" stroke="white" stroke-width="3.75" stroke-linejoin="round"/>
<path d="M67.9827 32.27V24.7598H79.2426L60.4827 6L41.7227 24.7598H52.9727V32.27" stroke="white" stroke-width="3.75" stroke-linejoin="round"/>
<path d="M30.4629 77.2896V94.1699" stroke="white" stroke-width="3.75" stroke-linejoin="round"/>
<path d="M74.4932 54.4497C74.4932 57.2186 73.6721 59.9257 72.1338 62.228C70.5954 64.5303 68.4089 66.3246 65.8507 67.3843C63.2926 68.4439 60.4777 68.7209 57.7619 68.1807C55.0462 67.6405 52.5516 66.3071 50.5937 64.3491C48.6357 62.3912 47.3024 59.8969 46.7622 57.1812C46.222 54.4654 46.4992 51.6505 47.5589 49.0923C48.6185 46.5341 50.4129 44.3474 52.7152 42.8091C55.0175 41.2707 57.7243 40.4497 60.4932 40.4497C64.2062 40.4497 67.7672 41.9248 70.3927 44.5503C73.0182 47.1758 74.4932 50.7367 74.4932 54.4497Z" fill="#B9D7EF"/>
<path d="M74.4932 54.4497C74.4932 57.2186 73.6721 59.9257 72.1338 62.228C70.5954 64.5303 68.4089 66.3247 65.8507 67.3843C63.2926 68.4439 60.4777 68.7209 57.7619 68.1807C55.0462 67.6405 52.5516 66.3071 50.5937 64.3491C48.6357 62.3912 47.3024 59.8969 46.7622 57.1812C46.222 54.4654 46.4992 51.6505 47.5589 49.0923C48.6185 46.5341 50.4129 44.3474 52.7152 42.8091C55.0175 41.2707 57.7243 40.4497 60.4932 40.4497C64.2062 40.4497 67.7672 41.9248 70.3927 44.5503C73.0182 47.1758 74.4932 50.7367 74.4932 54.4497V54.4497Z" stroke="#2276BB" stroke-width="3.36" stroke-miterlimit="10"/>
<path d="M40.6133 94.29C40.7298 89.0987 42.8738 84.1592 46.5865 80.5288C50.2993 76.8985 55.2856 74.8657 60.4783 74.8657C65.6709 74.8657 70.6573 76.8985 74.37 80.5288C78.0827 84.1592 80.2268 89.0987 80.3433 94.29" fill="#B9D7EF"/>
<path d="M40.6133 94.29C40.7298 89.0987 42.8738 84.1592 46.5865 80.5288C50.2993 76.8985 55.2856 74.8657 60.4783 74.8657C65.6709 74.8657 70.6573 76.8985 74.37 80.5288C78.0827 84.1592 80.2268 89.0987 80.3433 94.29" stroke="#2276BB" stroke-width="3.36" stroke-miterlimit="10" stroke-linecap="round"/>
</svg>
