<svg width="121" height="100" viewBox="0 0 121 100" fill="none" xmlns="http://www.w3.org/2000/svg">
<path d="M69.4961 60.2002C69.4961 62.4707 68.8228 64.6902 67.5614 66.5781C66.3 68.466 64.507 69.9373 62.4093 70.8062C60.3116 71.675 58.0034 71.9024 55.7765 71.4595C53.5496 71.0165 51.5041 69.9229 49.8986 68.3174C48.2931 66.7119 47.1997 64.6664 46.7567 62.4395C46.3138 60.2126 46.5411 57.9043 47.41 55.8066C48.2789 53.7089 49.7503 51.9162 51.6382 50.6548C53.5261 49.3933 55.7456 48.7202 58.0161 48.7202C61.0608 48.7202 63.9809 49.9296 66.1338 52.0825C68.2867 54.2354 69.4961 57.1555 69.4961 60.2002Z" fill="#B9D7EF"/>
<path d="M69.4961 60.2002C69.4961 62.4707 68.8228 64.6902 67.5614 66.5781C66.3 68.466 64.507 69.9373 62.4093 70.8062C60.3116 71.675 58.0034 71.9024 55.7765 71.4595C53.5496 71.0165 51.5041 69.9229 49.8986 68.3174C48.2931 66.7119 47.1997 64.6664 46.7567 62.4395C46.3138 60.2126 46.5411 57.9043 47.41 55.8066C48.2789 53.7089 49.7503 51.9162 51.6382 50.6548C53.5261 49.3933 55.7456 48.7202 58.0161 48.7202C61.0608 48.7202 63.9809 49.9296 66.1338 52.0825C68.2867 54.2354 69.4961 57.1555 69.4961 60.2002V60.2002Z" stroke="#2276BB" stroke-width="3.27" stroke-miterlimit="10"/>
<path d="M41.626 92.98C41.7315 88.715 43.4999 84.6603 46.5537 81.6812C49.6075 78.702 53.7048 77.0342 57.9711 77.0342C62.2373 77.0342 66.3346 78.702 69.3884 81.6812C72.4422 84.6603 74.2105 88.715 74.316 92.98" fill="#B9D7EF"/>
<path d="M41.626 92.98C41.7315 88.715 43.4999 84.6603 46.5537 81.6812C49.6075 78.702 53.7048 77.0342 57.9711 77.0342C62.2373 77.0342 66.3346 78.702 69.3884 81.6812C72.4422 84.6603 74.2105 88.715 74.316 92.98" stroke="#2276BB" stroke-width="3.27" stroke-miterlimit="10" stroke-linecap="round"/>
<path d="M22.186 57.2402H14.4761C13.4647 57.2376 12.4956 56.8338 11.7814 56.1177C11.0671 55.4016 10.666 54.4313 10.666 53.4199V10.8101C10.6687 9.8004 11.071 8.83259 11.7849 8.11865C12.4989 7.40471 13.4664 7.00264 14.4761 7H66.056C67.0657 7.00264 68.0333 7.40471 68.7472 8.11865C69.4611 8.83259 69.8634 9.8004 69.8661 10.8101V38.1499" stroke="#2276BB" stroke-width="3.27" stroke-miterlimit="10" stroke-linecap="round"/>
<path d="M84.416 31.7603C84.416 31.7603 98.666 32.9001 97.526 51.1401" stroke="white" stroke-width="3.27" stroke-miterlimit="10" stroke-linecap="round"/>
<path d="M84.8965 18.0801C84.8965 18.0801 111.816 23.4501 109.896 54.5601" stroke="white" stroke-width="3.27" stroke-miterlimit="10" stroke-linecap="round"/>
<path d="M83.7261 43.6602H32.146C30.0363 43.6602 28.3262 45.3703 28.3262 47.48V90.0801C28.3262 92.1898 30.0363 93.8999 32.146 93.8999H83.7261C85.8358 93.8999 87.5461 92.1898 87.5461 90.0801V47.48C87.5461 45.3703 85.8358 43.6602 83.7261 43.6602Z" stroke="#2276BB" stroke-width="3.27" stroke-miterlimit="10" stroke-linecap="round"/>
<path d="M49.6759 27.9702C49.6759 28.7914 49.4323 29.5942 48.9759 30.2769C48.5194 30.9595 47.8706 31.4914 47.1117 31.8052C46.3528 32.119 45.518 32.2005 44.7127 32.0396C43.9074 31.8786 43.1679 31.4823 42.5879 30.9009C42.0079 30.3195 41.6135 29.5791 41.4545 28.7734C41.2955 27.9678 41.3791 27.1331 41.6947 26.375C42.0104 25.6169 42.5438 24.9695 43.2276 24.5147C43.9114 24.0599 44.7147 23.8179 45.5359 23.8198C46.0804 23.8198 46.6197 23.9276 47.1226 24.1362C47.6255 24.3449 48.0824 24.6507 48.467 25.0361C48.8515 25.4216 49.1562 25.8794 49.3637 26.3828C49.5712 26.8863 49.6773 27.4257 49.6759 27.9702Z" fill="#B9D7EF"/>
<path d="M38.5363 41.3103C38.5282 39.9235 38.9323 38.5657 39.6971 37.4089C40.462 36.2521 41.5531 35.3484 42.8323 34.8127C44.1114 34.2771 45.5209 34.1335 46.8818 34.4001C48.2427 34.6667 49.4938 35.3316 50.4763 36.3103C49.3237 37.7154 48.7259 39.4942 48.7963 41.3103H38.5363Z" fill="#B9D7EF"/>
<path d="M60.596 27.9702C60.596 28.7914 60.3522 29.5942 59.8958 30.2769C59.4393 30.9595 58.7906 31.4914 58.0317 31.8052C57.2729 32.119 56.4379 32.2005 55.6326 32.0396C54.8273 31.8786 54.0879 31.4823 53.5079 30.9009C52.928 30.3195 52.5334 29.5791 52.3744 28.7734C52.2154 27.9678 52.2991 27.1331 52.6148 26.375C52.9304 25.6169 53.4638 24.9695 54.1476 24.5147C54.8314 24.0599 55.6347 23.8179 56.4559 23.8198C57.0005 23.8198 57.5395 23.9276 58.0425 24.1362C58.5454 24.3449 59.0023 24.6507 59.3869 25.0361C59.7714 25.4216 60.0762 25.8794 60.2837 26.3828C60.4912 26.8863 60.5973 27.4257 60.596 27.9702Z" fill="#B9D7EF"/>
<path d="M49.4561 41.3101C49.4561 39.4535 50.1935 37.6731 51.5062 36.3604C52.819 35.0476 54.5995 34.3101 56.4561 34.3101C58.3126 34.3101 60.093 35.0476 61.4058 36.3604C62.7185 37.6731 63.4561 39.4535 63.4561 41.3101" fill="#B9D7EF"/>
<path d="M29.5355 17.1401C29.5355 18.0974 29.2516 19.0332 28.7198 19.8291C28.188 20.625 27.4321 21.2455 26.5477 21.6118C25.6633 21.9782 24.6902 22.074 23.7513 21.8872C22.8124 21.7005 21.95 21.2394 21.2732 20.5625C20.5963 19.8856 20.1352 19.0234 19.9484 18.0845C19.7617 17.1456 19.8576 16.1725 20.224 15.2881C20.5903 14.4037 21.2106 13.6476 22.0066 13.1157C22.8025 12.5839 23.7383 12.2998 24.6955 12.2998C25.3315 12.2985 25.9615 12.4233 26.5493 12.666C27.1371 12.9088 27.6711 13.2652 28.1208 13.7149C28.5705 14.1646 28.927 14.6983 29.1698 15.2861C29.4125 15.874 29.5368 16.5042 29.5355 17.1401Z" fill="#2276BB"/>
<path d="M29.9161 42.8101C33.5561 42.8101 33.9762 40.1001 33.9762 40.1001V27.8101C33.9762 25.3201 31.8962 24.5303 29.9762 24.5303H19.3262C17.4562 24.5303 15.3262 25.3201 15.3262 27.8101V40.1001C15.3262 40.1001 15.7361 42.8101 19.3861 42.8101C19.4861 43.1201 19.3861 54.5601 19.3861 54.5601H29.7362L29.9161 42.8101Z" fill="#2276BB"/>
<path d="M24.626 26.73L26.6357 36.9399L24.626 39.2998L22.7559 36.9399L24.626 26.73Z" fill="#B9D7EF"/>
</svg>
