<svg width="912" height="115" viewBox="0 0 912 115" fill="none" xmlns="http://www.w3.org/2000/svg">
<path fill-rule="evenodd" clip-rule="evenodd" d="M912 107.753L912 3.17115C912 -0.171298 910.672 -3.3768 908.309 -5.74027C905.945 -8.10374 902.74 -9.43164 899.397 -9.43164H12.6028C10.9449 -9.43165 9.30325 -9.10457 7.77198 -8.46909C6.24072 -7.8336 4.8499 -6.9022 3.67918 -5.72831C2.50846 -4.55441 1.58086 -3.16097 0.949526 -1.62799C0.318194 -0.0950098 -0.00445063 1.54748 4.6369e-05 3.20537V109.428C4.6369e-05 109.454 0.00012779 109.481 0.000290492 109.507V97.6004C80.1048 108.478 160.846 113.997 241.685 114.123C322.993 114.278 380.114 108.94 438.954 103.441C488.378 98.8221 539.015 94.0899 606.219 92.4045C677.984 90.6041 782.099 91.9373 912 107.753Z" fill="#F9CD54"/>
</svg>
