<svg width="120" height="100" viewBox="0 0 120 100" fill="none" xmlns="http://www.w3.org/2000/svg">
<path d="M115.08 6.07231H64.3304C64.1865 6.07099 64.0436 6.0982 63.9102 6.15239C63.7768 6.20658 63.6555 6.28688 63.5532 6.38823C63.4509 6.48958 63.3698 6.61031 63.3144 6.74321C63.259 6.87611 63.2305 7.01866 63.2305 7.16264V47.8023C63.2309 48.0074 63.2887 48.2088 63.3973 48.3829C63.506 48.5569 63.6611 48.6967 63.8452 48.7872C64.0293 48.8776 64.2351 48.9149 64.4392 48.8946C64.6433 48.8743 64.8377 48.7974 65.0004 48.6724L74.4404 41.2828H115.07C115.214 41.2828 115.357 41.2542 115.49 41.1988C115.623 41.1434 115.743 41.0618 115.845 40.9595C115.946 40.8572 116.026 40.736 116.08 40.6026C116.135 40.4692 116.162 40.3266 116.16 40.1827V7.18266C116.16 6.89358 116.046 6.61608 115.841 6.41167C115.637 6.20725 115.36 6.09233 115.07 6.09233L115.08 6.07231ZM112.84 37.9825H73.3304L66.6005 43.1626V9.41264H112.89L112.84 37.9825Z" fill="#2276BB"/>
<path d="M112.85 9.39258V37.9624H73.2905L66.5605 43.1426V9.39258H112.85Z" fill="#B9D7EF"/>
<path d="M54.8401 50.3623H4.09007C3.94609 50.3623 3.80354 50.3909 3.67064 50.4463C3.53774 50.5017 3.41713 50.5828 3.31578 50.6851C3.21443 50.7873 3.13431 50.9091 3.08012 51.0425C3.02594 51.1759 2.99872 51.3184 3.00005 51.4624V84.4624C3.00005 84.7515 3.11491 85.029 3.31932 85.2334C3.52374 85.4378 3.80099 85.5522 4.09007 85.5522H44.94L54.1501 92.9126C54.312 93.04 54.5065 93.1194 54.7113 93.1416C54.9161 93.1638 55.1231 93.1277 55.3086 93.0381C55.4941 92.9485 55.6507 92.8086 55.7606 92.6343C55.8705 92.46 55.9292 92.2583 55.93 92.0522V51.4424C55.9314 51.2984 55.9041 51.1559 55.85 51.0225C55.7958 50.8891 55.7157 50.7673 55.6144 50.665C55.513 50.5628 55.3924 50.4817 55.2595 50.4263C55.1266 50.3709 54.9841 50.3423 54.8401 50.3423V50.3623ZM52.6101 87.4126L46.1001 82.2324H6.33006V53.6626H52.62L52.6101 87.4126Z" fill="#2276BB"/>
<path d="M52.6102 53.6826V87.4326L46.1002 82.2524H6.32031V53.6826H52.6102Z" fill="#B9D7EF"/>
<path d="M56.1697 6.00244C47.3072 6.43398 38.8915 10.0226 32.4446 16.1191C25.9978 22.2157 21.9452 30.4181 21.0197 39.2427L17.7496 35.9727C17.5954 35.8181 17.4123 35.6954 17.2107 35.6118C17.0091 35.5282 16.7929 35.4849 16.5746 35.4849C16.3564 35.4849 16.1402 35.5282 15.9386 35.6118C15.737 35.6954 15.5538 35.8181 15.3997 35.9727C15.2455 36.126 15.1231 36.308 15.0396 36.5088C14.9561 36.7096 14.9131 36.9251 14.9131 37.1426C14.9131 37.36 14.9561 37.5751 15.0396 37.7759C15.1231 37.9767 15.2455 38.1592 15.3997 38.3125L21.7097 44.6323C21.811 44.7348 21.9317 44.8165 22.0648 44.8721C22.1978 44.9276 22.3405 44.9561 22.4847 44.9561C22.6288 44.9561 22.7715 44.9276 22.9045 44.8721C23.0376 44.8165 23.1583 44.7348 23.2596 44.6323L29.5797 38.3125C29.7339 38.1592 29.8562 37.9767 29.9397 37.7759C30.0232 37.5751 30.0662 37.36 30.0662 37.1426C30.0662 36.9251 30.0232 36.7096 29.9397 36.5088C29.8562 36.308 29.7339 36.126 29.5797 35.9727C29.4255 35.8181 29.2423 35.6954 29.0407 35.6118C28.8391 35.5282 28.6229 35.4849 28.4047 35.4849C28.1864 35.4849 27.9702 35.5282 27.7686 35.6118C27.567 35.6954 27.3839 35.8181 27.2297 35.9727L24.4197 38.7725C25.4397 30.8995 29.1944 23.6356 35.0273 18.2505C40.8603 12.8654 48.4005 9.70168 56.3297 9.3125C56.7506 9.28938 57.1464 9.10509 57.435 8.79785C57.7236 8.49061 57.8828 8.08412 57.8796 7.6626C57.88 7.43682 57.8342 7.21336 57.7452 7.00586C57.6562 6.79836 57.5259 6.61095 57.3621 6.45556C57.1983 6.30018 57.0045 6.17997 56.7926 6.10205C56.5807 6.02412 56.3551 5.9902 56.1296 6.00244" fill="white"/>
<path d="M97.6797 55.6523C97.5784 55.5498 97.4577 55.4686 97.3247 55.4131C97.1917 55.3576 97.0489 55.3291 96.9048 55.3291C96.7606 55.3291 96.6179 55.3576 96.4848 55.4131C96.3518 55.4686 96.2311 55.5498 96.1297 55.6523L89.8197 61.9727C89.6656 62.126 89.5432 62.308 89.4597 62.5088C89.3762 62.7096 89.3332 62.9251 89.3332 63.1426C89.3332 63.36 89.3762 63.5751 89.4597 63.7759C89.5432 63.9767 89.6656 64.1592 89.8197 64.3125C89.9731 64.4667 90.1554 64.5889 90.3562 64.6724C90.557 64.7559 90.7723 64.7988 90.9897 64.7988C91.2072 64.7988 91.4225 64.7559 91.6233 64.6724C91.8241 64.5889 92.0064 64.4667 92.1598 64.3125L94.9698 61.5127C93.9522 69.3936 90.1929 76.6646 84.3509 82.0513C78.509 87.4379 70.9572 90.5965 63.0198 90.9727C62.5989 90.9958 62.203 91.1801 61.9144 91.4873C61.6258 91.7945 61.4666 92.201 61.4698 92.6226C61.4694 92.8483 61.5152 93.0718 61.6042 93.2793C61.6932 93.4868 61.8235 93.6737 61.9874 93.8291C62.1512 93.9845 62.3449 94.1052 62.5568 94.1831C62.7687 94.261 62.9943 94.295 63.2198 94.2827C72.0752 93.8419 80.4813 90.249 86.9199 84.1533C93.3585 78.0576 97.4054 69.8606 98.3298 61.0425L101.6 64.3125C101.754 64.467 101.937 64.5897 102.139 64.6733C102.34 64.757 102.556 64.7998 102.775 64.7998C102.993 64.7998 103.209 64.757 103.411 64.6733C103.612 64.5897 103.796 64.467 103.95 64.3125C104.104 64.1592 104.226 63.9767 104.31 63.7759C104.393 63.5751 104.436 63.36 104.436 63.1426C104.436 62.9251 104.393 62.7096 104.31 62.5088C104.226 62.308 104.104 62.126 103.95 61.9727L97.6797 55.6523Z" fill="white"/>
<path d="M13.5203 62.5425H38.5203C38.9606 62.5425 39.3828 62.3675 39.6941 62.0562C40.0054 61.7448 40.1803 61.3226 40.1803 60.8823C40.1803 60.4421 40.0054 60.0198 39.6941 59.7085C39.3828 59.3972 38.9606 59.2227 38.5203 59.2227H13.5203C13.0801 59.2227 12.6578 59.3972 12.3465 59.7085C12.0352 60.0198 11.8604 60.4421 11.8604 60.8823C11.8604 61.3226 12.0352 61.7448 12.3465 62.0562C12.6578 62.3675 13.0801 62.5425 13.5203 62.5425Z" fill="#2276BB"/>
<path d="M13.5203 69.6323H38.5203C38.9606 69.6323 39.3828 69.4578 39.6941 69.1465C40.0054 68.8352 40.1803 68.4129 40.1803 67.9727C40.1803 67.5324 40.0054 67.1101 39.6941 66.7988C39.3828 66.4875 38.9606 66.3125 38.5203 66.3125H13.5203C13.0801 66.3125 12.6578 66.4875 12.3465 66.7988C12.0352 67.1101 11.8604 67.5324 11.8604 67.9727C11.8604 68.4129 12.0352 68.8352 12.3465 69.1465C12.6578 69.4578 13.0801 69.6323 13.5203 69.6323Z" fill="#2276BB"/>
<path d="M13.5203 76.7227H31.4603C31.9006 76.7227 32.3228 76.5476 32.6341 76.2363C32.9454 75.925 33.1203 75.5028 33.1203 75.0625C33.1203 74.6222 32.9454 74.2 32.6341 73.8887C32.3228 73.5774 31.9006 73.4023 31.4603 73.4023H13.5203C13.0801 73.4023 12.6578 73.5774 12.3465 73.8887C12.0352 74.2 11.8604 74.6222 11.8604 75.0625C11.8604 75.5028 12.0352 75.925 12.3465 76.2363C12.6578 76.5476 13.0801 76.7227 13.5203 76.7227Z" fill="#2276BB"/>
<path d="M73.7596 18.2524H91.6996C92.1398 18.2524 92.5621 18.0774 92.8734 17.7661C93.1847 17.4548 93.3596 17.0325 93.3596 16.5923C93.3596 16.152 93.1847 15.7298 92.8734 15.4185C92.5621 15.1071 92.1398 14.9326 91.6996 14.9326H73.7596C73.3193 14.9326 72.8971 15.1071 72.5858 15.4185C72.2745 15.7298 72.0996 16.152 72.0996 16.5923C72.0996 17.0325 72.2745 17.4548 72.5858 17.7661C72.8971 18.0774 73.3193 18.2524 73.7596 18.2524Z" fill="#2276BB"/>
<path d="M73.7596 25.3423H105.87C106.289 25.3098 106.68 25.1207 106.966 24.812C107.252 24.5033 107.41 24.0978 107.41 23.6772C107.41 23.2567 107.252 22.8516 106.966 22.543C106.68 22.2343 106.289 22.0452 105.87 22.0127H73.7596C73.3403 22.0452 72.9487 22.2343 72.663 22.543C72.3774 22.8516 72.2188 23.2567 72.2188 23.6772C72.2188 24.0978 72.3774 24.5033 72.663 24.812C72.9487 25.1207 73.3403 25.3098 73.7596 25.3423Z" fill="#2276BB"/>
<path d="M73.7596 32.4224H88.1596C88.3776 32.4224 88.5935 32.3793 88.7949 32.2959C88.9963 32.2125 89.1792 32.0902 89.3334 31.936C89.4875 31.7819 89.6098 31.5993 89.6932 31.3979C89.7767 31.1965 89.8196 30.9807 89.8196 30.7627C89.8196 30.5447 89.7767 30.3288 89.6932 30.1274C89.6098 29.926 89.4875 29.743 89.3334 29.5889C89.1792 29.4347 88.9963 29.3124 88.7949 29.229C88.5935 29.1456 88.3776 29.1025 88.1596 29.1025H73.7596C73.3193 29.1025 72.8971 29.2776 72.5858 29.5889C72.2745 29.9002 72.0996 30.3224 72.0996 30.7627C72.0996 31.203 72.2745 31.6247 72.5858 31.936C72.8971 32.2473 73.3193 32.4224 73.7596 32.4224Z" fill="#2276BB"/>
</svg>
