<svg width="68" height="68" viewBox="0 0 68 68" fill="none" xmlns="http://www.w3.org/2000/svg">
<path d="M25.1734 43.6111C23.5269 42.4146 22.2098 40.8183 21.3452 38.9713C19.6412 35.3761 19.416 31.2513 20.7185 27.4906C22.021 23.7299 24.7462 20.6359 28.3041 18.8786C31.8619 17.1214 35.9659 16.8428 39.7271 18.1025C43.4883 19.3622 46.604 22.0589 48.3992 25.609L25.1734 43.6111ZM25.1734 43.6111C26.7684 44.7788 29.1558 46.474 30.9978 47.5591L25.1734 43.6111ZM39.2507 19.5249C42.6305 20.6568 45.433 23.0783 47.052 26.2689C47.3344 26.8666 47.5737 27.4841 47.7681 28.1165L47.7703 28.1239L47.7727 28.1313C48.2072 29.4947 48.3703 30.9308 48.2524 32.3576L48.252 32.3623C48.0988 34.2913 47.8256 36.9999 47.4688 38.9923C46.7797 42.7403 47.1232 46.5966 48.4486 50.1486L39.5375 54.2598C37.7191 50.9444 35.033 48.1772 31.7565 46.2651C29.9853 45.2214 27.6522 43.5668 26.0595 42.4008L26.0552 42.3976C24.6143 41.3505 23.461 39.9531 22.7038 38.3354L22.7038 38.3354L22.7007 38.3288C21.165 35.0889 20.9619 31.371 22.1359 27.9815C23.3097 24.5922 25.7652 21.8056 28.9683 20.2235C32.1711 18.6416 35.8651 18.391 39.2507 19.5249Z" stroke="#FFD75D" stroke-width="3" stroke-miterlimit="10"/>
<path d="M36.8252 49.6613L47.1872 44.891" stroke="#FFD75D" stroke-width="3" stroke-miterlimit="10"/>
<path d="M51.4828 53.3036L40.2175 59.0078" stroke="#FFD75D" stroke-width="3" stroke-miterlimit="10"/>
<path d="M53.0334 56.4452L41.6875 62.0735" stroke="#FFD75D" stroke-width="3" stroke-miterlimit="10"/>
<path d="M23.4127 6.73694L27.1656 14.9252" stroke="#FFD75D" stroke-width="3" stroke-miterlimit="10"/>
<path d="M9.49188 45.2248L16.2766 42.103" stroke="#FFD75D" stroke-width="3" stroke-miterlimit="10"/>
<path d="M54.8405 24.3366L61.6254 21.2148" stroke="#FFD75D" stroke-width="3" stroke-miterlimit="10"/>
<path d="M13.7441 27.4488L6.01654 24.8649" stroke="#FFD75D" stroke-width="3" stroke-miterlimit="10"/>
<path d="M45.9022 12.6376L48.5273 5.28284" stroke="#FFD75D" stroke-width="3" stroke-miterlimit="10"/>
<path d="M35.4572 25.3927L32.0649 33.9143L38.5907 34.4331L35.0413 43.5111" stroke="#FFD75D" stroke-width="3" stroke-miterlimit="10"/>
</svg>
