<svg width="100" height="100" viewBox="0 0 100 100" fill="none" xmlns="http://www.w3.org/2000/svg">
<g style="mix-blend-mode:multiply" opacity="0.75">
<g style="mix-blend-mode:multiply" opacity="0.75">
<g style="mix-blend-mode:multiply" opacity="0.75">
<path d="M73.7397 27.21L73.7498 15.7002L58.6498 15.6899L58.6398 27.2002L58.6298 33.8198L42.8298 65.3501L34.2898 48.23L14.9697 86.77L32.0898 86.79L87.7598 86.8398L61.3098 33.8198L61.3198 27.2002L73.7397 27.21Z" fill="#C1C3C5"/>
</g>
</g>
</g>
<path d="M30.1199 82.4199L55.83 31.1099L81.45 82.4702L30.1199 82.4199Z" fill="#FFD75D"/>
<path d="M30.1199 82.4199L55.83 31.1099L81.45 82.4702L30.1199 82.4199Z" stroke="#2276BB" stroke-width="2.68" stroke-miterlimit="10"/>
<path d="M47.2598 48.2202L64.3698 48.23" stroke="#2276BB" stroke-width="2.68" stroke-miterlimit="10"/>
<path d="M38.6901 65.3198L30.15 48.2002L13 82.4102L30.12 82.4199L38.6901 65.3198Z" fill="#FFD75D"/>
<path d="M38.6901 65.3198L30.15 48.2002L13 82.4102L30.12 82.4199L38.6901 65.3198Z" stroke="#2276BB" stroke-width="2.68" stroke-miterlimit="10"/>
<path d="M55.8301 31.1099L55.85 14" stroke="#2276BB" stroke-width="2.68" stroke-miterlimit="10"/>
<path d="M68.2598 14.0103H55.8398V22.8398H68.2598V14.0103Z" fill="white"/>
<path d="M68.2598 14.0103H55.8398V22.8398H68.2598V14.0103Z" stroke="#2276BB" stroke-width="2.68" stroke-miterlimit="10"/>
</svg>
