<svg width="97" height="102" viewBox="0 0 97 102" fill="none" xmlns="http://www.w3.org/2000/svg">
<path d="M66.78 76.5098C64.9464 83.1064 61.0236 88.931 55.6 93.1099C51.94 90.9199 48.6001 89.05 45.3101 87.48C48.2099 82.7946 50.4193 77.7157 51.8701 72.3999L66.78 76.5098Z" fill="#AEDEF7"/>
<path d="M66.78 76.5098C64.9464 83.1064 61.0236 88.931 55.6 93.1099C51.94 90.9199 48.6001 89.05 45.3101 87.48C48.2099 82.7946 50.4193 77.7157 51.8701 72.3999L66.78 76.5098Z" stroke="#2276BB" stroke-width="3.35" stroke-linejoin="round"/>
<path d="M66.7801 76.5098L51.8701 72.3999C53.3872 67.1149 54.1315 61.6384 54.0801 56.1401C57.6801 56.4501 61.5501 56.5798 65.8201 56.5698C68.3139 62.9307 68.665 69.9313 66.8201 76.5098" fill="#AEDEF7"/>
<path d="M66.7801 76.5098L51.8701 72.3999C53.3872 67.1149 54.1315 61.6384 54.0801 56.1401C57.6801 56.4501 61.5501 56.5798 65.8201 56.5698C68.3007 62.9351 68.6377 69.9356 66.7801 76.5098Z" stroke="#2276BB" stroke-width="3.35" stroke-linejoin="round"/>
<path d="M65.8203 56.5698C61.5503 56.5698 57.6803 56.4501 54.0803 56.1401C53.9003 46.8001 50.8503 39.7098 45.5503 38.0498C50.1336 39.3538 54.3507 41.7062 57.8687 44.9204C61.3866 48.1346 64.1089 52.1226 65.8203 56.5698" fill="#AEDEF7"/>
<path d="M65.8203 56.5698C61.5503 56.5698 57.6803 56.4501 54.0803 56.1401C53.9003 46.8001 50.8503 39.7098 45.5503 38.0498C50.1336 39.3538 54.3507 41.7062 57.8687 44.9204C61.3866 48.1346 64.1089 52.1226 65.8203 56.5698V56.5698Z" stroke="#2276BB" stroke-width="3.35" stroke-linejoin="round"/>
<path d="M45.0402 37.9102C39.6402 36.6202 33.3302 41.1501 28.3202 49.0801C25.4389 53.7429 23.2399 58.7941 21.7902 64.0801L6.89014 59.9702C9.07076 52.0128 14.2949 45.2329 21.4334 41.0957C28.572 36.9585 37.0517 35.796 45.0402 37.8599" fill="#AEDEF7"/>
<path d="M45.0402 37.9101C39.6402 36.6201 33.3302 41.1501 28.3202 49.0801C25.4389 53.7428 23.2399 58.7941 21.7902 64.0801L6.89014 59.9702C9.08141 52.022 14.3099 45.2541 21.4473 41.1269C28.5846 36.9998 37.0585 35.8445 45.0402 37.9101V37.9101Z" stroke="#2276BB" stroke-width="3.35" stroke-linejoin="round"/>
<path d="M19.5804 80.3599C15.9804 80.0399 12.1104 79.9202 7.8404 79.9502C5.3517 73.5917 5.00068 66.5957 6.8404 60.02L21.7504 64.1299C20.2336 69.4047 19.4892 74.8715 19.5404 80.3599" fill="#AEDEF7"/>
<path d="M19.5804 80.3599C15.9804 80.0399 12.1104 79.9202 7.8404 79.9502C5.3517 73.5917 5.00068 66.5957 6.8404 60.02L21.7504 64.1299C20.2471 69.4067 19.5162 74.8735 19.5804 80.3599Z" stroke="#2276BB" stroke-width="3.35" stroke-linejoin="round"/>
<path d="M28.1104 98.4702C23.524 97.1726 19.3036 94.8225 15.7848 91.6074C12.266 88.3924 9.5457 84.4011 7.84033 79.9502C12.1103 79.9502 15.9803 80.0399 19.5803 80.3599C19.7503 89.7099 22.8004 96.8202 28.1104 98.4702" fill="#AEDEF7"/>
<path d="M28.1104 98.4702C23.524 97.1726 19.3036 94.8225 15.7848 91.6074C12.266 88.3924 9.5457 84.4011 7.84033 79.9502C12.1103 79.9502 15.9803 80.0399 19.5803 80.3599C19.7503 89.7099 22.8004 96.8202 28.1104 98.4702Z" stroke="#2276BB" stroke-width="3.35" stroke-linejoin="round"/>
<path d="M55.6001 93.1099C51.8283 96.0462 47.4286 98.0708 42.7448 99.0249C38.0609 99.979 33.22 99.8368 28.6001 98.6099C34.0001 99.9099 40.2901 95.39 45.2901 87.48C48.5401 89.05 51.9201 90.9199 55.5801 93.1099" fill="#AEDEF7"/>
<path d="M55.6001 93.1099C51.8283 96.0462 47.4286 98.0708 42.7448 99.0249C38.0609 99.979 33.22 99.8368 28.6001 98.6099C34.0001 99.9099 40.2901 95.39 45.2901 87.48C48.5601 89.05 51.9401 90.9199 55.6001 93.1099Z" stroke="#2276BB" stroke-width="3.35" stroke-linejoin="round"/>
<path d="M54.0803 56.1402C49.6134 55.7843 45.1884 55.0208 40.8603 53.86C36.54 52.6624 32.3416 51.0623 28.3203 49.0802C33.3203 41.1502 39.6403 36.6202 45.0403 37.9102L45.3003 37.9801L45.5503 38.0499C50.8503 39.7099 53.9003 46.8002 54.0803 56.1402Z" fill="#AEDEF7"/>
<path d="M54.0803 56.1402C49.6134 55.7843 45.1884 55.0208 40.8603 53.86C36.54 52.6624 32.3416 51.0623 28.3203 49.0802C33.3203 41.1502 39.6403 36.6202 45.0403 37.9102L45.3003 37.9801L45.5503 38.0499C50.8503 39.7099 53.9003 46.8002 54.0803 56.1402Z" stroke="#2276BB" stroke-width="3.35" stroke-linejoin="round"/>
<path d="M40.8604 53.8599L36.8604 68.2598L21.8604 64.1299C23.3101 58.8439 25.509 53.7926 28.3903 49.1299C32.4116 51.112 36.61 52.7127 40.9304 53.9102" fill="#AEDEF7"/>
<path d="M40.8604 53.8599L36.8604 68.2598L21.8604 64.1299C23.3101 58.8439 25.509 53.7926 28.3903 49.1299C32.3909 51.0908 36.5657 52.6743 40.8604 53.8599V53.8599Z" stroke="#2276BB" stroke-width="3.35" stroke-linejoin="round"/>
<path d="M32.8001 82.6699L28.3601 98.5498L28.1101 98.4702C22.8101 96.8202 19.7501 89.7099 19.5801 80.3599C24.0485 80.7206 28.4741 81.494 32.8001 82.6699" fill="#AEDEF7"/>
<path d="M32.8001 82.6699L28.3601 98.5498L28.1101 98.4702C22.8101 96.8202 19.7501 89.7099 19.5801 80.3599C24.0485 80.7206 28.4741 81.494 32.8001 82.6699V82.6699Z" stroke="#2276BB" stroke-width="3.35" stroke-linejoin="round"/>
<path d="M45.3104 87.48C40.3104 95.39 34.0204 99.9099 28.6204 98.6099C28.5327 98.5946 28.4459 98.5745 28.3604 98.5498L32.8004 82.6699C37.1087 83.8873 41.2962 85.4975 45.3104 87.48" fill="#AEDEF7"/>
<path d="M45.3104 87.48C40.3104 95.39 34.0204 99.9099 28.6204 98.6099C28.5327 98.5946 28.4459 98.5745 28.3604 98.5498L32.8004 82.6699C37.1087 83.8873 41.2962 85.4975 45.3104 87.48V87.48Z" stroke="#2276BB" stroke-width="3.35" stroke-linejoin="round"/>
<path d="M28.3203 49.0801C25.0703 47.5101 21.7003 45.6399 18.0503 43.4399Z" fill="#AEDEF7"/>
<path d="M28.3203 49.0801C25.0703 47.5101 21.7003 45.6399 18.0503 43.4399" stroke="#2276BB" stroke-width="3.35" stroke-linejoin="round"/>
<path d="M36.8299 68.23L32.8299 82.6401C28.5038 81.4642 24.0784 80.6908 19.6099 80.3301C19.5587 74.8417 20.3031 69.3749 21.8199 64.1001L36.8299 68.23Z" fill="#AEDEF7"/>
<path d="M36.8299 68.23L32.8299 82.6401C28.5038 81.4642 24.0784 80.6908 19.6099 80.3301C19.5587 74.8417 20.3031 69.3749 21.8199 64.1001L36.8299 68.23Z" stroke="#2276BB" stroke-width="3.35" stroke-linejoin="round"/>
<path d="M51.8701 72.3999L36.8701 68.2598L40.8701 53.8599C45.1982 55.0207 49.6232 55.7842 54.0901 56.1401C54.1415 61.6384 53.3972 67.1149 51.8801 72.3999" fill="#AEDEF7"/>
<path d="M51.8701 72.3999L36.8701 68.2598L40.8701 53.8599C45.1982 55.0207 49.6232 55.7842 54.0901 56.1401C54.1383 61.6388 53.3906 67.1154 51.8701 72.3999V72.3999Z" stroke="#2276BB" stroke-width="3.35" stroke-linejoin="round"/>
<path d="M51.8703 72.3999C50.4196 77.7157 48.2102 82.7946 45.3103 87.48C41.2962 85.4975 37.1086 83.8873 32.8003 82.6699L36.8003 68.2598L51.8703 72.3999Z" fill="#AEDEF7"/>
<path d="M51.8703 72.3999C50.4196 77.7157 48.2102 82.7946 45.3103 87.48C41.2962 85.4975 37.1086 83.8873 32.8003 82.6699L36.8003 68.2598L51.8703 72.3999Z" stroke="#2276BB" stroke-width="3.35" stroke-linejoin="round"/>
<path d="M40.8501 53.8501L45.29 37.98" stroke="#2276BB" stroke-width="3.35" stroke-linejoin="round"/>
<path d="M47.1001 26.96L54.5801 0" stroke="#E99EC4" stroke-width="3.75" stroke-miterlimit="10"/>
<path d="M30.77 26.0801L28.25 11.0098" stroke="#E99EC4" stroke-width="3.75" stroke-miterlimit="10"/>
<path d="M15.5701 32.1802L0 9.52979" stroke="#E99EC4" stroke-width="3.75" stroke-miterlimit="10"/>
<path d="M61.5601 34.6299L70.62 24.0098" stroke="#E99EC4" stroke-width="3.75" stroke-miterlimit="10"/>
<path d="M71.5103 47.6499L95.2502 36.8301" stroke="#E99EC4" stroke-width="3.75" stroke-miterlimit="10"/>
</svg>
