<svg width="100" height="100" viewBox="0 0 100 100" fill="none" xmlns="http://www.w3.org/2000/svg">
<g style="mix-blend-mode:multiply" opacity="0.75">
<g style="mix-blend-mode:multiply" opacity="0.75">
<g style="mix-blend-mode:multiply" opacity="0.75">
<path d="M5.93346 58.3948C4.36416 56.9429 3.31095 55.0191 2.93346 52.9148C2.63629 51.3116 2.74804 49.6592 3.25842 48.1106C3.76879 46.562 4.66123 45.1668 5.85339 44.0544L7.08337 42.8948C7.15711 41.8233 7.40022 40.7701 7.80346 39.7746C8.60074 37.8106 10.0015 36.1505 11.8035 35.0344L15.4934 25.9846L15.6034 25.6848C16.455 23.6638 17.8648 21.927 19.6677 20.6784C21.4706 19.4299 23.5921 18.7209 25.7834 18.6345L61.7834 17.9148C64.8166 17.8341 67.7617 18.9386 69.9934 20.9944C70.1734 21.1644 70.3634 21.3446 70.5334 21.5246C70.5334 21.5246 95.6634 47.0845 95.7034 47.1145C97.2323 48.7106 98.2672 50.7147 98.6831 52.8855C99.099 55.0562 98.8783 57.3011 98.0476 59.3493C97.2169 61.3975 95.8117 63.1616 94.0012 64.4294C92.1907 65.6972 90.0522 66.4142 87.8434 66.4944L78.3934 66.6848L73.4834 78.7346C72.5564 81.0088 70.764 82.8215 68.5005 83.7741C66.2369 84.7268 63.6877 84.7416 61.4134 83.8147C56.1134 81.6547 51.5834 81.4548 47.1434 83.2048C45.5211 83.8369 43.7542 84.0011 42.0431 83.6794C40.332 83.3577 38.7453 82.5627 37.4634 81.3845C36.548 80.5408 35.8133 79.5202 35.3035 78.3845C34.401 76.3303 33.0834 74.4851 31.4335 72.9646C29.4516 71.1912 27.1646 69.7921 24.6835 68.8347C23.6522 68.4219 22.7062 67.8218 21.8934 67.0647C21.7234 66.9147 21.5735 66.7545 21.4235 66.5945C20.3781 65.4612 19.6292 64.0871 19.2434 62.5945C17.2371 63.036 15.1438 62.8545 13.2434 62.0744L8.95336 60.3244C7.82649 59.8597 6.79064 59.1999 5.89343 58.3747" fill="#C1C3C5"/>
</g>
</g>
</g>
<path d="M5.1633 55.4845C3.59632 54.0309 2.54356 52.1078 2.1633 50.0045C1.86519 48.4013 1.97649 46.7486 2.48691 45.1998C2.99734 43.6511 3.89031 42.2565 5.08323 41.1447L6.31333 39.9845C6.41905 38.3875 6.90654 36.8393 7.73484 35.4699C8.56313 34.1004 9.70804 32.9495 11.0733 32.1144L14.7633 23.0646C14.7633 22.9646 14.8433 22.8645 14.8733 22.7745C15.7208 20.7507 17.1295 19.0115 18.9333 17.7623C20.7371 16.5131 22.8607 15.8063 25.0533 15.7247L61.0533 15.0045C64.0853 14.9201 67.0306 16.0213 69.2633 18.0743C69.4433 18.2443 69.6333 18.4244 69.8033 18.6144L94.9732 44.2047C96.5022 45.8008 97.5371 47.805 97.953 49.9757C98.3689 52.1465 98.1482 54.3909 97.3175 56.4391C96.4868 58.4873 95.0816 60.2514 93.2711 61.5192C91.4606 62.7869 89.322 63.5044 87.1133 63.5846L77.6633 63.7745L72.7533 75.8243C71.8244 78.0968 70.0312 79.9073 67.7678 80.858C65.5044 81.8088 62.9563 81.8221 60.6833 80.8947C55.3833 78.7347 50.8533 78.5446 46.4133 80.2946C44.1924 81.1831 41.7139 81.1788 39.4962 80.2824C37.2784 79.3859 35.493 77.6667 34.5133 75.4845C33.6109 73.4299 32.2973 71.5817 30.6533 70.0543C28.6649 68.2872 26.3752 66.8921 23.8933 65.9347C22.862 65.5219 21.916 64.9218 21.1032 64.1647C20.9432 64.0147 20.7833 63.8547 20.6333 63.6847C19.5866 62.5525 18.8374 61.178 18.4532 59.6847C16.446 60.125 14.3521 59.9397 12.4532 59.1544L8.1633 57.4147C7.03211 56.9525 5.99241 56.2919 5.09324 55.4645" fill="white"/>
<path d="M64.1533 72.2944C57.2933 69.4944 50.3033 68.7745 43.0033 71.6445C39.7833 64.4945 34.2833 60.1242 27.4233 57.3242L34.6333 39.6445L49.0133 54.2744C49.2431 54.5252 49.5253 54.7224 49.8398 54.8521C50.1544 54.9817 50.4935 55.0405 50.8333 55.0244L71.3633 54.6143L64.1533 72.2944Z" fill="white"/>
<path d="M64.1533 72.2944C57.2933 69.4944 50.3033 68.7745 43.0033 71.6445C39.7833 64.4945 34.2833 60.1242 27.4233 57.3242L34.6333 39.6445L49.0133 54.2744C49.2431 54.5252 49.5253 54.7224 49.8398 54.8521C50.1544 54.9817 50.4935 55.0405 50.8333 55.0244L71.3633 54.6143L64.1533 72.2944Z" stroke="#D1232A" stroke-width="3.27" stroke-linejoin="round"/>
<path d="M27.4233 57.3242L27.4133 57.3145" stroke="#D1232A" stroke-width="3.27" stroke-linejoin="round"/>
<path d="M86.7232 54.2946L71.3632 54.6144L50.8332 55.0245C50.4934 55.0406 50.1543 54.9818 49.8398 54.8522C49.5253 54.7226 49.2431 54.5253 49.0133 54.2745L34.6333 39.6447L23.8532 28.6945C23.5552 28.3886 23.3523 28.0029 23.2689 27.5841C23.1855 27.1653 23.2252 26.7313 23.3833 26.3346C23.5479 25.937 23.8247 25.5954 24.1798 25.3522C24.5349 25.1089 24.953 24.9744 25.3833 24.9645L61.2633 24.2443C61.6031 24.2282 61.9423 24.2875 62.2568 24.4171C62.5713 24.5467 62.8534 24.7435 63.0832 24.9943L88.2432 50.5744C88.5437 50.8806 88.7481 51.2682 88.8311 51.6891C88.9142 52.11 88.8723 52.5461 88.7108 52.9435C88.5492 53.3409 88.2751 53.6823 87.922 53.9259C87.5688 54.1695 87.1521 54.3047 86.7232 54.3146" fill="#D1232A"/>
<path d="M86.7232 54.2946L71.3632 54.6144L50.8332 55.0245C50.4934 55.0406 50.1543 54.9818 49.8398 54.8522C49.5253 54.7226 49.2431 54.5253 49.0133 54.2745L34.6333 39.6447L23.8532 28.6945C23.5552 28.3886 23.3523 28.0029 23.2689 27.5841C23.1855 27.1653 23.2252 26.7313 23.3833 26.3346V26.3346C23.5479 25.937 23.8247 25.5954 24.1798 25.3522C24.5349 25.1089 24.953 24.9744 25.3833 24.9645L61.2633 24.2443C61.6031 24.2282 61.9423 24.2875 62.2568 24.4171C62.5713 24.5467 62.8534 24.7435 63.0832 24.9943L88.2432 50.5744C88.5372 50.8815 88.7358 51.2671 88.8151 51.6847C88.8945 52.1023 88.8512 52.5344 88.6904 52.9279C88.5296 53.3214 88.2582 53.6599 87.9091 53.9025C87.56 54.145 87.1481 54.2812 86.7232 54.2946V54.2946Z" stroke="#D1232A" stroke-width="3.27" stroke-linejoin="round"/>
<path d="M23.3833 26.3145L17.0735 41.8042" stroke="#D1232A" stroke-width="3.27" stroke-miterlimit="10"/>
<path d="M19.1934 41.7947C18.9534 42.3747 17.9532 42.5147 16.9532 42.1047C15.9532 41.6947 15.3434 40.9047 15.5734 40.3147C15.8034 39.7247 16.8134 39.5946 17.8134 40.0046C18.8134 40.4146 19.4334 41.2147 19.1934 41.7947Z" stroke="#D1232A" stroke-width="3.27" stroke-miterlimit="10"/>
<path d="M11.3734 47.8644L15.3734 44.0743C15.4842 43.9945 15.6133 43.9444 15.7489 43.9278C15.8844 43.9113 16.022 43.9292 16.1488 43.9801C16.2755 44.031 16.3872 44.1132 16.4737 44.2189C16.5602 44.3245 16.6186 44.4503 16.6434 44.5846L16.8834 50.1246C16.8834 50.5346 16.4333 50.7643 15.9633 50.5743L11.6834 48.8243C11.2534 48.6343 11.0834 48.1444 11.3734 47.8644Z" stroke="#D1232A" stroke-width="3.27" stroke-miterlimit="10"/>
</svg>
