<svg width="117" height="106" viewBox="0 0 117 106" fill="none" xmlns="http://www.w3.org/2000/svg">
<g clip-path="url(#clip0_5089_49506)">
<path d="M115.39 36.67L106.16 34.16L109.41 22.22C109.65 21.32 109.12 20.39 108.22 20.15C83.5797 13.45 72.6897 17.96 68.3597 21.3C66.5397 16.23 59.6897 6.94004 34.3997 0.0600374C33.4997 -0.179963 32.5697 0.350037 32.3297 1.25004L29.0797 13.19L19.8497 10.68C18.9497 10.44 18.0197 10.97 17.7797 11.87L0.0596712 77C-0.180329 77.9 0.349671 78.83 1.24967 79.07L37.6197 88.97C38.5197 89.21 39.4497 88.68 39.6897 87.78C39.9297 86.88 39.3997 85.95 38.4997 85.71L3.75967 76.26L20.5997 14.38L28.1997 16.45L14.8997 65.3C14.6597 66.2 15.1897 67.13 16.0897 67.37C48.3697 76.15 47.6997 88.2 47.6797 88.45C47.5697 89.29 48.1097 90.07 48.9097 90.29C48.9797 90.31 49.0497 90.32 49.1197 90.33C49.1397 90.33 49.1697 90.33 49.1897 90.33C49.2797 90.37 49.3597 90.41 49.4597 90.43C49.5797 90.46 49.6897 90.48 49.8097 90.49C49.8697 90.52 49.9397 90.55 49.9997 90.57C50.7397 90.77 51.5497 90.44 51.9297 89.75C51.9897 89.64 58.3597 78.87 89.9097 87.46C90.8097 87.7 91.7397 87.17 91.9797 86.27L105.27 37.42L112.87 39.49L96.0297 101.37L60.1997 91.62C59.2997 91.38 58.3697 91.91 58.1297 92.81C57.8897 93.71 58.4197 94.64 59.3197 94.88L96.7697 105.07C97.6697 105.31 98.5997 104.78 98.8397 103.88L116.56 38.74C116.82 37.84 116.29 36.91 115.39 36.67ZM18.5997 64.56L35.1397 3.77004C64.6797 12.2 65.6197 23.46 65.6397 24.5L49.6597 83.25C47.0397 78.14 39.5697 70.54 18.5997 64.56ZM89.1697 83.77C68.1397 78.34 57.7297 81.35 52.8497 84.43L68.8897 25.47C69.7397 24.34 77.3697 15.66 105.71 22.98L89.1697 83.77Z" fill="#D4E7F7"/>
<path d="M92.9492 37.64C85.5892 36.43 79.0892 36.16 73.6392 36.84C72.7192 36.96 72.0592 37.8 72.1692 38.72C72.2592 39.42 72.7592 39.97 73.3992 40.14C73.6092 40.2 73.8292 40.21 74.0492 40.19C79.1792 39.55 85.3492 39.81 92.3892 40.97C93.3092 41.12 94.1792 40.5 94.3292 39.58C94.4992 38.66 93.8692 37.79 92.9492 37.64Z" fill="#D4E7F7"/>
<path d="M89.4101 50.67C82.0501 49.46 75.5501 49.19 70.1001 49.87C69.1801 49.99 68.5201 50.83 68.6301 51.75C68.7201 52.45 69.2201 53 69.8601 53.17C70.0701 53.23 70.2901 53.24 70.5101 53.22C75.6401 52.58 81.8101 52.84 88.8501 54C89.7701 54.15 90.6401 53.53 90.7901 52.61C90.9501 51.69 90.3301 50.82 89.4101 50.67Z" fill="#D4E7F7"/>
<path d="M85.8593 63.7001C78.4993 62.4901 71.9993 62.2201 66.5493 62.9001C65.6293 63.0201 64.9693 63.8601 65.0893 64.7801C65.1793 65.4801 65.6793 66.0201 66.3193 66.2001C66.5293 66.2601 66.7493 66.2701 66.9693 66.2501C72.0993 65.6101 78.2693 65.8701 85.3093 67.0301C86.2293 67.1801 87.0993 66.5601 87.2493 65.6401C87.4093 64.7201 86.7793 63.8501 85.8593 63.7001Z" fill="#D4E7F7"/>
<path d="M37.4297 26.0201C44.0897 28.5901 49.5397 31.4901 53.6397 34.6401C53.8197 34.7801 54.0197 34.8801 54.2297 34.9301C54.8697 35.1001 55.5797 34.8901 56.0097 34.3301C56.5797 33.5901 56.4397 32.5301 55.6997 31.9601C51.3497 28.6101 45.6097 25.5501 38.6497 22.8701C37.7697 22.5301 36.7997 22.9701 36.4697 23.8401C36.1297 24.7001 36.5697 25.6801 37.4297 26.0201Z" fill="#D4E7F7"/>
<path d="M33.8899 39.04C40.5499 41.61 45.9999 44.51 50.0999 47.66C50.2799 47.8 50.4799 47.9 50.6899 47.95C51.3299 48.12 52.0399 47.91 52.4699 47.35C53.0399 46.61 52.8999 45.55 52.1599 44.98C47.8099 41.63 42.0699 38.57 35.1099 35.89C34.2299 35.55 33.2599 35.99 32.9299 36.86C32.5899 37.73 33.0199 38.71 33.8899 39.04Z" fill="#D4E7F7"/>
<path d="M48.6097 58.01C44.2597 54.66 38.5197 51.6 31.5597 48.92C30.6897 48.58 29.7097 49.02 29.3797 49.89C29.0397 50.76 29.4797 51.74 30.3497 52.07C37.0097 54.64 42.4597 57.54 46.5597 60.69C46.7397 60.83 46.9397 60.93 47.1497 60.98C47.7897 61.15 48.4997 60.94 48.9297 60.38C49.4897 59.64 49.3497 58.58 48.6097 58.01Z" fill="#D4E7F7"/>
</g>
<defs>
<clipPath id="clip0_5089_49506">
<rect width="116.63" height="105.12" fill="white"/>
</clipPath>
</defs>
</svg>
