<svg width="104" height="139" viewBox="0 0 104 139" fill="none" xmlns="http://www.w3.org/2000/svg">
<g clip-path="url(#clip0_5089_52009)">
<path d="M95.3597 101.5L87.3197 86.11C86.8397 85.2 85.7197 84.85 84.8097 85.32L73.8297 91.05C65.4097 74.27 69.0697 50.93 69.1097 50.7C69.2397 49.93 68.8697 49.16 68.1897 48.78L9.62971 15.71H9.61971C9.60971 15.71 9.60971 15.7 9.59971 15.7C9.56971 15.69 9.54971 15.68 9.51971 15.67C9.46971 15.65 9.41971 15.63 9.36971 15.61C9.33971 15.6 9.30971 15.58 9.27971 15.57C9.23971 15.56 9.19971 15.55 9.15971 15.54C9.15971 15.54 9.15971 15.54 9.14971 15.54C9.06971 15.51 8.99971 15.49 8.91971 15.48H8.90971C8.86971 15.48 8.82971 15.48 8.77971 15.48C8.70971 15.48 8.63971 15.47 8.56971 15.48C8.55971 15.48 8.54971 15.48 8.54971 15.48C8.48971 15.49 8.42971 15.5 8.36971 15.51C8.34971 15.51 8.32971 15.52 8.30971 15.52C8.27971 15.53 8.24971 15.53 8.21971 15.54C8.20971 15.54 8.19971 15.55 8.18971 15.55C8.12971 15.57 8.06971 15.6 8.00971 15.62C7.96971 15.64 7.91971 15.65 7.87971 15.67C7.86971 15.67 7.86971 15.67 7.85971 15.68C7.85971 15.68 7.85971 15.68 7.84971 15.69C7.79971 15.72 7.74971 15.76 7.69971 15.79C7.65971 15.82 7.60971 15.84 7.56971 15.88C7.51971 15.92 7.46971 15.97 7.41971 16.02L7.40971 16.03C7.36971 16.07 7.33971 16.1 7.29971 16.14C7.28971 16.15 7.28971 16.15 7.27971 16.16C7.23971 16.21 7.20971 16.26 7.16971 16.32C7.15971 16.33 7.15971 16.34 7.14971 16.35C7.12971 16.38 7.10971 16.4 7.08971 16.44V16.45C7.08971 16.46 7.07971 16.46 7.07971 16.47C7.03971 16.54 7.01971 16.61 6.98971 16.68C6.97971 16.72 6.94971 16.75 6.93971 16.79C6.93971 16.8 6.93971 16.81 6.92971 16.82C6.90971 16.87 6.90971 16.93 6.89971 16.98C6.88971 17.03 6.86971 17.09 6.86971 17.14V17.15V17.16L0.00971032 84.38C-0.0702897 85.16 0.34971 85.91 1.05971 86.25C1.27971 86.35 22.4997 96.65 31.4797 113.18L18.8497 119.78C17.9397 120.26 17.5897 121.38 18.0597 122.29L26.0997 137.68C26.5797 138.59 27.6997 138.94 28.6097 138.47L94.5697 104.02C95.4797 103.54 95.8297 102.42 95.3597 101.5ZM3.83971 83.48L9.93971 23.68L27.7397 57.76C27.7697 57.81 27.7997 57.85 27.8297 57.89C23.2597 61.28 21.6897 67.59 24.3997 72.79C27.4097 78.55 34.5397 80.79 40.2997 77.78C46.0597 74.77 48.2997 67.64 45.2897 61.88C42.5697 56.68 36.4997 54.36 31.0997 56.18C31.0797 56.13 31.0697 56.08 31.0397 56.03L13.2797 22.03L65.2497 51.4C64.5497 56.73 62.5997 77.05 70.5297 92.78L34.7797 111.45C26.3997 95.97 8.62971 85.97 3.83971 83.48ZM31.1097 60.2C35.0497 58.14 39.9297 59.67 41.9897 63.61C44.0497 67.55 42.5197 72.43 38.5797 74.49C34.6397 76.55 29.7597 75.02 27.6997 71.08C25.6397 67.14 27.1697 62.26 31.1097 60.2ZM28.5297 134.3L22.2097 122.21L84.8697 89.48L91.1897 101.57L28.5297 134.3Z" fill="#D4E7F7"/>
<path d="M88.4501 46.99C88.4501 46.99 90.1401 33.73 76.8701 32.04C76.8701 32.04 90.1301 33.73 91.8201 20.46C91.8201 20.46 90.1301 33.72 103.4 35.41C103.4 35.42 90.1401 33.73 88.4501 46.99Z" stroke="#D4E7F7" stroke-width="2" stroke-miterlimit="10"/>
<path d="M57.8296 15.46C57.8296 15.46 55.3896 7.88005 47.8096 10.32C47.8096 10.32 55.3896 7.88005 52.9496 0.300049C52.9496 0.300049 55.3896 7.88005 62.9696 5.44005C62.9596 5.44005 55.3796 7.89005 57.8296 15.46Z" stroke="#D4E7F7" stroke-width="2" stroke-miterlimit="10"/>
</g>
<defs>
<clipPath id="clip0_5089_52009">
<rect width="103.53" height="138.68" fill="white"/>
</clipPath>
</defs>
</svg>
