<svg width="100" height="95" viewBox="0 0 100 95" fill="none" xmlns="http://www.w3.org/2000/svg">
<g style="mix-blend-mode:multiply" opacity="0.75">
<g style="mix-blend-mode:multiply" opacity="0.75">
<g style="mix-blend-mode:multiply" opacity="0.75">
<path d="M85.0402 4.00977H54.0402C50.1255 4.02829 46.3779 5.5995 43.6201 8.37793C40.8623 11.1564 39.3194 14.9154 39.3301 18.8301V19.2202H23.4901C20.0613 19.2201 16.7713 20.5745 14.3364 22.9888C11.9016 25.403 10.5191 28.6811 10.4901 32.1099V66.73C8.58848 67.5806 6.97337 68.9633 5.8396 70.7109C4.70583 72.4586 4.10176 74.4969 4.1001 76.5801V83.79C4.10275 86.6509 5.24036 89.3936 7.26331 91.4165C9.28625 93.4394 12.0293 94.5774 14.8901 94.5801H84.42C87.2792 94.5748 90.0196 93.4357 92.0404 91.4131C94.0612 89.3904 95.1974 86.6492 95.2001 83.79V76.5801C95.2005 74.4977 94.5984 72.4597 93.4663 70.7119C92.3342 68.9641 90.7206 67.5811 88.8201 66.73V51.8701C91.963 51.0158 94.7373 49.1502 96.7146 46.562C98.6919 43.9739 99.7622 40.8068 99.7601 37.5498V18.8301C99.7708 14.9154 98.2279 11.1564 95.4701 8.37793C92.7123 5.5995 88.9647 4.02829 85.05 4.00977" fill="#C1C3C5"/>
</g>
</g>
</g>
<path d="M81.7504 0.0498047H50.7504C46.8348 0.0709703 43.0874 1.6443 40.3298 4.42432C37.5723 7.20434 36.0298 10.9642 36.0404 14.8799V15.2598H20.2003C16.7698 15.2597 13.4782 16.6158 11.0431 19.0322C8.60797 21.4486 7.22671 24.7297 7.20032 28.1602V62.77C5.29976 63.6239 3.68646 65.0085 2.55457 66.7578C1.42267 68.5071 0.820426 70.5463 0.820312 72.6299V79.8301C0.822955 82.6919 1.96037 85.4359 3.98303 87.4604C6.00569 89.485 8.74856 90.6246 11.6104 90.6299H81.1304C83.9922 90.6246 86.735 89.485 88.7577 87.4604C90.7803 85.4359 91.9176 82.6919 91.9203 79.8301V72.6299C91.9181 70.5455 91.3139 68.506 90.1803 66.7568C89.0467 65.0077 87.4321 63.6234 85.5304 62.77V47.9102C88.6854 47.0685 91.474 45.2082 93.4631 42.6187C95.4523 40.0291 96.5306 36.8551 96.5304 33.5898V14.8799C96.541 10.9642 94.9985 7.20434 92.241 4.42432C89.4834 1.6443 85.7359 0.0709703 81.8203 0.0498047" fill="white"/>
<path d="M77.0103 43.1099V70.3198" stroke="#0071B9" stroke-width="3" stroke-linejoin="round"/>
<path d="M15.6802 70.3299V28.16C15.6854 27.5773 15.8056 27.0013 16.0337 26.4651C16.2618 25.929 16.5934 25.4432 17.0095 25.0354C17.4257 24.6277 17.9181 24.3058 18.4587 24.0887C18.9994 23.8715 19.5777 23.7632 20.1603 23.7698H41.1603" stroke="#0071B9" stroke-width="3" stroke-linejoin="round"/>
<path d="M83.4004 72.6299V79.8301C83.4004 80.4383 83.1594 81.0216 82.7302 81.4526C82.3011 81.8837 81.7186 82.1272 81.1104 82.1299H11.5803C11.2796 82.1286 10.9821 82.068 10.7047 81.9517C10.4274 81.8354 10.1757 81.6657 9.96401 81.4521C9.75229 81.2386 9.58472 80.9854 9.47085 80.707C9.35698 80.4287 9.299 80.1308 9.30031 79.8301V72.6299C9.299 72.3292 9.35698 72.0313 9.47085 71.7529C9.58472 71.4746 9.75229 71.2214 9.96401 71.0078C10.1757 70.7942 10.4274 70.6246 10.7047 70.5083C10.9821 70.392 11.2796 70.3314 11.5803 70.3301H81.1104C81.7186 70.3327 82.3011 70.5763 82.7302 71.0073C83.1594 71.4384 83.4004 72.0216 83.4004 72.6299" fill="#E99EC4"/>
<path d="M83.4004 72.6299V79.8301C83.4004 80.4383 83.1594 81.0216 82.7302 81.4526C82.3011 81.8837 81.7186 82.1272 81.1104 82.1299H11.5803C11.2796 82.1286 10.9821 82.068 10.7047 81.9517C10.4274 81.8354 10.1757 81.6657 9.96401 81.4521C9.75229 81.2386 9.58472 80.9854 9.47085 80.707C9.35698 80.4287 9.299 80.1308 9.30031 79.8301V72.6299C9.299 72.3292 9.35698 72.0313 9.47085 71.7529C9.58472 71.4746 9.75229 71.2214 9.96401 71.0078C10.1757 70.7942 10.4274 70.6246 10.7047 70.5083C10.9821 70.392 11.2796 70.3314 11.5803 70.3301H81.1104C81.7186 70.3327 82.3011 70.5763 82.7302 71.0073C83.1594 71.4384 83.4004 72.0216 83.4004 72.6299V72.6299Z" stroke="#0071B9" stroke-width="3" stroke-linejoin="round"/>
<path d="M45.0103 76.1099H47.6803" stroke="#0071B9" stroke-width="3" stroke-linecap="round" stroke-linejoin="round"/>
<path d="M81.7405 8.5498H50.7405C49.9171 8.55765 49.1033 8.72793 48.3456 9.05029C47.5879 9.37266 46.901 9.84091 46.3244 10.4287C45.7477 11.0165 45.2926 11.7123 44.9848 12.4761C44.677 13.2398 44.5226 14.0565 44.5306 14.8799V33.5898C44.5226 34.4132 44.677 35.2304 44.9848 35.9941C45.2926 36.7579 45.7477 37.4532 46.3244 38.041C46.901 38.6288 47.5879 39.0976 48.3456 39.4199C49.1033 39.7423 49.9171 39.9121 50.7405 39.9199H55.8405L52.8405 51.8301L68.8405 39.9199H81.7706C83.4344 39.9041 85.0239 39.2288 86.1901 38.042C87.3563 36.8552 88.0038 35.2537 87.9905 33.5898V14.8799C88.0038 13.216 87.3563 11.6151 86.1901 10.4282C85.0239 9.24139 83.4344 8.56565 81.7706 8.5498H81.7405ZM61.2305 31.0801V17.23L73.2305 24.1401L61.2305 31.0801Z" fill="#E99EC4"/>
<path d="M81.7405 8.5498H50.7405C49.9171 8.55765 49.1033 8.72793 48.3456 9.05029C47.5879 9.37266 46.901 9.84091 46.3244 10.4287C45.7477 11.0165 45.2926 11.7123 44.9848 12.4761C44.677 13.2398 44.5226 14.0565 44.5306 14.8799V33.5898C44.5226 34.4132 44.677 35.2304 44.9848 35.9941C45.2926 36.7579 45.7477 37.4532 46.3244 38.041C46.901 38.6288 47.5879 39.0976 48.3456 39.4199C49.1033 39.7423 49.9171 39.9121 50.7405 39.9199H55.8405L52.8405 51.8301L68.8405 39.9199H81.7706C83.4344 39.9041 85.0239 39.2288 86.1901 38.042C87.3563 36.8552 88.0038 35.2537 87.9905 33.5898V14.8799C87.9971 14.0535 87.8405 13.234 87.5297 12.4683C87.2189 11.7025 86.7601 11.0055 86.1795 10.4175C85.5989 9.82942 84.9079 9.36199 84.1462 9.0415C83.3844 8.72102 82.5669 8.55373 81.7405 8.5498V8.5498ZM61.2305 31.0801V17.23L73.2305 24.1401L61.2305 31.0801Z" stroke="#0071B9" stroke-width="3" stroke-linecap="round" stroke-linejoin="round"/>
<path d="M73.1904 24.1699L61.2305 31.0801V17.2598L73.1904 24.1699Z" stroke="#0071B9" stroke-width="3" stroke-linecap="round" stroke-linejoin="round"/>
<path d="M73.1904 24.1699L61.2305 31.0801V17.2598L73.1904 24.1699Z" stroke="#0071B9" stroke-width="3" stroke-linecap="round" stroke-linejoin="round"/>
</svg>
