<svg width="967" height="147" viewBox="0 0 967 147" fill="none" xmlns="http://www.w3.org/2000/svg">
<path d="M12.8403 72.3501C152.38 74.2601 151.84 114.26 291.38 116.17C430.92 118.08 431.47 78.0797 571.02 79.9897C710.57 81.8997 710.02 121.9 849.56 123.81C989.1 125.72 989.65 85.7199 1129.2 87.6299" stroke="#BCDAF2" stroke-width="8" stroke-linecap="round" stroke-linejoin="round" stroke-dasharray="1 20"/>
<g style="mix-blend-mode:multiply" opacity="0.75">
<g style="mix-blend-mode:multiply" opacity="0.75">
<g style="mix-blend-mode:multiply" opacity="0.75">
<path d="M605.04 21.0098H574.04C570.125 21.0283 566.378 22.5995 563.62 25.3779C560.862 28.1564 559.319 31.9154 559.33 35.8301V36.2202H543.49C540.061 36.2201 536.771 37.5745 534.336 39.9888C531.902 42.403 530.519 45.6811 530.49 49.1099V83.73C528.588 84.5806 526.973 85.9633 525.84 87.7109C524.706 89.4586 524.102 91.4969 524.1 93.5801V100.79C524.103 103.651 525.24 106.394 527.263 108.417C529.286 110.439 532.029 111.577 534.89 111.58H604.42C607.279 111.575 610.02 110.436 612.04 108.413C614.061 106.39 615.197 103.649 615.2 100.79V93.5801C615.201 91.4977 614.598 89.4597 613.466 87.7119C612.334 85.9641 610.721 84.5811 608.82 83.73V68.8701C611.963 68.0158 614.737 66.1502 616.715 63.562C618.692 60.9739 619.762 57.8068 619.76 54.5498V35.8301C619.771 31.9154 618.228 28.1564 615.47 25.3779C612.712 22.5995 608.965 21.0283 605.05 21.0098" fill="#C1C3C5"/>
</g>
</g>
</g>
<path d="M601.75 17.0498H570.75C566.835 17.071 563.087 18.6443 560.33 21.4243C557.572 24.2043 556.03 27.9642 556.04 31.8799V32.2598H540.2C536.77 32.2597 533.478 33.6158 531.043 36.0322C528.608 38.4486 527.227 41.7297 527.2 45.1602V79.77C525.3 80.6239 523.686 82.0085 522.555 83.7578C521.423 85.5071 520.82 87.5463 520.82 89.6299V96.8301C520.823 99.6919 521.96 102.436 523.983 104.46C526.006 106.485 528.749 107.625 531.61 107.63H601.13C603.992 107.625 606.735 106.485 608.758 104.46C610.78 102.436 611.918 99.6919 611.92 96.8301V89.6299C611.918 87.5455 611.314 85.506 610.18 83.7568C609.047 82.0077 607.432 80.6234 605.53 79.77V64.9102C608.685 64.0685 611.474 62.2082 613.463 59.6187C615.452 57.0291 616.531 53.8551 616.53 50.5898V31.8799C616.541 27.9642 614.998 24.2043 612.241 21.4243C609.483 18.6443 605.736 17.071 601.82 17.0498" fill="white"/>
<path d="M597.01 60.1099V87.3198" stroke="#0071B9" stroke-width="3" stroke-linejoin="round"/>
<path d="M535.68 87.3299V45.16C535.685 44.5773 535.806 44.0013 536.034 43.4651C536.262 42.929 536.593 42.4432 537.01 42.0354C537.426 41.6277 537.918 41.3058 538.459 41.0887C538.999 40.8715 539.578 40.7632 540.16 40.7698H561.16" stroke="#0071B9" stroke-width="3" stroke-linejoin="round"/>
<path d="M603.4 89.6299V96.8301C603.4 97.4383 603.159 98.0216 602.73 98.4526C602.301 98.8837 601.719 99.1272 601.11 99.1299H531.58C531.28 99.1286 530.982 99.068 530.705 98.9517C530.427 98.8354 530.176 98.6657 529.964 98.4521C529.752 98.2386 529.585 97.9854 529.471 97.707C529.357 97.4287 529.299 97.1308 529.3 96.8301V89.6299C529.299 89.3292 529.357 89.0313 529.471 88.7529C529.585 88.4746 529.752 88.2214 529.964 88.0078C530.176 87.7942 530.427 87.6246 530.705 87.5083C530.982 87.392 531.28 87.3314 531.58 87.3301H601.11C601.719 87.3327 602.301 87.5763 602.73 88.0073C603.159 88.4384 603.4 89.0216 603.4 89.6299Z" fill="#E99EC4"/>
<path d="M603.4 89.6299V96.8301C603.4 97.4383 603.159 98.0216 602.73 98.4526C602.301 98.8837 601.719 99.1272 601.11 99.1299H531.58C531.28 99.1286 530.982 99.068 530.705 98.9517C530.427 98.8354 530.176 98.6657 529.964 98.4521C529.752 98.2386 529.585 97.9854 529.471 97.707C529.357 97.4287 529.299 97.1308 529.3 96.8301V89.6299C529.299 89.3292 529.357 89.0313 529.471 88.7529C529.585 88.4746 529.752 88.2214 529.964 88.0078C530.176 87.7942 530.427 87.6246 530.705 87.5083C530.982 87.392 531.28 87.3314 531.58 87.3301H601.11C601.719 87.3327 602.301 87.5763 602.73 88.0073C603.159 88.4384 603.4 89.0216 603.4 89.6299V89.6299Z" stroke="#0071B9" stroke-width="3" stroke-linejoin="round"/>
<path d="M565.01 93.1099H567.68" stroke="#0071B9" stroke-width="3" stroke-linecap="round" stroke-linejoin="round"/>
<path d="M601.74 25.5498H570.74C569.917 25.5576 569.103 25.7279 568.345 26.0503C567.588 26.3727 566.901 26.8409 566.324 27.4287C565.747 28.0165 565.292 28.7123 564.985 29.4761C564.677 30.2398 564.522 31.0565 564.53 31.8799V50.5898C564.522 51.4132 564.677 52.2304 564.985 52.9941C565.292 53.7579 565.747 54.4532 566.324 55.041C566.901 55.6288 567.588 56.0976 568.345 56.4199C569.103 56.7423 569.917 56.9121 570.74 56.9199H575.84L572.84 68.8301L588.84 56.9199H601.77C603.434 56.9041 605.024 56.2288 606.19 55.042C607.356 53.8552 608.004 52.2537 607.99 50.5898V31.8799C608.004 30.216 607.356 28.6151 606.19 27.4282C605.024 26.2414 603.434 25.5656 601.77 25.5498H601.74ZM581.23 48.0801V34.23L593.23 41.1401L581.23 48.0801Z" fill="#E99EC4"/>
<path d="M601.74 25.5498H570.74C569.917 25.5576 569.103 25.7279 568.345 26.0503C567.588 26.3727 566.901 26.8409 566.324 27.4287C565.747 28.0165 565.292 28.7123 564.985 29.4761C564.677 30.2398 564.522 31.0565 564.53 31.8799V50.5898C564.522 51.4132 564.677 52.2304 564.985 52.9941C565.292 53.7579 565.747 54.4532 566.324 55.041C566.901 55.6288 567.588 56.0976 568.345 56.4199C569.103 56.7423 569.917 56.9121 570.74 56.9199H575.84L572.84 68.8301L588.84 56.9199H601.77C603.434 56.9041 605.024 56.2288 606.19 55.042C607.356 53.8552 608.004 52.2537 607.99 50.5898V31.8799C607.997 31.0535 607.84 30.234 607.529 29.4683C607.219 28.7025 606.76 28.0055 606.179 27.4175C605.599 26.8294 604.908 26.362 604.146 26.0415C603.384 25.721 602.567 25.5537 601.74 25.5498V25.5498ZM581.23 48.0801V34.23L593.23 41.1401L581.23 48.0801Z" stroke="#0071B9" stroke-width="3" stroke-linecap="round" stroke-linejoin="round"/>
<path d="M593.19 41.1699L581.23 48.0801V34.2598L593.19 41.1699Z" stroke="#0071B9" stroke-width="3" stroke-linecap="round" stroke-linejoin="round"/>
<path d="M593.19 41.1699L581.23 48.0801V34.2598L593.19 41.1699Z" stroke="#0071B9" stroke-width="3" stroke-linecap="round" stroke-linejoin="round"/>
<path d="M68.78 77.5098C66.9464 84.1064 63.0236 89.931 57.6 94.1099C53.94 91.9199 50.6001 90.05 47.3101 88.48C50.2099 83.7946 52.4193 78.7157 53.8701 73.3999L68.78 77.5098Z" fill="#AEDEF7"/>
<path d="M68.78 77.5098C66.9464 84.1064 63.0236 89.931 57.6 94.1099C53.94 91.9199 50.6001 90.05 47.3101 88.48C50.2099 83.7946 52.4193 78.7157 53.8701 73.3999L68.78 77.5098Z" stroke="#2276BB" stroke-width="3.35" stroke-linejoin="round"/>
<path d="M68.7801 77.5098L53.8701 73.3999C55.3872 68.1149 56.1315 62.6384 56.0801 57.1401C59.6801 57.4501 63.5501 57.5798 67.8201 57.5698C70.3139 63.9307 70.665 70.9313 68.8201 77.5098" fill="#AEDEF7"/>
<path d="M68.7801 77.5098L53.8701 73.3999C55.3872 68.1149 56.1315 62.6384 56.0801 57.1401C59.6801 57.4501 63.5501 57.5798 67.8201 57.5698C70.3007 63.9351 70.6377 70.9356 68.7801 77.5098Z" stroke="#2276BB" stroke-width="3.35" stroke-linejoin="round"/>
<path d="M67.8203 57.5698C63.5503 57.5698 59.6803 57.4501 56.0803 57.1401C55.9003 47.8001 52.8503 40.7098 47.5503 39.0498C52.1336 40.3538 56.3507 42.7062 59.8687 45.9204C63.3866 49.1346 66.1089 53.1226 67.8203 57.5698Z" fill="#AEDEF7"/>
<path d="M67.8203 57.5698C63.5503 57.5698 59.6803 57.4501 56.0803 57.1401C55.9003 47.8001 52.8503 40.7098 47.5503 39.0498C52.1336 40.3538 56.3507 42.7062 59.8687 45.9204C63.3866 49.1346 66.1089 53.1226 67.8203 57.5698V57.5698Z" stroke="#2276BB" stroke-width="3.35" stroke-linejoin="round"/>
<path d="M47.0402 38.9102C41.6402 37.6202 35.3302 42.1501 30.3202 50.0801C27.4389 54.7429 25.2399 59.7941 23.7902 65.0801L8.89014 60.9702C11.0708 53.0128 16.2949 46.2329 23.4334 42.0957C30.572 37.9585 39.0517 36.796 47.0402 38.8599" fill="#AEDEF7"/>
<path d="M47.0402 38.9101C41.6402 37.6201 35.3302 42.1501 30.3202 50.0801C27.4389 54.7428 25.2399 59.7941 23.7902 65.0801L8.89014 60.9702C11.0814 53.022 16.3099 46.2541 23.4473 42.1269C30.5846 37.9998 39.0585 36.8445 47.0402 38.9101V38.9101Z" stroke="#2276BB" stroke-width="3.35" stroke-linejoin="round"/>
<path d="M21.5801 81.3599C17.9801 81.0399 14.1102 80.9202 9.84016 80.9502C7.35146 74.5917 7.00044 67.5957 8.84016 61.02L23.7502 65.1299C22.2334 70.4047 21.489 75.8715 21.5402 81.3599" fill="#AEDEF7"/>
<path d="M21.5801 81.3599C17.9801 81.0399 14.1102 80.9202 9.84016 80.9502C7.35146 74.5917 7.00044 67.5957 8.84016 61.02L23.7502 65.1299C22.2469 70.4067 21.5159 75.8735 21.5801 81.3599Z" stroke="#2276BB" stroke-width="3.35" stroke-linejoin="round"/>
<path d="M30.1104 99.4702C25.524 98.1726 21.3036 95.8225 17.7848 92.6074C14.266 89.3924 11.5457 85.4011 9.84033 80.9502C14.1103 80.9502 17.9803 81.0399 21.5803 81.3599C21.7503 90.7099 24.8004 97.8202 30.1104 99.4702Z" fill="#AEDEF7"/>
<path d="M30.1104 99.4702C25.524 98.1726 21.3036 95.8225 17.7848 92.6074C14.266 89.3924 11.5457 85.4011 9.84033 80.9502C14.1103 80.9502 17.9803 81.0399 21.5803 81.3599C21.7503 90.7099 24.8004 97.8202 30.1104 99.4702Z" stroke="#2276BB" stroke-width="3.35" stroke-linejoin="round"/>
<path d="M57.6001 94.1099C53.8283 97.0462 49.4286 99.0708 44.7448 100.025C40.0609 100.979 35.22 100.837 30.6001 99.6099C36.0001 100.91 42.2901 96.39 47.2901 88.48C50.5401 90.05 53.9201 91.9199 57.5801 94.1099" fill="#AEDEF7"/>
<path d="M57.6001 94.1099C53.8283 97.0462 49.4286 99.0708 44.7448 100.025C40.0609 100.979 35.22 100.837 30.6001 99.6099C36.0001 100.91 42.2901 96.39 47.2901 88.48C50.5601 90.05 53.9401 91.9199 57.6001 94.1099Z" stroke="#2276BB" stroke-width="3.35" stroke-linejoin="round"/>
<path d="M56.0803 57.1402C51.6134 56.7843 47.1884 56.0208 42.8603 54.86C38.54 53.6624 34.3416 52.0623 30.3203 50.0802C35.3203 42.1502 41.6403 37.6202 47.0403 38.9102L47.3003 38.9801L47.5503 39.0499C52.8503 40.7099 55.9003 47.8002 56.0803 57.1402Z" fill="#AEDEF7"/>
<path d="M56.0803 57.1402C51.6134 56.7843 47.1884 56.0208 42.8603 54.86C38.54 53.6624 34.3416 52.0623 30.3203 50.0802C35.3203 42.1502 41.6403 37.6202 47.0403 38.9102L47.3003 38.9801L47.5503 39.0499C52.8503 40.7099 55.9003 47.8002 56.0803 57.1402Z" stroke="#2276BB" stroke-width="3.35" stroke-linejoin="round"/>
<path d="M42.8604 54.8599L38.8604 69.2598L23.8604 65.1299C25.3101 59.8439 27.509 54.7926 30.3903 50.1299C34.4116 52.112 38.61 53.7127 42.9304 54.9102" fill="#AEDEF7"/>
<path d="M42.8604 54.8599L38.8604 69.2598L23.8604 65.1299C25.3101 59.8439 27.509 54.7926 30.3903 50.1299C34.3909 52.0908 38.5657 53.6743 42.8604 54.8599V54.8599Z" stroke="#2276BB" stroke-width="3.35" stroke-linejoin="round"/>
<path d="M34.8001 83.6699L30.3601 99.5498L30.1101 99.4702C24.8101 97.8202 21.7501 90.7099 21.5801 81.3599C26.0485 81.7206 30.4741 82.494 34.8001 83.6699Z" fill="#AEDEF7"/>
<path d="M34.8001 83.6699L30.3601 99.5498L30.1101 99.4702C24.8101 97.8202 21.7501 90.7099 21.5801 81.3599C26.0485 81.7206 30.4741 82.494 34.8001 83.6699V83.6699Z" stroke="#2276BB" stroke-width="3.35" stroke-linejoin="round"/>
<path d="M47.3104 88.48C42.3104 96.39 36.0204 100.91 30.6204 99.6099C30.5327 99.5946 30.4459 99.5745 30.3604 99.5498L34.8004 83.6699C39.1087 84.8873 43.2962 86.4975 47.3104 88.48Z" fill="#AEDEF7"/>
<path d="M47.3104 88.48C42.3104 96.39 36.0204 100.91 30.6204 99.6099C30.5327 99.5946 30.4459 99.5745 30.3604 99.5498L34.8004 83.6699C39.1087 84.8873 43.2962 86.4975 47.3104 88.48V88.48Z" stroke="#2276BB" stroke-width="3.35" stroke-linejoin="round"/>
<path d="M30.3203 50.0801C27.0703 48.5101 23.7003 46.6399 20.0503 44.4399L30.3203 50.0801Z" fill="#AEDEF7"/>
<path d="M30.3203 50.0801C27.0703 48.5101 23.7003 46.6399 20.0503 44.4399" stroke="#2276BB" stroke-width="3.35" stroke-linejoin="round"/>
<path d="M38.8301 69.23L34.8301 83.6401C30.5041 82.4642 26.0786 81.6908 21.6101 81.3301C21.5589 75.8417 22.3033 70.3749 23.8202 65.1001L38.8301 69.23Z" fill="#AEDEF7"/>
<path d="M38.8301 69.23L34.8301 83.6401C30.5041 82.4642 26.0786 81.6908 21.6101 81.3301C21.5589 75.8417 22.3033 70.3749 23.8202 65.1001L38.8301 69.23Z" stroke="#2276BB" stroke-width="3.35" stroke-linejoin="round"/>
<path d="M53.8701 73.3999L38.8701 69.2598L42.8701 54.8599C47.1982 56.0207 51.6232 56.7842 56.0901 57.1401C56.1415 62.6384 55.3972 68.1149 53.8801 73.3999" fill="#AEDEF7"/>
<path d="M53.8701 73.3999L38.8701 69.2598L42.8701 54.8599C47.1982 56.0207 51.6232 56.7842 56.0901 57.1401C56.1383 62.6388 55.3906 68.1154 53.8701 73.3999V73.3999Z" stroke="#2276BB" stroke-width="3.35" stroke-linejoin="round"/>
<path d="M53.8703 73.3999C52.4196 78.7157 50.2102 83.7946 47.3103 88.48C43.2962 86.4975 39.1086 84.8873 34.8003 83.6699L38.8003 69.2598L53.8703 73.3999Z" fill="#AEDEF7"/>
<path d="M53.8703 73.3999C52.4196 78.7157 50.2102 83.7946 47.3103 88.48C43.2962 86.4975 39.1086 84.8873 34.8003 83.6699L38.8003 69.2598L53.8703 73.3999Z" stroke="#2276BB" stroke-width="3.35" stroke-linejoin="round"/>
<path d="M42.8501 54.8501L47.29 38.98" stroke="#2276BB" stroke-width="3.35" stroke-linejoin="round"/>
<path d="M49.1001 27.96L56.5801 1" stroke="#E99EC4" stroke-width="3.75" stroke-miterlimit="10"/>
<path d="M32.77 27.0801L30.25 12.0098" stroke="#E99EC4" stroke-width="3.75" stroke-miterlimit="10"/>
<path d="M17.5701 33.1802L2 10.5298" stroke="#E99EC4" stroke-width="3.75" stroke-miterlimit="10"/>
<path d="M63.5601 35.6299L72.62 25.0098" stroke="#E99EC4" stroke-width="3.75" stroke-miterlimit="10"/>
<path d="M73.5103 48.6499L97.2502 37.8301" stroke="#E99EC4" stroke-width="3.75" stroke-miterlimit="10"/>
<path d="M510.89 24L505.14 33.04L494.77 30.3701L501.6 38.6299L495.85 47.6802L505.82 43.73L512.64 51.9897L511.97 41.2998L521.93 37.3501L511.56 34.6899L510.89 24Z" fill="#2276BB"/>
<path d="M360.23 133.31C360.23 133.31 366.52 139 372.23 132.71C372.23 132.71 366.54 139 372.83 144.71C372.83 144.71 366.54 139.02 360.83 145.3C360.86 145.28 366.55 139 360.23 133.31Z" stroke="#B9D7EF" stroke-width="2.89" stroke-linecap="round" stroke-linejoin="round"/>
</svg>
