<svg width="362" height="212" viewBox="0 0 362 212" fill="none" xmlns="http://www.w3.org/2000/svg">
<path d="M8.12175 5.36255C8.12175 3.98184 7.00246 2.86255 5.62175 2.86255C4.24104 2.86255 3.12175 3.98184 3.12175 5.36255H8.12175ZM358.135 140.407C359.051 139.373 358.955 137.793 357.922 136.878C356.888 135.962 355.308 136.058 354.393 137.091L358.135 140.407ZM3.12179 5.48987C3.12263 6.87058 4.2426 7.98918 5.62332 7.98834C7.00403 7.98749 8.12263 6.86752 8.12179 5.48681L3.12179 5.48987ZM9.53043 29.1614C9.367 27.7903 8.12309 26.8114 6.75208 26.9749C5.38108 27.1383 4.40215 28.3822 4.56559 29.7532L9.53043 29.1614ZM4.59576 30.005C4.7609 31.3758 6.00602 32.3532 7.37682 32.188C8.74762 32.0229 9.72501 30.7778 9.55987 29.4069L4.59576 30.005ZM13.794 52.7233C13.4664 51.382 12.1135 50.5603 10.7722 50.8879C9.43093 51.2155 8.60918 52.5684 8.93679 53.9097L13.794 52.7233ZM8.99693 54.1552C9.32621 55.4961 10.6801 56.3161 12.021 55.9868C13.3619 55.6576 14.1819 54.3036 13.8527 52.9628L8.99693 54.1552ZM20.8766 75.5967C20.3889 74.305 18.9464 73.6532 17.6547 74.1409C16.363 74.6286 15.7112 76.0711 16.1989 77.3628L20.8766 75.5967ZM16.2886 77.6C16.778 78.8911 18.2213 79.5411 19.5124 79.0518C20.8035 78.5625 21.4534 77.1191 20.9641 75.828L16.2886 77.6ZM30.6778 97.4463C30.0375 96.223 28.5268 95.7505 27.3035 96.3908C26.0803 97.0312 25.6077 98.5419 26.2481 99.7651L30.6778 97.4463ZM26.3656 99.9893C27.0074 101.212 28.5187 101.682 29.7412 101.041C30.9636 100.399 31.4343 98.8874 30.7925 97.6649L26.3656 99.9893ZM43.0441 117.954C42.2612 116.816 40.7045 116.529 39.5673 117.312C38.43 118.095 38.1428 119.652 38.9257 120.789L43.0441 117.954ZM39.0696 120.997C39.8539 122.134 41.4109 122.419 42.5472 121.635C43.6835 120.85 43.9688 119.293 43.1844 118.157L39.0696 120.997ZM57.7863 136.828C56.8726 135.793 55.2928 135.695 54.2576 136.609C53.2225 137.522 53.124 139.102 54.0377 140.137L57.7863 136.828ZM54.2054 140.327C55.1204 141.361 56.7004 141.457 57.7344 140.542C58.7684 139.627 58.8649 138.048 57.9499 137.014L54.2054 140.327ZM74.6842 153.8C73.653 152.882 72.0728 152.974 71.1545 154.005C70.2363 155.036 70.3279 156.616 71.359 157.534L74.6842 153.8ZM71.5483 157.703C72.5805 158.62 74.1607 158.526 75.0776 157.494C75.9946 156.462 75.901 154.881 74.8688 153.965L71.5483 157.703ZM93.495 168.623C92.3611 167.835 90.8032 168.116 90.0155 169.25C89.2278 170.384 89.5085 171.942 90.6425 172.729L93.495 168.623ZM90.8507 172.874C91.9856 173.66 93.5431 173.377 94.3294 172.242C95.1157 171.108 94.833 169.55 93.6981 168.764L90.8507 172.874ZM113.952 181.072C112.731 180.427 111.219 180.893 110.574 182.114C109.928 183.335 110.395 184.847 111.616 185.492L113.952 181.072ZM111.84 185.611C113.061 186.254 114.573 185.785 115.217 184.564C115.86 183.342 115.392 181.83 114.17 181.187L111.84 185.611ZM135.764 190.951C134.474 190.459 133.029 191.106 132.537 192.396C132.045 193.686 132.692 195.13 133.982 195.623L135.764 190.951ZM134.219 195.713C135.51 196.203 136.954 195.554 137.444 194.264C137.935 192.973 137.286 191.529 135.995 191.039L134.219 195.713ZM158.615 198.103C157.275 197.772 155.92 198.59 155.588 199.93C155.257 201.27 156.075 202.626 157.416 202.957L158.615 198.103ZM157.661 203.017C159.002 203.347 160.356 202.527 160.685 201.186C161.015 199.845 160.195 198.491 158.854 198.162L157.661 203.017ZM182.164 202.421C180.793 202.255 179.547 203.232 179.381 204.602C179.215 205.973 180.191 207.219 181.562 207.385L182.164 202.421ZM181.814 207.415C183.185 207.58 184.429 206.602 184.594 205.231C184.758 203.86 183.78 202.616 182.409 202.451L181.814 207.415ZM206.081 203.868C204.701 203.868 203.581 204.986 203.58 206.367C203.579 207.748 204.698 208.868 206.078 208.868L206.081 203.868ZM206.333 208.868C207.713 208.868 208.832 207.748 208.831 206.367C208.83 204.986 207.71 203.868 206.329 203.868L206.333 208.868ZM229.962 202.456C228.592 202.62 227.613 203.864 227.777 205.235C227.942 206.606 229.186 207.585 230.557 207.42L229.962 202.456ZM230.808 207.39C232.179 207.224 233.156 205.979 232.99 204.608C232.824 203.237 231.578 202.26 230.207 202.426L230.808 207.39ZM253.489 198.178C252.148 198.508 251.328 199.861 251.657 201.202C251.986 202.543 253.34 203.363 254.681 203.034L253.489 198.178ZM254.926 202.974C256.267 202.643 257.085 201.288 256.754 199.948C256.424 198.607 255.069 197.789 253.728 198.12L254.926 202.974ZM276.323 191.074C275.032 191.564 274.382 193.008 274.872 194.298C275.362 195.589 276.805 196.239 278.096 195.749L276.323 191.074ZM278.333 195.659C279.623 195.168 280.271 193.724 279.779 192.433C279.288 191.143 277.844 190.495 276.553 190.987L278.333 195.659ZM298.123 181.249C296.901 181.892 296.432 183.403 297.074 184.625C297.717 185.847 299.229 186.317 300.451 185.674L298.123 181.249ZM300.675 185.556C301.896 184.912 302.364 183.4 301.719 182.179C301.075 180.957 299.563 180.49 298.342 181.134L300.675 185.556ZM318.579 168.857C317.443 169.642 317.159 171.2 317.945 172.335C318.73 173.471 320.287 173.755 321.423 172.969L318.579 168.857ZM321.631 172.825C322.765 172.039 323.047 170.481 322.261 169.346C321.474 168.212 319.916 167.93 318.782 168.716L321.631 172.825ZM337.396 154.094C336.363 155.01 336.268 156.59 337.184 157.624C338.1 158.657 339.68 158.752 340.713 157.836L337.396 154.094ZM340.902 157.668C341.934 156.751 342.027 155.171 341.11 154.139C340.193 153.107 338.613 153.013 337.581 153.931L340.902 157.668ZM354.311 137.184C353.395 138.217 353.489 139.797 354.522 140.713C355.555 141.629 357.135 141.534 358.051 140.501L354.311 137.184ZM3.12175 5.36255C3.12175 5.40499 3.12176 5.44743 3.12179 5.48987L8.12179 5.48681C8.12176 5.44539 8.12175 5.40397 8.12175 5.36255H3.12175ZM4.56559 29.7532C4.57559 29.8371 4.58565 29.9211 4.59576 30.005L9.55987 29.4069C9.55001 29.3251 9.5402 29.2432 9.53043 29.1614L4.56559 29.7532ZM8.93679 53.9097C8.95679 53.9915 8.97683 54.0734 8.99693 54.1552L13.8527 52.9628C13.8331 52.883 13.8135 52.8031 13.794 52.7233L8.93679 53.9097ZM16.1989 77.3628C16.2288 77.4419 16.2587 77.521 16.2886 77.6L20.9641 75.828C20.9349 75.751 20.9057 75.6738 20.8766 75.5967L16.1989 77.3628ZM26.2481 99.7651C26.2872 99.8399 26.3264 99.9146 26.3656 99.9893L30.7925 97.6649C30.7542 97.5921 30.716 97.5192 30.6778 97.4463L26.2481 99.7651ZM38.9257 120.789C38.9736 120.858 39.0216 120.928 39.0696 120.997L43.1844 118.157C43.1376 118.089 43.0908 118.021 43.0441 117.954L38.9257 120.789ZM54.0377 140.137C54.0936 140.2 54.1495 140.264 54.2054 140.327L57.9499 137.014C57.8953 136.952 57.8408 136.89 57.7863 136.828L54.0377 140.137ZM71.359 157.534C71.4221 157.591 71.4852 157.647 71.5483 157.703L74.8688 153.965C74.8072 153.91 74.7457 153.855 74.6842 153.8L71.359 157.534ZM90.6425 172.729C90.7119 172.778 90.7812 172.826 90.8507 172.874L93.6981 168.764C93.6304 168.717 93.5627 168.67 93.495 168.623L90.6425 172.729ZM111.616 185.492C111.691 185.532 111.765 185.571 111.84 185.611L114.17 181.187C114.097 181.148 114.025 181.11 113.952 181.072L111.616 185.492ZM133.982 195.623C134.061 195.653 134.14 195.683 134.219 195.713L135.995 191.039C135.918 191.009 135.841 190.98 135.764 190.951L133.982 195.623ZM157.416 202.957C157.497 202.977 157.579 202.997 157.661 203.017L158.854 198.162C158.775 198.142 158.695 198.123 158.615 198.103L157.416 202.957ZM181.562 207.385C181.646 207.395 181.73 207.405 181.814 207.415L182.409 202.451C182.328 202.441 182.246 202.431 182.164 202.421L181.562 207.385ZM206.078 208.868C206.121 208.869 206.163 208.869 206.206 208.869V203.869C206.164 203.869 206.123 203.869 206.081 203.868L206.078 208.868ZM206.206 208.869C206.248 208.869 206.29 208.869 206.333 208.868L206.329 203.868C206.288 203.869 206.247 203.869 206.206 203.869V208.869ZM230.557 207.42C230.641 207.41 230.725 207.4 230.808 207.39L230.207 202.426C230.126 202.436 230.044 202.446 229.962 202.456L230.557 207.42ZM254.681 203.034C254.763 203.014 254.844 202.994 254.926 202.974L253.728 198.12C253.649 198.139 253.569 198.159 253.489 198.178L254.681 203.034ZM278.096 195.749C278.175 195.719 278.254 195.689 278.333 195.659L276.553 190.987C276.477 191.016 276.4 191.045 276.323 191.074L278.096 195.749ZM300.451 185.674C300.525 185.635 300.6 185.596 300.675 185.556L298.342 181.134C298.269 181.172 298.196 181.211 298.123 181.249L300.451 185.674ZM321.423 172.969C321.492 172.921 321.561 172.873 321.631 172.825L318.782 168.716C318.714 168.763 318.646 168.81 318.579 168.857L321.423 172.969ZM340.713 157.836C340.776 157.78 340.839 157.724 340.902 157.668L337.581 153.931C337.519 153.985 337.458 154.04 337.396 154.094L340.713 157.836ZM358.051 140.501C358.079 140.47 358.107 140.438 358.135 140.407L354.393 137.091C354.365 137.122 354.338 137.153 354.311 137.184L358.051 140.501ZM10.6217 5.36255C10.6217 2.60113 8.38317 0.362549 5.62175 0.362549C2.86033 0.362549 0.62175 2.60113 0.62175 5.36255H10.6217ZM360.007 142.064C361.838 139.997 361.646 136.837 359.579 135.006C357.512 133.175 354.352 133.367 352.521 135.434L360.007 142.064ZM0.621789 5.49139C0.623477 8.25282 2.86342 10.49 5.62484 10.4883C8.38627 10.4866 10.6235 8.24671 10.6218 5.48528L0.621789 5.49139ZM12.0129 28.8654C11.686 26.1234 9.19816 24.1656 6.45615 24.4924C3.71415 24.8193 1.75629 27.3071 2.08316 30.0491L12.0129 28.8654ZM2.1137 30.304C2.44398 33.0456 4.93423 35.0003 7.67583 34.6701C10.4174 34.3398 12.3722 31.8495 12.0419 29.1079L2.1137 30.304ZM16.2226 52.1301C15.5674 49.4475 12.8616 47.804 10.179 48.4593C7.49646 49.1145 5.85297 51.8203 6.50818 54.5028L16.2226 52.1301ZM6.56906 54.7514C7.22763 57.4332 9.93548 59.0733 12.6172 58.4147C15.299 57.7561 16.9391 55.0483 16.2805 52.3665L6.56906 54.7514ZM23.2155 74.7137C22.2401 72.1302 19.3551 70.8267 16.7717 71.8021C14.1882 72.7775 12.8847 75.6625 13.8601 78.2459L23.2155 74.7137ZM13.9509 78.486C14.9295 81.0682 17.8162 82.3681 20.3984 81.3895C22.9806 80.4109 24.2805 77.5243 23.3019 74.9421L13.9509 78.486ZM32.8927 96.2869C31.612 93.8404 28.5906 92.8953 26.1441 94.1759C23.6976 95.4566 22.7525 98.4781 24.0332 100.925L32.8927 96.2869ZM24.1521 101.151C25.4358 103.596 28.4585 104.538 30.9034 103.254C33.3483 101.97 34.2896 98.9476 33.0059 96.5027L24.1521 101.151ZM45.1033 116.536C43.5374 114.261 40.4241 113.687 38.1496 115.253C35.8751 116.819 35.3007 119.932 36.8666 122.206L45.1033 116.536ZM37.0121 122.418C38.5808 124.69 41.6948 125.261 43.9674 123.692C46.24 122.123 46.8106 119.009 45.2418 116.737L37.0121 122.418ZM59.6606 135.174C57.8332 133.104 54.6735 132.907 52.6032 134.734C50.5329 136.562 50.336 139.721 52.1634 141.792L59.6606 135.174ZM52.3332 141.984C54.1631 144.052 57.3231 144.245 59.3911 142.415C61.4591 140.585 61.6521 137.425 59.8221 135.357L52.3332 141.984ZM76.3467 151.933C74.2844 150.097 71.1239 150.28 69.2875 152.342C67.4511 154.405 67.6342 157.565 69.6965 159.402L76.3467 151.933ZM69.888 159.572C71.9526 161.406 75.1129 161.219 76.9467 159.154C78.7806 157.09 78.5936 153.929 76.529 152.095L69.888 159.572ZM94.9213 166.57C92.6534 164.994 89.5377 165.556 87.9623 167.824C86.3869 170.092 86.9483 173.207 89.2162 174.783L94.9213 166.57ZM89.427 174.929C91.6969 176.501 94.8118 175.936 96.3844 173.666C97.957 171.396 97.3917 168.281 95.1218 166.709L89.427 174.929ZM115.12 178.861C112.678 177.571 109.653 178.505 108.363 180.946C107.073 183.388 108.007 186.413 110.448 187.703L115.12 178.861ZM110.675 187.822C113.118 189.109 116.142 188.172 117.429 185.729C118.716 183.286 117.779 180.262 115.335 178.975L110.675 187.822ZM136.655 188.615C134.075 187.631 131.185 188.925 130.201 191.505C129.217 194.085 130.511 196.974 133.091 197.958L136.655 188.615ZM133.331 198.05C135.913 199.031 138.8 197.733 139.781 195.152C140.762 192.57 139.464 189.683 136.883 188.702L133.331 198.05ZM159.215 195.676C156.534 195.013 153.824 196.649 153.161 199.33C152.499 202.011 154.135 204.721 156.816 205.384L159.215 195.676ZM157.064 205.445C159.746 206.104 162.454 204.465 163.113 201.783C163.772 199.101 162.133 196.393 159.451 195.734L157.064 205.445ZM182.465 199.94C179.723 199.607 177.232 201.56 176.899 204.302C176.567 207.043 178.52 209.535 181.261 209.867L182.465 199.94ZM181.516 209.898C184.258 210.227 186.747 208.271 187.076 205.529C187.405 202.787 185.449 200.298 182.707 199.969L181.516 209.898ZM206.083 201.368C203.322 201.367 201.082 203.604 201.08 206.365C201.078 209.127 203.315 211.367 206.077 211.368L206.083 201.368ZM206.334 211.368C209.095 211.367 211.333 209.127 211.331 206.365C211.329 203.604 209.089 201.367 206.328 201.368L206.334 211.368ZM229.665 199.974C226.923 200.302 224.967 202.791 225.295 205.533C225.624 208.274 228.112 210.231 230.854 209.903L229.665 199.974ZM231.109 209.872C233.85 209.54 235.803 207.049 235.472 204.307C235.14 201.566 232.649 199.613 229.907 199.944L231.109 209.872ZM252.893 195.75C250.211 196.409 248.571 199.116 249.229 201.798C249.887 204.48 252.595 206.12 255.277 205.462L252.893 195.75ZM255.525 205.401C258.206 204.74 259.843 202.03 259.182 199.349C258.52 196.668 255.81 195.031 253.129 195.692L255.525 205.401ZM275.436 188.737C272.854 189.716 271.555 192.603 272.535 195.185C273.514 197.767 276.401 199.066 278.983 198.087L275.436 188.737ZM279.222 197.996C281.803 197.013 283.098 194.124 282.116 191.544C281.133 188.963 278.244 187.668 275.664 188.65L279.222 197.996ZM296.96 179.036C294.516 180.322 293.576 183.345 294.862 185.789C296.147 188.233 299.17 189.172 301.614 187.887L296.96 179.036ZM301.841 187.767C304.283 186.479 305.219 183.455 303.93 181.012C302.642 178.57 299.618 177.634 297.175 178.923L301.841 187.767ZM317.157 166.801C314.886 168.371 314.318 171.486 315.888 173.757C317.459 176.028 320.574 176.596 322.845 175.025L317.157 166.801ZM323.055 174.88C325.324 173.306 325.888 170.191 324.315 167.922C322.741 165.653 319.626 165.089 317.357 166.662L323.055 174.88ZM335.738 152.224C333.671 154.056 333.481 157.216 335.313 159.282C337.145 161.348 340.305 161.539 342.371 159.707L335.738 152.224ZM342.563 159.537C344.627 157.702 344.813 154.542 342.979 152.478C341.144 150.414 337.984 150.228 335.92 152.062L342.563 159.537ZM352.44 135.525C350.608 137.591 350.798 140.751 352.863 142.583C354.929 144.416 358.089 144.226 359.922 142.16L352.44 135.525ZM0.62175 5.36255C0.62175 5.4055 0.621763 5.44845 0.621789 5.49139L10.6218 5.48528C10.6218 5.44437 10.6217 5.40346 10.6217 5.36255H0.62175ZM2.08316 30.0491C2.09329 30.1341 2.10347 30.219 2.1137 30.304L12.0419 29.1079C12.0322 29.0271 12.0225 28.9463 12.0129 28.8654L2.08316 30.0491ZM6.50818 54.5028C6.52843 54.5857 6.54872 54.6686 6.56906 54.7514L16.2805 52.3665C16.2612 52.2878 16.2419 52.2089 16.2226 52.1301L6.50818 54.5028ZM13.8601 78.2459C13.8903 78.3259 13.9206 78.406 13.9509 78.486L23.3019 74.9421C23.273 74.8659 23.2442 74.7898 23.2155 74.7137L13.8601 78.2459ZM24.0332 100.925C24.0728 101 24.1124 101.076 24.1521 101.151L33.0059 96.5027C32.9681 96.4308 32.9304 96.3588 32.8927 96.2869L24.0332 100.925ZM36.8666 122.206C36.915 122.277 36.9636 122.347 37.0121 122.418L45.2418 116.737C45.1956 116.67 45.1494 116.603 45.1033 116.536L36.8666 122.206ZM52.1634 141.792C52.22 141.856 52.2766 141.92 52.3332 141.984L59.8221 135.357C59.7682 135.296 59.7144 135.235 59.6606 135.174L52.1634 141.792ZM69.6965 159.402C69.7603 159.458 69.8241 159.515 69.888 159.572L76.529 152.095C76.4682 152.041 76.4074 151.987 76.3467 151.933L69.6965 159.402ZM89.2162 174.783C89.2864 174.831 89.3567 174.88 89.427 174.929L95.1218 166.709C95.0549 166.662 94.9881 166.616 94.9213 166.57L89.2162 174.783ZM110.448 187.703C110.524 187.743 110.599 187.783 110.675 187.822L115.335 178.975C115.264 178.937 115.192 178.899 115.12 178.861L110.448 187.703ZM133.091 197.958C133.171 197.989 133.251 198.019 133.331 198.05L136.883 188.702C136.807 188.673 136.731 188.644 136.655 188.615L133.091 197.958ZM156.816 205.384C156.899 205.404 156.981 205.425 157.064 205.445L159.451 195.734C159.372 195.715 159.294 195.695 159.215 195.676L156.816 205.384ZM181.261 209.867C181.346 209.877 181.431 209.887 181.516 209.898L182.707 199.969C182.626 199.959 182.546 199.949 182.465 199.94L181.261 209.867ZM206.077 211.368C206.12 211.369 206.163 211.369 206.206 211.369V201.369C206.165 201.369 206.124 201.369 206.083 201.368L206.077 211.368ZM206.206 211.369C206.248 211.369 206.291 211.369 206.334 211.368L206.328 201.368C206.287 201.369 206.246 201.369 206.206 201.369V211.369ZM230.854 209.903C230.939 209.892 231.024 209.882 231.109 209.872L229.907 199.944C229.826 199.954 229.746 199.964 229.665 199.974L230.854 209.903ZM255.277 205.462C255.36 205.442 255.442 205.422 255.525 205.401L253.129 195.692C253.051 195.712 252.972 195.731 252.893 195.75L255.277 205.462ZM278.983 198.087C279.063 198.056 279.143 198.026 279.222 197.996L275.664 188.65C275.588 188.679 275.512 188.708 275.436 188.737L278.983 198.087ZM301.614 187.887C301.69 187.847 301.765 187.807 301.841 187.767L297.175 178.923C297.103 178.96 297.031 178.998 296.96 179.036L301.614 187.887ZM322.845 175.025C322.915 174.977 322.985 174.928 323.055 174.88L317.357 166.662C317.29 166.708 317.223 166.755 317.157 166.801L322.845 175.025ZM342.371 159.707C342.435 159.65 342.499 159.593 342.563 159.537L335.92 152.062C335.859 152.116 335.799 152.17 335.738 152.224L342.371 159.707ZM359.922 142.16C359.95 142.128 359.978 142.096 360.007 142.064L352.521 135.434C352.494 135.464 352.467 135.494 352.44 135.525L359.922 142.16Z" fill="#2576B9"/>
</svg>
