<svg width="100" height="100" viewBox="0 0 100 100" fill="none" xmlns="http://www.w3.org/2000/svg">
<path d="M63.8598 70.2298C62.5901 74.6426 60.0406 78.5798 56.5335 81.5438C53.0265 84.5078 48.7195 86.3652 44.1568 86.8817C39.5942 87.3981 34.9808 86.5503 30.9 84.4452C26.8192 82.3401 23.4541 79.0723 21.2302 75.055C19.0063 71.0377 18.0235 66.4517 18.4059 61.8758C18.7882 57.3 20.5186 52.94 23.3784 49.3475C26.2382 45.755 30.0989 43.0914 34.4725 41.6927C38.8461 40.2941 43.5362 40.2236 47.9498 41.4901C53.8705 43.1918 58.8728 47.1756 61.8564 52.5653C64.8401 57.955 65.5608 64.3089 63.8598 70.2298V70.2298Z" stroke="#E99EC4" stroke-width="3" stroke-miterlimit="10"/>
<path d="M57.9199 68.52C57.302 70.6704 56.2666 72.678 54.8729 74.4282C53.4791 76.1785 51.7543 77.637 49.7968 78.7207C47.8394 79.8044 45.6876 80.4921 43.4644 80.7441C41.2413 80.9962 38.9903 80.8078 36.8399 80.1899C34.6895 79.5721 32.6819 78.5368 30.9316 77.1431C29.1813 75.7493 27.7228 74.0244 26.6391 72.0669C25.5555 70.1094 24.8679 67.958 24.6158 65.7349C24.3637 63.5117 24.552 61.2603 25.1699 59.1099" stroke="#E99EC4" stroke-width="3" stroke-miterlimit="10"/>
<path d="M39.6599 56.4903C38.6599 59.9503 36.5399 62.3802 34.9299 61.9102C33.3199 61.4402 32.7999 58.2701 33.7999 54.8101C34.7999 51.3501 36.9099 48.9202 38.5199 49.3902C40.1299 49.8602 40.6499 53.0303 39.6599 56.4903Z" stroke="#E99EC4" stroke-width="3" stroke-miterlimit="10"/>
<path d="M52.8601 60.2901C51.8601 63.7401 49.75 66.17 48.13 65.71C46.51 65.25 46.01 62.0602 47 58.6002C47.99 55.1402 50.1101 52.7102 51.7301 53.1802C53.3501 53.6502 53.8601 56.8301 52.8601 60.2901Z" stroke="#E99EC4" stroke-width="3" stroke-miterlimit="10"/>
<path d="M49.6499 34.5601L55.6301 13" stroke="#E99EC4" stroke-width="3" stroke-miterlimit="10"/>
<path d="M36.5901 33.8501L34.5801 21.8003" stroke="#E99EC4" stroke-width="3" stroke-miterlimit="10"/>
<path d="M24.4399 38.7202L12 20.6099" stroke="#E99EC4" stroke-width="3" stroke-miterlimit="10"/>
<path d="M61.21 40.6802L68.46 32.2002" stroke="#E99EC4" stroke-width="3" stroke-miterlimit="10"/>
<path d="M69.1699 51.0898L88.1499 42.4399" stroke="#E99EC4" stroke-width="3" stroke-miterlimit="10"/>
</svg>
