<svg width="142" height="142" viewBox="0 0 142 142" fill="none" xmlns="http://www.w3.org/2000/svg">
<g style="mix-blend-mode:multiply" opacity="0.75">
<g style="mix-blend-mode:multiply" opacity="0.75">
<g style="mix-blend-mode:multiply" opacity="0.75">
<path d="M108.496 62.2698L96.216 34.0701C95.9726 33.5112 95.6214 33.0055 95.1825 32.5823C94.7437 32.1592 94.2257 31.8267 93.6582 31.6038C93.0908 31.3809 92.4851 31.2722 91.8755 31.2835C91.266 31.2949 90.6647 31.4264 90.106 31.6702L81.596 35.3699C81.0358 35.6133 80.5293 35.965 80.1053 36.4046C79.6813 36.8442 79.3481 37.3629 79.1252 37.9315C78.9022 38.5001 78.7937 39.1075 78.8058 39.7181C78.818 40.3287 78.9506 40.9308 79.196 41.4901L80.856 45.3001C80.3777 45.3396 79.9085 45.4542 79.466 45.64L54.076 56.6903C53.098 57.1212 52.2973 57.8745 51.8078 58.8245C51.3182 59.7745 51.1693 60.8634 51.3859 61.91L33.066 69.91C32.1396 70.3069 31.3701 70.9981 30.8765 71.8768C30.3829 72.7554 30.1929 73.7723 30.336 74.7698C29.7858 74.7964 29.2445 74.9185 28.736 75.1302L25.856 76.39C25.4214 76.587 25.0199 76.8503 24.6659 77.1702L24.586 76.9901C24.3432 76.4299 23.992 75.9232 23.5527 75.4993C23.1133 75.0754 22.5944 74.7424 22.0259 74.5198C21.4447 74.2938 20.8242 74.1863 20.2008 74.2034C19.5775 74.2206 18.9638 74.3623 18.3959 74.6199C17.8361 74.8623 17.3298 75.213 16.9059 75.6517C16.482 76.0904 16.149 76.6083 15.9259 77.1761C15.7029 77.7439 15.5944 78.3504 15.6064 78.9603C15.6184 79.5702 15.7507 80.1713 15.9959 80.7298L19.696 89.2401C19.9374 89.8007 20.2872 90.3083 20.7255 90.7332C21.1638 91.1582 21.6818 91.4922 22.2497 91.7161C22.8175 91.9401 23.424 92.0492 24.0343 92.0379C24.6447 92.0266 25.2468 91.8951 25.806 91.6502H25.8859C26.4461 91.4068 26.9526 91.0551 27.3766 90.6156C27.8006 90.176 28.1338 89.6568 28.3567 89.0882C28.5797 88.5196 28.6882 87.9127 28.6761 87.3021C28.6639 86.6915 28.5313 86.0894 28.2859 85.5301L28.216 85.3499C28.6909 85.3091 29.1565 85.1945 29.596 85.0101L32.476 83.7601C32.9808 83.5375 33.4415 83.2259 33.836 82.8402C34.33 83.4494 34.9697 83.9239 35.696 84.22C36.2385 84.429 36.8145 84.5373 37.3959 84.5399C38.0363 84.5408 38.6698 84.4083 39.2559 84.1502L51.566 78.7498C51.5404 80.3685 52.0224 81.9547 52.9443 83.2855C53.8661 84.6163 55.1816 85.6252 56.706 86.1702L43.866 114.39L46.866 115.73L57.066 93.3099L56.066 115.55L59.306 115.7L60.306 93.4598L68.3859 116.73L71.3859 115.67L61.226 86.3699C63.1231 85.8832 64.7663 84.6981 65.8269 83.0516C66.8875 81.4051 67.2872 79.4187 66.946 77.4901L90.4059 67.2698L91.476 69.7298C91.8367 70.5595 92.4321 71.2658 93.189 71.7615C93.9459 72.2573 94.8312 72.5208 95.736 72.5198C96.3755 72.5222 97.0086 72.3929 97.596 72.14L106.096 68.43C107.225 67.9382 108.112 67.0188 108.564 65.8734C109.016 64.7279 108.995 63.4501 108.506 62.3201" fill="#C1C3C5"/>
</g>
</g>
</g>
<path d="M51.2362 61.6602L31.5161 70.25C31.1479 70.4063 30.8146 70.6348 30.536 70.9219C30.2573 71.2089 30.0389 71.5487 29.8935 71.9214C29.7482 72.2941 29.6788 72.6924 29.6896 73.0923C29.7003 73.4922 29.791 73.8856 29.9562 74.25L32.4361 79.9502C32.5915 80.3193 32.8192 80.6534 33.1058 80.9331C33.3924 81.2128 33.7322 81.4323 34.105 81.5786C34.4778 81.7249 34.8761 81.7952 35.2765 81.7852C35.6768 81.7751 36.0712 81.6849 36.4361 81.52L56.1461 72.8604" fill="#FFD75D"/>
<path d="M51.2362 61.6602L31.5161 70.25C31.1479 70.4063 30.8146 70.6348 30.536 70.9219C30.2573 71.2089 30.0389 71.5487 29.8935 71.9214C29.7482 72.2941 29.6788 72.6924 29.6896 73.0923C29.7003 73.4922 29.791 73.8856 29.9562 74.25L32.4361 79.9502C32.5915 80.3193 32.8192 80.6534 33.1058 80.9331C33.3924 81.2128 33.7322 81.4323 34.105 81.5786C34.4778 81.7249 34.8761 81.7952 35.2765 81.7852C35.6768 81.7751 36.0712 81.6849 36.4361 81.52L56.1461 72.8604" stroke="#2276BB" stroke-width="3.24" stroke-miterlimit="10"/>
<path d="M103.256 65.7802L94.7461 69.4799C94.3811 69.6448 93.9869 69.735 93.5865 69.7451C93.1862 69.7551 92.7878 69.6849 92.415 69.5385C92.0422 69.3922 91.7025 69.1727 91.4159 68.893C91.1293 68.6133 90.9015 68.2792 90.7461 67.9101L78.4762 39.7202C78.311 39.3558 78.2203 38.9619 78.2096 38.562C78.1988 38.1621 78.2682 37.7643 78.4136 37.3916C78.5589 37.0189 78.7774 36.6791 79.056 36.3921C79.3347 36.105 79.6679 35.8765 80.0361 35.7202L88.5461 32.0102C88.9111 31.8454 89.3054 31.7552 89.7058 31.7451C90.1062 31.735 90.5045 31.8053 90.8773 31.9516C91.2501 32.098 91.5898 32.3174 91.8764 32.5971C92.1631 32.8768 92.3907 33.2109 92.5461 33.58L104.816 61.77C104.981 62.1344 105.072 62.5283 105.083 62.9282C105.093 63.3281 105.024 63.7259 104.879 64.0986C104.733 64.4713 104.515 64.8116 104.236 65.0986C103.958 65.3856 103.624 65.6137 103.256 65.77" fill="#FFD75D"/>
<path d="M103.256 65.7802L94.7461 69.4799C94.3811 69.6448 93.9869 69.735 93.5865 69.7451C93.1862 69.7552 92.7878 69.6849 92.415 69.5385C92.0422 69.3922 91.7025 69.1727 91.4159 68.893C91.1293 68.6133 90.9015 68.2792 90.7461 67.9101L78.4762 39.7202C78.311 39.3558 78.2203 38.9619 78.2096 38.562C78.1988 38.1621 78.2682 37.7643 78.4136 37.3916C78.5589 37.0189 78.7774 36.6791 79.056 36.3921C79.3347 36.105 79.6679 35.8765 80.0361 35.7202L88.5461 32.0102C88.9111 31.8454 89.3054 31.7552 89.7058 31.7451C90.1062 31.735 90.5045 31.8053 90.8773 31.9516C91.2501 32.098 91.5898 32.3174 91.8764 32.5971C92.1631 32.8768 92.3907 33.2109 92.5461 33.58L104.816 61.77C104.983 62.1349 105.075 62.5296 105.086 62.9306C105.098 63.3316 105.029 63.7311 104.883 64.1049C104.738 64.4788 104.519 64.8196 104.239 65.1074C103.96 65.3952 103.626 65.624 103.256 65.7802Z" stroke="#2276BB" stroke-width="3.24" stroke-miterlimit="10"/>
<path d="M58.176 77.4101L89.046 63.9702L88.546 62.8403L81.906 47.5703C81.7506 47.2012 81.5229 46.8666 81.2363 46.5869C80.9497 46.3072 80.61 46.0877 80.2372 45.9414C79.8644 45.7951 79.466 45.7253 79.0656 45.7353C78.6653 45.7454 78.271 45.8351 77.906 46L52.526 57.0503C52.1569 57.2057 51.8226 57.4331 51.5429 57.7197C51.2632 58.0063 51.0438 58.3464 50.8974 58.7192C50.7511 59.092 50.6808 59.4902 50.6909 59.8906C50.701 60.291 50.7912 60.6853 50.956 61.0503L55.666 71.8701L58.176 77.4101Z" fill="#FFD75D"/>
<path d="M58.176 77.4101L89.046 63.9702L88.546 62.8403L81.906 47.5703C81.7506 47.2012 81.5229 46.8666 81.2363 46.5869C80.9497 46.3072 80.61 46.0877 80.2372 45.9414C79.8644 45.7951 79.466 45.7253 79.0656 45.7353C78.6653 45.7454 78.271 45.8351 77.906 46L52.526 57.0503C52.1569 57.2057 51.8226 57.4331 51.5429 57.7197C51.2632 58.0063 51.0438 58.3464 50.8974 58.7192C50.7511 59.092 50.6808 59.4902 50.6909 59.8906C50.701 60.291 50.7912 60.6853 50.956 61.0503L55.666 71.8701L58.176 77.4101Z" stroke="#2276BB" stroke-width="3.24" stroke-miterlimit="10"/>
<path d="M26.8058 82.3603L29.6858 81.1001C30.054 80.9437 30.3872 80.7152 30.6659 80.4282C30.9445 80.1412 31.163 79.8014 31.3083 79.4287C31.4537 79.056 31.523 78.6582 31.5123 78.2583C31.5016 77.8584 31.4109 77.4644 31.2457 77.1001V77.0302C31.0903 76.6611 30.8626 76.3266 30.576 76.0469C30.2894 75.7671 29.9497 75.5477 29.5769 75.4013C29.2041 75.255 28.8057 75.1852 28.4054 75.1953C28.005 75.2054 27.6107 75.2951 27.2457 75.4599L24.3658 76.7099C23.9967 76.8653 23.6624 77.0932 23.3827 77.3799C23.103 77.6665 22.8835 78.0061 22.7372 78.3789C22.5908 78.7517 22.5207 79.1504 22.5307 79.5508C22.5408 79.9511 22.6309 80.345 22.7957 80.7099V80.7802C22.9511 81.1494 23.1789 81.4835 23.4655 81.7632C23.7522 82.0429 24.0919 82.2623 24.4647 82.4087C24.8375 82.555 25.2357 82.6253 25.6361 82.6152C26.0364 82.6051 26.4308 82.5149 26.7957 82.3501" fill="#FFD75D"/>
<path d="M26.8058 82.3603L29.6858 81.1001C30.054 80.9437 30.3872 80.7152 30.6659 80.4282C30.9445 80.1412 31.163 79.8014 31.3083 79.4287C31.4537 79.056 31.523 78.6582 31.5123 78.2583C31.5016 77.8584 31.4109 77.4644 31.2457 77.1001V77.0302C31.0903 76.6611 30.8626 76.3266 30.576 76.0469C30.2894 75.7671 29.9497 75.5477 29.5769 75.4013C29.2041 75.255 28.8057 75.1852 28.4054 75.1953C28.005 75.2054 27.6107 75.2951 27.2457 75.4599L24.3658 76.7099C23.9967 76.8653 23.6624 77.0932 23.3827 77.3799C23.103 77.6665 22.8835 78.0061 22.7372 78.3789C22.5908 78.7517 22.5207 79.1504 22.5307 79.5508C22.5408 79.9511 22.6309 80.345 22.7957 80.7099V80.7802C22.9501 81.1515 23.1775 81.4879 23.4644 81.7695C23.7514 82.0511 24.092 82.272 24.466 82.4194C24.8401 82.5668 25.24 82.6376 25.6419 82.6274C26.0439 82.6172 26.4397 82.5265 26.8058 82.3603V82.3603Z" stroke="#2276BB" stroke-width="3.24" stroke-miterlimit="10"/>
<path d="M23.046 88.9502H22.976C22.6117 89.1153 22.2179 89.206 21.818 89.2168C21.4181 89.2275 21.0201 89.158 20.6474 89.0127C20.2747 88.8673 19.9348 88.6487 19.6478 88.3701C19.3608 88.0914 19.1324 87.7583 18.976 87.3901L15.266 78.8803C15.1011 78.5154 15.011 78.121 15.0009 77.7207C14.9909 77.3203 15.061 76.9221 15.2074 76.5493C15.3537 76.1765 15.5732 75.8364 15.8529 75.5498C16.1326 75.2631 16.4669 75.0357 16.836 74.8803H16.906C17.271 74.7155 17.6653 74.6253 18.0656 74.6152C18.466 74.6051 18.8644 74.6754 19.2372 74.8217C19.61 74.9681 19.9497 75.1875 20.2363 75.4673C20.5229 75.747 20.7506 76.0811 20.906 76.4502L24.6161 84.9599C24.7809 85.3249 24.871 85.7192 24.8811 86.1196C24.8911 86.52 24.821 86.9187 24.6747 87.2915C24.5283 87.6643 24.3087 88.0039 24.029 88.2905C23.7493 88.5771 23.4151 88.8045 23.046 88.9599" fill="#FFD75D"/>
<path d="M23.046 88.9502H22.976C22.6117 89.1153 22.2179 89.206 21.818 89.2168C21.4181 89.2275 21.0201 89.158 20.6474 89.0127C20.2747 88.8673 19.9348 88.6487 19.6478 88.3701C19.3608 88.0914 19.1324 87.7583 18.976 87.3901L15.266 78.8803C15.1011 78.5154 15.011 78.121 15.0009 77.7207C14.9909 77.3203 15.061 76.9221 15.2074 76.5493C15.3537 76.1765 15.5732 75.8364 15.8529 75.5498C16.1326 75.2631 16.4669 75.0357 16.836 74.8803H16.906C17.271 74.7155 17.6653 74.6253 18.0656 74.6152C18.466 74.6051 18.8644 74.6754 19.2372 74.8217C19.61 74.9681 19.9497 75.1875 20.2363 75.4673C20.5229 75.747 20.7506 76.0811 20.906 76.4502L24.6161 84.9599C24.7793 85.3244 24.8682 85.7179 24.8774 86.1172C24.8867 86.5164 24.8161 86.9135 24.6699 87.2851C24.5237 87.6568 24.3047 87.9958 24.0259 88.2817C23.747 88.5676 23.4139 88.7947 23.046 88.9502Z" stroke="#2276BB" stroke-width="3.24" stroke-miterlimit="10"/>
<path d="M56.8259 83.8203L55.4058 114.45" stroke="#2276BB" stroke-width="3.24" stroke-miterlimit="10"/>
<path d="M43.146 113.88L56.8262 83.8203" stroke="#2276BB" stroke-width="3.24" stroke-miterlimit="10"/>
<path d="M56.8262 83.8203L67.656 115.02" stroke="#2276BB" stroke-width="3.24" stroke-miterlimit="10"/>
<path d="M63.2362 77.9504C63.1796 79.1613 62.7651 80.3285 62.0453 81.3039C61.3255 82.2793 60.3326 83.0192 59.1922 83.4304C58.0518 83.8416 56.8151 83.9056 55.6385 83.614C54.4618 83.3224 53.398 82.6883 52.5816 81.7922C51.7651 80.8961 51.2327 79.778 51.0517 78.5793C50.8706 77.3806 51.049 76.1551 51.5644 75.0578C52.0797 73.9605 52.9088 73.0409 53.9468 72.4148C54.9849 71.7886 56.1852 71.4842 57.3962 71.5402C58.201 71.5762 58.9909 71.7706 59.7204 72.1125C60.4499 72.4544 61.1048 72.9369 61.6474 73.5324C62.19 74.128 62.6096 74.8251 62.8822 75.5832C63.1549 76.3413 63.2752 77.1457 63.2362 77.9504Z" fill="#FFD75D"/>
<path d="M63.2362 77.9504C63.1796 79.1613 62.7651 80.3285 62.0453 81.3039C61.3255 82.2793 60.3326 83.0192 59.1922 83.4304C58.0518 83.8416 56.8151 83.9056 55.6385 83.614C54.4618 83.3224 53.398 82.6883 52.5816 81.7922C51.7651 80.8961 51.2327 79.778 51.0517 78.5793C50.8706 77.3806 51.049 76.1551 51.5644 75.0578C52.0797 73.9605 52.9088 73.0409 53.9468 72.4148C54.9849 71.7886 56.1852 71.4842 57.3962 71.5402C58.201 71.5762 58.9909 71.7706 59.7204 72.1125C60.4499 72.4544 61.1048 72.9369 61.6474 73.5324C62.19 74.128 62.6096 74.8251 62.8822 75.5832C63.1549 76.3413 63.2752 77.1457 63.2362 77.9504V77.9504Z" stroke="#2276BB" stroke-width="3.24" stroke-miterlimit="10"/>
<path d="M116.776 26L120.486 31.7603L127.116 30L122.786 35.3203L126.506 41.0703L120.116 38.6001L115.786 43.9102L116.166 37.0703L109.776 34.6001L116.396 32.8501L116.776 26Z" fill="#2276BB"/>
</svg>
