<svg width="248" height="248" viewBox="0 0 248 248" fill="none" xmlns="http://www.w3.org/2000/svg">
<path d="M124 248C192.483 248 248 192.483 248 124C248 55.5167 192.483 0 124 0C55.5167 0 0 55.5167 0 124C0 192.483 55.5167 248 124 248Z" fill="#2576B9"/>
<path d="M124 11.7847C62.1297 11.7847 11.7847 62.1197 11.7847 124C11.7847 185.88 62.1197 236.215 124 236.215C185.87 236.215 236.205 185.88 236.205 124C236.205 62.1197 185.88 11.7847 124 11.7847ZM124 232.21C64.3369 232.21 15.7895 183.663 15.7895 124C15.7895 64.3369 64.3369 15.7895 124 15.7895C183.663 15.7895 232.21 64.3369 232.21 124C232.21 183.663 183.663 232.21 124 232.21Z" fill="white"/>
<path d="M79.3776 153.552C83.4423 151.684 84.8006 144.933 81.5448 141.737C77.4101 144.064 76.3415 149.846 79.3776 153.552Z" fill="white"/>
<path d="M97.7338 132.679C94.1484 135.465 93.9587 141.787 97.6739 144.723C101.01 142.596 101.679 135.815 97.7338 132.679Z" fill="white"/>
<path d="M168.113 153.522C171.428 149.707 169.551 143.385 165.906 141.737C162.39 145.472 164.497 152.064 168.113 153.522Z" fill="white"/>
<path d="M149.777 132.659C146.062 135.445 146.181 142.146 149.757 144.733C153.093 142.376 153.732 136.004 149.777 132.659Z" fill="white"/>
<path d="M123.71 85.719C126.786 83.8315 127.965 77.3199 123.77 73.6846C119.985 76.5708 120.215 83.2622 123.71 85.719Z" fill="white"/>
<path d="M113.513 88.925C117.498 88.3657 120.984 82.6331 118.727 78.1289C114.113 79.0677 111.366 85.1299 113.513 88.925Z" fill="white"/>
<path d="M123.72 92.1611C119.655 95.6067 120.564 102.208 123.76 104.236C127.116 101.819 127.675 95.4069 123.72 92.1611Z" fill="white"/>
<path d="M134.017 88.9053C136.244 84.3412 132.699 78.7384 128.714 78.1392C126.786 82.5934 129.543 88.1762 134.017 88.9053Z" fill="white"/>
<path d="M158.705 92.9801C162.92 90.1437 163.899 84.1914 160.743 81.0854C156.588 83.7121 155.559 89.4546 158.705 92.9801Z" fill="white"/>
<path d="M86.5979 81.125C83.8814 83.9514 84.2909 90.5828 88.8251 92.9198C92.001 89.674 90.6527 82.8028 86.5979 81.125Z" fill="white"/>
<path d="M90.0938 123.401C87.567 120.035 81.4449 119.446 78.0493 123.091C81.3251 127.495 88.4559 126.497 90.0938 123.401Z" fill="white"/>
<path d="M169.352 123.041C166.166 119.555 160.084 119.895 157.287 123.48C160.453 127.375 167.354 126.566 169.352 123.041Z" fill="white"/>
<path d="M167.833 130.741C172.068 132.889 178.06 129.373 178.46 125.199C174.505 123.231 168.712 126.217 167.833 130.741Z" fill="white"/>
<path d="M80.5461 129.792C79.068 125.278 72.3467 123.53 69.1108 126.197C70.519 130.391 76.731 132.379 80.5461 129.792Z" fill="white"/>
<path d="M112.764 110.258C113.593 105.684 109.908 101.339 104.974 101.189C104.165 106.013 108.26 110.727 112.764 110.258Z" fill="white"/>
<path d="M101.08 102.418C105.604 100.411 106.722 94.3583 104.355 90.8828C99.9011 92.5706 98.0036 99.3419 101.08 102.418Z" fill="white"/>
<path d="M103.956 110.238C104.125 115.541 110.038 118.797 113.473 117.448C113.453 112.794 108.65 109.149 103.956 110.238Z" fill="white"/>
<path d="M143.505 110.188C138.431 109.349 133.028 113.713 134.187 117.628C139.061 118.507 143.475 114.412 143.505 110.188Z" fill="white"/>
<path d="M142.406 101.189C137.562 101.359 133.847 105.734 134.716 110.358C139.72 110.597 143.734 104.945 142.406 101.189Z" fill="white"/>
<path d="M146.551 102.457C149.178 98.982 147.58 92.3505 143.125 90.9224C140.639 94.308 141.987 100.61 146.551 102.457Z" fill="white"/>
<path d="M89.3946 110.168C88.7454 105.983 83.5921 102.567 78.8682 104.365C79.3376 108.3 84.5009 112.305 89.3946 110.168Z" fill="white"/>
<path d="M158.056 110.188C162.181 112.195 168.273 108.76 168.493 104.315C164.068 102.697 159.225 105.434 158.056 110.188Z" fill="white"/>
<path d="M123.95 57.9349C87.0373 57.825 57.9049 87.7164 57.9449 123.76C57.9549 138.681 62.8985 152.303 71.1578 163.249C83.1723 179.378 102.388 189.855 124.01 189.855C160.323 189.855 189.875 160.313 189.875 123.99C189.875 105.823 182.474 89.3543 170.54 77.4197C158.675 65.4452 142.236 57.9948 123.95 57.9349ZM132.299 62.0096C132.259 62.3492 132.209 62.6887 132.179 63.0183C131.69 67.4925 135.125 71.3775 138.421 71.757C139.829 68.7709 138.97 65.8047 135.665 62.5489C138.431 63.0782 141.148 63.7873 143.774 64.6662C139.939 68.661 139.27 72.1266 141.577 75.7519C145.222 74.7731 146.85 70.4387 145.512 65.2654C147.649 66.0444 149.726 66.9632 151.744 67.9619C148.588 71.4175 145.502 74.8031 142.366 78.2387C142.346 78.2287 142.186 78.2087 142.076 78.1188C138.641 75.3324 135.255 72.4861 132.429 69.0505C130.641 66.8733 129.303 64.4565 128.434 61.6301C129.732 61.71 131.021 61.8398 132.299 62.0096ZM101.868 65.5051C101.089 67.8221 101.059 69.9893 102.088 72.1465C102.867 73.7744 104.005 75.0628 105.793 75.9017C107.261 73.9442 107.411 71.757 106.952 69.5299C106.552 67.5924 105.454 66.0744 103.836 64.796C106.382 63.9271 108.999 63.2081 111.696 62.6688C108.5 66.0045 107.691 68.9007 109.089 71.8569C111.416 71.2677 113.164 69.8994 114.322 67.8021C115.321 66.0144 115.541 64.1169 115.171 62.0795C116.439 61.8998 117.728 61.7599 119.026 61.6601C118.397 63.7474 117.498 65.565 116.359 67.2628C114.502 70.0293 112.115 72.3263 109.648 74.5335C108.18 75.8418 106.662 77.0902 105.194 78.3386C102.068 74.913 99.0119 71.5673 95.8959 68.1517C97.8334 67.153 99.8208 66.2741 101.868 65.5051ZM76.8405 82.9626C76.3212 85.709 76.8704 88.2258 78.9078 90.4629C82.4832 87.7264 83.0325 83.9114 80.5457 79.0576C82.3334 77.3299 84.211 75.702 86.1984 74.1939C86.7277 76.9104 87.9761 78.9777 90.3431 80.306C91.7612 81.105 93.2593 81.5045 94.8872 81.2947C95.3366 77.23 92.5003 73.9143 87.9162 72.9255C88.6552 72.3962 89.4143 71.8869 90.1733 71.3975C92.8898 73.6846 98.4226 79.6569 100.29 82.4433C95.3866 87.2471 92.1307 92.9097 91.6913 100.26C85.8988 95.1469 79.4771 91.5415 72.3762 88.6852C73.7645 86.7078 75.2525 84.7902 76.8405 82.9626ZM67.0931 98.0531C67.9919 99.8108 69.1804 101.169 70.8782 101.998C72.9155 102.987 75.0228 103.266 77.19 102.437C77.19 100.55 75.692 98.4326 73.5547 97.1942C71.8469 96.2155 70.0492 95.8959 67.9719 96.1955C68.3414 95.4565 68.721 94.7174 69.1105 93.9983C79.3073 98.4326 88.5454 103.936 94.8572 113.333C94.7873 113.443 94.7274 113.553 94.6575 113.663C93.1295 113.513 91.6014 113.283 90.0734 113.234C88.0061 113.164 85.9288 113.224 83.8514 113.254C83.1823 113.263 82.663 113.224 82.2335 112.554C78.6581 106.892 73.2651 103.756 67.0631 101.758C66.6037 101.609 66.1443 101.469 65.6849 101.329C66.1443 100.23 66.6037 99.1317 67.0931 98.0531ZM62.4091 113.124C64.1668 114.362 66.0045 115.051 68.1417 114.752C69.8495 114.512 71.0579 113.853 72.2963 112.594C70.3588 109.728 66.6736 109.199 62.7886 111.126C63.0683 109.808 63.3978 108.51 63.7474 107.221C68.2715 108.41 72.4062 110.297 75.8118 114.132C70.7883 115.011 66.2541 116.599 61.7 118.527C61.8598 116.699 62.0995 114.901 62.4091 113.124ZM61.8598 131.11C63.8972 134.007 66.7136 135.335 70.6385 134.746C70.3988 132.159 69.1804 130.331 67.2529 128.923C65.565 127.685 63.6475 127.275 61.5402 127.395C61.5003 126.716 61.4903 126.017 61.4803 125.338C62.0196 125.088 62.5589 124.829 63.0882 124.599C67.6324 122.591 72.2764 120.894 77.2 120.115C84.201 119.006 91.192 118.597 98.0631 120.914C98.4626 121.043 98.8721 121.193 99.6411 121.463C99.2615 121.643 99.0818 121.743 98.892 121.812C94.8872 123.53 91.3717 126.027 87.9362 128.654C85.3096 130.661 82.7229 132.708 79.567 133.887C75.9516 135.235 72.2164 136.034 68.3814 136.324C66.5438 136.464 64.6862 136.543 62.7287 136.633C62.3592 134.836 62.0795 132.988 61.8598 131.11ZM115.271 142.965C115.111 149.307 114.632 155.639 113.473 161.891C112.724 165.936 111.745 169.91 110.038 173.676C109.199 175.533 108.19 177.281 106.782 178.769C104.695 180.976 102.278 181.925 99.681 181.625C86.0586 175.853 74.903 165.386 68.2216 152.263C73.5947 150.545 76.0815 147.469 75.4423 143.135C73.2152 143.085 71.3476 143.944 69.7496 145.432C68.3215 146.77 67.5824 148.448 67.2828 150.336C66.1343 147.879 65.1356 145.332 64.3067 142.715C71.807 142.476 78.8878 141.317 85.6491 137.822C85.6491 140.189 85.5093 142.356 85.6891 144.503C85.8688 146.62 86.4381 148.688 87.4468 150.775C89.2944 150.056 91.1121 149.367 92.9697 148.648C92.6001 147.08 92.1507 145.612 91.911 144.104C90.2532 133.877 96.9745 128.054 103.856 126.157C106.412 125.448 108.919 125.857 111.226 127.275C113.403 128.614 114.851 130.521 115.041 133.058C115.291 136.354 115.351 139.669 115.271 142.965ZM104.744 116.439C98.3927 110.767 96.1056 101.339 99.3514 93.8286C100.4 91.4017 101.898 89.3044 104.025 87.4468C111.496 98.3827 116.26 110.167 117.668 123.51C112.944 121.513 108.44 119.745 104.744 116.439ZM123.88 120.614C123.64 120.125 123.45 119.895 123.41 119.645C122.182 112.584 120.185 105.753 117.348 99.1717C117.059 98.5025 117.029 97.8833 117.178 97.1643C117.748 94.3679 119.066 91.971 120.944 89.8637C121.323 89.4342 121.713 88.9948 122.182 88.4855C121.353 87.6066 120.574 86.7677 119.735 85.8788C117.468 87.9262 115.89 90.2931 114.612 92.8898C114.472 92.7899 114.362 92.74 114.312 92.6601C112.504 89.584 110.707 86.518 108.829 83.3321C114.422 78.5183 120.324 73.9043 123.72 66.6636C127.146 73.8543 132.938 78.4884 138.671 83.3321C136.763 86.508 134.866 89.6739 132.888 92.9797C131.56 90.2632 129.992 87.9062 127.815 85.9687C126.916 86.7976 126.097 87.5467 125.198 88.3756C125.807 89.0647 126.297 89.604 126.776 90.1533C128.564 92.2007 129.782 94.5476 130.301 97.2242C130.401 97.7635 130.401 98.4226 130.182 98.922C127.275 105.803 125.198 112.944 123.88 120.614ZM143.465 87.4068C144.224 88.2058 144.933 88.835 145.512 89.5741C150.426 95.9059 150.805 102.737 147.579 109.888C146.031 113.313 143.584 116.03 140.518 118.197C137.263 120.494 133.587 121.892 129.812 123.5C131.18 110.217 135.974 98.4326 143.465 87.4068ZM180.347 151.165C179.917 148.338 178.939 146.141 176.752 144.643C175.363 143.684 173.845 143.135 171.998 143.125C171.658 145.622 172.427 147.679 173.965 149.487C175.453 151.225 177.461 151.994 179.728 152.363C173.086 165.356 162.051 175.743 148.578 181.525C147.769 181.685 146.93 181.735 146.071 181.645C143.764 181.396 141.966 180.247 140.468 178.559C138.821 176.702 137.712 174.514 136.803 172.227C134.965 167.583 134.007 162.72 133.338 157.806C132.379 150.765 132.069 143.684 132.129 136.583C132.139 135.415 132.209 134.226 132.379 133.078C132.918 129.503 135.754 126.706 139.35 126.057C141.018 125.757 142.656 125.837 144.243 126.377C150.196 128.404 154.44 132.099 155.589 138.581C156.088 141.397 155.809 144.214 154.93 146.95C154.77 147.449 154.61 147.949 154.38 148.628C156.308 149.377 158.086 150.066 160.013 150.815C161.921 146.69 162.28 142.426 161.751 137.812C168.722 141.427 176.003 142.576 183.673 142.765C182.774 145.642 181.655 148.458 180.347 151.165ZM186.519 125.578C186.509 126.197 186.499 126.816 186.459 127.425C183.613 127.205 181.086 127.835 179.069 129.902C177.82 131.19 177.001 132.708 176.851 134.526C179.858 135.725 182.784 134.426 186.239 130.331C186.03 132.429 185.71 134.496 185.301 136.523C185.101 136.563 184.921 136.593 184.741 136.593C179.168 136.603 173.686 136.004 168.402 134.087C166.025 133.218 163.868 131.979 161.861 130.451C159.913 128.963 157.996 127.415 155.948 126.077C153.681 124.599 151.274 123.321 148.927 121.962C148.658 121.802 148.398 121.653 147.999 121.413C151.165 120.254 154.251 119.485 157.446 119.326C166.545 118.876 175.263 120.494 183.573 124.239C184.542 124.679 185.52 125.108 186.489 125.558C186.499 125.558 186.509 125.568 186.519 125.578ZM185.291 111.446C181.046 109.179 177.401 109.608 175.174 112.514C177.65 115.391 180.976 115.511 185.53 112.814C185.88 114.762 186.139 116.729 186.309 118.726C181.485 116.709 176.841 115.021 171.698 114.132C175.054 110.197 179.338 108.34 184.202 107.081C184.621 108.52 184.991 109.968 185.291 111.446ZM178.809 93.8785C179.238 94.6675 179.658 95.4664 180.057 96.2654C177.191 95.796 174.734 96.3054 172.637 98.113C171.369 99.2116 170.45 100.55 170.1 102.218C173.705 104.135 178.02 102.228 180.667 97.5238C181.226 98.7123 181.745 99.9307 182.225 101.169C181.925 101.279 181.625 101.389 181.346 101.469C176.861 102.817 172.627 104.655 169.191 107.92C167.733 109.299 166.525 110.946 165.266 112.524C164.867 113.024 164.507 113.353 163.828 113.273C160.413 112.834 157.027 113.134 153.641 113.613C153.402 113.643 153.142 113.593 152.653 113.563C153.162 112.744 153.532 112.055 153.981 111.416C156.368 108.09 159.354 105.374 162.6 102.917C167.374 99.2915 172.577 96.3953 178.12 94.1382C178.32 94.0383 178.549 93.9584 178.809 93.8785ZM155.809 100.24C155.479 96.625 154.7 93.4091 153.152 90.403C151.624 87.4368 149.567 84.8601 147.16 82.4433C149.417 79.2374 154.93 73.325 157.546 71.2377C158.355 71.7471 159.144 72.2864 159.933 72.8357C157.846 73.1652 156.158 73.8643 154.82 75.2625C153.242 76.9104 152.393 78.8479 152.473 81.2947C154.91 81.5344 156.897 80.7654 158.645 79.2174C160.223 77.8092 161.002 76.0016 161.331 73.8444C163.369 75.3624 165.296 77.0103 167.134 78.768C165.606 80.8453 164.987 83.1024 165.466 85.6192C165.836 87.5567 166.774 89.2045 168.382 90.413C170.629 88.5554 171.259 85.9088 170.4 82.1037C172.237 84.1311 173.935 86.2883 175.493 88.5454C168.362 91.3318 161.751 94.9971 155.809 100.24Z" fill="white"/>
<path d="M36.0436 80.5559C36.2333 80.0965 36.8026 79.8668 37.3019 80.0666L38.7401 80.6758C39.2295 80.8855 39.4691 81.4548 39.2694 81.9142L37.7913 85.4197L55.4885 92.9C55.9479 93.0898 56.1776 93.659 55.9778 94.1584L55.1389 96.1558C54.9292 96.6452 54.3599 96.8749 53.9005 96.6851L36.2034 89.2048L34.7253 92.7102C34.5255 93.1697 33.9662 93.3994 33.4669 93.1996L32.0188 92.5904C31.5294 92.3807 31.2897 91.8114 31.4894 91.352L36.0436 80.5559Z" fill="white"/>
<path d="M54.5893 75.9019L61.9898 81.3748C62.3893 81.6744 62.4791 82.2837 62.1596 82.7031L60.8712 84.4509C60.5516 84.8803 59.9424 84.9702 59.5429 84.6706L42.0455 71.7273C41.646 71.4277 41.5561 70.8284 41.8657 70.399L46.7095 63.8574C48.2375 61.7901 50.8641 61.6603 52.7117 63.0285L55.3883 65.0059C57.1061 66.2743 58.0548 67.8523 56.9563 69.7299C58.7539 67.7424 60.8512 68.5014 62.6489 69.8297L67.7423 73.5949C68.1418 73.8945 68.2317 74.4937 67.9221 74.9331L66.6338 76.6709C66.3242 77.1003 65.715 77.1902 65.3155 76.8906L59.6827 72.726C58.6141 71.937 57.3358 72.1967 56.5468 73.2653L54.5893 75.9019ZM51.4634 66.7837C50.4147 66.0147 49.2063 66.1944 48.4073 67.263L46.4698 69.8897L51.8628 73.8745L53.8003 71.2479C54.5993 70.1793 54.4095 68.9609 53.3409 68.1719L51.4634 66.7837Z" fill="white"/>
<path d="M65.2256 46.8197C64.916 46.4302 64.9759 45.8209 65.3854 45.4814L67.0432 44.1331C67.4627 43.7936 68.0719 43.8635 68.3915 44.253L78.9978 57.386C81.6144 60.6318 80.7256 64.357 77.7394 66.7639C74.7633 69.1808 70.9282 69.2707 68.3116 66.0249L57.6953 52.9018C57.3857 52.5123 57.4456 51.9031 57.8651 51.5735L59.5229 50.2352C59.9324 49.8957 60.5416 49.9656 60.8612 50.3551L71.4775 63.4782C72.5661 64.8264 74.194 65.0961 75.5223 64.0274C76.8406 62.9588 76.9305 61.3109 75.8319 59.9527L65.2256 46.8197Z" fill="white"/>
<path d="M83.3123 41.6364C83.8716 42.8548 84.7005 42.9846 86.658 43.2643L91.7614 44.0133C94.7475 44.4428 95.6863 45.4515 96.9747 48.2678C98.7224 52.0929 97.1045 55.3587 93.3693 57.0665C89.7939 58.7044 86.1886 57.8954 84.4109 54.0104L83.8416 52.762C83.6319 52.3026 83.8516 51.7334 84.331 51.5136L86.2685 50.6248C86.7578 50.4051 87.3271 50.6148 87.5368 51.0742L88.1061 52.3126C88.8152 53.8606 90.3732 54.5397 91.8912 53.8506C93.5591 53.0916 93.9685 51.6535 93.2095 49.9856L92.9998 49.5262C92.4305 48.2778 91.5716 48.168 90.1934 47.9482L83.9714 47.0194C81.5645 46.6499 80.2762 44.9621 79.4872 43.2343C77.7395 39.4093 79.1876 35.9937 83.0027 34.2459C86.608 32.598 90.1734 33.387 91.9611 37.302L92.2607 37.9711C92.4705 38.4305 92.2507 38.9998 91.7714 39.2295L89.8339 40.1183C89.3445 40.3381 88.7752 40.1283 88.5655 39.6789L88.2559 39.0098C87.5468 37.4618 86.1386 36.7127 84.4708 37.4718C82.8029 38.2308 82.3935 39.6689 83.1525 41.3368L83.3123 41.6364Z" fill="white"/>
<path d="M110.707 26.8153C111.196 26.7154 111.706 27.055 111.816 27.5843L112.125 29.1223C112.225 29.6416 111.886 30.151 111.396 30.2508L107.661 30.9899L111.376 49.8356C111.476 50.3249 111.127 50.8343 110.607 50.9441L108.48 51.3636C107.961 51.4635 107.451 51.1239 107.351 50.6345L103.636 31.7888L99.911 32.5279C99.4216 32.6278 98.9123 32.2782 98.8024 31.7589L98.5028 30.2209C98.403 29.7015 98.7425 29.1922 99.2319 29.0923L110.707 26.8153Z" fill="white"/>
<path d="M121.803 49.626C121.273 49.6061 120.854 49.1566 120.874 48.6573L121.633 26.8854C121.653 26.386 122.102 25.9666 122.631 25.9865L132.898 26.3461C133.398 26.366 133.817 26.8155 133.797 27.3448L133.737 28.9427C133.717 29.472 133.268 29.8915 132.768 29.8715L125.638 29.6218L125.438 35.5242L131.57 35.7339C132.069 35.7439 132.489 36.2033 132.469 36.7327L132.419 38.3006C132.399 38.83 131.949 39.2494 131.45 39.2294L125.318 39.0197L125.068 46.1905L132.369 46.4401C132.868 46.4601 133.288 46.9095 133.268 47.4388L133.218 49.0368C133.198 49.5661 132.748 49.9856 132.249 49.9656L121.803 49.626Z" fill="white"/>
<path d="M152.224 50.305C151.584 52.5521 148.888 53.8604 146.611 53.2113L138.941 51.0241C138.431 50.8743 138.132 50.335 138.272 49.8556L144.254 28.9126C144.394 28.4332 144.923 28.1336 145.442 28.2834L153.113 30.4706C155.39 31.1198 156.988 33.6565 156.348 35.9036L152.224 50.305ZM151.964 36.1433C152.383 34.6752 151.814 33.6365 150.526 33.277L147.51 32.4181L142.886 48.6172L145.902 49.4761C147.18 49.8456 148.209 49.3063 148.628 47.8282L151.964 36.1433Z" fill="white"/>
<path d="M167.404 62.5392C167.094 62.9687 166.475 63.0585 166.075 62.7589L164.308 61.4506C163.878 61.131 163.788 60.5318 164.088 60.1223L177.011 42.585C177.311 42.1855 177.92 42.0856 178.34 42.4052L186.619 48.4973C187.018 48.7969 187.108 49.3962 186.799 49.8356L185.85 51.1239C185.54 51.5534 184.931 51.6433 184.532 51.3536L178.769 47.1291L175.264 51.883L180.207 55.5283C180.607 55.8279 180.696 56.4271 180.387 56.8565L179.458 58.1149C179.148 58.5444 178.539 58.6342 178.14 58.3446L173.196 54.6993L167.404 62.5392Z" fill="white"/>
<path d="M189.675 77.6296C186.489 80.3161 182.744 79.5072 180.277 76.571C177.8 73.6447 177.63 69.8097 180.816 67.1232L190.024 59.3632C193.21 56.6766 196.955 57.4856 199.422 60.4218C201.899 63.348 202.069 67.1831 198.883 69.8696L189.675 77.6296ZM196.256 66.7536C197.585 65.6351 197.814 63.9972 196.716 62.6989C195.617 61.4005 193.969 61.3506 192.641 62.4692L183.433 70.2391C182.105 71.3577 181.875 72.9956 182.974 74.2939C184.072 75.5922 185.72 75.6422 187.048 74.5236L196.256 66.7536Z" fill="white"/>
<path d="M199.013 85.1997L190.714 89.1846C190.265 89.4043 189.685 89.1946 189.456 88.7152L188.517 86.7577C188.287 86.2783 188.487 85.6991 188.936 85.4794L208.571 76.0516C209.02 75.8318 209.6 76.0416 209.829 76.5209L213.345 83.8515C214.453 86.1685 213.345 88.5554 211.267 89.5441L208.261 90.9823C206.344 91.9111 204.496 92.0109 203.348 90.1633C204.266 92.6901 202.609 94.1781 200.601 95.1469L194.889 97.8933C194.439 98.1131 193.86 97.9033 193.63 97.424L192.691 95.4665C192.462 94.9871 192.661 94.4078 193.121 94.1881L199.433 91.1521C200.631 90.5728 201.001 89.3244 200.421 88.126L199.013 85.1997ZM208.531 86.6978C209.699 86.1385 210.109 84.98 209.53 83.7716L208.112 80.8254L202.069 83.7316L203.478 86.6778C204.057 87.8863 205.215 88.2858 206.414 87.7065L208.531 86.6978Z" fill="white"/>
<path d="M37.5417 160.163C33.5868 161.491 30.4109 159.354 29.1924 155.719C27.974 152.084 29.2224 148.458 33.1773 147.14L44.5926 143.315C48.5475 141.987 51.7234 144.124 52.9418 147.759C54.1602 151.394 52.9118 155.02 48.9569 156.338L37.5417 160.163ZM47.6686 152.483C49.3165 151.934 50.1354 150.496 49.5961 148.888C49.0568 147.27 47.5388 146.621 45.8909 147.18L34.4756 151.005C32.8278 151.554 32.0088 152.992 32.5481 154.6C33.0874 156.218 34.6055 156.867 36.2533 156.308L47.6686 152.483Z" fill="white"/>
<path d="M60.1621 166.445C60.6714 166.256 61.3006 166.455 61.5802 166.915L62.6788 168.742C62.9185 169.142 62.8286 169.621 62.4291 169.871L62.0496 170.021L41.3264 177.781C40.9468 177.93 40.4675 177.711 40.2477 177.341L37.5213 172.827C37.2916 172.458 37.3315 171.928 37.6411 171.659L54.1498 156.928L54.4594 156.668C54.8589 156.428 55.3383 156.568 55.578 156.968L56.6865 158.795C56.9662 159.255 56.8463 159.904 56.4468 160.263L41.4662 173.516L60.1621 166.445Z" fill="white"/>
<path d="M48.0279 188.017C47.6684 187.628 47.6884 187.019 48.0479 186.669L63.9574 171.788C64.3269 171.449 64.9361 171.469 65.2957 171.858L72.3166 179.359C72.6562 179.728 72.6362 180.337 72.2467 180.707L71.0782 181.805C70.6887 182.165 70.0795 182.145 69.7299 181.785L64.8562 176.572L60.5518 180.597L64.7364 185.081C65.0759 185.451 65.056 186.06 64.6665 186.429L63.5179 187.498C63.1284 187.868 62.5192 187.838 62.1697 187.478L57.9851 182.994L52.7518 187.898L57.7454 193.231C58.085 193.6 58.065 194.209 57.6755 194.579L56.507 195.677C56.1175 196.037 55.5083 196.017 55.1687 195.658L48.0279 188.017Z" fill="white"/>
<path d="M70.7984 195.418L65.5452 202.968C65.2556 203.377 64.6563 203.487 64.2169 203.188L62.4392 201.949C61.9998 201.64 61.8899 201.04 62.1795 200.631L74.6235 182.754C74.9031 182.344 75.5123 182.235 75.9518 182.544L82.6331 187.198C84.7404 188.666 84.9502 191.283 83.6319 193.18L81.7243 195.917C80.5059 197.675 78.9579 198.663 77.0404 197.615C79.0777 199.362 78.3786 201.47 77.1003 203.307L73.475 208.501C73.1953 208.91 72.5861 209.02 72.1467 208.71L70.369 207.472C69.9295 207.162 69.8197 206.563 70.1093 206.154L74.1141 200.401C74.8732 199.313 74.5736 198.044 73.485 197.275L70.7984 195.418ZM79.8268 192.032C80.5658 190.963 80.3561 189.755 79.2575 188.996L76.581 187.128L72.7459 192.631L75.4224 194.499C76.521 195.258 77.7195 195.048 78.4885 193.949L79.8268 192.032Z" fill="white"/>
<path d="M178.789 205.924C178.35 206.234 177.74 206.114 177.461 205.705L171.748 197.485L160.243 191.263C160.113 191.193 160.033 191.083 159.993 191.023C159.764 190.694 159.813 190.294 160.193 190.035L161.951 188.816C162.39 188.517 162.68 188.517 163.529 188.986L171.169 193.021L170.06 184.452C169.92 183.493 170.02 183.224 170.46 182.924L172.217 181.705C172.607 181.436 172.996 181.536 173.216 181.865C173.256 181.925 173.326 182.035 173.356 182.175L175.164 195.128L180.866 203.348C181.156 203.757 181.046 204.366 180.607 204.666L178.789 205.924Z" fill="white"/>
<path d="M192.182 195.178C191.812 195.567 191.203 195.587 190.834 195.238L174.944 180.337C174.575 179.997 174.555 179.378 174.924 178.989L181.955 171.498C182.295 171.129 182.914 171.119 183.303 171.478L184.472 172.577C184.861 172.946 184.881 173.556 184.532 173.925L179.648 179.128L183.952 183.163L188.147 178.689C188.487 178.32 189.106 178.3 189.495 178.669L190.634 179.748C191.023 180.117 191.043 180.726 190.704 181.096L186.499 185.57L191.732 190.474L196.726 185.141C197.066 184.771 197.685 184.761 198.074 185.131L199.243 186.229C199.632 186.589 199.652 187.208 199.313 187.568L192.182 195.178Z" fill="white"/>
<path d="M189.076 160.713C189.286 160.363 189.665 160.243 189.985 160.363L211.267 167.224C211.527 167.304 211.777 167.414 211.807 167.434C212.126 167.624 212.256 168.053 212.026 168.423L210.758 170.54C210.548 170.879 210.149 170.909 209.749 170.79L205.625 169.491L202.339 174.984L205.435 178C205.724 178.29 205.894 178.669 205.684 179.009L204.416 181.126C204.196 181.496 203.757 181.586 203.437 181.396C203.407 181.376 203.198 181.206 203.008 181.016L186.909 165.506C186.659 165.277 186.579 164.887 186.789 164.538L189.076 160.713ZM191.513 164.777L199.762 172.557L202.269 168.373L191.513 164.777Z" fill="white"/>
<path d="M206.983 153.861L215.742 156.688C216.221 156.838 216.501 157.387 216.331 157.896L215.662 159.964C215.502 160.473 214.953 160.753 214.473 160.603L193.75 153.891C193.271 153.742 192.991 153.192 193.161 152.683L195.668 144.943C196.457 142.496 198.913 141.537 201.101 142.246L204.276 143.275C206.304 143.934 207.712 145.123 207.263 147.26C208.341 144.803 210.568 144.853 212.686 145.542L218.718 147.49C219.197 147.649 219.477 148.189 219.307 148.698L218.638 150.765C218.478 151.275 217.929 151.554 217.449 151.395L210.778 149.247C209.51 148.838 208.391 149.487 207.982 150.765L206.983 153.861ZM201.111 146.211C199.872 145.812 198.784 146.371 198.374 147.639L197.365 150.745L203.747 152.803L204.756 149.687C205.165 148.418 204.606 147.33 203.338 146.92L201.111 146.211Z" fill="white"/>
<path d="M204.027 134.616C205.355 134.746 205.884 134.087 207.103 132.529L210.299 128.474C212.166 126.107 213.494 125.798 216.58 126.087C220.765 126.477 222.792 129.523 222.403 133.608C222.033 137.522 219.537 140.239 215.282 139.839L213.924 139.71C213.425 139.67 213.035 139.19 213.085 138.661L213.285 136.534C213.335 136.004 213.804 135.615 214.303 135.665L215.662 135.795C217.359 135.954 218.718 134.946 218.878 133.288C219.047 131.46 218.009 130.392 216.181 130.222L215.682 130.182C214.323 130.052 213.794 130.741 212.915 131.83L209 136.753C207.482 138.651 205.375 138.931 203.487 138.751C199.303 138.351 197.076 135.395 197.465 131.221C197.835 127.266 200.301 124.589 204.586 124.989L205.315 125.059C205.814 125.108 206.204 125.578 206.154 126.107L205.954 128.234C205.904 128.764 205.435 129.153 204.936 129.103L204.206 129.033C202.519 128.874 201.16 129.713 200.991 131.54C200.821 133.368 201.859 134.436 203.687 134.606L204.027 134.616Z" fill="white"/>
<path d="M99.0122 226.737V224.22L103.526 219.736C105.863 217.359 107.601 215.522 108.75 214.203C109.888 212.885 110.777 211.667 111.406 210.548C112.035 209.43 112.485 208.411 112.735 207.512C112.984 206.613 113.114 205.684 113.114 204.746C113.114 202.878 112.635 201.45 111.676 200.481C110.717 199.502 109.419 199.013 107.781 199.013C106.852 199.013 105.983 199.203 105.164 199.572C104.345 199.942 103.636 200.501 103.057 201.25C102.767 202.239 102.428 203.527 102.058 205.105H100.181L100.82 199.522C100.92 198.663 101.01 197.755 101.109 196.816C102.168 195.797 103.397 195.028 104.785 194.519C106.173 194.009 107.721 193.76 109.429 193.76C111.836 193.76 113.783 194.159 115.271 194.948C116.759 195.737 117.868 196.836 118.597 198.244C119.326 199.652 119.696 201.09 119.696 202.568C119.696 203.527 119.556 204.466 119.286 205.385C119.006 206.304 118.527 207.312 117.828 208.411C117.139 209.509 116.41 210.478 115.651 211.327L112.894 214.133L110.328 216.64C108.979 217.979 107.521 219.347 105.963 220.765L106.033 221.075H110.328C110.977 221.075 113.134 221.035 116.799 220.955C117.968 220.925 119.396 220.855 121.094 220.765L121.283 221.075C121.124 222.513 121.044 223.631 121.044 224.44C121.044 224.96 121.094 225.639 121.214 226.468L121.094 226.737L113.903 226.547C112.275 226.498 111.107 226.478 110.417 226.478L99.0122 226.737Z" fill="white"/>
<path d="M130.202 212.975L129.253 212.456C129.353 211.597 129.413 210.369 129.443 208.771L129.563 204.866V201.67L129.463 198.983C129.443 197.785 129.433 197.066 129.413 196.836C129.403 196.417 129.373 195.997 129.343 195.588C129.313 195.188 129.263 194.719 129.193 194.199L129.513 193.95C133.428 194.11 136.813 194.199 139.66 194.199C140.748 194.199 141.607 194.189 142.246 194.179L146.85 193.96L147.07 194.349C146.87 196.117 146.77 197.265 146.77 197.795C146.77 198.214 146.8 198.764 146.84 199.453L146.601 199.772C145.961 199.742 145.252 199.712 144.453 199.702C141.837 199.662 140.149 199.632 139.4 199.632C135.954 199.632 133.548 199.692 132.179 199.802L131.99 207.532C133.368 206.883 134.536 206.444 135.485 206.214C136.444 205.984 137.482 205.874 138.601 205.874C141.607 205.874 143.974 206.693 145.692 208.351C147.42 209.999 148.279 212.186 148.279 214.903C148.279 217.06 147.659 219.157 146.431 221.195C145.192 223.232 143.295 224.88 140.718 226.148C138.781 227.107 136.534 227.586 133.967 227.586C132.878 227.586 131.96 227.516 131.211 227.367C130.461 227.217 129.513 226.917 128.354 226.468C128.254 225.749 128.125 225.03 127.965 224.311C127.805 223.591 127.385 221.974 126.716 219.467L128.324 218.908C128.874 220.146 129.513 221.175 130.242 221.994C130.971 222.812 131.86 223.472 132.938 223.961C134.017 224.45 135.105 224.69 136.234 224.69C138.022 224.69 139.49 224.081 140.648 222.872C141.807 221.654 142.376 220.006 142.376 217.909C142.376 215.732 141.787 214.034 140.598 212.805C139.41 211.587 137.802 210.978 135.775 210.978C134.956 210.978 134.237 211.058 133.607 211.237C132.968 211.407 132.439 211.607 131.999 211.837C131.77 211.946 131.171 212.326 130.202 212.975Z" fill="white"/>
</svg>
