<svg width="1295" height="328" viewBox="0 0 1295 328" fill="none" xmlns="http://www.w3.org/2000/svg">
<path opacity="0.6" d="M673.65 56.1802C673.65 56.1802 673.65 68.7502 661.08 68.7602C661.08 68.7602 673.65 68.7602 673.66 81.3302C673.66 81.3302 673.66 68.7602 686.23 68.7502C686.23 68.7502 673.66 68.7502 673.65 56.1802Z" stroke="#BCDAF2" stroke-width="2.8563" stroke-miterlimit="10" stroke-linecap="round" stroke-linejoin="round"/>
<path opacity="0.6" d="M226.54 90.73C226.54 90.73 226.54 106 211.27 106.01C211.27 106.01 226.54 106.01 226.55 121.28C226.55 121.28 226.55 106.01 241.82 106C241.82 106 226.54 106 226.54 90.73Z" stroke="#BCDAF2" stroke-width="3.47" stroke-miterlimit="10" stroke-linecap="round" stroke-linejoin="round"/>
<g clip-path="url(#clip0_1683_4187)">
<path d="M1267.16 287.31C1269.69 292.141 1271.74 297.311 1273.27 302.683L1274.75 307.863L1269.51 306.693C1263.96 305.447 1258.6 303.65 1253.56 301.321L1251.95 304.829C1257.24 307.264 1262.86 309.158 1268.67 310.452L1280.23 313.042L1276.98 301.62C1275.38 295.987 1273.23 290.566 1270.58 285.503L1267.16 287.31Z" fill="#2376BC"/>
<path d="M1213.81 269.182C1214.95 266.428 1216.43 263.781 1218.23 261.307L1215.12 259.036C1213.41 261.394 1211.96 263.896 1210.79 266.496L1202.84 258.959L1179.86 257.065L1203.52 279.483L1220.56 280.874L1230.75 290.527C1234.44 294.016 1238.51 297.175 1242.83 299.891L1244.88 296.615C1240.77 294.025 1236.91 291.03 1233.4 287.706L1213.81 269.182ZM1205.18 275.733L1190.49 261.819L1201.18 262.698L1215.87 276.613L1205.18 275.733Z" fill="#2376BC"/>
<path d="M1268.88 282.652L1268.07 280.903L1267.26 279.145C1266.64 279.435 1251.85 286.44 1245.72 302.046L1249.3 303.457C1254.85 289.329 1268.75 282.72 1268.88 282.652Z" fill="#2376BC"/>
<path d="M1250.24 284.662C1251.88 282.913 1252.76 280.613 1252.68 278.207C1252.62 275.801 1251.61 273.559 1249.87 271.907C1248.14 270.264 1245.91 269.453 1243.7 269.453C1241.31 269.453 1238.92 270.4 1237.16 272.274C1235.51 274.023 1234.64 276.323 1234.71 278.729C1234.78 281.135 1235.78 283.377 1237.52 285.029C1239.27 286.682 1241.54 287.561 1243.96 287.484C1246.36 287.416 1248.59 286.421 1250.24 284.662ZM1240.16 282.217C1238.1 280.265 1238.01 276.999 1239.95 274.932C1241.9 272.864 1245.15 272.767 1247.21 274.719C1248.21 275.666 1248.78 276.941 1248.82 278.323C1248.86 279.695 1248.37 281.009 1247.42 282.014C1246.48 283.019 1245.21 283.589 1243.83 283.628C1242.48 283.657 1241.16 283.164 1240.16 282.217Z" fill="#2376BC"/>
<path d="M1230.72 268.843L1233.37 266.032L1208.02 242.035L1205.38 244.846L1230.72 268.843Z" fill="#2376BC"/>
<path d="M1173.08 244.474L1173.69 238.522L1182.61 243.662L1184.53 240.309L1170.47 232.202L1169.84 238.309L1156.84 231.226L1155 234.628L1173.08 244.474Z" fill="#2376BC"/>
<path d="M1194.51 206.635L1203.4 220.25L1206.62 218.133L1200.99 209.495L1206.87 208.538L1196.04 191L1192.76 193.039L1200.56 205.649L1194.51 206.635Z" fill="#2376BC"/>
<path d="M1199.37 251.847L1199.44 251.915C1203.1 255.384 1208.09 257.249 1213.12 257.017L1212.95 253.152C1208.96 253.345 1204.99 251.857 1202.07 249.093L1202.01 249.026C1200.71 247.789 1199.6 246.368 1198.72 244.793L1188.31 226.028L1207.68 235.459C1209.29 236.242 1210.76 237.266 1212.06 238.493C1214.97 241.247 1216.67 245.131 1216.72 249.151L1220.57 249.103C1220.51 244.049 1218.37 239.16 1214.71 235.691C1213.13 234.193 1211.33 232.947 1209.36 231.99L1179 217.206L1195.36 246.678C1196.42 248.591 1197.77 250.33 1199.37 251.847Z" fill="#2376BC"/>
<path d="M1229.87 246.204C1227.34 247.528 1224.95 249.132 1222.7 250.978L1225.15 253.963C1227.51 252.021 1230.05 250.388 1232.73 249.084L1252.31 267.627C1255.81 270.951 1259.02 274.642 1261.83 278.613L1264.97 276.371C1262.02 272.197 1258.64 268.313 1254.96 264.815L1244.76 255.162L1242.38 238.174L1218.71 215.766L1221.91 238.677L1229.87 246.204ZM1238.75 240.049L1240.24 250.707L1225.54 236.783L1224.05 226.125L1238.75 240.049Z" fill="#2376BC"/>
<path d="M1221.17 307.062L1223.83 304.265L1203.12 284.454L1200.46 287.251L1221.17 307.062Z" fill="#2376BC"/>
<path d="M1203.37 298.874L1206 296.048L1191.55 282.52L1188.92 285.345L1203.37 298.874Z" fill="#2376BC"/>
<path d="M1269.69 272.637L1272.59 270.092L1259.1 254.631L1256.2 257.177L1269.69 272.637Z" fill="#2376BC"/>
<path d="M1269.69 261.042L1272.59 258.497L1259.1 243.036L1256.2 245.581L1269.69 261.042Z" fill="#2376BC"/>
</g>
<path opacity="0.6" d="M927.28 6L926.8 25.17L944.88 31.54L926.51 37.01L926.03 56.18L915.15 40.39L896.78 45.86L908.43 30.64L897.55 14.85L915.63 21.23L927.28 6Z" stroke="#BCDAF2" stroke-width="3.5139" stroke-miterlimit="10"/>
<g clip-path="url(#clip1_1683_4187)">
<g opacity="0.6">
<path opacity="0.6" d="M92.5995 127.83C92.5995 127.83 77.0195 114 90.8495 98.4199C90.8495 98.4199 77.0195 114 61.4395 100.17C61.4395 100.17 77.0195 114 63.1895 129.58C63.1895 129.58 77.0195 114 92.5995 127.83Z" stroke="#2576B9" stroke-width="4.2655" stroke-miterlimit="10"/>
<path opacity="0.6" d="M57.3091 136.21L18.6191 179.81" stroke="#2576B9" stroke-width="4.2655" stroke-miterlimit="10"/>
<path opacity="0.6" d="M12.7396 186.43L1.59961 198.99" stroke="#2576B9" stroke-width="4.2655" stroke-miterlimit="10"/>
<path opacity="0.6" d="M45.46 193.34L72.8 138.11" stroke="#2576B9" stroke-width="4.2655" stroke-miterlimit="10"/>
<path opacity="0.6" d="M2.55957 155.27L54.1496 121.56" stroke="#2576B9" stroke-width="4.2655" stroke-miterlimit="10"/>
</g>
</g>
<defs>
<clipPath id="clip0_1683_4187">
<rect width="140" height="137" fill="white" transform="translate(1295 328) rotate(-180)"/>
</clipPath>
<clipPath id="clip1_1683_4187">
<rect width="94.02" height="103.41" fill="white" transform="translate(0 97)"/>
</clipPath>
</defs>
</svg>
