<svg width="218" height="218" viewBox="0 0 218 218" fill="none" xmlns="http://www.w3.org/2000/svg">
<path opacity="0.75" d="M139.357 46.3709C132.219 43.8525 124.495 43.137 117.024 44.3015C100.37 46.8974 86.5125 58.2886 80.8639 74.0199C80.0913 76.1587 78.8215 79.7106 78.8608 111.029L78.8055 111.186C77.9777 113.482 78.0727 115.881 78.8896 117.99C78.9072 120.915 78.9331 123.83 78.9731 126.644C79.03 131.483 81.0211 136.011 84.3193 139.335C84.0732 140.314 83.9289 141.306 83.8655 142.305C83.7061 142.369 83.5565 142.432 83.3987 142.506C79.6965 144.261 76.8884 147.34 75.5052 151.187L73.4763 156.836C72.0915 160.673 72.2989 164.816 74.0587 168.499C75.8186 172.182 78.9112 174.955 82.7711 176.323L100.368 182.524C102.771 183.366 105.37 183.614 107.87 183.224C109.339 182.995 110.765 182.556 112.111 181.92C115.813 180.166 118.621 177.087 119.996 173.251L122.023 167.592C123.502 163.464 123.074 159.118 121.195 155.502C121.787 154.698 122.31 153.835 122.745 152.916C123.028 152.882 123.312 152.847 123.594 152.803C128.049 152.109 132.099 149.835 134.984 146.417C136.809 144.253 138.683 142.022 140.562 139.76C142.604 138.601 144.169 136.754 144.96 134.543L145.016 134.386C165.019 110.134 166.299 106.581 167.071 104.442C175.552 80.7994 163.123 54.7567 139.357 46.3709Z" fill="#CFD8DC"/>
<path d="M135.559 42.1933C128.421 39.6749 120.697 38.9595 113.226 40.124C96.5722 42.7199 82.7143 54.111 77.0657 69.8423C76.2931 71.9811 75.0233 75.5331 75.0626 106.851L75.0073 107.008C74.1795 109.304 74.2745 111.703 75.0914 113.812C75.109 116.738 75.1349 119.653 75.1749 122.466C75.2318 127.305 77.2229 131.833 80.5211 135.158C80.275 136.136 80.1307 137.128 80.0673 138.127C79.9079 138.192 79.7583 138.255 79.6005 138.329C75.8983 140.083 73.0902 143.163 71.707 147.009L69.6781 152.658C68.2933 156.495 68.5007 160.638 70.2605 164.322C72.0204 168.005 75.113 170.778 78.9729 172.145L96.5694 178.346C98.9725 179.189 101.572 179.437 104.072 179.047C105.541 178.818 106.967 178.378 108.313 177.743C112.015 175.988 114.823 172.909 116.198 169.073L118.225 163.415C119.704 159.286 119.276 154.94 117.397 151.325C117.989 150.52 118.512 149.657 118.947 148.738C119.23 148.704 119.514 148.67 119.796 148.626C124.251 147.931 128.301 145.658 131.186 142.24C133.011 140.076 134.885 137.844 136.764 135.582C138.805 134.423 140.371 132.576 141.162 130.365L141.217 130.208C161.221 105.957 162.501 102.403 163.273 100.265C171.752 76.6122 159.323 50.5696 135.559 42.1933Z" fill="white"/>
<path d="M150.788 96.4043C157.049 78.9748 147.908 59.8399 130.384 53.6571C112.86 47.4742 93.5575 56.5975 87.2953 74.0173C85.7329 78.3767 85.9554 110.487 86.0989 122.466C86.1306 125.163 87.8488 127.556 90.4099 128.453L113.659 136.652C116.22 137.549 119.069 136.779 120.818 134.705C128.57 125.503 149.216 100.765 150.788 96.4043Z" fill="#BCDAF2" stroke="#2576B9" stroke-width="2" stroke-miterlimit="10"/>
<path d="M86.243 109.207L129.059 124.299" stroke="#2576B9" stroke-width="2" stroke-miterlimit="10"/>
<path d="M99.7677 113.974C99.7677 113.974 98.917 91.4492 113.086 52.0098L99.7677 113.974Z" fill="#BCDAF2"/>
<path d="M99.7677 113.974C99.7677 113.974 98.917 91.4492 113.086 52.0098" stroke="#2576B9" stroke-width="2" stroke-miterlimit="10"/>
<path d="M115.641 119.574C115.641 119.574 130.659 102.65 144.836 63.1992L115.641 119.574Z" fill="#BCDAF2"/>
<path d="M115.641 119.574C115.641 119.574 130.659 102.65 144.836 63.1992" stroke="#2576B9" stroke-width="2" stroke-miterlimit="10"/>
<path d="M91.2048 137.818L94.102 129.748L109.971 135.348L107.073 143.418C106.331 145.493 104.03 146.583 101.933 145.852L93.6343 142.92C91.5471 142.187 90.4539 139.904 91.2048 137.818Z" fill="#BCDAF2" stroke="#2576B9" stroke-width="2" stroke-miterlimit="10"/>
<path d="M99.4913 167.206L81.8948 161.005C80.1767 160.402 79.2859 158.522 79.8965 156.815L81.9255 151.166C82.5361 149.458 84.4302 148.569 86.1483 149.172L103.745 155.373C105.463 155.976 106.354 157.855 105.743 159.563L103.714 165.212C103.103 166.92 101.209 167.809 99.4913 167.206Z" fill="#BCDAF2" stroke="#2576B9" stroke-width="2" stroke-miterlimit="10"/>
</svg>
