<svg width="149" height="158" viewBox="0 0 149 158" fill="none" xmlns="http://www.w3.org/2000/svg">
<g clip-path="url(#clip0_6479_3010)">
<path d="M126.19 87.7216L120.176 86.0979L122.294 78.3741C122.45 77.792 122.105 77.1904 121.518 77.0351C105.462 72.701 98.3657 75.6184 95.5442 77.779C94.3582 74.4993 89.8945 68.4898 73.4147 64.0393C72.8282 63.884 72.2222 64.2269 72.0658 64.8091L69.948 72.5328L63.9334 70.9092C63.347 70.7539 62.7409 71.0967 62.5846 71.6789L51.0376 113.81C50.8812 114.392 51.2266 114.994 51.8131 115.149L75.513 121.553C76.0994 121.709 76.7055 121.366 76.8618 120.784C77.0182 120.201 76.6729 119.6 76.0864 119.445L53.4487 113.332L64.4222 73.3026L69.3746 74.6416L60.7079 106.242C60.5515 106.824 60.8968 107.426 61.4833 107.581C82.518 113.26 82.0814 121.055 82.0684 121.217C81.9967 121.76 82.3486 122.265 82.8699 122.407C82.9155 122.42 82.9611 122.427 83.0067 122.433C83.0198 122.433 83.0393 122.433 83.0524 122.433C83.111 122.459 83.1631 122.485 83.2283 122.498C83.3065 122.517 83.3782 122.53 83.4564 122.537C83.4955 122.556 83.5411 122.575 83.5802 122.588C84.0624 122.718 84.5902 122.504 84.8378 122.058C84.8769 121.987 89.0278 115.02 109.587 120.577C110.173 120.732 110.779 120.389 110.936 119.807L119.596 88.2067L124.548 89.5458L113.575 129.575L90.2268 123.268C89.6404 123.112 89.0344 123.455 88.878 124.037C88.7216 124.62 89.0669 125.221 89.6534 125.376L114.057 131.968C114.644 132.123 115.25 131.781 115.406 131.198L126.953 89.0606C127.122 88.4784 126.777 87.8768 126.19 87.7216ZM63.1189 105.763L73.8969 66.4392C93.1462 71.8924 93.7587 79.1763 93.7717 79.849L83.3586 117.853C81.6513 114.548 76.7836 109.631 63.1189 105.763ZM109.105 118.19C95.4008 114.677 88.6173 116.624 85.4373 118.617L95.8895 80.4765C96.4434 79.7455 101.415 74.1306 119.883 78.8658L109.105 118.19Z" fill="#63ACE7"/>
<path d="M111.564 88.3496C106.768 87.5669 102.533 87.3923 98.9813 87.8321C98.3818 87.9098 97.9518 88.4531 98.0234 89.0483C98.0821 89.5011 98.4079 89.8569 98.8249 89.9668C98.9618 90.0057 99.1051 90.0121 99.2485 89.9992C102.591 89.5852 106.612 89.7534 111.199 90.5038C111.799 90.6008 112.366 90.1997 112.464 89.6046C112.574 89.0095 112.164 88.4467 111.564 88.3496Z" fill="#63ACE7"/>
<path d="M109.26 96.7774C104.464 95.9947 100.228 95.82 96.6766 96.2599C96.0771 96.3375 95.6471 96.8809 95.7187 97.476C95.7774 97.9288 96.1032 98.2846 96.5203 98.3946C96.6571 98.4334 96.8005 98.4399 96.9438 98.4269C100.287 98.0129 104.307 98.1811 108.895 98.9315C109.494 99.0285 110.061 98.6275 110.159 98.0323C110.263 97.4372 109.859 96.8744 109.26 96.7774Z" fill="#63ACE7"/>
<path d="M106.95 105.207C102.154 104.424 97.9182 104.25 94.3668 104.69C93.7673 104.767 93.3372 105.311 93.4154 105.906C93.4741 106.359 93.7999 106.708 94.2169 106.824C94.3538 106.863 94.4971 106.87 94.6405 106.857C97.9834 106.443 102.004 106.611 106.591 107.361C107.191 107.458 107.758 107.057 107.856 106.462C107.96 105.867 107.549 105.304 106.95 105.207Z" fill="#63ACE7"/>
<path d="M75.3881 80.8328C79.728 82.4953 83.2794 84.3712 85.9511 86.4089C86.0684 86.4995 86.1987 86.5642 86.3356 86.5965C86.7526 86.7065 87.2153 86.5706 87.4955 86.2084C87.8669 85.7297 87.7757 85.044 87.2935 84.6753C84.4589 82.5082 80.7185 80.5288 76.1831 78.7951C75.6097 78.5752 74.9776 78.8598 74.7626 79.4226C74.541 79.9789 74.8277 80.6129 75.3881 80.8328Z" fill="#63ACE7"/>
<path d="M73.0842 89.2547C77.4241 90.9172 80.9755 92.7931 83.6472 94.8308C83.7645 94.9214 83.8948 94.986 84.0317 95.0184C84.4487 95.1284 84.9114 94.9925 85.1916 94.6303C85.563 94.1516 85.4718 93.4659 84.9896 93.0972C82.155 90.9301 78.4146 88.9507 73.8792 87.217C73.3058 86.9971 72.6737 87.2817 72.4587 87.8445C72.2371 88.4073 72.5173 89.0412 73.0842 89.2547Z" fill="#63ACE7"/>
<path d="M82.6762 101.527C79.8416 99.3598 76.1012 97.3803 71.5659 95.6467C70.9989 95.4268 70.3603 95.7114 70.1453 96.2742C69.9237 96.837 70.2105 97.4709 70.7774 97.6844C75.1173 99.3469 78.6687 101.223 81.3404 103.26C81.4577 103.351 81.588 103.416 81.7248 103.448C82.1419 103.558 82.6045 103.422 82.8847 103.06C83.2496 102.581 83.1584 101.896 82.6762 101.527Z" fill="#63ACE7"/>
</g>
<path d="M132.17 4L131.84 17.3L144.38 21.73L131.63 25.52L131.3 38.82L123.75 27.87L111 31.66L119.08 21.1L111.53 10.14L124.08 14.57L132.17 4Z" stroke="#63ACE7" stroke-width="2.4386" stroke-miterlimit="10"/>
<path d="M18.15 157.1C18.15 157.1 13.55 144.55 1 149.15C1 149.15 13.55 144.55 8.95 132C8.95 132 13.55 144.55 26.1 139.95C26.1 139.95 13.55 144.54 18.15 157.1Z" stroke="#BCDAF2" stroke-width="3" stroke-miterlimit="10"/>
<defs>
<clipPath id="clip0_6479_3010">
<rect width="76" height="68" fill="white" transform="translate(51 64)"/>
</clipPath>
</defs>
</svg>
