<svg width="103" height="169" viewBox="0 0 103 169" fill="none" xmlns="http://www.w3.org/2000/svg">
<g clip-path="url(#clip0_6479_3005)">
<path opacity="0.8" d="M89.5162 73.403L53.0261 38.438C52.6952 38.1254 52.248 37.9646 51.7919 38.0093L1.43018 42.5641C0.813065 42.6177 0.294333 43.0285 0.0886286 43.6091C-0.117075 44.1896 0.0439103 44.8326 0.482149 45.2613L16.3482 60.4619C16.2588 60.5869 16.1783 60.7209 16.1246 60.8727L9.3632 80.137C8.98756 81.1997 6.42968 90.7559 30.9532 99.3387C55.4767 107.921 59.4477 98.8564 59.8233 97.7936L66.5847 78.5294C66.6384 78.3775 66.6562 78.2257 66.6652 78.0739L77.0756 77.1361L72.0224 91.5329C71.1996 91.2472 70.3053 91.6758 70.0191 92.4975C69.7329 93.3191 70.1622 94.2122 70.985 94.498L70.6362 95.4894C69.8134 95.2036 68.919 95.6323 68.6328 96.4539C68.3466 97.2756 68.7759 98.1687 69.5987 98.4545L69.2499 99.4458C68.9637 100.267 69.393 101.161 70.2158 101.446C71.0386 101.732 71.933 101.303 72.2192 100.482L72.568 99.4905C73.3908 99.7763 74.2852 99.3476 74.5714 98.5259C74.8576 97.7043 74.4283 96.8112 73.6055 96.5254L73.9543 95.534C74.7771 95.8198 75.6714 95.3911 75.9576 94.5695C76.2438 93.7478 75.8145 92.8547 74.9917 92.5689L80.5189 76.8235L88.5682 76.0912C89.1853 76.0376 89.704 75.6268 89.9097 75.0463C90.1154 74.4658 89.9634 73.8227 89.5162 73.403ZM56.8719 96.7219C56.8451 96.7933 53.5717 103.929 31.9996 96.3825C10.4275 88.8268 12.3325 81.2176 12.3414 81.1819L18.7898 62.8018L36.9812 80.2263C37.1422 80.387 37.3389 80.5031 37.5536 80.5746C37.7593 80.646 37.9918 80.6728 38.2154 80.655L63.3203 78.3865L56.8719 96.7219ZM38.6358 77.4576L5.15074 45.3774L51.3626 41.1977L84.8476 73.2779L38.6358 77.4576Z" fill="#63ACE7"/>
</g>
<path d="M37.17 130L36.84 143.3L49.38 147.73L36.63 151.52L36.3 164.82L28.75 153.87L16 157.66L24.08 147.1L16.53 136.14L29.08 140.57L37.17 130Z" stroke="#63ACE7" stroke-width="2.4386" stroke-miterlimit="10"/>
<path d="M94.15 26.1C94.15 26.1 89.55 13.55 77 18.15C77 18.15 89.55 13.55 84.95 1C84.95 1 89.55 13.55 102.1 8.95C102.1 8.95 89.55 13.54 94.15 26.1Z" stroke="#BCDAF2" stroke-width="3" stroke-miterlimit="10"/>
<defs>
<clipPath id="clip0_6479_3005">
<rect width="90" height="65" fill="white" transform="translate(0 38)"/>
</clipPath>
</defs>
</svg>
