<svg width="75" height="83" viewBox="0 0 75 83" fill="none" xmlns="http://www.w3.org/2000/svg">
<g clip-path="url(#clip0_6479_2999)">
<path d="M60.5516 55.4961C60.5516 55.4961 60.5516 68.5094 47.5859 68.5094C47.5859 68.5094 60.5516 68.5094 60.5516 81.5228C60.5516 81.5228 60.5516 68.5094 73.5173 68.5094C73.5272 68.5094 60.5615 68.5094 60.5516 55.4961Z" stroke="#2576B9" stroke-width="2.9625" stroke-miterlimit="10" stroke-linecap="round" stroke-linejoin="round"/>
<path opacity="0.85" d="M57.5104 23.5726L40.9752 20.9978L38.3105 4.41181C38.0619 2.83504 36.8787 1.65745 35.3077 1.41794C33.7665 1.17843 32.2452 1.95684 31.5393 3.35397L23.9826 18.3433L7.44743 15.7586C5.89632 15.5191 4.38498 16.2975 3.67903 17.7046C2.97308 19.1117 3.24154 20.7982 4.35515 21.906L16.2271 33.7517L8.67041 48.741C7.95452 50.1681 8.21304 51.8147 9.34654 52.9424C10.4602 54.0501 12.1405 54.3096 13.5325 53.5911L28.4172 45.9268L40.2891 57.7725C41.1442 58.6308 42.3473 58.98 43.4908 58.7605C43.8288 58.7006 44.157 58.5809 44.4751 58.4212C45.8671 57.7027 46.6328 56.1758 46.3842 54.629L43.7195 38.0429L58.6041 30.3786C59.9961 29.6601 60.7618 28.1332 60.5132 26.5864C60.2646 25.0196 59.0615 23.8121 57.5104 23.5726Z" fill="#CFD8DC"/>
<path d="M33.1076 3.35388L35.8021 20.1395C35.9214 20.8481 36.4783 21.4069 37.1842 21.5167L53.9282 24.1313C55.5191 24.3808 55.8572 26.5164 54.4353 27.2549L39.3617 35.029C38.7254 35.3583 38.3674 36.0669 38.4768 36.7754L41.1713 53.561C41.4299 55.1578 39.5009 56.1458 38.3674 55.0081L26.3563 43.0127C25.8492 42.5037 25.0736 42.3839 24.4273 42.7133L9.35377 50.4774C7.92198 51.2159 6.39076 49.679 7.1166 48.2419L14.7628 33.063C15.0909 32.4243 14.9616 31.636 14.4545 31.127L2.43345 19.1515C1.29 18.0139 2.27436 16.0778 3.85529 16.3273L20.5993 18.942C21.3052 19.0517 22.0112 18.6925 22.3294 18.0438L29.9755 2.86489C30.7113 1.42783 32.8491 1.75715 33.1076 3.35388Z" fill="#EB9CC3" stroke="#2576B9" stroke-width="3.9123" stroke-miterlimit="10"/>
</g>
<defs>
<clipPath id="clip0_6479_2999">
<rect width="75" height="83" fill="white"/>
</clipPath>
</defs>
</svg>
