<svg width="75" height="88" viewBox="0 0 75 88" fill="none" xmlns="http://www.w3.org/2000/svg">
<g clip-path="url(#clip0_5820_246)">
<path opacity="0.75" d="M71.8379 56.512L52.1709 37.4984C54.5037 36.5555 56.3781 34.8054 57.4635 32.5058C58.6097 30.0842 58.7446 27.3641 57.8546 24.8407C56.4859 20.9606 52.9261 18.3558 48.874 18.1863C49.3662 17.413 49.6965 16.5447 49.8112 15.6222C51.3551 14.001 51.9552 11.5793 51.1529 9.31368C50.3505 7.05484 48.3683 5.55572 46.1569 5.27761C45.004 4.16514 43.4398 3.54108 41.8217 3.56821C41.1812 3.58178 40.5272 3.69709 39.8867 3.92094C39.145 4.18549 38.491 4.59249 37.9314 5.08089C36.1852 3.39184 33.812 2.40826 31.2702 2.45575C30.2588 2.4761 29.261 2.65925 28.3036 2.99841L16.4509 7.25834C11.583 9.00165 9.03446 14.4012 10.7605 19.2919C10.8818 19.6379 11.0301 19.9635 11.1852 20.2891C10.7605 20.3434 10.329 20.4383 9.9042 20.5943C6.9309 21.6593 5.28581 24.8068 6.01397 27.8254C3.2227 29.1617 1.83382 32.4312 2.89234 35.4227C3.79579 37.9732 6.20275 39.5537 8.75129 39.5062C9.18953 39.4995 9.63452 39.4384 10.0795 39.3299C11.1245 41.5344 13.3495 42.8708 15.6957 42.8233C16.3362 42.8097 16.9902 42.6944 17.6307 42.4705C18.932 42.0025 19.977 41.141 20.6782 40.0692L16.2486 76.3939C15.8104 79.9823 17.2262 83.4689 20.0242 85.7278C21.8985 87.2404 24.2448 88.0477 26.6315 88.0002C27.744 87.9798 28.843 87.7763 29.8948 87.4033L68.1364 73.7213C71.521 72.5139 73.9886 69.6784 74.7437 66.1511C75.5191 62.617 74.4269 59.0151 71.8379 56.512Z" fill="#CFD8DC"/>
<path d="M69.2895 54.0429L49.6293 35.0292C51.9621 34.0864 53.8364 32.3363 54.9219 30.0367C56.0681 27.6151 56.203 24.895 55.313 22.3716C53.9443 18.4915 50.3845 15.8867 46.3324 15.7171C46.8246 14.9438 47.1549 14.0756 47.2696 13.153C48.8135 11.5318 49.4136 9.11018 48.6113 6.84455C47.8089 4.5857 45.8267 3.08659 43.6153 2.80847C42.4624 1.69601 40.8982 1.07194 39.2801 1.09908C38.6396 1.11264 37.9856 1.22796 37.3451 1.45181C36.6034 1.71636 35.9494 2.12336 35.3898 2.61176C33.6436 0.936277 31.2704 -0.0473039 28.7286 0.000179367C27.7172 0.0205293 26.7194 0.203679 25.762 0.542845L13.9025 4.7892C9.03467 6.53252 6.48612 11.932 8.21212 16.8228C8.33348 17.1688 8.48181 17.4944 8.63688 17.82C8.21212 17.8742 7.78062 17.9692 7.35586 18.1252C4.38256 19.1902 2.73747 22.3377 3.46563 25.3562C0.674365 26.6925 -0.714524 29.9621 0.343998 32.9535C1.24745 35.5041 3.65441 37.0846 6.20295 37.0371C6.64119 37.0303 7.08618 36.9693 7.53116 36.8607C8.5762 39.0653 10.8011 40.4016 13.1474 40.3541C13.7879 40.3406 14.4419 40.2253 15.0824 40.0014C16.3836 39.5334 17.4287 38.6719 18.1299 37.6001L13.7003 73.9248C13.262 77.5132 14.6779 80.9998 17.4759 83.2586C19.3502 84.7713 21.6965 85.5785 24.0832 85.5311C25.1957 85.5107 26.2946 85.3072 27.3464 84.9341L65.5881 71.2522C68.9726 70.0447 71.4403 67.2093 72.1954 63.682C72.9708 60.1479 71.8785 56.5459 69.2895 54.0429Z" fill="white"/>
<path d="M47.2155 29.3991C49.2247 28.68 50.2764 26.4551 49.5618 24.4337C48.8471 22.4123 46.6357 21.3541 44.6265 22.0731C42.6173 22.7921 41.5655 25.0171 42.2802 27.0385C42.9949 29.0531 45.2063 30.1113 47.2155 29.3991ZM45.4086 24.2845C46.2042 23.9996 47.0807 24.4201 47.3638 25.2205C47.647 26.021 47.229 26.9028 46.4334 27.1877C45.6378 27.4726 44.7613 27.052 44.4782 26.2516C44.195 25.4512 44.613 24.5694 45.4086 24.2845Z" fill="#2576B9"/>
<path d="M18.1367 16.7618L29.9962 12.5223C31.6884 11.9186 32.5784 10.0328 31.9784 8.33018C31.3783 6.62757 29.504 5.73217 27.8117 6.33589L15.9522 10.5755C14.2599 11.1792 13.3699 13.0649 13.97 14.7676C14.5701 16.4702 16.4444 17.3656 18.1367 16.7618ZM16.7343 12.78L28.5938 8.54047C29.0792 8.3641 29.6119 8.62187 29.7872 9.11027C29.9625 9.59866 29.7062 10.1345 29.2208 10.3109L17.3613 14.5505C16.8759 14.7269 16.3432 14.4691 16.168 13.9807C15.9927 13.4923 16.2489 12.9564 16.7343 12.78Z" fill="#2576B9"/>
<path d="M65.0619 58.4724L34.2366 28.6665L24.9729 31.9768L19.7679 74.6642C19.5926 76.1226 20.1657 77.5403 21.3051 78.4561C22.4446 79.3718 23.9413 79.6296 25.3167 79.1344L63.5651 65.4524C64.9405 64.964 65.9451 63.8109 66.2485 62.3728C66.5586 60.9483 66.1136 59.4899 65.0619 58.4724ZM27.1169 33.7065L33.6635 31.3663L43.6217 40.9918L25.4313 47.497L27.1169 33.7065ZM63.9696 61.8912C63.8348 62.5356 63.3966 63.0308 62.783 63.2547L24.5414 76.9366C23.9211 77.1605 23.2806 77.0451 22.7682 76.6381C22.2558 76.2244 22.0131 75.6139 22.0872 74.9627L25.1212 50.1086L45.5028 42.8165L63.4437 60.1615C63.9157 60.6159 64.1112 61.2468 63.9696 61.8912Z" fill="#2576B9"/>
<path d="M34.0347 26.7539L29.7399 14.605L19.6401 18.2205L23.9349 30.3694L34.0347 26.7539ZM22.6134 19.6382L28.3241 17.5964L31.0547 25.3294L25.344 27.3712L22.6134 19.6382Z" fill="#2576B9"/>
<path d="M41.2081 12.4068C40.7024 10.9823 41.444 9.42213 42.8599 8.91338C41.444 9.42213 39.8933 8.67596 39.3877 7.25146C39.8933 8.67596 39.1517 10.2361 37.7358 10.7449C39.1517 10.2361 40.7091 10.9823 41.2081 12.4068Z" fill="#2576B9"/>
<path d="M11.2257 34.5275C14.2269 34.5275 16.6599 32.0797 16.6599 29.0601C16.6599 26.0406 14.2269 23.5928 11.2257 23.5928C8.22448 23.5928 5.7915 26.0406 5.7915 29.0601C5.7915 32.0797 8.22448 34.5275 11.2257 34.5275Z" fill="#2576B9"/>
<path d="M27.1172 33.7064L33.6638 31.3594L43.622 40.9917L25.4316 47.4969L27.1172 33.7064Z" fill="#D22329"/>
<path d="M63.9697 61.8911C63.8349 62.5355 63.3966 63.0307 62.7831 63.2545L24.5415 76.9365C23.9212 77.1604 23.2807 77.045 22.7683 76.638C22.2559 76.2243 22.0131 75.6138 22.0873 74.9626L25.1213 50.1085L45.5029 42.8164L63.4438 60.1614C63.9158 60.6158 64.1113 61.2467 63.9697 61.8911Z" fill="#D22329"/>
<path d="M28.3256 17.5909L22.6147 19.6338L25.3477 27.3672L31.0586 25.3243L28.3256 17.5909Z" fill="#D22329"/>
</g>
<defs>
<clipPath id="clip0_5820_246">
<rect width="75" height="88" fill="white"/>
</clipPath>
</defs>
</svg>
