<svg width="82" height="64" viewBox="0 0 82 64" fill="none" xmlns="http://www.w3.org/2000/svg">
<path opacity="0.75" d="M51.395 64C47.7463 64 44.4837 62.3294 42.3306 59.7065C40.1364 62.3214 36.8082 64 33.0936 64H15.4332C8.96571 64 3.698 58.7299 3.698 52.2573V33.824C3.698 14.2205 17.233 3.63991 29.9626 3.63991H33.0936C38.2052 3.63991 42.3635 8.1191 42.3635 13.6313V16.2624C42.3635 21.6777 38.1148 26.2538 33.0936 26.2538H29.9626C29.3873 26.2538 27.9492 26.8591 27.3904 28.0132H33.0936C35.5919 28.0132 37.9094 28.7637 39.8242 30.055C41.4431 12.8646 54.033 3.63184 65.9244 3.63184H69.0554C74.167 3.63184 78.3335 8.11103 78.3335 13.6233V16.2543C78.3335 21.7584 74.1752 26.2457 69.0554 26.2457H65.9244C65.3491 26.2457 63.911 26.851 63.3522 28.0051H69.0554C75.6462 28.0051 81.0126 33.2752 81.0126 39.7478V52.2654C81.0126 58.738 75.6462 64.0081 69.0554 64.0081H51.395V64Z" fill="#CFD8DC"/>
<path d="M47.697 60.3682C44.0483 60.3682 40.7857 58.6976 38.6326 56.0747C36.4384 58.6895 33.1102 60.3682 29.3956 60.3682H11.7352C5.25949 60.3682 0 55.0981 0 48.6255V30.1841C0 10.5806 13.535 0 26.2646 0H29.3956C34.5072 0 38.6655 4.47919 38.6655 9.99143V12.6224C38.6655 18.0378 34.4168 22.6139 29.3956 22.6139H26.2646C25.6893 22.6139 24.2512 23.2192 23.6924 24.3733H29.3956C31.8939 24.3733 34.2114 25.1238 36.1262 26.4151C37.7451 9.22472 50.335 0 62.2182 0H65.3492C70.4608 0 74.6273 4.47919 74.6273 9.99143V12.6224C74.6273 18.1266 70.469 22.6139 65.3492 22.6139H62.2182C61.6429 22.6139 60.2048 23.2192 59.646 24.3733H65.3492C71.94 24.3733 77.3064 29.6434 77.3064 36.116V48.6335C77.3064 55.1062 71.94 60.3763 65.3492 60.3763H47.697V60.3682Z" fill="#2576B9"/>
<path d="M29.3955 5.81911C31.1788 5.81911 32.7485 7.78834 32.7485 9.99161V12.6226C32.7485 14.8178 31.1871 16.7951 29.3955 16.7951H26.2645C22.4596 16.7951 17.5452 20.088 17.5452 25.3581C17.5452 28.8688 19.3285 30.1924 21.5638 30.1924H29.3873C32.7403 30.1924 35.4193 32.8234 35.4193 36.1162V48.6337C35.4193 51.9265 32.7403 54.5576 29.3873 54.5576H11.7351C8.6041 54.5576 5.92505 51.9265 5.92505 48.6337V30.1843C5.92505 13.2764 17.1015 5.81104 26.2727 5.81104H29.3955V5.81911ZM65.3491 5.81911C67.1406 5.81911 68.702 7.78834 68.702 9.99161V12.6226C68.702 14.8178 67.1406 16.7951 65.3491 16.7951H62.2181C58.4214 16.7951 53.4988 20.088 53.4988 25.3581C53.4988 28.8688 55.2903 30.1924 57.5256 30.1924H65.3491C68.702 30.1924 71.3893 32.8234 71.3893 36.1162V48.6337C71.3893 51.9265 68.7103 54.5576 65.3491 54.5576H47.6887C44.5577 54.5576 41.8704 51.9265 41.8704 48.6337V30.1843C41.8704 13.2764 53.0468 5.81104 62.2181 5.81104H65.3491V5.81911Z" fill="#FFD95C"/>
</svg>
