<svg width="28" height="32" viewBox="0 0 28 32" fill="none" xmlns="http://www.w3.org/2000/svg">
<path d="M27.4612 22.6431C26.2537 21.3456 23.9944 19.3937 23.9944 13C23.9944 8.14375 20.5894 4.25625 15.9981 3.3025V2C15.9981 0.895625 15.1031 0 13.9994 0C12.8956 0 12.0006 0.895625 12.0006 2V3.3025C7.40936 4.25625 4.00436 8.14375 4.00436 13C4.00436 19.3937 1.74498 21.3456 0.537482 22.6431C0.162482 23.0463 -0.00376843 23.5281 -0.000643434 24C0.00623157 25.025 0.810606 26 2.00561 26H25.9931C27.1881 26 27.9931 25.025 27.9994 24C28.0025 23.5281 27.8362 23.0456 27.4612 22.6431ZM4.21998 23C5.54623 21.2519 6.99623 18.3544 7.00311 13.0363C7.00311 13.0238 6.99936 13.0125 6.99936 13C6.99936 9.13375 10.1331 6 13.9994 6C17.8656 6 20.9994 9.13375 20.9994 13C20.9994 13.0125 20.9956 13.0238 20.9956 13.0363C21.0025 18.355 22.4525 21.2525 23.7787 23H4.21998ZM13.9994 32C16.2069 32 17.9975 30.2094 17.9975 28H10.0012C10.0012 30.2094 11.7919 32 13.9994 32Z" fill="white"/>
</svg>
