<svg width="101" height="99" viewBox="0 0 101 99" fill="none" xmlns="http://www.w3.org/2000/svg">
<g clip-path="url(#clip0_5501_50968)">
<path opacity="0.75" d="M66.598 15.0668L64.2284 14.4806C60.8052 13.6393 57.3609 15.1166 55.5074 17.9145C54.9963 18.6911 54.6038 19.569 54.3727 20.5283L52.3964 28.6277C52.3373 28.8277 52.3054 29.0306 52.2713 29.2398C51.3144 29.2425 50.3516 29.3002 49.3929 29.4239L45.2203 22.2988C42.9339 18.3935 37.9376 17.1114 34.0642 19.4314L31.9602 20.6904C30.8985 21.3271 30.0019 22.1896 29.3315 23.2077C28.825 23.9717 28.4418 24.8244 28.2143 25.735C27.6743 27.8466 27.9921 30.0905 29.0895 31.9653L33.244 39.0622C33.0545 39.3283 32.861 39.5858 32.684 39.8564C32.4095 40.2771 32.1537 40.7047 31.9081 41.1432C31.6915 41.0771 31.475 41.0111 31.2578 40.9662L22.8385 39.0934C19.4608 38.3405 16.1107 39.8313 14.2927 42.5708C13.7506 43.3932 13.3413 44.3364 13.1144 45.3617L12.5857 47.7709C12.1165 49.9017 12.502 52.1349 13.6637 53.9692C14.8232 55.8098 16.6565 57.1059 18.7651 57.5737L25.7314 59.1219L21.9007 61.4221C20.8391 62.0587 19.9487 62.9236 19.272 63.9394C18.7655 64.7033 18.3823 65.5561 18.1549 66.4666C17.6149 68.5782 17.9327 70.8221 19.03 72.6969L20.2708 74.8182C22.5572 78.7235 27.5535 80.0056 31.4269 77.6855L38.2324 73.605C38.6421 73.3563 39.0152 73.0724 39.3765 72.7628C39.3889 72.7674 39.4053 72.7806 39.4178 72.7853C42.1329 74.3802 44.4086 75.59 46.1676 76.3933C47.904 77.1811 49.2805 78.4294 50.2862 80.1484L50.9081 81.1953C51.3388 81.9135 51.8586 82.5432 52.4427 83.0749L53.1876 84.3464C53.291 84.528 53.4138 84.6953 53.528 84.8665C53.6245 85.067 53.7171 85.2588 53.8307 85.4513L55.0714 87.5725C57.3578 91.4778 62.3541 92.76 66.2276 90.4399L78.0752 83.3422C79.1369 82.7056 80.0335 81.8431 80.7039 80.8249C81.2104 80.0609 81.5937 79.2082 81.8211 78.2977C82.3611 76.1861 82.0433 73.9422 80.9459 72.0674L79.7052 69.9461C79.5736 69.7255 79.4374 69.5175 79.2927 69.3134C79.2158 69.156 79.1537 68.997 79.0598 68.8476L78.2929 67.5393C78.1108 66.7416 77.8105 65.9572 77.3805 65.2178L76.757 64.156C75.8069 62.5363 75.3841 60.6757 75.5344 58.7773C75.6847 56.879 75.7268 54.3678 75.6711 51.3121C75.6722 51.2123 75.6563 51.1205 75.6512 51.0184C76.0878 50.8512 76.5148 50.6518 76.9308 50.4054L83.7363 46.3249C84.7979 45.6882 85.6883 44.8234 86.365 43.8076C86.8715 43.0436 87.2547 42.1909 87.4821 41.2803C88.0221 39.1687 87.7043 36.9248 86.607 35.05L85.3662 32.9288C83.0798 29.0235 78.0835 27.7413 74.2101 30.0614L70.8256 32.0905L72.5523 25.0008C73.0674 22.88 72.7325 20.644 71.618 18.7772C70.5013 16.9167 68.6966 15.581 66.598 15.0668Z" fill="#CFD8DC"/>
<path d="M62.8281 15.8292L60.4585 15.243C57.0353 14.4017 53.591 15.879 51.7375 18.6769C51.2264 19.4535 50.8339 20.3314 50.6028 21.2907L48.6265 29.3901C48.5799 29.5947 48.5418 29.7953 48.5076 30.0045C47.5508 30.0072 46.5879 30.0649 45.6292 30.1886L41.4567 23.0635C39.1703 19.1582 34.1739 17.876 30.3005 20.1961L28.1965 21.4551C27.1349 22.0917 26.2382 22.9543 25.5678 23.9724C25.0613 24.7364 24.6781 25.5891 24.4507 26.4997C23.9107 28.6112 24.2285 30.8552 25.3258 32.73L29.4804 39.8269C29.2908 40.093 29.0974 40.3504 28.9203 40.6211C28.6458 41.0418 28.39 41.4694 28.1444 41.9079C27.9279 41.8418 27.7113 41.7757 27.4941 41.7309L19.0686 39.8557C15.6909 39.1029 12.3408 40.5936 10.5228 43.3332C9.98074 44.1555 9.57143 45.0988 9.34447 46.124L8.81576 48.5333C8.34661 50.664 8.73205 52.8973 9.89383 54.7315C11.0533 56.5721 12.8866 57.8683 14.9952 58.3361L21.9615 59.8843L18.1308 62.1844C17.0692 62.8211 16.1788 63.6859 15.5021 64.7017C14.9956 65.4657 14.6124 66.3184 14.385 67.229C13.845 69.3406 14.1628 71.5845 15.2601 73.4593L16.5009 75.5805C18.7873 79.4858 23.7836 80.768 27.657 78.4479L34.4625 74.3674C34.8722 74.1186 35.2453 73.8348 35.6066 73.5251C35.619 73.5297 35.6354 73.543 35.6479 73.5476C38.363 75.1425 40.6387 76.3524 42.3977 77.1557C44.1341 77.9434 45.5106 79.1917 46.5163 80.9108L47.1382 81.9577C47.5689 82.6759 48.0887 83.3055 48.6728 83.8373L49.4177 85.1088C49.5211 85.2903 49.6439 85.4576 49.7581 85.6289C49.8546 85.8293 49.9472 86.0212 50.0608 86.2137L51.3015 88.3349C53.5879 92.2402 58.5842 93.5223 62.4577 91.2023L74.3053 84.1046C75.367 83.468 76.2636 82.6054 76.934 81.5873C77.4405 80.8233 77.8238 79.9706 78.0512 79.0601C78.5912 76.9485 78.2734 74.7045 77.176 72.8298L75.9353 70.7085C75.8037 70.4878 75.6675 70.2798 75.5228 70.0758C75.4459 69.9184 75.3838 69.7593 75.2899 69.6099L74.5231 68.3016C74.3409 67.5039 74.0406 66.7196 73.6106 65.9801L72.9871 64.9183C72.037 63.2987 71.6142 61.4381 71.7645 59.5397C71.9148 57.6414 71.9569 55.1302 71.9012 52.0745C71.9023 51.9747 71.8864 51.8829 71.8813 51.7808C72.3179 51.6136 72.7449 51.4142 73.1609 51.1678L79.9664 47.0872C81.028 46.4506 81.9184 45.5857 82.5951 44.57C83.1016 43.806 83.4848 42.9532 83.7122 42.0427C84.2522 39.9311 83.9344 37.6872 82.8371 35.8124L81.5963 33.6911C79.3099 29.7858 74.3136 28.5037 70.4402 30.8238L67.0557 32.8529L68.7824 25.7632C69.2975 23.6423 68.9626 21.4064 67.8481 19.5396C66.7291 17.6854 64.9267 16.3434 62.8281 15.8292Z" fill="white"/>
<path d="M60.634 45.7802C56.5577 39.5713 48.3524 37.5202 41.86 41.0942C34.676 45.0485 32.2137 54.1844 36.3283 61.2164C36.3385 61.2273 36.3424 61.2359 36.3502 61.2532C37.3363 62.9292 38.7615 64.2957 40.4264 65.2788C42.0397 66.2285 44.4677 67.6023 46.3202 68.4403C49.7743 70.0089 52.6584 72.6114 54.5844 75.8961L54.6126 75.9352L65.0105 69.7023L64.9886 69.6656C63.0586 66.3722 62.1907 62.5569 62.4921 58.739C62.6452 56.7557 62.6384 54.0689 62.5983 52.2073C62.5672 50.6496 62.2366 49.1167 61.6102 47.6959C61.3071 46.9964 60.9604 46.2808 60.634 45.7802Z" fill="#FFD95C" stroke="#2576B9" stroke-width="3.6769" stroke-miterlimit="10"/>
<path d="M52.2182 71.861L62.6161 65.6282" stroke="#2576B9" stroke-width="3.6769" stroke-miterlimit="10"/>
<path d="M67.721 72.6627L55.871 79.7666" stroke="#2576B9" stroke-width="3.6769" stroke-miterlimit="10"/>
<path d="M69.6048 75.8887L57.7571 82.9864" stroke="#2576B9" stroke-width="3.6769" stroke-miterlimit="10"/>
<path d="M33.4434 27.8123L38.2871 36.0813" stroke="#2576B9" stroke-width="3.6769" stroke-miterlimit="10"/>
<path d="M22.9503 70.2297L29.7557 66.1491" stroke="#2576B9" stroke-width="3.6769" stroke-miterlimit="10"/>
<path d="M68.4581 42.9582L75.2635 38.8777" stroke="#2576B9" stroke-width="3.6769" stroke-miterlimit="10"/>
<path d="M25.5087 50.8791L17.0871 49.0126" stroke="#2576B9" stroke-width="3.6769" stroke-miterlimit="10"/>
<path d="M57.7704 31.5462L59.7467 23.4468" stroke="#2576B9" stroke-width="3.6769" stroke-miterlimit="10"/>
<path d="M48.1554 46.2515L45.5029 55.6746L52.4267 55.5034L49.6786 65.5353" stroke="#2576B9" stroke-width="3.6769" stroke-miterlimit="10"/>
</g>
<defs>
<clipPath id="clip0_5501_50968">
<rect width="79.2417" height="76.0587" fill="white" transform="matrix(0.937486 0.348023 -0.344028 0.938959 26.166 0)"/>
</clipPath>
</defs>
</svg>
