<svg width="108" height="135" viewBox="0 0 108 135" fill="none" xmlns="http://www.w3.org/2000/svg">
<g clip-path="url(#clip0_5862_14368)">
<path opacity="0.75" d="M77.964 135C76.9686 135 75.9732 134.926 74.9861 134.777C69.6525 133.975 64.9575 131.032 61.8801 126.807C59.8976 127.096 57.8902 127.237 55.8746 127.237C53.776 127.237 51.6607 127.08 49.587 126.766C45.1907 126.104 41.0018 124.781 37.0783 122.822C30.2018 125.592 24.3124 126.997 19.5179 126.997C12.3096 126.997 8.46904 123.864 6.51973 121.226C1.22756 114.075 3.83217 104.038 14.2589 91.3641C13.6617 87.2965 13.67 83.171 14.2921 79.0703C17.3695 58.7488 35.2368 43.4209 55.8497 43.4209C57.9483 43.4209 60.0635 43.5779 62.1538 43.8921C66.2018 44.5039 70.1004 45.6861 73.7667 47.4141C81.0912 44.3716 87.3455 42.8339 92.3889 42.8339C99.5723 42.8339 103.396 45.9672 105.346 48.5963C110.389 55.4087 108.257 64.8585 99.0165 76.6893C98.5022 77.3507 97.9631 78.0203 97.3907 78.7065C98.0792 82.956 98.0958 87.2799 97.4405 91.5956C96.8266 95.6301 95.6073 99.5902 93.8571 103.286C93.8902 103.335 93.9234 103.377 93.9649 103.426C97.117 107.684 98.4193 112.917 97.623 118.151C96.1631 127.758 87.7188 135 77.964 135Z" fill="#CFD8DC"/>
<path d="M74.107 131.156C73.1116 131.156 72.1162 131.081 71.1292 130.932C65.7955 130.13 61.1006 127.187 58.0232 122.962C56.0407 123.252 54.0333 123.392 52.0176 123.392C49.919 123.392 47.8038 123.235 45.7301 122.921C41.3338 122.26 37.1448 120.937 33.2213 118.978C26.3448 121.747 20.4554 123.153 15.661 123.153C8.45266 123.153 4.6121 120.019 2.6628 117.382C-2.62937 110.231 -0.0247612 100.194 10.402 87.5197C9.80473 83.4521 9.81303 79.3266 10.4351 75.226C13.5126 54.9044 31.3798 39.5765 51.9928 39.5765C54.0914 39.5765 56.2066 39.7336 58.2969 40.0477C62.3448 40.6595 66.2434 41.8418 69.9098 43.5697C77.2342 40.5273 83.4886 38.9895 88.5319 38.9895C95.7153 38.9895 99.5393 42.1229 101.489 44.752C106.532 51.5644 104.4 61.0141 95.1596 72.8449C94.6453 73.5063 94.1061 74.176 93.5338 74.8622C94.2222 79.1117 94.2388 83.4356 93.5835 87.7512C92.9697 91.7858 91.7504 95.7459 90.0001 99.4415C90.0333 99.4911 90.0665 99.5324 90.108 99.582C93.26 103.84 94.5623 109.073 93.766 114.306C92.3061 123.905 83.8536 131.156 74.107 131.156Z" fill="#2576B9"/>
<path d="M64.311 112.719C59.3258 114.48 53.8428 115.084 48.252 114.24C30.1027 111.504 17.6023 94.6216 20.3479 76.5323C23.0935 58.443 40.0318 45.9839 58.1811 48.7204C76.3304 51.457 88.8308 68.3392 86.0852 86.4285C85.2308 92.0835 82.9829 97.1845 79.7479 101.451" fill="#FFD95C"/>
<path d="M64.311 112.719C59.3258 114.48 53.8428 115.084 48.252 114.24C30.1027 111.504 17.6023 94.6216 20.3479 76.5323C23.0935 58.443 40.0318 45.9839 58.1811 48.7204C76.3304 51.457 88.8308 68.3392 86.0852 86.4285C85.2308 92.0835 82.9829 97.1845 79.7479 101.451" stroke="white" stroke-width="3.8992" stroke-miterlimit="10"/>
<path d="M71.5523 52.9451C83.4804 47.5133 92.721 46.0582 95.6076 49.944C100.452 56.5001 85.438 75.7386 62.0629 92.9184C38.6878 110.098 15.8104 118.713 10.9661 112.165C8.12097 108.321 12.1108 100.119 20.6048 90.5291" stroke="white" stroke-width="3.8992" stroke-miterlimit="10"/>
<path d="M75.3101 122.376C81.4305 122.376 86.3921 117.43 86.3921 111.33C86.3921 105.23 81.4305 100.285 75.3101 100.285C69.1896 100.285 64.228 105.23 64.228 111.33C64.228 117.43 69.1896 122.376 75.3101 122.376Z" stroke="white" stroke-width="3.8992" stroke-miterlimit="10"/>
<path d="M75.0358 1.22363C75.0358 1.22363 75.0358 12.0045 64.2192 12.0045C64.2192 12.0045 75.0358 12.0045 75.0358 22.7853C75.0358 22.7853 75.0358 12.0045 85.8524 12.0045C85.8607 12.0045 75.0441 12.0045 75.0358 1.22363Z" stroke="#FFD95C" stroke-width="3" stroke-miterlimit="10" stroke-linecap="round" stroke-linejoin="round"/>
</g>
<defs>
<clipPath id="clip0_5862_14368">
<rect width="108" height="135" fill="white"/>
</clipPath>
</defs>
</svg>
