<svg width="82" height="53" viewBox="0 0 82 53" fill="none" xmlns="http://www.w3.org/2000/svg">
<path opacity="0.85" d="M78.9069 21.5848L64.2703 19.3132L61.9115 4.67937C61.6915 3.28819 60.6442 2.2492 59.2536 2.03789C57.8893 1.82657 56.5427 2.51335 55.9179 3.74604L49.2289 16.9711L34.5923 14.6906C33.2193 14.4793 31.8815 15.166 31.2566 16.4075C30.6317 17.649 30.8693 19.1371 31.8551 20.1144L42.3638 30.5659L35.6748 43.7909C35.0411 45.05 35.27 46.5028 36.2733 47.4978C37.2591 48.4751 38.7465 48.704 39.9787 48.0701L53.1542 41.3079L63.663 51.7593C64.4199 52.5166 65.4849 52.8247 66.497 52.631C66.7963 52.5782 67.0867 52.4726 67.3684 52.3317C68.6005 51.6977 69.2783 50.3506 69.0582 48.9858L66.6995 34.352L79.875 27.5898C81.1072 26.9559 81.7849 25.6087 81.5649 24.2439C81.3449 22.8616 80.2799 21.7962 78.9069 21.5848Z" fill="#CFD8DC"/>
<path d="M57.3083 3.74615L59.6935 18.5561C59.7991 19.1812 60.292 19.6743 60.9169 19.7711L75.7383 22.078C77.1465 22.2982 77.4457 24.1824 76.1872 24.834L62.8444 31.693C62.2811 31.9836 61.9642 32.6087 62.0611 33.2339L64.4462 48.0438C64.675 49.4526 62.9676 50.3243 61.9642 49.3205L51.3322 38.737C50.8834 38.2879 50.1969 38.1823 49.6248 38.4728L36.282 45.3231C35.0146 45.9746 33.6592 44.6187 34.3017 43.3508L41.0699 29.9584C41.3604 29.3949 41.2459 28.6993 40.7971 28.2503L30.1563 17.6844C29.1441 16.6806 30.0155 14.9724 31.4149 15.1926L46.2363 17.4995C46.8612 17.5963 47.4861 17.2793 47.7677 16.707L54.5359 3.31471C55.1872 2.0468 57.0795 2.33736 57.3083 3.74615Z" fill="#EB9CC3" stroke="#2576B9" stroke-width="3.9123" stroke-miterlimit="10"/>
<path d="M13.4769 27.7986C13.4769 27.7986 13.4769 39.2802 2 39.2802C2 39.2802 13.4769 39.2802 13.4769 50.7619C13.4769 50.7619 13.4769 39.2802 24.9538 39.2802C24.9626 39.2802 13.4857 39.2802 13.4769 27.7986Z" stroke="#2576B9" stroke-width="2.9625" stroke-miterlimit="10" stroke-linecap="round" stroke-linejoin="round"/>
</svg>
