<svg width="111" height="111" viewBox="0 0 111 111" fill="none" xmlns="http://www.w3.org/2000/svg">
<path d="M73.6661 55.8155C75.4915 46.8114 70.137 37.7793 61.4089 35.1558C51.7514 32.2525 41.717 38.0292 39.2136 47.7835C39.213 47.802 39.209 47.813 39.2009 47.8349C38.609 50.1645 38.6658 52.6127 39.2623 54.9387C39.8429 57.1901 40.7646 60.5302 41.6494 62.8957C43.294 67.3116 43.5499 72.1239 42.3841 76.6839L42.3748 76.7428L56.7931 80.5015L56.8058 80.4501C57.9757 75.8791 60.5193 71.792 64.0806 68.7352C65.9276 67.1444 68.2437 64.7999 69.8178 63.1441C71.137 61.7609 72.1747 60.1349 72.8584 58.345C73.1997 57.4685 73.5171 56.5394 73.6661 55.8155Z" fill="#FFD95C" stroke="#2576B9" stroke-width="3" stroke-miterlimit="10"/>
<path d="M43.816 71.0821L58.2343 74.8407" stroke="#2576B9" stroke-width="3" stroke-miterlimit="10"/>
<path d="M56.5889 85.4719L40.1565 81.189" stroke="#2576B9" stroke-width="3" stroke-miterlimit="10"/>
<path d="M55.4371 89.9436L39.0121 85.6572" stroke="#2576B9" stroke-width="3" stroke-miterlimit="10"/>
<path d="M64.8311 16.1624L61.8919 27.6374" stroke="#2576B9" stroke-width="3" stroke-miterlimit="10"/>
<path d="M19.0579 43.813L28.4956 46.2721" stroke="#2576B9" stroke-width="3" stroke-miterlimit="10"/>
<path d="M82.1553 60.2698L91.593 62.7289" stroke="#2576B9" stroke-width="3" stroke-miterlimit="10"/>
<path d="M38.0036 29.2307L32.3017 20.1682" stroke="#2576B9" stroke-width="3" stroke-miterlimit="10"/>
<path d="M82.7345 40.8979L91.4509 35.594" stroke="#2576B9" stroke-width="3" stroke-miterlimit="10"/>
<path d="M61.6741 45.2046L51.2262 51.0634L57.3882 57.0294L46.3312 63.3336" stroke="#2576B9" stroke-width="3" stroke-miterlimit="10"/>
</svg>
