<svg width="106" height="104" viewBox="0 0 106 104" fill="none" xmlns="http://www.w3.org/2000/svg">
<g clip-path="url(#clip0_3856_106)">
<g opacity="0.75">
<path opacity="0.75" d="M69.5683 99.0689L73.524 90.1356C74.7861 87.2816 74.3033 84.1068 72.5415 81.7849C71.7198 80.7041 70.6187 79.8091 69.2803 79.2264L60.327 75.2833L60.4456 75.0131C64.774 75.3424 69.1617 74.7007 73.3292 73.0879C77.6068 71.433 81.3592 68.8661 84.3747 65.5984C86.1027 65.5056 87.8222 65.1509 89.4824 64.5092C93.616 62.9134 96.8856 59.8061 98.6729 55.7616L104.78 41.9648C106.042 39.1108 105.559 35.936 103.798 33.614C103.103 32.6937 102.188 31.9253 101.121 31.3512C101.731 28.8856 101.172 26.3272 99.6809 24.3683C98.8592 23.2875 97.7581 22.3925 96.4282 21.8099L57.5487 4.71155C55.5327 3.82497 53.2457 3.77431 51.1959 4.56801C49.6034 5.18439 48.2481 6.27362 47.3079 7.67526C45.4529 7.0251 43.42 7.05043 41.5734 7.75969C39.5236 8.55339 37.8718 10.1239 36.9824 12.1335L30.8752 25.9303C29.0879 29.9748 28.9778 34.4753 30.5787 38.5958C31.1378 40.0481 31.9001 41.3991 32.8403 42.6318C32.9674 42.7923 33.0945 42.9527 33.23 43.1131C32.6201 50.2733 34.6446 57.5517 39.1509 63.4622C40.1673 64.7963 41.3108 66.0375 42.539 67.1774L42.4374 67.4138L33.3062 63.3947C31.2903 62.5081 29.0032 62.4574 26.9534 63.2511C24.9035 64.0448 23.2518 65.6153 22.3624 67.6249L18.4067 76.5583C17.5173 78.5678 17.4664 80.8392 18.2627 82.891C18.5422 83.6171 18.9234 84.2926 19.3892 84.9006C20.2363 86.0067 21.3544 86.8932 22.6504 87.4674L58.6414 103.308C60.6574 104.194 62.9359 104.245 64.9943 103.451C67.0272 102.649 68.6789 101.079 69.5683 99.0689Z" fill="#CFD8DC"/>
</g>
<path d="M68.9838 95.0582L72.9396 86.1249C74.2017 83.2709 73.7188 80.0961 71.957 77.7741C71.1353 76.6933 70.0342 75.7983 68.6958 75.2157L59.7426 71.2725L59.8611 71.0023C64.1896 71.3316 68.5773 70.6899 72.7447 69.0772C77.0223 67.4222 80.7747 64.8554 83.7902 61.5877C85.5182 61.4948 87.2377 61.1402 88.8979 60.4985C93.0315 58.9026 96.3011 55.7954 98.0884 51.7509L104.196 37.954C105.458 35.1001 104.975 31.9253 103.213 29.6033C102.518 28.6829 101.604 27.9146 100.536 27.3404C101.146 24.8749 100.587 22.3165 99.0964 20.3575C98.2747 19.2768 97.1736 18.3817 95.8437 17.7991L56.9642 0.700806C54.9483 -0.185774 52.6612 -0.236436 50.6114 0.557264C49.0189 1.17365 47.6637 2.26287 46.7234 3.66451C44.8684 3.01436 42.8355 3.03969 40.9889 3.74895C38.9391 4.54265 37.2873 6.11316 36.3979 8.12274L30.2907 21.9196C28.5035 25.9641 28.3933 30.4646 29.9943 34.585C30.5533 36.0373 31.3157 37.3883 32.2559 38.6211C32.3829 38.7815 32.51 38.9419 32.6455 39.1024C32.0356 46.2626 34.0601 53.541 38.5664 59.4515C39.5828 60.7856 40.7263 62.0268 41.9546 63.1667L41.8529 63.4031L32.7217 59.3839C30.7058 58.4974 28.4187 58.4467 26.3689 59.2404C24.319 60.0341 22.6673 61.6046 21.7779 63.6142L17.8222 72.5475C16.9328 74.5571 16.882 76.8284 17.6782 78.8802C17.9577 79.6064 18.3389 80.2819 18.8048 80.8898C19.6518 81.9959 20.7699 82.8825 22.0659 83.4567L58.0569 99.2969C60.0729 100.183 62.3515 100.234 64.4098 99.4404C66.4427 98.6383 68.0944 97.0678 68.9838 95.0582Z" fill="white"/>
<path d="M54.584 10.5122L44.2076 33.9432C39.803 43.8983 44.3177 55.5336 54.3044 59.9242C64.2911 64.3149 75.9634 59.8145 80.3681 49.8595L90.7444 26.4284L54.584 10.5122Z" fill="#FFD95C" stroke="#2576B9" stroke-width="3.5105" stroke-miterlimit="10"/>
<path d="M88.6268 32.9216L94.8611 35.6658L89.3553 48.1032C87.8306 51.5398 83.8071 53.0934 80.3596 51.5736" fill="#FFD95C"/>
<path d="M88.6268 32.9216L94.8611 35.6658L89.3553 48.1032C87.8306 51.5398 83.8071 53.0934 80.3596 51.5736" stroke="#2576B9" stroke-width="3.5105" stroke-miterlimit="10"/>
<path d="M42.9372 35.1084C39.4897 33.5886 37.9311 29.5779 39.4558 26.1413L44.9616 13.7039L51.1959 16.448" fill="#FFD95C"/>
<path d="M42.9372 35.1084C39.4897 33.5886 37.9311 29.5779 39.4558 26.1413L44.9616 13.7039L51.1959 16.448" stroke="#2576B9" stroke-width="3.5105" stroke-miterlimit="10"/>
<path d="M54.3976 59.9666L47.0537 76.5414" stroke="#2576B9" stroke-width="3.5105" stroke-miterlimit="10"/>
<path d="M63.6053 83.818L30.332 69.1775L27.5786 75.3955L60.8519 90.036L63.6053 83.818Z" fill="#FFD95C" stroke="#2576B9" stroke-width="3.5105" stroke-miterlimit="10"/>
<path d="M69.5513 25.4995L68.7381 33.4365L76.0651 36.662L68.2384 38.3422L67.4252 46.2792L63.4017 39.3808L55.5835 41.0695L60.9199 35.1168L56.8964 28.2184L64.2149 31.4438L69.5513 25.4995Z" fill="#FFD95C" stroke="#2576B9" stroke-width="3.5105" stroke-miterlimit="10"/>
<path d="M21.7526 7.29517C21.7526 7.29517 16.5686 12.488 11.3508 7.3205C11.3508 7.3205 16.5602 12.488 11.3762 17.6893C11.3762 17.6893 16.5602 12.4964 21.778 17.6639C21.778 17.6555 16.5602 12.488 21.7526 7.29517Z" stroke="#2576B9" stroke-width="2.9625" stroke-miterlimit="10" stroke-linecap="round" stroke-linejoin="round"/>
<path d="M10.6815 30.76C10.6815 30.76 12.6298 41.6016 1.75366 43.5352C1.75366 43.5352 12.6298 41.5932 14.5695 52.4348C14.5695 52.4348 12.6213 41.5932 23.4974 39.6596C23.4974 39.668 12.6298 41.6016 10.6815 30.76Z" stroke="#2576B9" stroke-width="2.9625" stroke-miterlimit="10" stroke-linecap="round" stroke-linejoin="round"/>
</g>
<defs>
<clipPath id="clip0_3856_106">
<rect width="105" height="104" fill="white" transform="translate(0.5)"/>
</clipPath>
</defs>
</svg>
