<svg width="73" height="227" viewBox="0 0 73 227" fill="none" xmlns="http://www.w3.org/2000/svg">
<path d="M37.3665 92.1773L39.3661 92.1591L37.3665 92.1773ZM72.5296 225.541C72.0526 224.545 70.8585 224.124 69.8624 224.602C68.8663 225.079 68.4455 226.274 68.9224 227.27L72.5296 225.541ZM64.8695 218.294C65.305 219.309 66.4808 219.779 67.4957 219.343C68.5105 218.907 68.9802 217.73 68.5447 216.715L64.8695 218.294ZM68.157 215.808C67.7248 214.791 66.5506 214.318 65.5343 214.751C64.518 215.183 64.0445 216.358 64.4767 217.375L68.157 215.808ZM60.7676 208.283C61.1708 209.311 62.3311 209.818 63.3593 209.414C64.3874 209.01 64.8941 207.849 64.4909 206.821L60.7676 208.283ZM64.1375 205.916C63.737 204.887 62.578 204.378 61.5488 204.779C60.5196 205.18 60.01 206.339 60.4105 207.369L64.1375 205.916ZM56.9661 198.181C57.3414 199.22 58.4876 199.758 59.5262 199.382C60.5649 199.006 61.1027 197.859 60.7274 196.821L56.9661 198.181ZM60.3952 195.898C60.0224 194.858 58.8775 194.317 57.8379 194.691C56.7984 195.064 56.2579 196.21 56.6307 197.249L60.3952 195.898ZM53.4261 187.975C53.7748 189.023 54.907 189.589 55.9548 189.24C57.0027 188.891 57.5695 187.758 57.2209 186.71L53.4261 187.975ZM56.9164 185.791C56.5701 184.742 55.4392 184.173 54.3905 184.52C53.3418 184.867 52.7724 185.998 53.1187 187.047L56.9164 185.791ZM50.1483 177.69C50.4703 178.747 51.5878 179.342 52.6441 179.019C53.7005 178.696 54.2958 177.578 53.9737 176.522L50.1483 177.69ZM53.6902 175.588C53.3707 174.53 52.2546 173.933 51.1975 174.253C50.1404 174.573 49.5425 175.69 49.862 176.747L53.6902 175.588ZM47.1318 167.314C47.4263 168.379 48.5278 169.003 49.5922 168.708C50.6566 168.413 51.2808 167.311 50.9864 166.246L47.1318 167.314ZM50.7281 165.308C50.4362 164.243 49.3361 163.616 48.271 163.908C47.2059 164.201 46.5791 165.301 46.871 166.367L50.7281 165.308ZM44.3935 156.865C44.6588 157.937 45.7428 158.591 46.8149 158.325C47.887 158.059 48.541 156.975 48.2758 155.902L44.3935 156.865ZM48.0444 154.962C47.7819 153.888 46.6995 153.232 45.6268 153.495C44.554 153.758 43.8972 154.841 44.1596 155.914L48.0444 154.962ZM41.9516 146.34C42.1852 147.42 43.2497 148.105 44.3291 147.871C45.4084 147.637 46.094 146.572 45.8603 145.492L41.9516 146.34ZM45.6563 144.543C45.4256 143.463 44.3631 142.775 43.2831 143.006C42.2031 143.237 41.5145 144.3 41.7452 145.38L45.6563 144.543ZM39.8307 135.739C40.0299 136.826 41.0719 137.545 42.1582 137.345C43.2445 137.145 43.9636 136.103 43.7645 135.016L39.8307 135.739ZM43.5909 134.061C43.3951 132.974 42.3553 132.251 41.2684 132.448C40.1815 132.644 39.4592 133.684 39.655 134.772L43.5909 134.061ZM38.0648 125.065C38.2256 126.158 39.2416 126.914 40.3343 126.752C41.4269 126.591 42.1823 125.574 42.0215 124.482L38.0648 125.065ZM41.8819 123.521C41.7248 122.428 40.7113 121.669 39.6182 121.827C38.525 121.984 37.7662 122.998 37.9232 124.092L41.8819 123.521ZM36.6959 114.325C36.8136 115.424 37.7991 116.219 38.8972 116.1C39.9953 115.982 40.7901 114.996 40.6724 113.898L36.6959 114.325ZM40.5711 112.934C40.4576 111.835 39.475 111.037 38.3765 111.151C37.278 111.265 36.4794 112.248 36.5929 113.347L40.5711 112.934ZM35.7765 103.528C35.8452 104.631 36.7944 105.468 37.8966 105.399C38.9989 105.33 39.8367 104.38 39.7681 103.278L35.7765 103.528ZM39.7101 102.313C39.6462 101.21 38.7006 100.368 37.5981 100.432C36.4955 100.496 35.6535 101.443 35.7174 102.546L39.7101 102.313ZM35.3718 92.6875C35.3842 93.7922 36.2895 94.6773 37.3938 94.6645C38.4981 94.6517 39.3833 93.7458 39.3709 92.6411L35.3718 92.6875ZM39.3608 91.6421C39.3481 90.5374 38.4425 89.6525 37.3382 89.6657C36.2339 89.6789 35.349 90.5851 35.3618 91.6897L39.3608 91.6421ZM34.9616 81.708C35.0381 82.8101 35.9933 83.6411 37.095 83.5642C38.1967 83.4872 39.0278 82.5314 38.9513 81.4293L34.9616 81.708ZM38.877 80.4045C38.7938 79.3029 37.8337 78.4776 36.7324 78.5612C35.6312 78.6449 34.8059 79.6057 34.8891 80.7072L38.877 80.4045ZM33.831 70.7902C33.983 71.8844 34.9929 72.6479 36.0868 72.4955C37.1807 72.3431 37.9443 71.3325 37.7923 70.2383L33.831 70.7902ZM37.6494 69.2331C37.4904 68.1399 36.4755 67.383 35.3827 67.5425C34.2898 67.702 33.5328 68.7175 33.6918 69.8107L37.6494 69.2331ZM31.9264 59.9976C32.1592 61.0774 33.2232 61.7636 34.3027 61.5303C35.3823 61.297 36.0686 60.2324 35.8358 59.1526L31.9264 59.9976ZM35.6159 58.1501C35.3754 57.072 34.3066 56.3933 33.2287 56.6343C32.1509 56.8753 31.472 57.9447 31.7126 59.0228L35.6159 58.1501ZM29.196 49.4011C29.5152 50.4586 30.631 51.0568 31.6882 50.7371C32.7455 50.4175 33.3438 49.3011 33.0247 48.2436L29.196 49.4011ZM32.7229 47.2571C32.3956 46.2021 31.2752 45.6126 30.2204 45.9404C29.1656 46.2682 28.5759 47.3892 28.9032 48.4442L32.7229 47.2571ZM25.5863 39.079C25.9971 40.1044 27.1611 40.6021 28.1863 40.1908C29.2114 39.7795 29.7094 38.6148 29.2986 37.5895L25.5863 39.079ZM28.9118 36.6356C28.4924 35.6138 27.3242 35.1259 26.3025 35.5458C25.2809 35.9658 24.7927 37.1346 25.2121 38.1564L28.9118 36.6356ZM21.0504 29.1537C21.5585 30.1344 22.7653 30.5171 23.7459 30.0084C24.7264 29.4998 25.1094 28.2925 24.6013 27.3118L21.0504 29.1537ZM24.1275 26.4075C23.6103 25.4316 22.4 25.0601 21.4242 25.5779C20.4484 26.0956 20.0767 27.3064 20.5938 28.2824L24.1275 26.4075ZM15.5313 19.7701C16.1441 20.6889 17.3857 20.9365 18.3045 20.3232C19.2232 19.7098 19.4712 18.4677 18.8584 17.5488L15.5313 19.7701ZM18.2877 16.7031C17.6649 15.7909 16.4207 15.5568 15.5087 16.1801C14.5966 16.8034 14.3621 18.0481 14.9848 18.9603L18.2877 16.7031ZM8.95266 11.1683C9.68437 11.9955 10.9481 12.0725 11.7753 11.3402C12.6025 10.6079 12.6799 9.34372 11.9482 8.5165L8.95266 11.1683ZM11.2553 7.74458C10.5114 6.92826 9.24669 6.86993 8.43037 7.61432C7.61405 8.3587 7.55528 9.6239 8.29911 10.4402L11.2553 7.74458ZM1.16523 3.92573C2.06482 4.56624 3.31341 4.35577 3.95403 3.45564C4.59465 2.5555 4.38471 1.30657 3.48512 0.666058L1.16523 3.92573ZM72.7314 225.961C72.6645 225.822 72.5973 225.682 72.5296 225.541L68.9224 227.27C68.9917 227.415 69.0605 227.558 69.1289 227.7L72.7314 225.961ZM68.5447 216.715C68.4162 216.416 68.287 216.113 68.157 215.808L64.4767 217.375C64.6083 217.684 64.7392 217.991 64.8695 218.294L68.5447 216.715ZM64.4909 206.821C64.3734 206.521 64.2556 206.22 64.1375 205.916L60.4105 207.369C60.5298 207.675 60.6488 207.98 60.7676 208.283L64.4909 206.821ZM60.7274 196.821C60.6168 196.514 60.506 196.207 60.3952 195.898L56.6307 197.249C56.7425 197.561 56.8543 197.872 56.9661 198.181L60.7274 196.821ZM57.2209 186.71C57.1193 186.405 57.0178 186.099 56.9164 185.791L53.1187 187.047C53.2211 187.357 53.3236 187.666 53.4261 187.975L57.2209 186.71ZM53.9737 176.522C53.8791 176.211 53.7846 175.9 53.6902 175.588L49.862 176.747C49.9573 177.062 50.0527 177.376 50.1483 177.69L53.9737 176.522ZM50.9864 166.246C50.9 165.934 50.8139 165.621 50.7281 165.308L46.871 166.367C46.9577 166.683 47.0446 166.999 47.1318 167.314L50.9864 166.246ZM48.2758 155.902C48.1983 155.589 48.1212 155.276 48.0444 154.962L44.1596 155.914C44.2373 156.231 44.3153 156.548 44.3935 156.865L48.2758 155.902ZM45.8603 145.492C45.7919 145.176 45.7239 144.86 45.6563 144.543L41.7452 145.38C41.8136 145.701 41.8824 146.021 41.9516 146.34L45.8603 145.492ZM43.7645 135.016C43.7062 134.698 43.6483 134.379 43.5909 134.061L39.655 134.772C39.7131 135.094 39.7717 135.417 39.8307 135.739L43.7645 135.016ZM42.0215 124.482C41.9744 124.162 41.9279 123.841 41.8819 123.521L37.9232 124.092C37.9699 124.416 38.0171 124.741 38.0648 125.065L42.0215 124.482ZM40.6724 113.898C40.638 113.576 40.6042 113.255 40.5711 112.934L36.5929 113.347C36.6266 113.673 36.6609 113.999 36.6959 114.325L40.6724 113.898ZM39.7681 103.278C39.748 102.956 39.7287 102.634 39.7101 102.313L35.7174 102.546C35.7364 102.873 35.7561 103.2 35.7765 103.528L39.7681 103.278ZM39.3709 92.6411C39.3691 92.4804 39.3675 92.3197 39.3661 92.1591L35.3669 92.1955C35.3683 92.3595 35.37 92.5235 35.3718 92.6875L39.3709 92.6411ZM39.3661 92.1591C39.3646 91.9865 39.3628 91.8142 39.3608 91.6421L35.3618 91.6897C35.3637 91.8581 35.3654 92.0267 35.3669 92.1955L39.3661 92.1591ZM38.9513 81.4293C38.9275 81.0866 38.9027 80.745 38.877 80.4045L34.8891 80.7072C34.9142 81.0397 34.9383 81.3733 34.9616 81.708L38.9513 81.4293ZM37.7923 70.2383C37.7456 69.902 37.698 69.567 37.6494 69.2331L33.6918 69.8107C33.7391 70.136 33.7855 70.4625 33.831 70.7902L37.7923 70.2383ZM35.8358 59.1526C35.7634 58.817 35.6901 58.4829 35.6159 58.1501L31.7126 59.0228C31.7847 59.3463 31.856 59.6712 31.9264 59.9976L35.8358 59.1526ZM33.0247 48.2436C32.925 47.9131 32.8243 47.5843 32.7229 47.2571L28.9032 48.4442C29.0016 48.7615 29.0993 49.0805 29.196 49.4011L33.0247 48.2436ZM29.2986 37.5895C29.1704 37.2695 29.0415 36.9516 28.9118 36.6356L25.2121 38.1564C25.3375 38.462 25.4623 38.7695 25.5863 39.079L29.2986 37.5895ZM24.6013 27.3118C24.4439 27.0079 24.286 26.7065 24.1275 26.4075L20.5938 28.2824C20.7465 28.5704 20.8987 28.8609 21.0504 29.1537L24.6013 27.3118ZM18.8584 17.5488C18.6682 17.2638 18.478 16.9818 18.2877 16.7031L14.9848 18.9603C15.167 19.2271 15.3492 19.497 15.5313 19.7701L18.8584 17.5488ZM11.9482 8.5165C11.7163 8.2543 11.4853 7.99699 11.2553 7.74458L8.29911 10.4402C8.51577 10.678 8.73366 10.9207 8.95266 11.1683L11.9482 8.5165ZM3.48512 0.666058C3.3406 0.563155 3.19727 0.462936 3.05521 0.365411L0.791501 3.66437C0.914301 3.74867 1.03889 3.83578 1.16523 3.92573L3.48512 0.666058Z" fill="#2576B9"/>
</svg>
