<svg width="153" height="97" viewBox="0 0 153 97" fill="none" xmlns="http://www.w3.org/2000/svg">
<path d="M116.482 94.1344L117.28 92.3004L116.482 94.1344ZM128.327 68.8815L129.549 67.2988L128.327 68.8815ZM3.45488 82.2317C4.20569 81.4216 4.15757 80.1562 3.34741 79.4053C2.53725 78.6545 1.27183 78.7027 0.521026 79.5128L3.45488 82.2317ZM8.37549 72.4076C7.49692 73.0771 7.32742 74.332 7.99689 75.2106C8.66636 76.0891 9.9213 76.2587 10.7999 75.5892L8.37549 72.4076ZM11.5961 74.9924C12.4851 74.337 12.6745 73.0849 12.0191 72.1958C11.3637 71.3067 10.1116 71.1173 9.2225 71.7728L11.5961 74.9924ZM18.1525 66.1627C17.1783 66.6832 16.8105 67.8949 17.331 68.8692C17.8516 69.8434 19.0633 70.2112 20.0375 69.6906L18.1525 66.1627ZM20.9195 69.2268C21.9004 68.7189 22.284 67.5121 21.7761 66.5312C21.2683 65.5503 20.0615 65.1667 19.0806 65.6745L20.9195 69.2268ZM28.6746 61.4278C27.6405 61.8161 27.117 62.9692 27.5053 64.0032C27.8936 65.0373 29.0467 65.5608 30.0807 65.1725L28.6746 61.4278ZM31.0239 64.8241C32.0621 64.447 32.598 63.2996 32.2208 62.2614C31.8437 61.2233 30.6963 60.6874 29.6581 61.0646L31.0239 64.8241ZM39.6541 57.9932C38.584 58.2668 37.9383 59.3562 38.2119 60.4263C38.4855 61.4964 39.5749 62.1421 40.645 61.8685L39.6541 57.9932ZM41.6234 61.6231C42.6959 61.3591 43.3514 60.2756 43.0874 59.203C42.8235 58.1305 41.74 57.475 40.6674 57.739L41.6234 61.6231ZM50.8887 55.681C49.7979 55.8546 49.0543 56.8797 49.2279 57.9705C49.4015 59.0613 50.4266 59.8049 51.5174 59.6313L50.8887 55.681ZM52.516 59.4764C53.6081 59.3113 54.3597 58.2921 54.1946 57.1999C54.0295 56.1078 53.0103 55.3562 51.9181 55.5213L52.516 59.4764ZM62.2623 54.3525C61.1609 54.4365 60.3362 55.3974 60.4201 56.4988C60.5041 57.6002 61.465 58.4249 62.5664 58.3409L62.2623 54.3525ZM63.575 58.2676C64.6769 58.1914 65.5084 57.2363 65.4322 56.1344C65.356 55.0324 64.4009 54.2009 63.299 54.2771L63.575 58.2676ZM73.6896 53.9186C72.585 53.9191 71.6899 54.8149 71.6904 55.9194C71.6908 57.024 72.5866 57.9191 73.6912 57.9186L73.6896 53.9186ZM74.708 57.9217C75.8125 57.9287 76.7137 57.039 76.7207 55.9345C76.7277 54.8299 75.838 53.9288 74.7335 53.9218L74.708 57.9217ZM85.1256 54.3394C84.024 54.2575 83.0647 55.0841 82.9828 56.1857C82.901 57.2872 83.7276 58.2465 84.8291 58.3284L85.1256 54.3394ZM85.8366 58.4068C86.9375 58.4962 87.9025 57.6762 87.992 56.5753C88.0814 55.4743 87.2614 54.5093 86.1605 54.4199L85.8366 58.4068ZM96.4894 55.6302C95.3978 55.4613 94.3761 56.2094 94.2072 57.301C94.0384 58.3926 94.7865 59.4143 95.8781 59.5832L96.4894 55.6302ZM96.8854 59.743C97.9756 59.9203 99.0032 59.1803 99.1806 58.09C99.3579 56.9998 98.6178 55.9722 97.5276 55.7949L96.8854 59.743ZM107.742 57.8963C106.672 57.6255 105.584 58.274 105.313 59.3449C105.042 60.4157 105.691 61.5034 106.762 61.7742L107.742 57.8963ZM107.733 62.0251C108.802 62.3065 109.896 61.6688 110.177 60.6007C110.458 59.5326 109.821 58.4386 108.753 58.1571L107.733 62.0251ZM118.734 61.4084C117.708 60.998 116.544 61.4966 116.134 62.5221C115.724 63.5476 116.222 64.7116 117.248 65.122L118.734 61.4084ZM118.183 65.5049C119.201 65.9318 120.373 65.452 120.8 64.4332C121.227 63.4145 120.747 62.2426 119.729 61.8157L118.183 65.5049ZM129.124 66.9766C128.238 66.3175 126.985 66.5019 126.326 67.3883C125.667 68.2747 125.851 69.5275 126.737 70.1866L129.124 66.9766ZM127.448 70.7351C128.309 71.4269 129.568 71.2895 130.26 70.4284C130.951 69.5672 130.814 68.3084 129.953 67.6166L127.448 70.7351ZM136.146 75.7519C135.76 74.7168 134.609 74.1903 133.574 74.5759C132.539 74.9615 132.012 76.1131 132.398 77.1482L136.146 75.7519ZM132.645 77.8928C132.956 78.9528 134.067 79.5603 135.127 79.2497C136.187 78.939 136.794 77.8279 136.484 76.7679L132.645 77.8928ZM135.606 87.2225C136.075 86.2226 135.645 85.0315 134.645 84.5622C133.646 84.0928 132.455 84.5228 131.985 85.5227L135.606 87.2225ZM131.622 86.2354C131.09 87.2032 131.442 88.4193 132.41 88.9518C133.378 89.4843 134.594 89.1315 135.127 88.1637L131.622 86.2354ZM127.7 95.3371C128.685 94.8369 129.077 93.6331 128.577 92.6482C128.077 91.6634 126.873 91.2705 125.888 91.7707L127.7 95.3371ZM125.162 92.1111C124.148 92.5479 123.68 93.7245 124.116 94.739C124.553 95.7535 125.73 96.2219 126.744 95.785L125.162 92.1111ZM116.196 96.1781C117.227 96.5749 118.384 96.0608 118.781 95.03C119.178 93.9991 118.664 92.8418 117.633 92.4451L116.196 96.1781ZM116.858 92.1121C115.854 91.6526 114.667 92.0942 114.207 93.0987C113.748 94.1031 114.189 95.2899 115.194 95.7495L116.858 92.1121ZM106.703 89.5213C107.434 90.3501 108.697 90.43 109.526 89.6998C110.355 88.9696 110.435 87.7057 109.705 86.877L106.703 89.5213ZM109.133 86.1982C108.44 85.338 107.181 85.2023 106.321 85.8952C105.46 86.5881 105.325 87.8471 106.018 88.7074L109.133 86.1982ZM101.259 79.3534C101.563 80.4153 102.671 81.0296 103.733 80.7255C104.795 80.4214 105.409 79.3141 105.105 78.2522L101.259 79.3534ZM104.87 77.3762C104.601 76.3047 103.515 75.6536 102.444 75.9219C101.372 76.1903 100.721 77.2764 100.99 78.3479L104.87 77.3762ZM99.9619 68.1118C99.9302 69.2159 100.799 70.1367 101.904 70.1685C103.008 70.2002 103.929 69.3309 103.96 68.2268L99.9619 68.1118ZM103.998 67.2847C104.055 66.1816 103.206 65.2415 102.103 65.185C101 65.1285 100.06 65.977 100.003 67.0801L103.998 67.2847ZM101.506 57.0689C101.246 58.1424 101.905 59.2236 102.979 59.4838C104.052 59.744 105.133 59.0847 105.394 58.0112L101.506 57.0689ZM105.625 57.0898C105.902 56.0207 105.26 54.9291 104.191 54.6517C103.122 54.3744 102.03 55.0163 101.753 56.0854L105.625 57.0898ZM104.978 46.577C104.552 47.5962 105.033 48.7676 106.052 49.1933C107.072 49.619 108.243 49.1378 108.669 48.1186L104.978 46.577ZM109.043 47.2374C109.482 46.2237 109.016 45.0462 108.003 44.6074C106.989 44.1685 105.812 44.6345 105.373 45.6482L109.043 47.2374ZM109.9 36.7303C109.342 37.684 109.664 38.9088 110.617 39.4661C111.571 40.0234 112.796 39.702 113.353 38.7483L109.9 36.7303ZM113.839 37.9272C114.408 36.9799 114.1 35.7515 113.153 35.1834C112.206 34.6152 110.977 34.9226 110.409 35.8699L113.839 37.9272ZM116.022 27.5996C115.352 28.4778 115.521 29.7328 116.399 30.4028C117.277 31.0728 118.532 30.904 119.202 30.0258L116.022 27.5996ZM119.784 29.2716C120.464 28.4008 120.309 27.144 119.438 26.4644C118.567 25.7848 117.311 25.9398 116.631 26.8106L119.784 29.2716ZM123.199 19.2878C122.428 20.0784 122.443 21.3446 123.234 22.1161C124.024 22.8875 125.291 22.872 126.062 22.0814L123.199 19.2878ZM126.733 21.4014C127.513 20.6195 127.512 19.3532 126.73 18.573C125.948 17.7927 124.682 17.7941 123.902 18.5759L126.733 21.4014ZM131.356 11.9131C130.491 12.6001 130.347 13.8582 131.034 14.7231C131.721 15.588 132.979 15.7322 133.844 15.0451L131.356 11.9131ZM134.593 14.4572C135.467 13.7805 135.626 12.5242 134.949 11.6512C134.272 10.7782 133.016 10.6191 132.143 11.2958L134.593 14.4572ZM140.416 5.65713C139.466 6.22083 139.153 7.44784 139.717 8.39775C140.281 9.34766 141.508 9.66075 142.457 9.09706L140.416 5.65713ZM143.279 8.6168C144.236 8.06543 144.565 6.84256 144.013 5.88545C143.462 4.92834 142.239 4.59942 141.282 5.15079L143.279 8.6168ZM150.291 0.73169C149.268 1.14937 148.778 2.31691 149.195 3.33947C149.613 4.36202 150.781 4.85237 151.803 4.43468L150.291 0.73169ZM3.12025 82.5962C3.23123 82.4742 3.34277 82.3527 3.45488 82.2317L0.521026 79.5128C0.400601 79.6428 0.280755 79.7733 0.161493 79.9044L3.12025 82.5962ZM10.7999 75.5892C11.0634 75.3884 11.3288 75.1895 11.5961 74.9924L9.2225 71.7728C8.93833 71.9823 8.65598 72.1939 8.37549 72.4076L10.7999 75.5892ZM20.0375 69.6906C20.3301 69.5343 20.6241 69.3797 20.9195 69.2268L19.0806 65.6745C18.7699 65.8354 18.4605 65.9981 18.1525 66.1627L20.0375 69.6906ZM30.0807 65.1725C30.3941 65.0549 30.7085 64.9387 31.0239 64.8241L29.6581 61.0646C29.3294 61.184 29.0015 61.3051 28.6746 61.4278L30.0807 65.1725ZM40.645 61.8685C40.9705 61.7853 41.2966 61.7035 41.6234 61.6231L40.6674 57.739C40.3291 57.8222 39.9913 57.907 39.6541 57.9932L40.645 61.8685ZM51.5174 59.6313C51.85 59.5784 52.1828 59.5267 52.516 59.4764L51.9181 55.5213C51.5748 55.5732 51.2316 55.6264 50.8887 55.681L51.5174 59.6313ZM62.5664 58.3409C62.9026 58.3153 63.2388 58.2909 63.575 58.2676L63.299 54.2771C62.9535 54.301 62.6079 54.3261 62.2623 54.3525L62.5664 58.3409ZM73.6912 57.9186C74.0305 57.9185 74.3694 57.9195 74.708 57.9217L74.7335 53.9218C74.3859 53.9195 74.038 53.9185 73.6896 53.9186L73.6912 57.9186ZM84.8291 58.3284C85.1657 58.3534 85.5016 58.3795 85.8366 58.4068L86.1605 54.4199C85.8163 54.3919 85.4713 54.3651 85.1256 54.3394L84.8291 58.3284ZM95.8781 59.5832C96.2152 59.6353 96.551 59.6886 96.8854 59.743L97.5276 55.7949C97.1829 55.7388 96.8368 55.6839 96.4894 55.6302L95.8781 59.5832ZM106.762 61.7742C107.088 61.8567 107.412 61.9404 107.733 62.0251L108.753 58.1571C108.418 58.069 108.081 57.982 107.742 57.8963L106.762 61.7742ZM117.248 65.122C117.564 65.2484 117.875 65.3761 118.183 65.5049L119.729 61.8157C119.401 61.6784 119.069 61.5426 118.734 61.4084L117.248 65.122ZM126.737 70.1866C126.862 70.279 126.984 70.3715 127.104 70.4643L129.549 67.2988C129.409 67.1908 129.268 67.0834 129.124 66.9766L126.737 70.1866ZM127.104 70.4643C127.221 70.5544 127.335 70.6447 127.448 70.7351L129.953 67.6166C129.82 67.5102 129.686 67.4042 129.549 67.2988L127.104 70.4643ZM132.398 77.1482C132.49 77.3972 132.573 77.6455 132.645 77.8928L136.484 76.7679C136.384 76.4287 136.272 76.0899 136.146 75.7519L132.398 77.1482ZM131.985 85.5227C131.872 85.7635 131.751 86.0012 131.622 86.2354L135.127 88.1637C135.296 87.8556 135.456 87.5417 135.606 87.2225L131.985 85.5227ZM125.888 91.7707C125.649 91.8924 125.407 92.0059 125.162 92.1111L126.744 95.785C127.067 95.646 127.386 95.4965 127.7 95.3371L125.888 91.7707ZM117.633 92.4451C117.515 92.3996 117.397 92.3514 117.28 92.3004L115.684 95.9683C115.854 96.0422 116.025 96.1121 116.196 96.1781L117.633 92.4451ZM117.28 92.3004C117.138 92.2387 116.997 92.1759 116.858 92.1121L115.194 95.7495C115.356 95.8237 115.519 95.8966 115.684 95.9683L117.28 92.3004ZM109.705 86.877C109.509 86.6547 109.318 86.4284 109.133 86.1982L106.018 88.7074C106.24 88.9832 106.468 89.2546 106.703 89.5213L109.705 86.877ZM105.105 78.2522C105.022 77.9632 104.944 77.6711 104.87 77.3762L100.99 78.3479C101.074 78.6856 101.164 79.0209 101.259 79.3534L105.105 78.2522ZM103.96 68.2268C103.969 67.9144 103.982 67.6004 103.998 67.2847L100.003 67.0801C99.9856 67.4252 99.9718 67.7691 99.9619 68.1118L103.96 68.2268ZM105.394 58.0112C105.468 57.7048 105.545 57.3976 105.625 57.0898L101.753 56.0854C101.668 56.4137 101.585 56.7416 101.506 57.0689L105.394 58.0112ZM108.669 48.1186C108.791 47.8249 108.916 47.5312 109.043 47.2374L105.373 45.6482C105.239 45.9577 105.107 46.2673 104.978 46.577L108.669 48.1186ZM113.353 38.7483C113.513 38.4742 113.675 38.2005 113.839 37.9272L110.409 35.8699C110.237 36.1562 110.068 36.443 109.9 36.7303L113.353 38.7483ZM119.202 30.0258C119.395 29.7736 119.589 29.5222 119.784 29.2716L116.631 26.8106C116.426 27.0728 116.223 27.3358 116.022 27.5996L119.202 30.0258ZM126.062 22.0814C126.284 21.8536 126.508 21.627 126.733 21.4014L123.902 18.5759C123.666 18.8121 123.432 19.0494 123.199 19.2878L126.062 22.0814ZM133.844 15.0451C134.093 14.8478 134.343 14.6518 134.593 14.4572L132.143 11.2958C131.879 11.5001 131.617 11.7058 131.356 11.9131L133.844 15.0451ZM142.457 9.09706C142.73 8.93524 143.004 8.77515 143.279 8.6168L141.282 5.15079C140.992 5.31778 140.704 5.48657 140.416 5.65713L142.457 9.09706ZM151.803 4.43468C151.95 4.37476 152.097 4.31534 152.244 4.25642L150.758 0.542894C150.602 0.605299 150.446 0.668232 150.291 0.73169L151.803 4.43468Z" fill="#2576B9"/>
</svg>
