<svg width="80" height="80" viewBox="0 0 80 80" fill="none" xmlns="http://www.w3.org/2000/svg">
<path d="M50.6186 52.1562C49.9704 52.1534 49.3404 51.9617 48.8222 51.6097L36.826 43.4434C36.453 43.1909 36.1503 42.8633 35.9419 42.4866C35.7335 42.1098 35.6251 41.6943 35.6255 41.2731V25.0197C35.6034 24.6511 35.6647 24.2823 35.8056 23.9359C35.9465 23.5894 36.164 23.2725 36.4448 23.0046C36.7257 22.7366 37.064 22.5232 37.4391 22.3773C37.8143 22.2315 38.2184 22.1562 38.6267 22.1562C39.0351 22.1562 39.4392 22.2315 39.8143 22.3773C40.1895 22.5232 40.5278 22.7366 40.8086 23.0046C41.0895 23.2725 41.307 23.5894 41.4479 23.9359C41.5887 24.2823 41.65 24.6511 41.628 25.0197V39.9266L52.4237 47.2454C52.7386 47.4591 53.0037 47.7267 53.2041 48.0331C53.4044 48.3394 53.536 48.6785 53.5913 49.0308C53.6467 49.3831 53.6247 49.7419 53.5266 50.0865C53.4285 50.4312 53.2562 50.755 53.0196 51.0394C52.7465 51.3847 52.3862 51.6662 51.9686 51.8604C51.551 52.0547 51.0882 52.1561 50.6186 52.1562Z" fill="#2576B9"/>
<path d="M40.0001 76.0735C32.4001 76.0735 24.9708 73.9578 18.6517 69.994C12.3326 66.0302 7.40738 60.3963 4.499 53.8047C1.59062 47.2132 0.829659 39.96 2.31234 32.9624C3.79502 25.9648 7.45475 19.5372 12.8287 14.4922C18.2027 9.44724 25.0496 6.01157 32.5035 4.61967C39.9575 3.22777 47.6837 3.94214 54.7051 6.67246C61.7266 9.40277 67.7279 14.0264 71.9502 19.9587C76.1725 25.8909 78.4262 32.8653 78.4262 40C78.4147 49.564 74.3625 58.7331 67.1587 65.4959C59.9549 72.2586 50.1878 76.0627 40.0001 76.0735ZM40.0001 9.51837C33.5782 9.51837 27.3005 11.3061 21.961 14.6554C16.6214 18.0048 12.4597 22.7654 10.0021 28.3352C7.54457 33.905 6.90156 40.0338 8.15441 45.9467C9.40725 51.8595 12.4997 57.2908 17.0406 61.5538C21.5816 65.8167 27.3671 68.7198 33.6656 69.8959C39.9641 71.0721 46.4926 70.4684 52.4256 68.1614C58.3587 65.8543 63.4297 61.9474 66.9975 56.9347C70.5653 51.922 72.4696 46.0287 72.4696 40C72.4604 31.9184 69.0366 24.1703 62.9494 18.4558C56.8621 12.7412 48.6087 9.52701 40.0001 9.51837Z" fill="#2576B9"/>
</svg>
