<svg width="80" height="80" viewBox="0 0 80 80" fill="none" xmlns="http://www.w3.org/2000/svg">
<path d="M8.97384 50.3509C9.72597 50.3526 10.4729 50.2339 11.1825 49.9999V69.1264C11.1813 70.3258 11.5505 71.4999 12.2453 72.5064C12.9401 73.5129 13.9308 74.3088 15.0975 74.7977C16.2641 75.2865 17.5567 75.4475 18.8188 75.261C20.0809 75.0745 21.2584 74.5485 22.2086 73.7468C23.1589 74.5485 24.3363 75.0745 25.5984 75.261C26.8605 75.4475 28.1531 75.2865 29.3198 74.7977C30.4864 74.3088 31.4771 73.5129 32.172 72.5064C32.8668 71.4999 33.2359 70.3258 33.2347 69.1264V41.7142C34.0728 41.9936 34.9625 42.1109 35.8502 42.059C36.7379 42.0071 37.6052 41.787 38.3999 41.4122L45.826 37.9264H71.0434C72.7977 37.9243 74.4796 37.2691 75.7201 36.1045C76.9606 34.94 77.6585 33.3611 77.6608 31.7142V10.8734C77.6562 9.22711 76.9576 7.64951 75.7175 6.48542C74.4775 5.32133 72.797 4.66544 71.0434 4.66113H39.8521C38.0985 4.66544 36.418 5.32133 35.178 6.48542C33.938 7.64951 33.2393 9.22711 33.2347 10.8734V25.004L31.3043 23.1836C30.6914 22.6049 29.9624 22.146 29.1594 21.8335C28.3563 21.521 27.4953 21.3612 26.626 21.3632H13.3912C10.4668 21.3653 7.66275 22.4563 5.59407 24.3968C3.5254 26.3373 2.36105 28.9688 2.35645 31.7142V44.1387C2.35875 45.7856 3.05667 47.3645 4.29718 48.529C5.53768 49.6936 7.2195 50.3488 8.97384 50.3509ZM39.8521 8.80807H71.026C71.6095 8.80807 72.1691 9.02567 72.5816 9.41299C72.9942 9.80031 73.226 10.3256 73.226 10.8734V31.7142C73.226 32.2627 72.9945 32.7889 72.5822 33.1775C72.1699 33.5661 71.6103 33.7855 71.026 33.7877H50.5043C50.5043 33.7877 50.5043 33.7224 50.5043 33.6815C50.8223 32.8028 50.9234 31.8677 50.7999 30.9468L62.8956 25.306C63.3951 25.0475 63.7686 24.6175 63.938 24.1063C64.1075 23.595 64.0596 23.042 63.8045 22.563C63.5495 22.0841 63.1069 21.7164 62.5696 21.5369C62.0322 21.3574 61.4417 21.3799 60.9217 21.5999L48.8608 27.2489C47.877 26.3542 46.621 25.769 45.267 25.5744C43.913 25.3799 42.5281 25.5856 41.3043 26.1632L37.6434 27.8775V10.8734C37.6457 10.3249 37.8794 9.79957 38.2934 9.41249C38.7073 9.0254 39.2678 8.80807 39.8521 8.80807ZM6.80862 31.7142C6.81092 30.068 7.50913 28.49 8.74988 27.3267C9.99063 26.1635 11.6725 25.5101 13.426 25.5101H26.6173C26.9078 25.5088 27.1956 25.5615 27.4643 25.6652C27.7329 25.7689 27.977 25.9215 28.1825 26.1142L34.7825 32.2856C35.1087 32.5926 35.5298 32.795 35.9858 32.8639C36.4418 32.9328 36.9094 32.8647 37.3217 32.6693L43.3043 29.8693C43.566 29.7188 43.8585 29.6213 44.1627 29.5832C44.467 29.5452 44.7764 29.5673 45.071 29.6482C45.3657 29.7291 45.639 29.8669 45.8735 30.0529C46.1079 30.239 46.2983 30.469 46.4324 30.7282C46.5665 30.9874 46.6414 31.2701 46.6521 31.5581C46.6629 31.8461 46.6093 32.133 46.4949 32.4004C46.3804 32.6678 46.2076 32.9098 45.9876 33.1107C45.7676 33.3117 45.5052 33.4672 45.2173 33.5673L36.4347 37.706C36.0244 37.8976 35.5605 37.9637 35.1081 37.8949C34.6558 37.826 34.2378 37.6258 33.913 37.3224L32.6173 36.106C32.3109 35.8106 31.9177 35.6076 31.4878 35.523C31.0579 35.4384 30.6109 35.4761 30.2039 35.6312C29.7969 35.7863 29.4485 36.0518 29.203 36.3937C28.9576 36.7357 28.8263 37.1386 28.826 37.5509V69.1264C28.7908 69.6528 28.5432 70.1468 28.1337 70.5078C27.7242 70.8689 27.1835 71.0699 26.6217 71.0699C26.0599 71.0699 25.5192 70.8689 25.1096 70.5078C24.7001 70.1468 24.4525 69.6528 24.4173 69.1264V48.2856C24.4173 47.7357 24.1846 47.2083 23.7704 46.8195C23.3562 46.4306 22.7944 46.2122 22.2086 46.2122C21.6228 46.2122 21.061 46.4306 20.6468 46.8195C20.2326 47.2083 19.9999 47.7357 19.9999 48.2856V69.1264C19.9647 69.6528 19.7171 70.1468 19.3076 70.5078C18.8981 70.8689 18.3574 71.0699 17.7956 71.0699C17.2338 71.0699 16.6931 70.8689 16.2836 70.5078C15.874 70.1468 15.6265 69.6528 15.5912 69.1264V31.7142C15.556 31.1878 15.3084 30.6938 14.8989 30.3328C14.4894 29.9717 13.9487 29.7708 13.3869 29.7708C12.8251 29.7708 12.2844 29.9717 11.8749 30.3328C11.4653 30.6938 11.2178 31.1878 11.1825 31.7142V44.1387C11.2015 44.4214 11.1585 44.7047 11.0563 44.9712C10.954 45.2377 10.7947 45.4817 10.5882 45.6882C10.3816 45.8946 10.1322 46.0592 9.85533 46.1717C9.57842 46.2842 9.2799 46.3422 8.97818 46.3422C8.67647 46.3422 8.37795 46.2842 8.10105 46.1717C7.82414 46.0592 7.57472 45.8946 7.36817 45.6882C7.16162 45.4817 7.00233 45.2377 6.90011 44.9712C6.79789 44.7047 6.75491 44.4214 6.77384 44.1387L6.80862 31.7142Z" fill="#2576B9"/>
<path d="M28.6957 13.0611C28.6958 10.8488 27.7663 8.72571 26.1088 7.15296C24.4514 5.58021 22.2 4.68478 19.8435 4.66113C17.4924 4.69119 15.2485 5.5897 13.5981 7.16199C11.9477 8.73428 11.0236 10.8537 11.0261 13.0611C11.0261 15.2608 11.9569 17.3704 13.6138 18.9258C15.2706 20.4812 17.5178 21.355 19.8609 21.355C22.204 21.355 24.4512 20.4812 26.108 18.9258C27.7649 17.3704 28.6957 15.2608 28.6957 13.0611ZM19.8435 17.2244C19.2627 17.2233 18.6878 17.1147 18.1517 16.9048C17.6156 16.6949 17.1289 16.3878 16.7194 16.0011C16.3099 15.6144 15.9857 15.1557 15.7652 14.6512C15.5448 14.1467 15.4325 13.6064 15.4348 13.0611C15.432 11.9497 15.891 10.881 16.7143 10.0822C17.5375 9.28347 18.6601 8.81758 19.8435 8.78358C21.0284 8.8155 22.1532 9.28047 22.9784 10.0795C23.8035 10.8785 24.2637 11.9483 24.2609 13.0611C24.2632 13.6071 24.1506 14.1481 23.9297 14.6531C23.7087 15.1581 23.3837 15.6172 22.9733 16.004C22.5628 16.3908 22.0751 16.6978 21.538 16.9072C21.0009 17.1166 20.4251 17.2244 19.8435 17.2244Z" fill="#2576B9"/>
</svg>
