<svg width="80" height="80" viewBox="0 0 80 80" fill="none" xmlns="http://www.w3.org/2000/svg">
<path d="M69.3033 1.51198L70.6786 5.27462C70.7348 5.43115 70.8507 5.56033 71.0022 5.63506L74.4449 7.14714C74.5561 7.20344 74.6494 7.28857 74.7145 7.39323C74.7797 7.49789 74.8141 7.61804 74.8141 7.74055C74.8141 7.86306 74.7797 7.98321 74.7145 8.08787C74.6494 8.19253 74.5561 8.27766 74.4449 8.33396L71.0112 9.88121C70.8603 9.95236 70.7441 10.0787 70.6876 10.2329L69.3033 14.0658C69.2722 14.1826 69.2024 14.286 69.1048 14.3597C69.0072 14.4335 68.8873 14.4736 68.764 14.4736C68.6406 14.4736 68.5207 14.4335 68.4231 14.3597C68.3255 14.286 68.2557 14.1826 68.2247 14.0658L66.8494 10.2768C66.7929 10.1226 66.6766 9.99631 66.5258 9.92517L63.0831 8.36033C62.9718 8.30403 62.8785 8.2189 62.8134 8.11425C62.7483 8.00959 62.7139 7.88944 62.7139 7.76692C62.7139 7.64441 62.7483 7.52426 62.8134 7.4196C62.8785 7.31495 62.9718 7.22982 63.0831 7.17352L66.5168 5.66143C66.5961 5.62233 66.6665 5.56788 66.7237 5.50139C66.7808 5.4349 66.8236 5.35775 66.8494 5.27462L68.2247 1.51198C68.2557 1.39522 68.3255 1.29185 68.4231 1.21806C68.5207 1.14428 68.6406 1.10425 68.764 1.10425C68.8873 1.10425 69.0072 1.14428 69.1048 1.21806C69.2024 1.29185 69.2722 1.39522 69.3033 1.51198Z" fill="#2576B9"/>
<path d="M16.6383 3.14736C17.0758 3.20118 17.4871 3.38069 17.8203 3.66317C18.1535 3.94566 18.3935 4.31843 18.51 4.73435C18.6266 5.15027 18.6144 5.59064 18.475 5.99977C18.3356 6.4089 18.0752 6.76841 17.7269 7.03283C17.3786 7.29725 16.9579 7.4547 16.5181 7.48527C16.0783 7.51583 15.639 7.41814 15.256 7.20455C14.8729 6.99096 14.5632 6.67106 14.3661 6.28532C14.1689 5.89958 14.0932 5.46532 14.1484 5.03747C14.1828 4.75255 14.2748 4.47717 14.419 4.22736C14.5633 3.97755 14.7569 3.75831 14.9886 3.5824C15.2203 3.40649 15.4855 3.27744 15.7688 3.20275C16.052 3.12806 16.3476 3.10923 16.6383 3.14736Z" fill="#2576B9"/>
<path d="M7.7842 12.8001C7.78598 13.0526 7.71106 13.2999 7.56893 13.5107C7.4268 13.7215 7.22387 13.8862 6.98587 13.9841C6.74787 14.0819 6.48553 14.1084 6.23211 14.0602C5.97869 14.012 5.74561 13.8913 5.56243 13.7134C5.37925 13.5355 5.25422 13.3084 5.2032 13.0608C5.15218 12.8133 5.17746 12.5566 5.27584 12.3231C5.37422 12.0897 5.54126 11.8901 5.75579 11.7496C5.97032 11.6092 6.22267 11.5342 6.48083 11.5342C6.82495 11.5342 7.15512 11.6673 7.39929 11.9044C7.64346 12.1416 7.78183 12.4636 7.7842 12.8001Z" fill="#2576B9"/>
<path d="M63.2718 20.5889H63.0022V17.4065C63.0045 16.7378 62.8719 16.0751 62.6119 15.4566C62.3518 14.8381 61.9695 14.2758 61.4868 13.8021C61.0041 13.3284 60.4306 12.9525 59.7991 12.6961C59.1675 12.4396 58.4905 12.3076 57.8067 12.3076C56.431 12.3099 55.1122 12.8448 54.1387 13.7954C53.1651 14.7459 52.6159 16.0347 52.6112 17.3801V20.5626H50.0943V17.4065C50.0991 16.0634 49.56 14.7731 48.5948 13.8176C47.6297 12.8621 46.317 12.3192 44.9437 12.3076C43.5674 12.3076 42.2472 12.8418 41.2731 13.7928C40.299 14.7438 39.7506 16.034 39.7482 17.3801V20.5626H37.1954V17.4329C37.1395 16.1161 36.5653 14.8713 35.5929 13.9589C34.6205 13.0465 33.325 12.5371 31.9774 12.5371C30.6299 12.5371 29.3344 13.0465 28.362 13.9589C27.3896 14.8713 26.8154 16.1161 26.7595 17.4329V20.5889H24.2696V17.4065C24.2719 16.7392 24.1399 16.078 23.881 15.4606C23.6221 14.8433 23.2414 14.2818 22.7606 13.8083C22.2798 13.3348 21.7084 12.9586 21.0789 12.7011C20.4495 12.4436 19.7743 12.3099 19.0921 12.3076C17.7172 12.3099 16.3994 12.8451 15.4273 13.7959C14.4551 14.7467 13.9079 16.0355 13.9055 17.3801V20.5626H13.4831C12.082 20.5719 10.7419 21.1239 9.75625 22.0978C8.77061 23.0716 8.21985 24.3879 8.22464 25.7582V34.0307C8.22481 34.8038 8.40261 35.5671 8.74489 36.264C9.08718 36.9609 9.5852 37.5737 10.2022 38.0571V67.6922C10.2117 70.662 11.424 73.5072 13.5737 75.6047C15.7234 77.7022 18.6353 78.8811 21.6718 78.8834H55.1819C58.2193 78.8811 61.1321 77.7024 63.2833 75.6052C65.4344 73.5079 66.6487 70.6628 66.6606 67.6922V37.9955C67.2545 37.511 67.7323 36.9047 68.06 36.2195C68.3878 35.5344 68.5575 34.7871 68.5572 34.0307V25.7582C68.5548 24.3879 67.9972 23.0745 67.0065 22.1055C66.0159 21.1366 64.6729 20.5913 63.2718 20.5889ZM55.7303 17.4065C55.7326 16.8694 55.9524 16.3552 56.3416 15.9762C56.7307 15.5973 57.2575 15.3845 57.8067 15.3845C58.3558 15.3845 58.8826 15.5973 59.2717 15.9762C59.6609 16.3552 59.8807 16.8694 59.8831 17.4065V25.3186C59.8831 25.8572 59.6643 26.3737 59.2749 26.7546C58.8855 27.1354 58.3574 27.3494 57.8067 27.3494C57.2575 27.3494 56.7307 27.1366 56.3416 26.7577C55.9524 26.3787 55.7326 25.8645 55.7303 25.3274V17.4065ZM42.8314 17.4065C42.8314 17.1402 42.8851 16.8766 42.9896 16.6307C43.0941 16.3848 43.2472 16.1615 43.4401 15.9736C43.633 15.7858 43.862 15.637 44.1139 15.5359C44.3657 15.4348 44.6355 15.3834 44.9078 15.3845C45.18 15.3834 45.4498 15.4348 45.7017 15.5359C45.9536 15.637 46.1826 15.7858 46.3755 15.9736C46.5684 16.1615 46.7215 16.3848 46.826 16.6307C46.9304 16.8766 46.9842 17.1402 46.9842 17.4065V25.3186C46.989 25.8534 46.777 26.3682 46.3946 26.7505C46.0122 27.1327 45.4905 27.3512 44.9437 27.3582C44.6707 27.3593 44.4002 27.3076 44.1477 27.206C43.8953 27.1043 43.6659 26.9548 43.4728 26.766C43.2798 26.5772 43.1269 26.3528 43.023 26.1059C42.919 25.859 42.8661 25.5944 42.8673 25.3274L42.8314 17.4065ZM29.9235 17.4065C29.9584 16.8853 30.1947 16.3966 30.5845 16.0395C30.9743 15.6825 31.4883 15.4838 32.0224 15.4838C32.5564 15.4838 33.0705 15.6825 33.4603 16.0395C33.8501 16.3966 34.0864 16.8853 34.1213 17.4065V25.3186C34.0864 25.8398 33.8501 26.3285 33.4603 26.6856C33.0705 27.0427 32.5564 27.2413 32.0224 27.2413C31.4883 27.2413 30.9743 27.0427 30.5845 26.6856C30.1947 26.3285 29.9584 25.8398 29.9235 25.3186V17.4065ZM17.0246 17.4065C17.0246 16.8703 17.2425 16.356 17.6302 15.9768C18.0179 15.5976 18.5437 15.3845 19.0921 15.3845C19.6412 15.3845 20.168 15.5973 20.5571 15.9762C20.9463 16.3552 21.1661 16.8694 21.1685 17.4065V25.3186C21.1685 25.8572 20.9497 26.3737 20.5603 26.7546C20.1709 27.1354 19.6428 27.3494 19.0921 27.3494C18.8198 27.3494 18.5502 27.2968 18.2988 27.1946C18.0474 27.0925 17.8191 26.9427 17.627 26.754C17.4349 26.5654 17.2828 26.3414 17.1794 26.0951C17.0761 25.8488 17.0235 25.5849 17.0246 25.3186V17.4065ZM11.3887 25.7582C11.3884 25.2082 11.6067 24.6797 11.9975 24.2844C12.3884 23.889 12.9211 23.6577 13.4831 23.6395H13.8246V25.3274C13.827 26.6743 14.3752 27.9654 15.349 28.9179C16.3228 29.8703 17.6429 30.4064 19.0201 30.4087C19.707 30.4157 20.3884 30.2894 21.0249 30.0372C21.6615 29.7849 22.2407 29.4118 22.7288 28.9392C23.217 28.4667 23.6045 27.9042 23.869 27.2842C24.1335 26.6642 24.2696 25.9991 24.2696 25.3274V23.6395H26.7415V25.3098C26.7974 26.6266 27.3716 27.8714 28.344 28.7838C29.3165 29.6962 30.6119 30.2057 31.9595 30.2057C33.3071 30.2057 34.6025 29.6962 35.5749 28.7838C36.5474 27.8714 37.1216 26.6266 37.1774 25.3098V23.6395H39.6494V25.3274C39.6494 26.675 40.1967 27.9675 41.1711 28.9204C42.1454 29.8734 43.4669 30.4087 44.8449 30.4087C46.2228 30.4087 47.5443 29.8734 48.5186 28.9204C49.493 27.9675 50.0404 26.675 50.0404 25.3274V23.6395H52.5123V25.3274C52.5123 26.675 53.0597 27.9675 54.034 28.9204C55.0084 29.8734 56.3298 30.4087 57.7078 30.4087C59.0857 30.4087 60.4072 29.8734 61.3816 28.9204C62.3559 27.9675 62.9033 26.675 62.9033 25.3274V23.6395H63.173C63.4656 23.6264 63.758 23.6715 64.0324 23.7721C64.3067 23.8727 64.5573 24.0267 64.7691 24.2248C64.9808 24.4228 65.1493 24.6608 65.2643 24.9244C65.3793 25.188 65.4384 25.4716 65.4381 25.7582V34.0307C65.4381 34.5926 65.2099 35.1315 64.8036 35.5288C64.3974 35.9262 63.8464 36.1494 63.2718 36.1494H13.4831C12.9085 36.1494 12.3575 35.9262 11.9513 35.5288C11.545 35.1315 11.3168 34.5926 11.3168 34.0307L11.3887 25.7582ZM63.5415 67.6922C63.5367 69.8584 62.6542 71.9343 61.0872 73.4652C59.5203 74.996 57.3967 75.8569 55.1819 75.8593H21.6718C19.4579 75.8569 17.3352 74.9957 15.7697 73.4646C14.2042 71.9335 13.3236 69.8576 13.3213 67.6922V39.1911H63.5415V67.6922Z" fill="#2576B9"/>
<path d="M39.1372 45.2659H35.0563C34.6379 45.2659 34.2367 45.4284 33.9408 45.7178C33.645 46.0071 33.4788 46.3995 33.4788 46.8087C33.4788 47.2179 33.645 47.6103 33.9408 47.8997C34.2367 48.189 34.6379 48.3516 35.0563 48.3516H37.5731V65.4065C37.5568 65.6166 37.585 65.8276 37.656 66.0265C37.727 66.2254 37.8392 66.4078 37.9856 66.5623C38.132 66.7168 38.3095 66.84 38.5069 66.9243C38.7043 67.0086 38.9173 67.0521 39.1327 67.0521C39.3481 67.0521 39.5611 67.0086 39.7585 66.9243C39.9559 66.84 40.1334 66.7168 40.2798 66.5623C40.4262 66.4078 40.5384 66.2254 40.6094 66.0265C40.6803 65.8276 40.7086 65.6166 40.6922 65.4065V46.7955C40.6934 46.5951 40.6541 46.3964 40.5765 46.2108C40.4988 46.0253 40.3845 45.8566 40.24 45.7144C40.0955 45.5723 39.9236 45.4595 39.7344 45.3825C39.5451 45.3055 39.3422 45.2659 39.1372 45.2659Z" fill="#2576B9"/>
</svg>
